<svg width="1548" height="943" viewBox="0 0 1548 943" fill="none" xmlns="http://www.w3.org/2000/svg">
<g clip-path="url(#clip0_500_2690)">
<path d="M368.957 907.316L59.8067 540.964C61.2945 539.478 62.4847 537.991 63.6748 536.207L374.313 904.045C372.528 905.235 370.742 906.127 368.957 907.316Z" fill="white"/>
<path d="M187.156 936.161L0.297546 714.922C0 711.651 0.297546 708.38 0 704.812L196.975 938.242C194 937.647 190.429 937.35 187.156 936.161Z" fill="white"/>
<path d="M351.402 916.832L47.0123 556.427C48.5 554.94 49.6902 553.454 51.1779 551.372L357.055 913.858C354.972 915.048 353.187 916.237 351.402 916.832Z" fill="white"/>
<path d="M477.264 760.716L222.267 458.892C224.647 458.595 227.325 458.297 230.003 458.297L479.347 753.579C478.752 756.256 478.156 758.635 477.264 760.716Z" fill="white"/>
<path d="M38.9785 568.024L338.607 923.076C336.525 923.671 334.442 924.563 332.656 925.753L35.7055 573.674C36.8957 571.593 38.0859 570.106 38.9785 568.024Z" fill="white"/>
<path d="M400.794 884.122L88.3712 513.607C89.8589 512.12 91.3466 510.931 92.8344 509.741L405.555 879.959C403.77 881.446 402.58 882.932 400.794 884.122Z" fill="white"/>
<path d="M385.322 896.017L73.1963 526.394C74.684 525.501 76.1718 523.717 77.6595 522.23L390.083 892.448C388.595 893.935 387.107 894.827 385.322 896.017Z" fill="white"/>
<path d="M452.27 578.73L398.414 514.796C419.54 532.638 437.988 554.346 452.27 578.73Z" fill="white"/>
<path d="M357.055 486.844L472.801 623.929C474.288 628.687 475.479 633.444 476.966 638.797L343.071 479.708C347.831 481.789 352.592 483.871 357.055 486.844Z" fill="white"/>
<path d="M28.5644 585.866L318.969 930.511C316.887 931.105 314.804 931.403 312.721 932.295L25.2914 591.813C26.4816 590.029 27.3742 587.948 28.5644 585.866Z" fill="white"/>
<path d="M2.97546 739.306L163.948 929.916C160.08 928.429 156.212 926.942 152.344 925.753L5.35583 751.498C4.46319 747.335 3.57055 743.172 2.97546 739.306Z" fill="white"/>
<path d="M316.886 469.3L482.62 666.154C482.917 669.723 483.512 673.291 484.107 677.157L306.175 466.326C309.745 467.516 313.316 468.408 316.886 469.3Z" fill="white"/>
<path d="M16.6626 612.034C17.5552 609.953 18.4479 607.574 19.3405 605.492L298.439 936.161C296.058 936.458 293.975 937.053 291.595 937.35L16.6626 612.034Z" fill="white"/>
<path d="M470.123 783.613L199.058 461.568C201.736 461.271 204.117 460.974 206.199 460.676L472.801 776.476C471.908 778.558 471.313 780.937 470.123 783.613Z" fill="white"/>
<path d="M275.23 460.082C278.206 460.676 281.181 461.271 284.454 461.568L485 699.162C485 700.946 485 701.838 485 703.325C485 705.109 485 706.893 485 708.975L275.23 460.082Z" fill="white"/>
<path d="M482.322 736.332L247.558 458.297C250.236 458 252.914 458 255.89 458L483.512 728.006C483.215 730.98 482.917 733.656 482.322 736.332Z" fill="white"/>
<path d="M451.972 822.27L157.402 473.166C159.485 472.571 161.567 471.679 163.65 471.084L455.245 816.62C454.055 818.999 453.163 820.784 451.972 822.27Z" fill="white"/>
<path d="M461.791 803.536L177.635 466.624C179.718 466.029 181.801 465.731 184.181 464.839L464.469 797.589C463.874 799.373 462.684 801.455 461.791 803.536Z" fill="white"/>
<path d="M14.5798 783.316L122.291 910.885C116.638 907.911 110.687 904.045 105.034 900.477L22.0184 801.752C19.3405 795.508 16.6626 789.263 14.5798 783.316Z" fill="white"/>
<path d="M415.077 870.443L103.546 501.415C105.331 500.523 107.117 499.333 108.902 498.144L419.54 865.983C418.052 867.767 416.862 869.254 415.077 870.443Z" fill="white"/>
<path d="M268.684 941.216L9.22393 633.742C9.81902 631.363 10.4141 628.984 11.0092 626.605L275.825 940.324C273.742 940.621 271.362 940.919 268.684 941.216Z" fill="white"/>
<path d="M428.466 855.575L120.506 490.71C122.291 489.521 124.077 488.926 125.862 487.736L432.632 851.115C431.144 852.601 429.954 854.088 428.466 855.575Z" fill="white"/>
<path d="M217.209 941.513L0.595093 684.294C0.892639 681.32 0.892639 678.644 1.19018 675.968L226.135 942.108C223.16 942.108 220.184 941.513 217.209 941.513Z" fill="white"/>
<path d="M244.285 943L3.57055 658.126C4.16564 655.449 4.76074 652.476 5.05828 650.097L252.319 942.703C249.344 942.703 246.963 942.405 244.285 943Z" fill="white"/>
<path d="M440.963 839.815L138.359 481.492C140.442 480.302 142.227 479.708 144.31 478.518L444.534 834.165C443.344 836.246 442.153 838.328 440.963 839.815Z" fill="white"/>
</g>
<g clip-path="url(#clip1_500_2690)">
<path d="M1467.61 777.279L1253.43 523.476C1254.46 522.446 1255.29 521.416 1256.11 520.18L1471.32 775.013C1470.08 775.837 1468.84 776.455 1467.61 777.279Z" fill="#FFBC3A"/>
<path d="M1341.66 797.262L1212.21 643.991C1212 641.725 1212.21 639.459 1212 636.987L1348.46 798.704C1346.4 798.292 1343.93 798.086 1341.66 797.262Z" fill="#FFBC3A"/>
<path d="M1455.45 783.871L1244.57 534.189C1245.6 533.159 1246.42 532.129 1247.46 530.687L1459.36 781.811C1457.92 782.635 1456.68 783.459 1455.45 783.871Z" fill="#FFBC3A"/>
<path d="M1542.64 675.717L1365.98 466.618C1367.63 466.412 1369.49 466.206 1371.34 466.206L1544.08 670.773C1543.67 672.627 1543.26 674.275 1542.64 675.717Z" fill="#FFBC3A"/>
<path d="M1239 542.223L1446.58 788.197C1445.14 788.609 1443.7 789.227 1442.46 790.051L1236.74 546.137C1237.56 544.695 1238.39 543.665 1239 542.223Z" fill="#FFBC3A"/>
<path d="M1489.66 761.21L1273.22 504.524C1274.25 503.494 1275.28 502.669 1276.31 501.845L1492.96 758.326C1491.73 759.356 1490.9 760.386 1489.66 761.21Z" fill="#FFBC3A"/>
<path d="M1478.94 769.451L1262.71 513.382C1263.74 512.764 1264.77 511.528 1265.8 510.498L1482.24 766.978C1481.21 768.009 1480.18 768.627 1478.94 769.451Z" fill="#FFBC3A"/>
<path d="M1525.33 549.639L1488.01 505.348C1502.65 517.708 1515.43 532.747 1525.33 549.639Z" fill="#FFBC3A"/>
<path d="M1459.36 485.983L1539.55 580.953C1540.58 584.249 1541.4 587.545 1542.43 591.253L1449.67 481.039C1452.97 482.481 1456.27 483.923 1459.36 485.983Z" fill="#FFBC3A"/>
<path d="M1231.79 554.584L1432.98 793.348C1431.53 793.76 1430.09 793.966 1428.65 794.584L1229.52 558.704C1230.35 557.468 1230.96 556.026 1231.79 554.584Z" fill="#FFBC3A"/>
<path d="M1214.06 660.884L1325.58 792.936C1322.9 791.905 1320.22 790.875 1317.54 790.051L1215.71 669.33C1215.09 666.446 1214.47 663.562 1214.06 660.884Z" fill="#FFBC3A"/>
<path d="M1431.53 473.828L1546.35 610.206C1546.56 612.678 1546.97 615.15 1547.38 617.828L1424.11 471.768C1426.59 472.592 1429.06 473.21 1431.53 473.828Z" fill="#FFBC3A"/>
<path d="M1223.54 572.712C1224.16 571.27 1224.78 569.622 1225.4 568.18L1418.75 797.262C1417.1 797.468 1415.66 797.88 1414.01 798.086L1223.54 572.712Z" fill="#FFBC3A"/>
<path d="M1537.69 691.579L1349.9 468.472C1351.76 468.266 1353.41 468.06 1354.85 467.854L1539.55 686.635C1538.93 688.077 1538.52 689.725 1537.69 691.579Z" fill="#FFBC3A"/>
<path d="M1402.67 467.442C1404.74 467.854 1406.8 468.266 1409.06 468.472L1548 633.073C1548 634.309 1548 634.927 1548 635.957C1548 637.193 1548 638.429 1548 639.871L1402.67 467.442Z" fill="#FFBC3A"/>
<path d="M1546.14 658.824L1383.5 466.206C1385.36 466 1387.21 466 1389.28 466L1546.97 653.056C1546.76 655.116 1546.56 656.97 1546.14 658.824Z" fill="#FFBC3A"/>
<path d="M1525.12 718.361L1321.05 476.507C1322.49 476.094 1323.93 475.476 1325.37 475.064L1527.39 714.446C1526.56 716.095 1525.94 717.331 1525.12 718.361Z" fill="#FFBC3A"/>
<path d="M1531.92 705.382L1335.06 471.974C1336.51 471.562 1337.95 471.356 1339.6 470.738L1533.78 701.262C1533.36 702.498 1532.54 703.94 1531.92 705.382Z" fill="#FFBC3A"/>
<path d="M1222.1 691.373L1296.72 779.751C1292.8 777.691 1288.68 775.013 1284.77 772.541L1227.25 704.146C1225.4 699.82 1223.54 695.493 1222.1 691.373Z" fill="#FFBC3A"/>
<path d="M1499.56 751.734L1283.73 496.077C1284.97 495.459 1286.21 494.635 1287.45 493.811L1502.65 748.644C1501.62 749.88 1500.8 750.91 1499.56 751.734Z" fill="#FFBC3A"/>
<path d="M1398.14 800.764L1218.39 587.751C1218.8 586.103 1219.21 584.455 1219.63 582.807L1403.09 800.146C1401.64 800.352 1400 800.558 1398.14 800.764Z" fill="#FFBC3A"/>
<path d="M1508.83 741.433L1295.48 488.661C1296.72 487.837 1297.96 487.425 1299.2 486.601L1511.72 738.343C1510.69 739.373 1509.87 740.403 1508.83 741.433Z" fill="#FFBC3A"/>
<path d="M1362.48 800.97L1212.41 622.773C1212.62 620.713 1212.62 618.858 1212.82 617.004L1368.66 801.382C1366.6 801.382 1364.54 800.97 1362.48 800.97Z" fill="#FFBC3A"/>
<path d="M1381.24 802L1214.47 604.644C1214.89 602.79 1215.3 600.73 1215.5 599.082L1386.8 801.794C1384.74 801.794 1383.09 801.588 1381.24 802Z" fill="#FFBC3A"/>
<path d="M1517.49 730.515L1307.85 482.275C1309.3 481.451 1310.53 481.039 1311.98 480.215L1519.97 726.601C1519.14 728.043 1518.32 729.485 1517.49 730.515Z" fill="#FFBC3A"/>
</g>
<g clip-path="url(#clip2_500_2690)">
<path d="M984.16 251.061L811.418 46.3575C812.249 45.5267 812.914 44.6959 813.579 43.699L987.152 249.234C986.155 249.898 985.157 250.397 984.16 251.061Z" fill="#AB0C0C"/>
<path d="M882.576 267.178L778.166 143.558C778 141.731 778.166 139.903 778 137.909L888.063 268.341C886.4 268.009 884.405 267.843 882.576 267.178Z" fill="#AB0C0C"/>
<path d="M974.35 256.378L804.269 54.9975C805.1 54.1667 805.765 53.3359 806.596 52.1729L977.509 254.717C976.345 255.381 975.348 256.046 974.35 256.378Z" fill="#AB0C0C"/>
<path d="M1044.68 169.147L902.194 0.498571C903.525 0.332416 905.021 0.16626 906.517 0.16626L1045.84 165.159C1045.51 166.654 1045.18 167.984 1044.68 169.147Z" fill="#AB0C0C"/>
<path d="M799.78 61.4775L967.201 259.867C966.037 260.2 964.874 260.698 963.876 261.363L797.951 64.6345C798.616 63.4714 799.281 62.6406 799.78 61.4775Z" fill="#AB0C0C"/>
<path d="M1001.95 238.101L827.379 31.0712C828.21 30.2404 829.041 29.5758 829.872 28.9111L1004.61 235.775C1003.61 236.606 1002.95 237.437 1001.95 238.101Z" fill="#AB0C0C"/>
<path d="M993.304 244.747L818.899 38.2158C819.731 37.7174 820.562 36.7204 821.393 35.8896L995.964 242.754C995.133 243.584 994.301 244.083 993.304 244.747Z" fill="#AB0C0C"/>
<path d="M1030.71 67.4593L1000.62 31.7358C1012.42 41.7052 1022.73 53.8345 1030.71 67.4593Z" fill="#AB0C0C"/>
<path d="M977.509 16.1171L1042.18 92.7149C1043.01 95.3734 1043.68 98.0319 1044.51 101.023L969.695 12.1294C972.355 13.2925 975.015 14.4556 977.509 16.1171Z" fill="#AB0C0C"/>
<path d="M793.961 71.447L956.228 264.021C955.064 264.354 953.901 264.52 952.737 265.018L792.132 74.7701C792.797 73.7732 793.296 72.6101 793.961 71.447Z" fill="#AB0C0C"/>
<path d="M779.663 157.183L869.608 263.689C867.447 262.858 865.285 262.028 863.124 261.363L780.993 163.996C780.494 161.67 779.995 159.343 779.663 157.183Z" fill="#AB0C0C"/>
<path d="M955.064 6.3139L1047.67 116.309C1047.84 118.303 1048.17 120.297 1048.5 122.457L949.079 4.65234C951.074 5.31697 953.069 5.81543 955.064 6.3139Z" fill="#AB0C0C"/>
<path d="M787.31 86.0688C787.809 84.9057 788.308 83.5764 788.807 82.4133L944.756 267.179C943.426 267.345 942.263 267.677 940.933 267.843L787.31 86.0688Z" fill="#AB0C0C"/>
<path d="M1040.69 181.94L889.226 1.99383C890.723 1.82767 892.053 1.66152 893.217 1.49536L1042.18 177.953C1041.68 179.116 1041.35 180.445 1040.69 181.94Z" fill="#AB0C0C"/>
<path d="M931.788 1.16309C933.451 1.4954 935.113 1.82771 936.942 1.99386L1049 134.752C1049 135.749 1049 136.248 1049 137.078C1049 138.075 1049 139.072 1049 140.235L931.788 1.16309Z" fill="#AB0C0C"/>
<path d="M1047.5 155.522L916.326 0.166156C917.823 0 919.319 0 920.982 0L1048.17 150.869C1048 152.531 1047.84 154.026 1047.5 155.522Z" fill="#AB0C0C"/>
<path d="M1030.55 203.541L865.95 8.47388C867.114 8.14157 868.278 7.6431 869.442 7.31079L1032.37 200.384C1031.71 201.713 1031.21 202.71 1030.55 203.541Z" fill="#AB0C0C"/>
<path d="M1036.03 193.073L877.256 4.81847C878.42 4.48616 879.583 4.32 880.914 3.82153L1037.53 189.75C1037.2 190.747 1036.53 191.91 1036.03 193.073Z" fill="#AB0C0C"/>
<path d="M786.147 181.774L846.332 253.055C843.173 251.394 839.848 249.234 836.689 247.24L790.303 192.076C788.807 188.587 787.31 185.098 786.147 181.774Z" fill="#AB0C0C"/>
<path d="M1009.93 230.458L835.858 24.2586C836.855 23.7602 837.853 23.0955 838.85 22.4309L1012.42 227.966C1011.59 228.962 1010.93 229.793 1009.93 230.458Z" fill="#AB0C0C"/>
<path d="M928.131 270.003L783.154 98.1979C783.487 96.8687 783.819 95.5395 784.152 94.2102L932.121 269.504C930.957 269.671 929.627 269.837 928.131 270.003Z" fill="#AB0C0C"/>
<path d="M1017.41 222.15L845.334 18.277C846.332 17.6124 847.329 17.2801 848.327 16.6155L1019.74 219.658C1018.91 220.489 1018.24 221.319 1017.41 222.15Z" fill="#AB0C0C"/>
<path d="M899.368 270.169L778.333 126.445C778.499 124.783 778.499 123.288 778.665 121.792L904.356 270.502C902.693 270.502 901.031 270.169 899.368 270.169Z" fill="#AB0C0C"/>
<path d="M914.498 271L779.995 111.823C780.328 110.327 780.66 108.666 780.826 107.337L918.987 270.834C917.324 270.834 915.994 270.668 914.498 271Z" fill="#AB0C0C"/>
<path d="M1024.39 213.344L855.31 13.1264C856.474 12.4618 857.471 12.1295 858.635 11.4648L1026.39 210.187C1025.72 211.35 1025.06 212.513 1024.39 213.344Z" fill="#AB0C0C"/>
</g>
<defs>
<clipPath id="clip0_500_2690">
<rect width="485" height="485" fill="white" transform="translate(0 458)"/>
</clipPath>
<clipPath id="clip1_500_2690">
<rect width="336" height="336" fill="white" transform="translate(1212 466)"/>
</clipPath>
<clipPath id="clip2_500_2690">
<rect width="271" height="271" fill="white" transform="translate(778)"/>
</clipPath>
</defs>
</svg>
