<?xml version="1.0" encoding="utf-8"?>
<!-- Generator: Adobe Illustrator 21.1.0, SVG Export Plug-In . SVG Version: 6.00 Build 0)  -->
<svg version="1.1" id="圖層_1" xmlns="http://www.w3.org/2000/svg" xmlns:xlink="http://www.w3.org/1999/xlink" x="0px" y="0px"
	 viewBox="0 0 293 293" style="enable-background:new 0 0 293 293;" xml:space="preserve">
<style type="text/css">
	.st0{clip-path:url(#SVGID_2_);}
	.st1{fill:#FF7D40;}
</style>
<g>
	<defs>
		<rect id="SVGID_1_" width="293" height="293"/>
	</defs>
	<clipPath id="SVGID_2_">
		<use xlink:href="#SVGID_1_"  style="overflow:visible;"/>
	</clipPath>
	<g class="st0">
		<path class="st1" d="M222.9,271.4L36.1,50.1c0.9-0.9,1.6-1.8,2.3-2.9l187.7,222.2C225.1,270.2,224,270.7,222.9,271.4z"/>
		<path class="st1" d="M113.1,288.9L0.2,155.2c-0.2-2,0-4-0.2-6.1l119,141C117.2,289.8,115,289.6,113.1,288.9z"/>
		<path class="st1" d="M212.3,277.2L28.4,59.5c0.9-0.9,1.6-1.8,2.5-3.1l184.8,219C214.4,276.1,213.4,276.8,212.3,277.2z"/>
		<path class="st1" d="M288.3,182.9L134.3,0.5c1.4-0.2,3.1-0.4,4.7-0.4l150.6,178.4C289.2,180.2,288.9,181.6,288.3,182.9z"/>
		<path class="st1" d="M23.5,66.5l181,214.5c-1.3,0.4-2.5,0.9-3.6,1.6L21.6,69.9C22.3,68.6,23,67.7,23.5,66.5z"/>
		<path class="st1" d="M242.1,257.4L53.4,33.6c0.9-0.9,1.8-1.6,2.7-2.3L245,254.9C243.9,255.8,243.2,256.7,242.1,257.4z"/>
		<path class="st1" d="M232.8,264.6L44.2,41.3c0.9-0.5,1.8-1.6,2.7-2.5l188.7,223.7C234.8,263.4,233.9,263.9,232.8,264.6z"/>
		<path class="st1" d="M273.2,72.9l-32.5-38.6C253.5,45.1,264.6,58.2,273.2,72.9z"/>
		<path class="st1" d="M215.7,17.4l69.9,82.8c0.9,2.9,1.6,5.7,2.5,9l-80.9-96.1C210.1,14.4,213,15.6,215.7,17.4z"/>
		<path class="st1" d="M17.3,77.2l175.4,208.2c-1.3,0.4-2.5,0.5-3.8,1.1L15.3,80.8C16,79.8,16.5,78.5,17.3,77.2z"/>
		<path class="st1" d="M1.8,169.9L99,285.1c-2.3-0.9-4.7-1.8-7-2.5L3.2,177.3C2.7,174.8,2.2,172.3,1.8,169.9z"/>
		<path class="st1" d="M191.4,6.8l100.1,118.9c0.2,2.2,0.5,4.3,0.9,6.6L185,5C187.1,5.7,189.3,6.3,191.4,6.8z"/>
		<path class="st1" d="M10.1,93.1c0.5-1.3,1.1-2.7,1.6-4l168.6,199.8c-1.4,0.2-2.7,0.5-4.1,0.7L10.1,93.1z"/>
		<path class="st1" d="M284,196.7L120.3,2.2c1.6-0.2,3.1-0.4,4.3-0.5l161.1,190.8C285.1,193.7,284.7,195.1,284,196.7z"/>
		<path class="st1" d="M166.3,1.3c1.8,0.4,3.6,0.7,5.6,0.9L293,145.7c0,1.1,0,1.6,0,2.5c0,1.1,0,2.2,0,3.4L166.3,1.3z"/>
		<path class="st1" d="M291.4,168.1L149.6,0.2c1.6-0.2,3.2-0.2,5-0.2l137.5,163.1C291.9,164.9,291.7,166.5,291.4,168.1z"/>
		<path class="st1" d="M273,220.1L95.1,9.2c1.3-0.4,2.5-0.9,3.8-1.3L275,216.7C274.3,218.1,273.8,219.2,273,220.1z"/>
		<path class="st1" d="M279,208.7L107.3,5.2c1.3-0.4,2.5-0.5,4-1.1l169.3,201C280.2,206.2,279.5,207.5,279,208.7z"/>
		<path class="st1" d="M8.8,196.5l65.1,77.1c-3.4-1.8-7-4.1-10.4-6.3l-50.2-59.6C11.7,203.9,10.1,200.1,8.8,196.5z"/>
		<path class="st1" d="M250.8,249.2L62.6,26.2c1.1-0.5,2.2-1.3,3.2-2l187.7,222.2C252.6,247.6,251.8,248.4,250.8,249.2z"/>
		<path class="st1" d="M162.3,291.9L5.6,106.2c0.4-1.4,0.7-2.9,1.1-4.3l160,189.5C165.4,291.6,163.9,291.7,162.3,291.9z"/>
		<path class="st1" d="M258.8,240.2L72.8,19.8C73.9,19,75,18.7,76,18l185.3,219.5C260.5,238.4,259.7,239.3,258.8,240.2z"/>
		<path class="st1" d="M131.2,292.1L0.4,136.7c0.2-1.8,0.2-3.4,0.4-5l135.9,160.8C134.8,292.5,133,292.1,131.2,292.1z"/>
		<path class="st1" d="M147.6,293L2.2,120.9c0.4-1.6,0.7-3.4,0.9-4.9l149.4,176.8C150.6,292.8,149.2,292.6,147.6,293z"/>
		<path class="st1" d="M266.4,230.7L83.6,14.2c1.3-0.7,2.3-1.1,3.6-1.8l181.4,214.9C267.8,228.5,267.1,229.8,266.4,230.7z"/>
	</g>
</g>
</svg>
