<svg width="293" height="293" viewBox="0 0 293 293" fill="none" xmlns="http://www.w3.org/2000/svg">
<g clip-path="url(#clip0_247_3187)">
<path d="M222.896 271.443L36.1307 50.1209C37.0294 49.2227 37.7485 48.3244 38.4675 47.2466L226.131 269.467C225.053 270.185 223.974 270.724 222.896 271.443Z" fill="#FFBC3A"/>
<path d="M113.066 288.868L0.179755 155.213C0 153.237 0.179755 151.261 0 149.105L118.998 290.126C117.2 289.767 115.043 289.587 113.066 288.868Z" fill="#FFBC3A"/>
<path d="M212.29 277.191L28.4012 59.4622C29.3 58.5639 30.019 57.6657 30.9178 56.4082L215.705 275.395C214.447 276.113 213.369 276.832 212.29 277.191Z" fill="#FFBC3A"/>
<path d="M288.326 182.878L134.277 0.538976C135.715 0.359332 137.333 0.179688 138.95 0.179688L289.585 178.567C289.225 180.183 288.866 181.621 288.326 182.878Z" fill="#FFBC3A"/>
<path d="M23.5479 66.4683L204.561 280.964C203.302 281.323 202.044 281.862 200.966 282.58L21.5706 69.8815C22.2896 68.624 23.0086 67.7258 23.5479 66.4683Z" fill="#FFBC3A"/>
<path d="M242.129 257.431L53.3871 33.5937C54.2859 32.6955 55.1847 31.9769 56.0834 31.2583L245.006 254.916C243.927 255.814 243.208 256.712 242.129 257.431Z" fill="#FFBC3A"/>
<path d="M232.782 264.616L44.2196 41.3182C45.1184 40.7793 46.0172 39.7014 46.916 38.8032L235.658 262.461C234.76 263.359 233.861 263.898 232.782 264.616Z" fill="#FFBC3A"/>
<path d="M273.227 72.9355L240.691 34.312C253.454 45.0907 264.599 58.2047 273.227 72.9355Z" fill="#FFBC3A"/>
<path d="M215.706 17.4257L285.63 100.242C286.529 103.116 287.248 105.99 288.147 109.224L207.257 13.1143C210.133 14.3718 213.009 15.6293 215.706 17.4257Z" fill="#FFBC3A"/>
<path d="M17.2564 77.2471L192.697 285.455C191.439 285.814 190.18 285.994 188.922 286.533L15.2791 80.84C15.9982 79.7621 16.5374 78.5046 17.2564 77.2471Z" fill="#FFBC3A"/>
<path d="M1.79755 169.943L99.0448 285.095C96.708 284.197 94.3712 283.299 92.0344 282.58L3.23558 177.309C2.69632 174.794 2.15706 172.279 1.79755 169.943Z" fill="#FFBC3A"/>
<path d="M191.439 6.82672L291.562 125.751C291.742 127.907 292.101 130.063 292.461 132.398L184.967 5.03027C187.125 5.74885 189.282 6.28778 191.439 6.82672Z" fill="#FFBC3A"/>
<path d="M10.0663 93.0557C10.6055 91.7982 11.1448 90.361 11.684 89.1035L180.294 288.868C178.856 289.048 177.598 289.407 176.16 289.587L10.0663 93.0557Z" fill="#FFBC3A"/>
<path d="M284.012 196.71L120.256 2.15563C121.874 1.97599 123.312 1.79634 124.57 1.6167L285.63 192.399C285.091 193.657 284.731 195.094 284.012 196.71Z" fill="#FFBC3A"/>
<path d="M166.273 1.25732C168.071 1.61661 169.868 1.9759 171.845 2.15555L293 145.691C293 146.769 293 147.308 293 148.206C293 149.284 293 150.362 293 151.62L166.273 1.25732Z" fill="#FFBC3A"/>
<path d="M291.382 168.147L149.556 0.179644C151.174 0 152.791 0 154.589 0L292.101 163.117C291.921 164.914 291.742 166.53 291.382 168.147Z" fill="#FFBC3A"/>
<path d="M273.047 220.064L95.0902 9.16181C96.3485 8.80252 97.6067 8.26359 98.865 7.9043L275.025 216.651C274.306 218.088 273.766 219.166 273.047 220.064Z" fill="#FFBC3A"/>
<path d="M278.979 208.747L107.314 5.2097C108.572 4.85041 109.83 4.67077 111.268 4.13184L280.597 205.154C280.237 206.232 279.518 207.489 278.979 208.747Z" fill="#FFBC3A"/>
<path d="M8.80798 196.531L73.8791 273.598C70.4638 271.802 66.8687 269.466 63.4534 267.311L13.3018 207.669C11.6841 203.896 10.0663 200.124 8.80798 196.531Z" fill="#FFBC3A"/>
<path d="M250.758 249.167L62.5546 26.228C63.6331 25.6891 64.7116 24.9705 65.7902 24.252L253.454 246.472C252.555 247.55 251.836 248.448 250.758 249.167Z" fill="#FFBC3A"/>
<path d="M162.318 291.922L5.57239 106.17C5.9319 104.733 6.29141 103.296 6.65092 101.858L166.633 291.383C165.374 291.563 163.936 291.743 162.318 291.922Z" fill="#FFBC3A"/>
<path d="M258.847 240.184L72.8006 19.7608C73.8791 19.0422 74.9577 18.6829 76.0362 17.9644L261.363 237.49C260.464 238.388 259.745 239.286 258.847 240.184Z" fill="#FFBC3A"/>
<path d="M131.221 292.102L0.359512 136.709C0.539267 134.913 0.539267 133.296 0.719022 131.679L136.614 292.461C134.816 292.461 133.018 292.102 131.221 292.102Z" fill="#FFBC3A"/>
<path d="M147.579 293L2.15706 120.901C2.51657 119.284 2.87608 117.487 3.05583 116.05L152.432 292.82C150.634 292.82 149.196 292.641 147.579 293Z" fill="#FFBC3A"/>
<path d="M266.396 230.663L83.5859 14.192C84.8442 13.4734 85.9227 13.1141 87.181 12.3955L268.553 227.25C267.834 228.508 267.115 229.765 266.396 230.663Z" fill="#FFBC3A"/>
</g>
<defs>
<clipPath id="clip0_247_3187">
<rect width="293" height="293" fill="white"/>
</clipPath>
</defs>
</svg>
