<?xml version="1.0" encoding="utf-8"?>
<!-- Generator: Adobe Illustrator 21.1.0, SVG Export Plug-In . SVG Version: 6.00 Build 0)  -->
<svg version="1.1" id="圖層_1" xmlns="http://www.w3.org/2000/svg" xmlns:xlink="http://www.w3.org/1999/xlink" x="0px" y="0px"
	 viewBox="0 0 345 345" style="enable-background:new 0 0 345 345;" xml:space="preserve">
<g>
	<defs>
		<path id="SVGID_1_" d="M309.9,82.2c-2.7-3.8-5.3-7.5-7.9-11.1c-0.6-0.9-1.3-1.8-1.9-2.7c-0.7-0.8-1.4-1.7-2.1-2.5
			c-1.4-1.6-2.7-3.2-4-4.7c-1.7-0.8-4.7-6-7.2-6c-1.4-2-1.8-2.7-3.8-4c1.5-0.2-1.8-1.9-0.8-2.3c-1.7-1-2.7-3.3-3.9-3.3
			c1.8,2,3.4,2.7,3.3,4c-1.6-1.9-4-3.3-4.6-5.1c-1.6-1.2-5.1-2.7-5.8-4.4c-0.8,0.7-1.7-1.6-2.9-1.7c-0.4,0.2,0.2,0.8-0.4,0.5
			c-1.6-0.6-2.7-2.6-4-3.1c0.4,0.3,0.8,0.7,0.4,0.9c-1.1-0.6-0.8-1.1-1.9-1.7c-0.5,0.5,1.3,1.4,1.7,2.1c1.1,0,5,2.9,5.1,3.7
			c-1.4-0.6-2-0.5-2.8-1.9c-0.6,0.3,0.4,0.9,0.2,1.2c1.1,0.8,1.6,0.3,2.7,1.3c-0.6,0.3-1.4-0.1-2.1,0c1.2,1,1.4,0,2.5,0.8
			c0.1,0.6-1.4-0.2-0.5,0.7c0.2,0,0.4,0.1,0.6,0.2c-0.1,0.1-0.2,0.2-0.3,0.3c-0.2,0.3-0.3,0.5-0.5,0.8c-0.1-0.2,0-0.3,0.1-0.5
			c-1.1-0.6-1.2-0.8-1.8-1.7c-0.3,0.4,1,1.7,1.7,2.4c-0.3,0.6-0.6,1.1-1,1.6c0,0-0.2,0-0.3,0c-0.3-0.3-0.6-0.5-0.9-0.8
			c-0.3-0.4-0.5-0.7-1.1-0.7c-1-0.7-1.9-1.5-2-2.5c-1.5,0.2-5.6-3.5-6.2-4.8c-0.4,0.4-1.2,0.1-2.1-0.3c-0.2-0.3-0.3-0.5-0.4-0.8
			c-0.2-0.4-0.5-0.3-0.9,0c-0.6-0.5-1.1-1-1-1.1c-0.8-0.2-1.7-0.4-2.6-0.6c-0.4-0.3-0.9-0.6-1.3-1c0,0,0.1,0,0.1,0
			c-1.6-1-3.1-1.9-4.6-2.8c0,0-0.1,0-0.1,0c-3.4-2-7.1-3.7-10.8-5.1c-1.5-0.8-3-1.6-4.7-2.5c-0.1,0.4-0.5,0.4-1,0.3
			c-1-1.3-3.3-1.8-5.3-2.3c-0.9-0.8-1.9-1.4-3-1.9c0-0.1,0-0.2,0-0.3c-0.7-0.3-1-0.2-1.1-0.1c-0.3-0.1-0.6-0.2-1-0.3
			c-1.4-0.5-2.8-0.9-4.2-1.3c-1.4-0.4-2.8-0.8-4-1.4c-3.9-1.8-7.8-3.8-11.8-5.4c-4.1-1.5-8.4-2.6-12.8-2.2c-1-0.1-0.5,0.8-1.3,0.8
			c-3.1-0.6-6.9-0.7-10.7-0.8c-3.8,0.1-7.7,0-11.3,0.2c-5.1,0-10.1-0.9-15.3,0.1c-2.9,0.7-5.5,1.5-7.7,2.6c-2.2,1.1-4,2.5-5.4,4.2
			c-4.5,0.7-8.6,5.6-13.4,5.1c-0.7,0.6-0.3,1.5-1.9,1.9c-1.1,0.4-1.2-0.1-1.9-0.1c0.4,1.1,0.9,0.7,0.6,1.9c2.9-1.5,4.5-1.8,6.8-3.6
			c0.8-0.1,1.2,0.2,2.3-0.2c5.7-3.4,12.7-7.1,21.3-9.1c8.3-1.8,17-0.5,22.9-2.1c1.4,0.2,0.7,1.3,1.7,1.7c3.2-1,5.9,0.8,9.6,0.8
			c2.6,0.1,5.1-1.2,8.1-0.9c3,0.4,5.4,1.2,7.9,2.1c2.5,0.9,5,1.9,8.4,2.8c0.1,0.1,0.2,0.2,0.3,0.3c-1.5-0.2-2.7-0.6-5-0.8
			c0-0.5,1.2,0.1,1.3-0.3c-1.9-0.5-3.4-0.6-4.7-0.8c-1.3-0.2-2.5-0.6-3.9-1.4c0,1-2.2,0.3-2.6,1.1c2.1,0.4,4.9,1,5.7,2.3
			c-1.8,0.1-2.3-1.2-3.1-0.8c1.8,1.1,3.3,1.3,4.9,1.4c1.6,0.1,3.4,0.3,5.6,0.9c-0.1,0.3-0.3,0.4-0.5,0.5c1.4,0.8,3.2,0.7,4.7,0.8
			c0.4,0.2,0.9,0.4,1.3,0.6c-0.2,0-0.5,0-0.7,0.1c0.5,0.3,1.1,0.6,1.5,1c-0.3,0-0.5,0.1-0.6,0.1c0.4,0.1,0.8,0.2,1.1,0.3
			c0.2,0.2,0.4,0.4,0.4,0.7c-2.3,0.1-4.2,0.7-6,1.3c-0.4-0.2-0.8-0.4-1.2-0.7l-0.2,0.6c0.3,0,0.6,0.1,0.8,0.2
			c-0.3,0.1-0.5,0.2-0.8,0.3c-0.2,0-0.3-0.1-0.5-0.1c0.1-0.3-0.9-1.2-0.8-0.4c0.5,0.1,0.7,0.3,0.6,0.4c0,0,0,0,0,0
			c-0.7,0.2-1.5,0.4-2.1,0.2c-0.8-0.2-1.4-0.7-2.1-1c-1-0.4-2.6,0.7-2.5,1.7c0,0.4,0.1,0.7,0.1,1c-0.7,0-1.3,0.1-2.1,0.1
			c-0.4-1-1.1-1.9-2.1-2.6c-0.1-0.1-0.6,0.2-0.9,0.3c-0.1,0.1-0.2,0.3-0.2,0.4c0,0.1,0,0.1,0,0.2c-1,0.1-2,0.2-2.8-0.6
			c-0.1,0.4,0,0.7,0.2,0.9c0.8,0,1.6,0,2.7,0.2c0,0.1,0.1,0.1,0.1,0.1c0.5,0.1,0.9,0.4,1.3,0.7c-2.5-0.5-4.7-0.9-6.7-0.9
			c-0.5,0-0.9,0-1.3,0c0-0.1,0-0.1,0.1-0.2c-0.2-0.1-0.3-0.1-0.5-0.2c0,0.1-0.1,0.3-0.1,0.4c-1.4,0.1-2.7,0.2-3.8,0.4
			c-0.6-0.1-1.1-0.3-1.6-0.4c-0.5,0-1,0-1.6,0c-9-1.7-19.6-2.1-30.2-0.7c-11.6,1.5-22.8,4.9-31.4,9.1c-2.4,0.3-4.5,0.7-6.7,1.5
			c-2.2,0.8-4.4,1.7-6.8,3.3c-3.9-0.7-9,2-13.6,5.3c-1.2,0.8-2.3,1.6-3.4,2.4c-1.1,0.8-2.1,1.6-3.2,2.3c-2.1,1.4-3.9,2.4-5.6,2.8
			c-0.5,4.3-8.6,8.3-11.9,9.1c0.3,1.2-0.5,2.4-1.7,3.4c-1.2,1-2.8,2-4,2.6c-0.3-0.3,1-2.3-0.7-0.7c-0.9,0.7-0.5,1.1-0.8,1.6
			c-1.2,0.2-2.5,0.7-3.6,0.3c-1.6,1.3-1.3,2.1-2.9,3.4c-0.1-0.8-0.3-1.7,0.4-2.7c1.8-2.5,2.8-2.1,4.3-2.9c-0.6-0.5-1.5,0-0.5-1.3
			c1.9,1,2.3-2.9,4.6-2.5c-0.7,0.7-1.2,1.4-1.2,2c1.4-1.7,3.2-3.7,4.4-5.2c-0.5,0.4-1.2,0.8-0.6,0.1c-8.8,5-15.9,11.6-21.8,18.9
			c-5.9,7.4-10.8,15.6-15.2,24.5c-1.2,0.6-2.4,2.3-3.6,4c-1.8,5.6-3.5,9.4-0.9,12.1c2.6-6.2,4.1-11.5,9.8-20.8
			c1.9-1.5,3.8-2.3,5.7-1.7c-3.5,7.7-9.8,14.8-12,22.8c-0.3,1.1-0.1,1.8-0.4,2.8c-2.3,6.4-4,9.3-5.7,13.7c-3.2,8.4-4.4,18-5.8,26.9
			c-0.3,1.9-2,3.8-0.8,6c0.6-2.4,1.1-4.9,1.5-7.3c0.4-2.4,0.7-4.6,0.6-6.3c0.8-2.4,2-5.7,2.8-9.1c1.1-3.4,2-6.9,2.9-9.8
			c0.7-1.3,1.4-2.6,2-3.9c0.6-1.3,1.2-2.5,1.8-3.8c1.1-2.5,2.1-5,3.1-7.5c2.1-5.1,4.4-10.4,8.5-16.3c1.9,0.2,2.4-1.4,3.8-3.3
			c1.6,1.1,3.1,0.1,4.8-2c0.4-1.5-1.6,0-1.1-1.3c1.3-0.9,2.6-1.8,3.9-1.1c-0.8,1.1-1.5,2.5-2.3,2.8c1.6,0.5,3.1-2.3,4.7-1.2
			c-1.3,2.2-2.3,4.4-3.3,6.6c-0.9,2.3-1.7,4.5-2.5,6.7c-1.6,4.5-3.1,8.8-5.4,13c-1.3,0.8-2.8,1-4,2.1c0.9,1.5,3-1.6,4.4-1.4
			c-0.1,1.5-0.5,3.3-0.9,5.1c-0.1,0.5-0.2,1.1-0.3,1.6c-0.1,0.1-0.1,0.1-0.2,0.2c-1.2,1.2-2.4,2.6-2.1,4.4c0,0.3,0,0.6,0.1,0.9
			c-0.5,1.4-1,2.8-1.3,4.1c0,0.1-0.1,0.1-0.1,0.2c0,0.2,0,0.3-0.1,0.5c-0.1,0.3-0.1,0.5-0.2,0.8c-0.6,1.5-1.9,2.4-3.3,3.3
			c-0.5,0.3-0.6,0.8-0.4,1.3c0.1,0.3,0.1,0.7,0.1,1c-0.1,0.7,0,1.8-1.4,1.4c-0.7,0.6-0.7,1.5-0.5,2.3c0.3,1.5,0.1,2.7-1.3,3.5
			c-0.3,0.1-0.6,0.5-0.6,0.8c-0.3,1.6-1.4,3.2-0.9,4.9c0.3,1.1-0.6,1.4-1.2,1.9c0,0.3,0.2,0.7,0,0.8c-1.7,2-2.5,4.4-3,6.8
			c-0.3,1.3-0.5,2.6-1.4,3.8c-1.1,1.6-2.6,3.3-0.9,5.5c0.2,0.3,0,1-0.1,1.5c-0.2,0.8-0.4,1.7-0.7,2.5c-0.1,0.4,0,1.1-0.8,0.9
			c-0.5-0.2-1.4,0.1-1.3-1c0-0.3,0-0.7-0.2-1c-0.1-0.3-0.5-0.4-0.7-0.6c-0.1,0.2-0.2,0.3-0.2,0.5c-0.5,1.3-0.5,2.7,0.3,3.7
			c0.4,0.5,0.8,0.8,0.6,1.6c-0.3,1.1-0.4,2.3-1.6,3c-1.4,0.8,0.1,1,0.3,1.5c0.4,1.1,0.6,2.6,0.1,3.4c-0.5,0.9-0.7,1.8-0.8,2.6
			c-0.3-0.9-0.7-1.9-0.8-2.9c-1.3-6-0.3-14-1.5-19.9c1.7-2.1-0.5-1.7,0.8-5c-0.7-0.5-1.8-1.4-2.3-0.6c-0.4,0.1-0.5,0.6-0.7,1.1
			c0.7,3.4,0,6,0.9,9c-1.9,8.4-0.9,16.5,1.2,24.6c-0.2,0.1-0.3,0.3-0.6,0.4c0.2,0.3,0.5,0.4,0.8,0.4c0,0.2,0.1,0.3,0.1,0.5
			c0.2,0.8,0.4,1.5,0.7,2.3c-0.2,0.5-0.4,0.9-0.7,1.3c-0.5,0.8-0.6,1.8,0,2.8c1.8,2.9,1.7,3,0,6.2c-0.1,0.3-0.3,0.5-0.5,0.7
			c0.2,0.6,0.2,1-0.3,1.4c0.5,0.7,2,0.6,1.3,2.1c-0.3,0.8-0.5,1.7-0.5,2.5c0,0.4,0,0.7,0,1c-0.1-0.1-0.1-0.2-0.2-0.2
			c0.1,0.2,0.1,0.5,0.2,0.7c-0.1,0.4-0.2,0.9-0.5,1.3c-0.6,1,0.7,1.3,1.4,1.6c-0.3,2.5,2.5,4,1.9,6.6c0.7,1.2,1.6,2.3,2,3.5
			c0.4,1.4,0.5,2.9,1.6,4.2c0.8,0.9,0.6,1.8-0.2,2.7c-0.1,0.2,0,0.8,0.1,0.9c1.2,0.5,1.3,1.7,1.7,2.7c1.9,0.7,2.7,2.5,3.6,4.1
			c0.9,1.6,2.4,2.9,2.1,5.1c-0.1,0.4,0.6,0.9,1.1,0.8c0.7-0.1,1.3-0.3,1.8,0.4c0.3,0.6,0.7,1.2,1.1,1.7c1.6,2.3,2.7,5.1,5.3,6.6
			c0.3,0.2,0.4,0.9,0.5,1.3c0.1,0.4-0.2,1,0.5,1.2c1.1,0.3,1.5,1.3,2,2.2c1,1.9,1.5,2.7,2.4,3.2c1.3,0.7,2.5,1.6,4.1,1.8
			c0.6,0.1,1.5,0.3,1.8,0.8c0.9,1.3,1.9,2.3,3.2,3.1c1.1,2.4,3.4,3.6,5.5,4.9c0.3,0.2,0.8,0.5,0.8,0.4c1.4-1.5,2.7,0.1,4.1,0
			c1.4-0.1,2.7-0.3,4.1-0.4c0.5,0.4,1,0.7,1.5,1.1c0,0.2,0.1,0.3,0.4,0.3c0.5,0.4,1,0.8,1.5,1.2c-0.2,1-0.3,1.9,1.1,2.6
			c1.4,0.8,2.6,2,3.8,3.2c0.4,0.4,0.8,0.7,1.3,0.6c0.7-0.2,1.2-0.3,1.3,0.8c0.1,0.8,0.8,1.6,0.7,2.4c-0.3,1.8,1.4,1.6,2.1,2.4
			c0.3,0.4,1-0.1,1.2-0.5c0.4-1.1,0.6-2.3,1-3.4c0.4-1.1-0.3-1.3-1-1.8c-1.3-1.1-2-2.7-2.6-4.2c-0.1-0.1,0-0.3,0.1-0.5
			c0.2,0,0.4,0,0.5,0.1c0.8,1.1,2.2,0.8,3.2,1.4c0.5,0.3-0.2,1.6,0.8,1.3c1.5-0.4,2.6,0.1,3.7,1c1.3,1,2.6,2,4,3
			c1.5,1,3.1,1.9,4.7,2.9c0.4,0.3,1,0.5,1.2,0.9c0.7,1.6,2.1,2.2,3.6,2.4c1.6,0.2,2.3,1.2,3,2.4c0.4,0.7,0.8,1.6,1.7,1.7
			c1.9,0.3,3.2,1.6,4.9,2.4c0.7,0.3,0.3-0.5,0.3-0.9c0-0.3,0.1-0.6,0.1-0.9c0.2,0.1,0.4,0.1,0.5,0.2c1,1.7,2.5,3.1,2.7,5.3
			c0.1,1.5,1.3,2.6,2.8,3.3c2.5,1.3,2.8,1.5,5.2,0.9c2-0.5,2.4-0.3,3.4,1.1c0.8,1.3,1.5,2.7,3.3,2.8c0.3,0,0.8,0.2,0.9,0.4
			c1.2,2,3.4,2.1,5.3,2.5c1.5,0.3,2.9,1,4.5,0.5c1.4,0.9,3.2,1.1,4.7,1.7c1.7,0.7,3.7-0.5,5.3,1c0.3,0.2,0.5,0,0.5-0.5
			c0-0.3-0.3-0.6-0.3-0.9c0-0.1,0-0.2,0-0.4c1,0.1,2.1,0.2,3.2,0.3c-0.8-0.2-2-0.8-3.2-1.2c0-0.1,0-0.1,0-0.2
			c-0.3-0.8-1-0.7-1.7-0.5c-0.4,0.1-1.1,0.1-1.5-0.2c-0.2-0.2-0.5-0.3-0.7-0.4c0.1,0,0.2-0.1,0.3-0.1c-0.3-0.1-0.5-0.1-0.6-0.1
			c-1.5-0.7-3.1-0.8-4.5-1.5c-1.1-0.5-2.5-0.7-3-1.6c-0.7-1-0.6-2.5-0.8-3.8c-0.1-0.5-0.2-1-0.3-1.4c0-0.2,0-0.3,0.1-0.5
			c0.3-0.6,0-0.2,0.4,0.2c0.9,0.9,1.7,0.8,2.6,0.2c0.9-0.6,0.9,0,1.1,0.8c0.2,1.2,1,0.1,1.5,0.2c0.5,0.1,0.7,0.3,0.3,0.6
			c-1.3,1-0.5,1.4,0.3,2c-0.3,1.1,0.2,2,1,2.7c0.1,0.1,0.3,0.2,0.5,0.2c0.1,0,0.2-0.2,0.2-0.4c0.1-0.5,0.4-1.1,0.3-1.5
			c-0.6-1.9,0-3.2,1.7-4.2c0.8-0.1,1.6-0.3,2-0.7c0.1,0.5,0.2,0.9,0.6,1.2c-0.1,0-0.2,0-0.3,0c0.2,0.1,0.3,0.1,0.5,0.1
			c0.2,0.1,0.5,0.2,0.8,0.3c0.4,0.1,0.5,0.5,0.6,1c-0.3,0-0.6,0-1,0c-0.1-0.9-2.5-1.5-2-0.6c1.6-0.7,0.4,0.8,1,1
			c0.7,0,1.4,0.2,2.2,0.5c0.1,1.1,0.3,2.3,0.6,3.4c0.4,1.7,1.3,3.1,3.4,3.2c1.9,0.1,3.1,1.2,3.8,2.9c0.2,0.5,0.6,0.9,0.8,1.3
			c0.1,0.2,0.2,0.4,0.3,0.5c-0.2,0.1-0.5,0.2-0.8,0.3c0.4,0.1,0.8,0.1,1.2,0.1c0.1,0.1,0.2,0.2,0.3,0.3c-2.2,0.2-4.9-0.1-7.6-0.5
			c-2.1-0.4-4.3-0.7-6.4-1.1c-2-0.4-3.9-0.9-5.6-1c0.7,0.1-1.6,0.3-2.6-0.2c0.9,1.5,5.1,2.6,6.7,4.4c1.6,0.3,2.8,0.7,3.4,1.4
			c0.7,0.1,1.2,0.1,1.6-0.1c0.4,1.8,9.5,2,8.5,3.2c1.4-0.2,2.6-0.7,4.7-0.7c0.2-0.5-0.7-0.5-0.4-1.1c1.1,0,2-0.1,2.3-0.5
			c-2.4-0.1-2.7,1-4.7,1.1c0.3-0.8-0.8-1.1-1.6-0.8c-0.6,0.7,1.3,0.2,1.2,0.7c-0.6,0-0.3,0.5-1.2,0.4c0.8-1.1-3.3-0.1-4.3-1.2
			c0.1-0.4,0.3-0.7,0.8-0.8c2.8,0.5,1.5-0.3,2.7-0.7c1.2,0,1,0.7,1.9,0.8c0.2-1,2.3-1,3.9-0.8c1.8-0.4,3.5-1.3,5-2
			c0.1,0,0.2,0,0.4,0.1c1.3,0.2,2.6,0.2,3.9,0.3c0.3,0,0.5-0.3,0.3-0.7c-0.5-0.9-0.7-2.1-1.7-2.4c-1.4-0.4-2.8-1.3-4.3-0.2
			c-0.3,0.2-1,0.3-1.4,0.1c-0.6-0.2-1.1-0.5-1.7-0.8c0.1-0.1,0.1-0.2,0.2-0.3c-0.3,0-0.6,0-0.8,0c-0.9-0.4-1.8-0.9-2.7-1.3
			c-0.3-1.4-0.7-2.9-0.9-4.3c-0.1-0.5-0.2-1-0.6-1.3c-0.1-0.1-0.4-0.1-0.4-0.1c-0.8,2.3-2.2,0.6-3.3,0.5c-0.8-0.1-1.3-0.7-1.6-1.4
			c0.7-0.9,2.2,0.7,3-0.4c0.2,0,0.3,0.1,0.5,0.1c1.1,0.5,2.8,0.9,4.4,1c1.7,0.1,3.3,0.2,4.2,0.3c-0.2-0.1,0.2-0.8,0.5-0.8
			c1.2,0.5,4.5-1,3.2,0.2c1.3,0.1,1.6-0.5,2.1-0.9c-2.9,0.5-5.6,0.2-7.4,1c-0.9-0.9-2.8-0.6-4.3-0.6c-0.6,0-1.1,0-1.5-0.1
			c0.2-0.1,0.3-0.4,0.5-0.5c0-0.1,0-0.3-0.1-0.4c-0.3-0.2-0.7-0.2-0.9-0.4c-0.4-0.3-0.8-0.7-0.5-1.2c0.2-0.4,0.6-0.8,1.2-0.7
			c0.5,0,0.9,0,1.4,0c0.3,0.4,0.6,0.9,1,1.1c0.4,0.2,1,0,1.4-0.2c0.6-0.3,1.2-0.7,1.8-0.9c-0.2,0.3-0.5,0.4,0.4,0.4
			c0.3-0.2,0.6-0.3,0.9-0.4c0.1,0,0.3,0,0.4-0.1c2-0.4,4.8-0.2,6.2-0.7c-1.1,0-2.1,0-3.1-0.1c0.4-0.3,0.9-0.5,1.3-0.8
			c0.1-0.1,0.1-0.3,0.1-0.4c0-0.1-0.2-0.2-0.3-0.2c-0.9,0-1.5,0.4-1.8,1.1c0,0.1,0,0.2,0,0.3c-0.6,0-1.1,0-1.7,0
			c0.2-0.5,0.4-1.1,0.9-1.3c0.6-0.2,1.1-0.6,1.5-0.9c0.7,0.2,1.5,0.3,2.2,0.2c-0.1-0.6,1.3-0.2,1-0.9c0-0.2-0.2-0.3-0.4-0.4
			c1.1-0.1,2-0.7,2.8-1.2c0.9-0.6,1.6-0.8,2.6,0.1c0.5,0.5,1.2,0.6,1.9,0.5c0.1,0.4,0.7,0.6,1.3,0.7c-1,0.5-0.8,1.6-2.1,2
			c0.6,0,1.2,0,1.4,0.3c-0.2,0.5-1.2,0.6-1.2,1.2c1.2-0.4,2.8-0.4,4.5-0.1c-0.2-1.1,2-1,2.6-1c-0.3,0.7-1.3,0.9-2.3,0.7
			c0.8,0.9-1.3,0.5-0.9,1.2c1.4,0.1,4.7-2.8,6.8-1.4c-3.1,0.3-3.5,1.4-5.3,2.1c-0.3,1.3,0.4,1.8,1.4,2l-0.1-0.6c0.7-0.2,0.9,0,1.4,0
			c-0.2,0.2-0.4,0.4,0.1,0.4c0,0.5-0.6-0.2-1.3,0.1c1.3,0.2,3,0,4.3,0.2c2.9-0.9,7.7-0.7,9.8-1.9c-1.1,0-3.4,0.9-4.1-0.2
			c0.5-1.2,2.2,0.1,2.3-1c-1.6,0.1-2.1,0.7-2.9,0c0.5-0.1,0.2-0.4,0.6-0.6c1.3-0.1,2.9,0.2,3.1,0.7c0-0.4,1.2,0.4,1-0.3
			c-0.6-0.1-0.7-0.6-1-0.9c-1.7,0.4-2.8,0.4-3.3-0.4c1.7-1.3,3.5-1.1,5-1.8c0.6,0.4,1.2,0.6,1.9,0.8c0.6,0.1,0.9-0.2,1.3-0.6
			c0.3-0.3,0.1-1,0.8-1c1,0,2-0.3,3-0.1c2.2,0.5,4.3,0.5,6.4,0.1c0,0,0,0,0,0c0,0.1,0,0.2,0,0.3c-1.8,0.8-2.7,1.9-4.9,2.1
			c0.2,0.1,0.3,0.1,0.5,0.1c-1.2,0.4-2.4,0.9-3.6,1.4c0,1.6,1.2-0.8,1.7,0.2c-0.6,0.6-3.2,1.5-3.7,0.8c0.7-0.1,1.4-0.2,1.9-0.4
			c-0.4-0.3-1.3-0.1-2,0c0,0,0,0,0,0c0,0-0.1,0-0.1,0c-0.5,0.1-0.9,0.1-1.2-0.1c-0.1,0.2-1.7,0.9-0.9,0.9c0,0,0.1,0,0.1,0
			c-2.5,0.9-4.9,1.4-7.2,2c-3,0.7-5.7,1.5-8.1,3c-1.1-0.7-2.3-0.5-3.4,0c-3,0.8-6,0.5-8.2,0c-0.2,1.5-3.1-0.4-4.3,0.3
			c-0.2-0.3-0.5-0.4,0-0.7c-2.7,1.4-4.6-1.3-7.9-0.5c1.5,0.1-1.3,1.2,1.4,1.1c0.5-0.5-0.9-0.8,0-0.9c-0.1,1.3,2.9,1,4,2.1
			c2-1.3,4-0.1,6.9-0.2c0.3,0.4,1.1,1.6,1.9,0.9c-1.5,0.3,0.2-0.8,0.3-1.1c1.4-0.2,2.8,0,4.2,0.1c-0.6,0.5-1,1.1-1.2,1.5
			c0.3-0.1,0.6-0.1,0.9-0.2c0.1,0.2,0.2,0.3,0,0.8c1.7,0.1,1.7-0.6,2.5-0.9c-0.3,1.5,4.3,0,5.7,0.6c-0.2-0.5,0.2-0.7,1-0.8
			c-0.1,0.3-0.4,0.4,0.1,0.6c6.9-1.6,13.1-3.3,19.3-5c1.8-1.3,7.5-3.9,8.1-1.7c7.6-1.9,14.7-5.8,22.2-9.6c1.9-2.4,5.1-3.8,7.4-4.9
			c-0.3,0.2,0.4-0.9,1.1-1c2.7-0.7-0.6,2.4-2.6,3.5c1.6-1,0.8,1.2,0.7,1.8c-3.4,2.6-6.4,4.2-9.4,6.6c-0.9,0.4-1.3,0-2.3,0.5
			c-1,1.5-3.2,1.1-4.9,2.1c-1,0.6-1.3,1.7-2.3,2.2c-1.1,0.5-2.5,0.2-3.5,0.6c-0.6,0.3-1.5,1-1.9,1.3c0.1,0,0.1-0.5,0.2-0.5
			c-1.1,0.4-1.3,1.2-2.2,1.6c-0.2,0.1-0.5-0.5-0.6-0.5c-1.4,0.1-2.6,1.7-4.1,2.3c-1.3-0.2,0.9-1.3-0.7-0.9c0.2,0.7-1.4,1.1-1.8,1.7
			c-1.4-0.8-4.1,1.4-4,0.1c-1.2,0.6-2.8,1.4-4.5,2c-1.7,0.6-3.4,1.1-4.5,1.3c0.4-0.1,0.5,0.2,0.5,0.5c-2.8,0.6-3.8,0.8-5.2,1.6
			c0-0.2,0.2-0.3,0.3-0.5c-2.1,0.5-4.1,1.1-5.9,1.3c-1.8,0.2-3.4,0.4-4.8,0.4c-0.3,0.3-0.5,0.7-1,1c-1-0.4-1.3-0.2-1.9,0.4
			c-0.8-0.3-0.6-1.2-1.7-0.7c1.4,0.5-1.4,0.9-2.2,1.1c-0.1-0.4-1.1-0.2-0.9-0.8c-0.2-0.5,1.1-0.4,1.1-0.8c-2.5,0.3-2.4,1-2.5,2
			c1,0.3,2.5,0.1,3.6,0.3c0.6-1.3,4.8-1,5.8-0.7c-0.5,0.1-0.3,0.4-0.7,0.5c-0.1-0.2,0-0.6-0.5-0.6c-2.1,1.6-4.6,1.1-7.7,1.3
			c1,0.8-0.7,0.7-0.7,1.6c3.1-0.3,6.2-0.7,9-1c-1.3-0.3,1.1-0.8,1.4-1c0.8,0.2,3.1,0.6,3.6,0.2c-0.5,0-0.5-0.3-0.5-0.6
			c1.8,0.8,4.1-0.1,6.4-0.3c-2.4,0.4-1.2,0.7-3,1.3c1.8-0.1,2.8,0,3.8-1l0.1,0.6c1.7-0.7,4.1-1.1,6.6-1.5c1.2-0.2,2.5-0.4,3.8-0.7
			c1.2-0.4,2.4-0.8,3.5-1.3c0.1,0.2,0.1,0.6,0.6,0.5c3.7-2,10-2.5,11.6-4.1c0.5,0.7-1.3,1.7-2.4,1.5c0.8,1.3,2.6-0.5,3.4-1.1
			c-0.1,0,0.2,0.4,0.2,0.4c1.4-0.8,1.6-2,3.2-2.8c1.9-1,3-0.2,5.4-1.6c-1.2-0.6,2.7-1.3,3.3-2.2c-2,0.8-1,0.1,0.5-0.7
			c1.5-0.8,3.5-1.8,3.9-1.2c-1.2,0.6-1.1,1.1-1.8,1.7c1.9-1.1,1.1-0.4,1.9,0.2c1.4-1.1,1.9-0.6,3-1.2c-0.5-0.5-1.9,0.3-2.6,0.2
			c0.5-0.3,0.7-0.5,0.9-0.8c0.9-0.2,2,0.4,2.3-0.8c0.2,0.3,0.4,0.5,0.8,0.6c-2.7,1.8-4.5,3.1-6.4,4.1c-2,0.9-3.9,1.7-6.9,2.5
			c-1.5,1-3.3,1.6-5.1,2.2c-1.8,0.6-3.6,1.4-5.2,2.5c-0.2-0.4-1.3,0.3-1.4-0.2c-4.6,2.1-10.4,1.8-13.9,4.3c1.1-0.2,2.6-0.9,2.9-0.3
			c-1.2,0.4-6.6,2.3-5.7,0.5c-0.9,0.3-1.7,0.7-3.1,0.9c-0.4,1,2.1-0.4,2.1,0.2c-1.8,0.5-5.7,1.8-7.3,0.9c-3.6,0.9-6.8,1.2-9.7,1.5
			c-2.9,0.3-5.5,0.3-8,0c-0.1,1.1-0.8-0.4-1.6-0.3c-1,0.3,0.5,1-0.3,1.1c-0.4,0-0.5,0.2-0.8,0.2c-1.5,0.2-1.5-0.5-2.5-0.6
			c-0.5,0.6-2.5,0.5-4,0.5c-0.4-1.6-3.2-0.5-4.8-0.6c-3.3,0-7.1-0.6-10.7-1.1c-3.6-0.5-7.1-0.8-9.6-1.2c4,1.2,5.4,0.6,8.7,1.9
			c2.4-0.2,5.1,0.1,7.8,0.4c2.8,0.3,5.6,0.4,8.2,0.3c0,0.5,0.7,0.7,0.9,1.1c-0.5,0.3-1.5,0.4-2,0.7c1.6,0.4,5.9-1,8.6,0.2
			c0.2-0.7,1.5-0.4,2.4-0.4c1.2-1.6,7.2-2.2,9.6-2.2c0,0.4-3.7,0.5-2.4,0.7c1.2-0.1,2.5-0.3,2.5,0.4c-0.7,0.2-2.4,0-2.4,0.5
			c1.3,0.2,3.9-0.6,3.5,0.9c1.7-0.1-0.7-0.7,1.1-1c0.1,0.2,0.4,0.2,0.9,0.1c0.7,0.9-0.6,1.1-1,1.6c1.9,0.3,1.9-0.6,1.9-0.9
			c1.4,0.4-0.9,0.9,0.2,1.3c1.8,0.2,3.7-0.2,4.6-0.4c-0.5,0.1-0.7-0.1-0.9-0.3c0.8,0,1.6-1,2-0.4c-0.5,0.1-1.2,0.2-1.2,0.5
			c2.4,0.1,6-1.2,7.6-0.5c0.9-0.5-0.9-0.5,0.2-0.9c2.3-0.8,2.3,0.3,3.9,0c0.1-0.4-0.8-1,0.1-1.1c1.5-0.2,3.7-1.5,3.8-0.4
			c-0.4,0.3-3,1.1-1.9,1c2.1-1.1,3.8-1.1,4.5-2.3c1.7-0.3,0.1,1.2,1.6,0.9c0.5-0.3-0.2-0.8,0.5-1.1c0.7,0.2,5.2-0.3,2.9-0.5
			c1.7-0.4,2.1-0.5,4.4-1.3c-0.1-0.3-0.4-0.7,0.1-0.9c3.4-0.8,6.4-2.3,9.2-3.5c2.8-1.4,5.6-2.6,8.5-3.7c0-0.4-0.8-0.2-0.3-0.6
			c2.2-0.8,4-1.5,5-3c0.2,0.3,0.1,0.5,0,0.8c1.3-1.2,3.4-1.8,4.9-2.3c-0.5,1.3-2.8,1.7-2.5,3.2c2.5-1.5,2.6-3.7,5.7-5
			c0.2-0.7-1.4-0.2-0.5-0.7c1.2-0.4,1.5-0.6,2-1.5c0.4,0.6,1.5,0,2.3-0.3c2.2-2.5,5.7-3.2,7.4-6c1.4-0.9,3-1.8,4.5-2.9
			c1.5-1.2,3-2.5,4.5-3.8c2.9-2.6,5.5-5.3,7.2-7.3c0.7,0.2,1.8-1.5,2.2-0.7c1.1-2.3,3-2.3,3.4-4.2c-0.4,0.4-0.7,0.7-0.9,0.3
			c0.5-0.8,0.7-0.9,1.8-2.3c0.3,0.2,0.5,0.5,1.1-0.2c-0.1-1.9,3.2-3.4,4.7-4.7c-0.2-0.4-0.7,0.1-1.1,0.2c1-1.2,2.7-3.7,3.8-3.3
			c-0.5,1-1.6,0.6-1.5,1.5c0.4-0.4,0.7-0.1,1-0.3c1.8-4.3,5.9-9,7.8-11.3c0.6-0.9,0.3-1.7,0.6-2.1c0.7-1.1,2.1-1.4,3-3.5
			c-0.2,0.4,0.3-0.5,0.9-1.4c0.2-0.4,2.1-4.3,3.4-4.7c0.6,0.1-1.4,2.9-0.5,2.1c0.7-1.3,0.8-1.9,1.7-2.9c-0.6-0.1-0.5-0.7-0.2-1.3
			c0.3-0.6,0.8-1.3,1.2-1.5c-0.3,1.3-1.2,3-0.9,3.8c1.1-2.3,2.3-7.2,3.9-6c-0.2-0.1,0.1-0.8,0.4-0.8c-0.3,1.8,0.4,1.4,0.2,2.9
			c0.4-2.9,1.8-4.9,3-7c1.2-2.1,2.4-4.1,2-6.9c0.4,0.1,0.3,0.6,0.6,0.7c0.5-1.2-0.2-1.4,0.7-2.9c0.3,0.2,0.6-0.3,1-0.1
			c0.3-1.1,0.7-2.2,0.7-2.9c-0.6,1.8-1.3,2.4-2.1,2.4c1.3-2.5,0.9-4.1,2.8-6.1c-0.8,1.5,0.2,1.4-0.6,2.9c0.6-0.2,1.3,0.3,1.8-1.2
			c-0.3-0.2-0.8-0.1-0.7-0.7c0.8,0.6,3.2-4.5,3.8-6.8c-0.7-0.7-0.9,0.8-1.5,0.4c0.4-0.4,0.6-1.4,0.9-2.4c0.3,1,0.3,0.7,1.1,0.8
			c0.6-1.3-0.5-0.8-0.2-1.8c0.8,0.3,1-2,1.7-2.2c-0.2-2,0.5-2.3,1-2c-0.2-1.7,0.2-2.3-0.2-3.5c0.6-0.6,0.3,0.1,0.8,0.2
			c0.2-1.8,0.3-1.6,1-2.8c-0.1-0.7-0.4-1.1-0.5-1.8c0.6-0.7,0.5-1.7,0.7-0.3c1.3-4.6-0.9-6.5,0-8.6c-1.5-0.5-0.6-2.3,0.2-3.8
			c-0.4-0.6-1,1-0.9-0.1c0.6-1.1,0.8-2,0.8-3.7c0.7-0.3,0.6,0.7,1,0.9c-0.3-1,0.3-2.3,0-2.5c-0.2,0.6-0.4,1-0.8,1.2
			c0.1-1-0.3-1.3,0-2.5l0.6,0.1c-0.9-3.6,0.6-8.5-0.3-10.1c-0.1-1.3,0.6-0.9,0.8-1.7c-0.3,0-0.5,0.2-0.7,0.4c-0.3-1,1.2-6,0.1-3.3
			c0.1-2,0.9-2.6,0.4-3.8c-0.1,1-0.6,1-0.6,0c0.3,0.6,0.7,0.3,0.6-0.9c-0.4-0.4-0.5-1.3-0.7-2.1c0.6,1.1,0.4-1.9,0.2-2.5
			c0,0.3,0,0.8-0.2,0.8c-0.1-0.8-0.6-3.1-0.1-3.8c0.3,0.2,0.1,1.6,0.5,1.6c0.3-1.4-0.3-1.8-0.5-3.3c1.3-0.8-1.4-4.1,0.2-4.7
			c-0.2,1.7,0.4,3,0.9,4.2c0.4,1.2,0.7,2.2-0.1,3.3c1.2,0,0.5,1.5,0.9,3.3c0.7-0.5,0.5,0.6,0.9,0.8c0.1-2-0.3-1.2-0.5-1.7
			c0.2-0.4,0-1.6,0.6-1.3c0,0.5,0,1.2,0.2,1.3c-0.2-1.7,0-2.7,0.6-3c-0.3-1.1-0.3-2.1-0.3-3.3c-0.1-1.3-0.2-2.8-0.6-5.2
			c-0.5-0.7-0.6,0.7-1-0.7c0.3-5.6-2-10.4-2.6-14.6c-0.8-0.7-1.1,1-1.5-1c0.1-1.1,0.6-0.9,1.2-0.7c-1.6-3.6-0.9-6.4-2.1-10.4
			c-2.2-1.2-2.3-7.2-4.5-9.2c0.9,1.7,1.7,4.2,1.3,5.3c-1.2-1.3-3-5.8-1.4-5.7c-1.4-1.9-0.5-4.4-2-4.6c1.2-1-0.7-5.4-2.2-7.7
			c0.2,0.3,0-0.7-0.5-1.6c-1.2-2.5-2.4-5.4-3.7-8.1c-1.2-2.1-2.4-4.1-3.7-5.8c0.2-0.1,0.4-0.2,0.7-0.3c-1.5-2.1-3.1-4.2-4.6-6.3
			c0.1,0,0.1,0,0.2-0.1c-1-0.9-1.1-1.3-1.9-2.3c-0.5-0.7-1-1.4-1.5-2.1c-0.2-1.1-0.9-3-1.4-3.9c0.5,0.7,0.8,0.1,1.3,1.1
			c0.7,1.7,2,3.6,3.4,4.3c0.3,0.8,0.2,0.9-0.3,0.7c3.1,3.9,4.4,7.3,7.6,10.7c-1.2-0.6,1.5,3.9,1.6,2.5c1,2.7,2.4,6.2,4,9.4
			c0.8,1.6,1.6,3.2,2.5,4.7c0.4,0.7,0.9,1.4,1.3,2.1c0.4,0.7,0.8,1.3,1.1,1.8c-0.9-1.9-1.8-5.7-3.3-7c1.3,0.5-0.6-1.8-1-1.9l0.6-0.3
			C319.7,98.4,314.7,90.2,309.9,82.2z M195.6,14.2c0.4-0.7,1.4,0,2,0.4C197.4,15,195.9,14.3,195.6,14.2z M109.2,305
			c-0.1,0-0.5-0.3-0.6-0.5c-0.1-0.1-0.1-0.3,0-0.4c0-0.1,0-0.3,0-0.5l0,0c0.2,0.1,0.5,0.2,0.7,0.4
			C109.6,304.3,109.8,304.8,109.2,305z M120,313.4c0.1,0.2-0.1,0.5-0.1,0.8c-0.2,0-0.4,0-0.5-0.1c-0.3-0.4-0.5-0.7-0.8-1.1
			c0,0,0,0-0.1,0c0,0,0-0.1-0.1-0.1c-0.2,0-0.5,0.1-0.8,0.1c0,0-0.2-0.3-0.1-0.3c0.4-0.4,0.7-0.1,0.9,0.2c0,0,0.1,0,0.1,0
			c0,0,0,0,0,0.1C119.2,312.5,119.7,312.6,120,313.4z M124.1,314.2c-0.3,0-0.6,0-0.9,0c0.2-0.3,0.3-0.6,0.5-0.8
			c0.2-0.1,0.6,0,0.9-0.1C124.4,313.6,124.2,313.9,124.1,314.2z M127,314.9C127,314.9,127,314.9,127,314.9c0.1,0.4,0.3,0.7-0.2,1
			c0,0-0.2-0.2-0.2-0.3C126.7,315.3,126.8,315.1,127,314.9C127,314.9,126.9,314.9,127,314.9C127,314.8,127,314.8,127,314.9
			c-0.4-0.6-0.8-1.1-0.6-1.7c0.1-0.4,1-0.9,1.1-0.7c0.1,0.2,0.2,0.5,0.2,0.8C127.6,313.8,127.6,314.5,127,314.9
			C127,314.8,127,314.8,127,314.9z M130.9,313.6c0.3,1.8-0.4,3.6,0.5,5.4c0,0.1-0.4,0.5-0.6,0.6c-0.3,0.1-0.8-0.1-0.8-0.2
			c-0.6-1.9-0.8-3.8-0.6-5.8c0-0.2,0.5-0.3,0.8-0.4c0,0,0,0,0,0c0.1,0,0.2,0,0.3,0.1c0,0,0.1,0,0.1,0
			C130.7,313.3,130.9,313.5,130.9,313.6z M150.6,316.3c0.1,0.4-0.1,0.7-0.5,0.8c-0.1-0.3-0.1-0.7,0.3-1c0.7-0.6,1.3-0.3,1.6,0.4
			c0,0.1,0.1,0.1,0.1,0.2C151.8,316.5,151.3,316.4,150.6,316.3z M155.3,312.7c-0.1,0-0.2,0-0.3,0c0-0.1,0-0.2,0-0.3
			c0-0.1,0-0.2,0-0.3h0c0.1,0,0.3,0.1,0.4,0.1C155.4,312.4,155.3,312.6,155.3,312.7z M156.9,314.3c0,0,0,0.1,0,0.1L156.9,314.3
			C156.8,314.3,156.8,314.3,156.9,314.3c0-0.1,0-0.2-0.1-0.2c0.1,0,0.2,0,0.2,0C157,314.1,156.9,314.2,156.9,314.3z M177.9,308.8
			c-0.5,0.2-0.7,0.2-0.8,0.3c0.1-0.1,0.2-0.1,0.3-0.2c0.1-0.1,0.3-0.2,0.4-0.2c0,0,0,0,0,0C177.9,308.7,177.9,308.7,177.9,308.8z
			 M200.4,318.9c-3.4,0.4-6.8,0.8-10.4,2.2c-1.3,0.2-2.8,0.1-4.3,0.1c-0.2,0-0.3,0-0.5,0c0.6-0.2,1.1-0.4,1.7-0.6
			c1.4-0.5,2.7-0.9,4-1.3c1.4-0.4,2.8-0.8,4.5-1c1.6-2.3,7.1-0.4,9-2c-1.7-0.8,2.5-1.9,4.7-2.9c0,0.8,0.7,1.4,1.5,2.4
			C207.2,317.5,203.8,318.2,200.4,318.9z M74.7,84.4c-0.3,0.2-0.7,0.4-0.7,0.7c-0.2,1.9-2.4,1.8-3,3.2c-0.4,1-1,1-1.7,0.8
			c1.1-1.3,2.3-2.5,3.5-3.6c0.9-0.8,1.8-1.5,2.6-2C75.3,83.9,75.1,84.2,74.7,84.4z M82.5,79.2c-0.4,0.9-1.1,0.9-1.8,0.3
			c-0.2,0.2-0.4,0.5-0.6,0.7c-0.8,1.3-1.2,1.5-2.3,1.1c0,0-0.1,0-0.1-0.1c0.8-0.9,1.7-1.7,2.7-2.3c0.1,0.1,0.2,0.3,0.3,0.4
			c0.4-0.2,0.4-0.5,0.4-0.9c0.6-0.4,1.2-0.7,1.8-1.1C83,78,82.8,78.6,82.5,79.2z M84,76.2c-0.1,0.1-0.2,0.1-0.2,0.2
			c-0.3,0.1-0.7,0.4-1,0.6c0.5-0.9,1.3-1.5,2.2-1.9C84.8,75.5,84.5,75.8,84,76.2z M86.6,74.4c0.2-0.1,0.4-0.1,0.7-0.2
			C87.1,74.3,86.9,74.4,86.6,74.4z M182.4,332c-0.5-1,1.9-0.5,1.8-0.9C185.4,331.4,183.4,332,182.4,332z M196.7,331.7
			c-0.1-1.2,1.2-0.3,2.7-0.8C199.3,331.4,197.5,331.4,196.7,331.7z M197.6,327.2c-0.1-0.6,1.6-0.9,2.2-0.7
			C199.9,327,198.2,327,197.6,327.2z M226.1,322.4c0.3-0.3,0.7-0.6,1.4-0.8c0.1,0.3,0.2,0.6,0.6,0.4
			C228.1,322.6,226,323.2,226.1,322.4z M238,317.9c-0.5-0.4,0.5-0.8,0.3-1.1c-3,1-5.6,3.1-7.3,2.1c2.7-0.8,3.3-1.9,4.9-3.3
			c0.6-0.1,1,0.1,1.7-0.2c-0.3,0.7-0.7,0.8-1.6,1.1c0.7,0.6,1.8,0.4,3.4-0.4C240,316.7,239.3,317.3,238,317.9z M283.5,275.8
			c0.2,0.5-1.2,1.8-1.8,2.5C281.4,277.1,282.5,277,283.5,275.8z M276.7,280.6c0.8,0.6-0.9,0.8-1.4,1.8
			C275.2,281.6,275.9,281.2,276.7,280.6z M122.5,54c0.1,0.1,0.1,0.2,0.1,0.2c-0.2,0.2-0.3,0.2-0.5,0.1
			C122.2,54.3,122.3,54.2,122.5,54z M261.6,285.5c1.1-0.9,2.3-1.8,3.6-2.8c1.2-1.1,2.4-2.3,3.7-3.7c0.2,0.2,0.4,0.5,0.7,0.2
			c-0.5,0.9-1.3,1.9-2.1,2.8c-0.4,0.5-0.8,1-1.3,1.4c-0.5,0.4-1,0.9-1.5,1.3c-2,1.7-4.2,3.3-5.7,4.7c-0.6,0.8,0.9,0.5,1.4-0.1
			c0.1,0.7-1.2,1-1.7,1.5c-0.3-0.3,0-0.6-0.3-0.9c-0.4-0.3-1.4,1.1-2.1,1.5C257.6,289,259.4,287.3,261.6,285.5z M271.1,294.1
			c-1.8,1.3-2.8,1.6-4.9,2.8c0.4-1.6,2.6-2.4,4.1-4.2C270.6,293.2,270.5,293.8,271.1,294.1z M261,300.6c0.1,0.8-1.1,0.7-1.4,0.8
			c-0.4-0.3,0.8-0.8,0.5-1.2C261.3,299.3,259.9,301.4,261,300.6z M264.9,297.9c0.1,0.6-0.6,1.3-0.5,1.8c-0.8-0.1-2.6,2.2-3.3,1.6
			C262.9,300.7,263,298.8,264.9,297.9z M260.8,296.8c-0.9,0.9-1.6,1.9-3.3,3.2c-1.3-0.5,0-1.7,1.6-3.4c1.6-1.6,3.8-3.4,4.5-4.2
			c1.6-0.6,2.4-0.2,0.9,1.5c-0.1-0.2,0.1-0.4,0-0.6C262.6,294.9,261.7,295.9,260.8,296.8z M259.5,301.8c-2,2.1-7.6,5.6-6.9,3.8
			C254.7,305.2,256.3,302.9,259.5,301.8z M266.5,290.4c0.4,0.4,0.1,1.3-0.7,1.5C265.3,291.6,266,291,266.5,290.4z M245.2,300.5
			c0.4-0.8,1.3-0.2,2.4-1.1c-0.1-0.2-0.5,0.1-0.7,0.2c-0.1-0.3,0.9-0.7,0.7-1c-0.6-0.2-1.9,1.3-2.8,1.7c0.7-1.7,3.9-3.6,4.6-4.9
			c0.7,0,0.9,0.8,0.8,1c0.7,0.4,0.7-0.5,1.5-0.5c0.7-0.8-1.2,0.3-1.3-0.4c2.3-1.7,3-1.8,3.6-3.1c1.1-0.5,0.2,0.3,1.8-1.2
			c1.1,1-1.6,1.8-2,2.7c1.6,0.1,3.2-3.7,4.1-2.5c-0.9,0.7-1.8,1.6-2.7,2.4c-1,0.8-2,1.7-3,2.5C250,298.1,247.8,299.7,245.2,300.5z
			 M250.6,307.6c0.1,0.8,0.9-0.2,1.5-0.5c-0.9,1-2.6,2.2-4.6,3.5c-2,1.2-4.3,2.4-6.2,3.8C242.9,311.4,247.5,310.4,250.6,307.6z
			 M240.7,315.4c2.1-0.9,2.5-1.3,4.6-2.4c-2.5,0.2,3.9-3,4.7-2.9c-1.3,1.5-3.2,2.6-5,3.5c-1.8,1-3.5,1.9-4.4,3.1
			C239.9,316.3,240.8,315.8,240.7,315.4z M240.7,317.6c-0.1-0.8,1.1-0.9,1.7-1C242.6,317.2,240.9,317.6,240.7,317.6z M264.2,304.4
			l-0.4-0.5c-0.1,0.1-0.3,0.3-0.4,0.4c-0.7,0.6-1.4,1.2-2.1,1.8c-1.5,1.2-3,2.4-4.6,3.6c-3.3,2.3-6.8,4.7-10.5,6.2
			c-0.3,0.3,0,0.5-0.5,0.8c-0.9,0.4-1.6,0.6-2.3,0.8c-0.3-0.6,1.5-1.3,2.6-2c-0.1-0.3-0.3-0.6-0.7-0.4c3.3-2.1,9.2-5.8,13.3-10.2
			c1.2-0.6,2.3-1.1,3.2-1c0.8-0.8-0.6-0.4-0.7-0.8c0.7-0.7,2-0.5,2-1.3c1-0.6,0.5,0,0.9,0.4c1.3-1.6,2.3-2.7,3.4-3.5
			c-0.2-0.8-1.2,0.6-1.8,1c0.5-1.4,2.8-3,3.9-3.4c0.8,0.4-0.4,2.3,1.3,0.8c-0.8,1.7-5.3,3.6-5.3,4.9c2.7-1.6,6.2-5.7,8.3-5.8
			C271.1,299.8,267.5,301.2,264.2,304.4z M276.9,290.4c-0.2-0.3-0.7,0-0.9-0.3c0.9-1.3,1.3-0.4,2.2-1.7
			C278.3,288.9,277.3,289.8,276.9,290.4z M283.8,281.5c-3.6,3.1-6.4,6.3-10,9.7c0.3,0.2,1-0.9,1.4-0.8c0.4,0.5-1.4,2-1.8,1.5
			c-0.5,1.1-0.5,1.2,0.5,1.6c-1.7,0.6-2.4,0.3-2.1-0.5c0.3-0.8,1.5-1.9,3.1-3.5c-0.5,0-1.1,0.7-1.7,1.1c-0.6-0.3,1.1-1.4,0.9-1.9
			c0.4-0.3,0.6,0.1,0.9,0.3c2.5-2.9,2.6-3.2,5.4-6.3c1,0.2,1.4-1.5,2.5-1.5c0.6-0.9-1.2,0.6-0.7-0.6c2-1.9,2.3-1.4,3.9-3.9
			c-0.4-0.4-1.4,2.2-1.7,1.1c1.4-1.2,2.1-2.5,2.7-3.8c0.5,0.2,0.6,0.6,0.6,1c0.7-0.8,0.6-1.2,0-1.5c1-1.7,1.8-1.7,2.6-2
			C290.3,274.2,284.8,278.9,283.8,281.5z M308.9,254.7c-0.6-0.9,0.7-1.9,0.9-3.2C310.4,251.9,309.1,253.6,308.9,254.7z M317.2,246.7
			c0.3,1.7-0.7,0.1-1.1,1.3c-0.2-0.2,0.3-1,0.5-1.6c0.3,0.2,0.5,0.3,0.8-0.1C317.6,246.5,317.3,246.7,317.2,246.7z M314.4,244.6
			l0.7-1.5l0.6,0.2C315.2,244,314.8,244.9,314.4,244.6z M315,242.6c-0.5-0.2,0.1-1.4,0.5-2.4l0.6,0.2
			C315.8,241.4,315.5,242.3,315,242.6z M314,242.1c-1,2.4-2.2,4.7-2.6,6.1c-0.4-0.8,0.5-3,1.6-5.4c1-2.5,2.1-5.3,2.8-7.3
			C315.7,237.1,314.9,239.6,314,242.1z M325.2,231.3c-0.9,0-1,0.1-1.3-0.9C324.5,230,325.8,229.6,325.2,231.3z M325.3,229.1
			c-0.3,0.2-0.5,0.8-0.9,0.6c0.3-0.3,0.5-0.6,0.3-0.8c0.2-0.4,0.5-0.2,0.7-0.7c0.1,0.3,0.2,0.5,0.5,0.6
			C325.6,229.3,325.1,229.7,325.3,229.1z M198.8,24.5c0-0.1,0.1-0.2,0.3-0.2c0.1,0,0.2,0.1,0.3,0.1C199.2,24.4,199,24.4,198.8,24.5z
			 M328.7,223.5c-0.2-0.2,0.1-1.1,0.2-1.7c-0.3,0-0.4,0.7-0.5,1.2c-0.5,0.3-0.4-1.4-0.8-0.2c-0.2-0.5,1.1-1.5,1.6-1.8
			C328.8,222.5,329.5,222.1,328.7,223.5z M231.1,34.1c0.6,0,1.1,0.1,1.7,0.2C232.2,34.6,231.6,34.8,231.1,34.1
			C231.1,34.1,231.1,34.1,231.1,34.1z M327.6,198.7c0.6,0.1,0.1,2.3-0.3,2.8c-0.5-0.3-0.7-1.2-0.5-2.5
			C327.2,199.1,327.5,199.2,327.6,198.7z M214.2,20.5c0.2,0.1,0.5,0.2,0.7,0.2c0,0.1,0,0.1,0,0.2c-0.9,0.3-1.8-0.5-2.9-1.1
			C212.7,20,213.5,20.2,214.2,20.5z M326.6,202.3c0.7,0.4-0.3,1.6-0.3,3.2c-0.4-0.1-0.5,0.4-0.9,0.3
			C325.7,204.6,326.1,203.2,326.6,202.3z M328.3,208.8l0.6,0.1l-0.4,2C327.9,211,328.4,209.6,328.3,208.8z M331.6,209.8
			c-0.3-1-0.5,0-0.7,1.2c-0.8-0.7,0.6-2.5,0.9-3.7C332.3,207.4,331.6,209.1,331.6,209.8z M329.7,204.4c0.7,1.7,1.2,3.4-0.3,6.3
			c-0.4-1.2,0.9-3.9-0.7-4.8c0.9-3.4,1.1-6.2,1.8-7.7C331.4,199.7,330.8,203,329.7,204.4z M331.5,193.3c-0.4,2.1-0.8,2.9-0.5,4.6
			l-1.1-0.1c0.6-2.2,0.3-5.2,1-7.8C331.6,191,330.6,192.6,331.5,193.3z M241.8,35.4c0.7,0.1,1.3,0.2,2,0.4
			C243.1,36,242.4,35.9,241.8,35.4z M246,38c-0.7-0.2-1-0.8-0.7-1.6c0-0.1,0.1-0.1,0.1-0.1c1.1,0.4,2.2,0.9,3.3,1.5
			C248,38.4,247.4,38.4,246,38z M280.1,51.4c-0.2-0.5-0.6-0.6-1.1-0.8c0.1-0.2,0.1-0.4,0.1-0.5c0.9,0.4,1.8,1.1,2.3,2.3l-0.6,0.6
			c-0.6-0.4-0.8-1.7-1.5-1.4C278.5,50.4,279.9,51.6,280.1,51.4z M279.6,52.7c-0.1-0.2-0.2-0.4-0.2-0.6c1.9,1.7,1,2,2,1.6
			c0.7,0.7,0.8,1.1,0.7,1.6C281.2,54.5,280.5,53.5,279.6,52.7z M301.1,86.4c-0.1-0.1-0.2-0.2-0.2-0.3C301,86.2,301,86.3,301.1,86.4z
			 M275.2,46.5c0.2-0.1,0.2-0.3,0.2-0.6c1.1,0.7,0.5,0.9,0.9,1.4C276.1,47.4,275.6,46.9,275.2,46.5
			C275.2,46.5,275.2,46.5,275.2,46.5z M279.1,52.4C279.1,52.3,279.1,52.3,279.1,52.4c-0.3-0.2-0.3-0.3-0.4-0.4
			C278.9,52.1,279,52.2,279.1,52.4z M271.2,46.2c0-0.1,0-0.4,0-0.5c0-0.1,0.2-0.2,0.3-0.2c0.9,0,1.6,0.3,2.3,1
			c0.3,0.3,0.7,0.3,1.1,0.1c0.2,0.2,0.5,0.5,0.7,0.9c-0.1,0.2,0.1,0.4,0,0.6c-1.4-1.3-2-0.2-0.4-0.1c0.2,0.2,0.4,0.4,0.5,0.6
			c-0.6,0.3-1.2,0.7-1.8,1c-0.2,0.1-0.7-0.2-0.8-0.4c-0.2-0.6,0-1.4-0.4-1.8C272.4,47,271.5,47,271.2,46.2z M317.9,124.7
			c0.1,0,0.2,0,0.3,0c0.1,0.6,0,0.7-0.1,0.7C318,125.1,317.9,124.9,317.9,124.7z M318.3,127c0,0,0-0.1,0-0.3
			c0.4-0.2,0.5,1.3,0.8,1.8c-0.2-0.1-0.5-0.2-0.7-0.5C318.4,127.7,318.4,127.3,318.3,127z M330.1,152.3c0,1.7,0.1,1.4,0.4,3.3
			c-0.3,0.7-1.2,0.5-1.2-1.1C330.8,155.6,329,152.7,330.1,152.3z M257.9,38.1c-0.3,0-0.6,0.1-0.7,0.3c-0.3-0.2-0.6-0.4-0.9-0.6
			c-0.2-0.2-0.3-0.4-0.5-0.6C256.5,37.5,257.2,37.8,257.9,38.1z M331.9,161.7c-0.6,0.4-0.7-0.6-1.3-0.3c0.3-0.7-0.3-2.8,0.6-2.6
			c-0.8-0.5-0.3-2.7-0.5-4.1C330.8,157.5,332,159.6,331.9,161.7z M335.9,167.7c-0.4,0-0.6,0.4-0.6,0.9c-0.5,0-0.5-1-0.5-2.1
			c0.5,0.7,0.4-0.3,0.9,0.4c0.1-0.8-0.4-2.5,0.4-2.2C335.8,165.3,335.9,166.6,335.9,167.7z M335.5,162.6c-0.8-1.1-0.4-1.6-0.3-3
			C335.9,160.7,335.5,161.3,335.5,162.6z M328.6,148.8c-0.3-0.3-0.6-0.9-0.8-1.9C328.4,146.6,328.9,148.1,328.6,148.8z M325.2,144
			c-0.6-0.9-0.3-1.5-0.9-3.1C325,140.8,325.4,143.4,325.2,144z M322.5,135.5c0.8,0.2,0.3,1.6,1,2.7
			C322.8,138.7,322.8,136.4,322.5,135.5z M326,141.4c-1-1.2-1.1-2-2-4.1c0.5,0.5,1.3,2.5,0.9,0.2C325.9,137.7,325.6,139.9,326,141.4
			z M319.3,124.7c1.4,3.8,2.5,4.9,3.4,6.6c0.3,0.9-0.5,0.6-0.3,1.4c0.8-0.9,1.7,2,2.3,4c-0.8,0.1-1.1,0.3-1.3-0.1
			c0.1-0.5-0.3-1.8-0.8-2.3c-0.2,1.2-1-1-1.5-0.8c-0.1-0.8,0.1-0.9,0.5-0.6c-1.4-2.7-1.9-6.4-3.3-9.1c0.3,0,0.7,0.5,0.6-0.2
			c-0.5,0.9-0.6-1.3-1-0.9c0,0.5-0.2,0.5-0.5,0.2c-0.2-0.9-0.4-1.9-0.7-2.8c0.5-0.6,0.6,1.7,1.1,1.4c-0.7-1.7-0.8-4.8-1.8-4.9
			c0.5,1.7,0.9,2.3,0.7,3.5c0-0.1,0-0.1,0-0.2c-0.5-1.5-1.1-3-1.8-4.5c0.3-0.2,0.4-0.5,0.5-0.8c0,0,0,0,0,0c1,0.4,1.5,1.4,1.9,2.6
			c0.4,1.1,0.6,2.4,1.2,3.2c0,1.1-0.3,1.1-0.4,1.5c0.9,0.4,2.3,3.9,2.4,4.7C319.9,126.8,319.8,124.7,319.3,124.7z M329.8,141.8
			c-0.1-1.5-0.9-1.9-0.6-2.9C330,138.2,330.9,142,329.8,141.8z M328.8,138.1c0.4-1,0.2-2.8,1-3.3C330,136.5,330.1,138.1,328.8,138.1
			z M313.3,108.4c-0.2-0.3-0.4-0.5-0.6-0.7c0-0.2,0.1-0.3,0.2-0.5C313.1,107.6,313.2,108,313.3,108.4z M302.1,89.8
			c0-0.1,0-0.1,0-0.2c-0.1-0.5,0-1.1,0.2-1.6c0.4,0.6,0.7,1.1,1.1,1.7c0.8,1.2,1.7,2.4,2.6,3.4c-0.3,0.2-0.7,0.3-0.2,1
			c0.3-0.1,0.6-0.5,0.9-0.1c0.5,1.1,0.8,2.1,0.9,2.9c-1.4-1.4-2.8-3.5-4.3-5.6C302.9,90.9,302.5,90.4,302.1,89.8z M309.6,101.3
			c0.3,0.4,0.6,0.8,0.8,1.4C310.1,102.2,309.8,101.8,309.6,101.3z M312.7,105.6c-0.1,0.1-0.1,0.1-0.2,0.2c-0.3-0.4-0.7-0.9-1.2-1.5
			c-0.2-0.6-0.4-1.1-0.5-1.9C311.8,103.9,312,104.5,312.7,105.6z M309.4,98.6c-0.4,2.1-0.1,0.9,0.8,3.2c-0.3-0.5-0.5-0.7-0.8-0.8
			c-0.4-0.8-0.8-1.7-1-2.3c0.3,0.1,0.5,0.3,0.8,0.5c-0.2-0.4-0.6-0.8-0.9-1.2c0-0.1,0-0.1,0-0.2c-0.1-0.1-0.2-0.2-0.3-0.3
			c-0.1-0.2-0.1-0.3,0-0.5C308.5,97.6,308.9,97.4,309.4,98.6z M282.8,55.2c0.5,0.6,0.9,1,1.2,1.3c-0.1,0-0.1,0-0.2,0
			c-0.2-0.1-0.4-0.2-0.7-0.3C282.7,55.7,282.3,55.3,282.8,55.2z M289.7,63.2c-0.3-0.1-0.5-0.2-0.8-0.3c-0.1-0.1-0.2-0.2-0.3-0.3
			c-0.3-0.1-0.6-0.2-0.9-0.2c-0.2-0.1-0.4-0.2-0.5-0.3c-0.4-0.3-0.3-1,0.2-1.3c0.1-0.1,0.3-0.1,0.4-0.1c0,0,0.1,0,0.1,0
			c0.2,1.3,1.6,2.1,1.8,1.7C289.9,62.9,289.9,63.1,289.7,63.2z M291.3,63.7c-0.1-0.1-0.2-0.3-0.2-0.4c0.2,0.1,0.5,0.2,0.8,0.5
			C291.7,63.8,291.5,63.8,291.3,63.7z M293.8,66.9c-0.1-0.3-0.1-0.7-0.1-1c0.4,0.6,0.6,1.1,0.5,1.5C294.1,67.2,293.9,67,293.8,66.9z
			 M294.7,67.9c0.6,0.2,1.2,0.8,2,1.6C296.3,70.4,294.9,68.6,294.7,67.9z M299.7,74.7C299.7,74.7,299.7,74.7,299.7,74.7
			C299.6,74.6,299.6,74.6,299.7,74.7C299.7,74.7,299.7,74.7,299.7,74.7z M299,73.8c-0.2-0.3-0.5-0.6-0.7-0.9
			c-0.3-0.9-0.8-1.8-1.6-2.8C297.9,69.9,299,72.6,299,73.8z M299.5,72.6c-0.2-0.6,1.1,1.4,2.1,2.6C300.6,75.3,299.8,73.6,299.5,72.6
			z"/>
	</defs>
	<use xlink:href="#SVGID_1_"  style="overflow:visible;fill-rule:evenodd;clip-rule:evenodd;fill:#040000;"/>
	<clipPath id="SVGID_2_">
		<use xlink:href="#SVGID_1_"  style="overflow:visible;"/>
	</clipPath>
</g>
</svg>
