<?xml version="1.0" encoding="utf-8"?>
<!-- Generator: Adobe Illustrator 21.1.0, SVG Export Plug-In . SVG Version: 6.00 Build 0)  -->
<svg version="1.1" id="圖層_1" xmlns="http://www.w3.org/2000/svg" xmlns:xlink="http://www.w3.org/1999/xlink" x="0px" y="0px"
	 viewBox="0 0 713.7 349" style="enable-background:new 0 0 713.7 349;" xml:space="preserve">
<style type="text/css">
	.st0{fill:#FDDAC0;}
	.st1{fill:#F8B295;}
	.st2{fill:#D4D7DB;}
	.st3{fill:#E8A26F;}
	.st4{fill:#FFB9A4;}
	.st5{fill:#B9BCC1;}
	.st6{fill:#9A9FA6;}
	.st7{fill:#981A1C;}
	.st8{fill:#B9887C;}
	.st9{fill:#E8EBF0;}
	.st10{fill:#754C24;}
	.st11{fill:#F6A383;}
	.st12{fill:#D67051;}
	.st13{fill:#F68D65;}
	.st14{fill:#F67645;}
	.st15{fill:#8C6239;}
	.st16{fill:#2A3954;}
	.st17{fill:#D12325;}
	.st18{display:none;fill:#FDA625;}
	.st19{fill:#FF8754;}
	.st20{fill:#FFFFFF;}
	.st21{fill:#FED821;}
</style>
<g id="栝鍣_1">
</g>
<g id="栝鍣_2">
</g>
<g>
	<g>
		<path class="st0" d="M81.4,281.1c-0.8-1.7-1.6-3.2-2.3-4.9c-0.7-1.3-1.2-2.6-1.9-3.9c-1-2-2.3-4.3-3.1-6.5c-0.9-2.3-1-4.8-2.2-6.9
			c-1.7-3-4.1-5.6-4.1-5.6c-2.5-2.5-6.5-3.1-9.6-2.1c-3.5,1.1-6.4,3.5-8.5,6.3c-2.3,3.1-3.4,7-5.5,10.3c-1.5,2.2-3.7,2.9-5.7,4.3
			c-2.5,1.5-4.9,3.2-6.8,5.3c-4.7,4.8,1.6,4.9,1.6,4.9l3.5-1.7c1.2-0.9,2.5-1.8,3.8-2.6c0.7-0.4,3-2.9,3.9-2.3
			c0.1,0.1,0.2,0.2,0.2,0.3c0.9,1.7-1.1,3.2-2,4.5c-2.2,2.7-4.4,5.7-5.6,8.9c-2.7,6.3,3.4,4,3.4,4l2.5-2.8c0.8-0.9,5.4-9.3,6.5-6.6
			c0.3,0.7-0.7,1.6-1,2.2c-0.4,0.9-0.8,1.7-1.2,2.5c-1.3,3.1-2.6,6.4-3.1,9.7c-1,6.7,4.3,3.1,4.3,3.1l1.8-3.4
			c1.2-3.1,2.2-6.2,3.2-9.3c0.3-0.9,1-1.2,1.9-1.3c0.3,0,2.2,0.1,2.5,0.6c0,0.1,0,0.1,0.1,0.2c-0.3,4.5-0.7,8.8,0.1,13.3
			c1.1,7.6,4.9,1.7,4.9,1.7l0.3-4.3c0.3-2.6,0.3-5.1,1-7.8c0.9-3.2,2.3-6.7,4.5-9.3c0.9-1.1,1.8-2.3,2.7-3.8
			c1.1,2.7,2.7,5.7,4.8,8.2c4.6,5.3,6.5-1.5,6.5-1.5L81.4,281.1z"/>
		<path class="st1" d="M81.4,281.1l0.4-0.3c-0.8-1.7-1.6-3.2-2.3-4.9c-0.7-1.3-1.2-2.6-1.9-3.9c-1-2.1-2.3-4.3-3.1-6.4
			c-0.4-1-0.8-2.2-1-3.5c-0.2-1.2-0.7-2.3-1.2-3.6c-0.9-1.6-1.9-3-2.8-4c-0.4-0.6-0.8-0.9-1.1-1.2c-0.2-0.2-0.2-0.3-0.3-0.3v-0.1
			l0,0l0,0l0,0l0,0l0,0l-0.3,0.3l0.3-0.3c-1.1-1.2-2.6-1.9-4.1-2.3c-1.6-0.4-3.2-0.4-4.7-0.2c-0.4,0-0.9,0.2-1.3,0.3
			c-3.6,1.1-6.5,3.6-8.7,6.5c-1.2,1.7-2.1,3.4-2.8,5.1c-0.8,1.8-1.6,3.6-2.6,5.1c-0.6,1-1.5,1.7-2.5,2.3c-1,0.6-2,1.1-3.1,1.8
			c-2.5,1.5-4.8,3.4-6.9,5.4c-0.7,0.7-1.2,1.5-1.6,2c-0.3,0.6-0.4,1.2-0.3,1.7c0.1,0.6,0.4,1,0.9,1.2c0.6,0.4,1.3,0.7,1.9,0.7
			c0.6,0,1.1,0.1,1.1,0.1h-0.1l3.6-1.8l0,0c1.2-0.9,2.5-1.8,3.8-2.6c0.2-0.2,0.3-0.3,0.7-0.6c0.3-0.3,0.8-0.8,1.3-1.1
			c0.2-0.2,0.4-0.3,0.7-0.4c0.2-0.1,0.4-0.1,0.6-0.2h0.1l0,0l0,0l0,0l0,0l0,0l0,0l0,0c0,0,0,0,0,0.1s0.1,0.3,0.1,0.4
			c0.1,0.2,0,0.4-0.1,0.8c-0.1,0.3-0.6,0.9-0.9,1.3s-0.8,0.9-1.1,1.3c-2.2,2.7-4.3,5.8-5.7,9.1c-0.6,1.5-0.9,2.6-0.7,3.4
			c0,0.4,0.2,0.9,0.4,1.1c0.3,0.4,0.9,0.7,1.3,0.7c0.4,0.1,1,0,1.3-0.1c0.7-0.1,1.2-0.2,1.3-0.3h0.3l2.6-3l0,0
			c0.1-0.1,0.2-0.3,0.4-0.6c0.6-0.9,1.5-2.3,2.6-3.8c0.4-0.8,1-1.3,1.5-1.8c0.3-0.2,0.4-0.3,0.7-0.6c0.2-0.2,0.3-0.2,0.4-0.2
			c0.1,0,0.1,0,0.1,0s0,0.1,0.2,0.2v0.1c0,0,0,0.1,0,0.2c-0.1,0.1-0.2,0.4-0.4,0.6c-0.1,0.3-0.4,0.4-0.6,0.8
			c-0.4,0.9-0.8,1.7-1.2,2.5c-1.5,3.2-2.5,6.5-3.1,9.8l0,0c-0.1,1.1-0.2,1.9-0.1,2.7c0,0.4,0.2,0.8,0.3,1.1c0.3,0.4,0.7,0.7,1.1,0.8
			c0.3,0.1,0.9,0.1,1.2,0.1c0.7-0.1,1.2-0.3,1.6-0.6c0.4-0.2,0.7-0.4,0.7-0.4l0,0l1.8-3.6l0,0c1.2-3.1,2.2-6.2,3.2-9.4
			c0.1-0.3,0.2-0.6,0.4-0.6c0.2-0.2,0.4-0.2,0.7-0.3c0.1,0,0.2-0.1,0.3,0c0.1,0,0.2,0,0.4,0c0.3,0,0.8,0.1,1.1,0.1
			c0.1,0.1,0.2,0,0.3,0.1l0,0l0,0l0.1-0.1h-0.1l0,0l0.1-0.1h-0.1l0.2-0.2l-0.2,0.1v0.1l0.2-0.2l-0.2,0.1l0.2-0.1l-0.2,0.1v0.1
			l0.2-0.1l-0.2,0.1h0.1h-0.1l0,0h0.1h-0.1l0,0l0,0c-0.3,4.5-0.7,8.9,0.1,13.4c0,0.1,0,0.1,0.1,0.2c0.2,1.6,0.7,2.7,1.2,3.2
			c0.2,0.3,0.6,0.6,0.9,0.7c0.3,0.1,0.7,0.1,1,0.1c0.4,0,0.9-0.2,1.1-0.4c0.4-0.3,0.9-0.8,1.2-1.2c0.3-0.3,0.6-0.7,0.6-0.7l0.1-0.1
			l0.6-4.4c0.4-2.7,0.3-5.3,1-7.8c0.9-3.1,2.2-6.5,4.5-8.9l0,0c1-1.1,1.9-2.5,2.7-3.9l-0.4-0.2l-0.6,0.2c1.1,2.7,2.7,5.8,4.8,8.3
			c0.8,0.8,1.5,1.5,2.1,1.8c0.7,0.3,1.3,0.4,1.9,0.3c0.7-0.1,1.2-0.3,1.6-0.9c0.7-0.6,1.1-1.3,1.3-2c0.3-0.6,0.3-1.1,0.4-1.1
			l0.1-0.1l-1.1-3.9l0,0L81.4,281.1l-0.6,0.2l1.1,3.7l0.6-0.2l-0.6-0.2l0,0c0,0.1-0.2,0.8-0.7,1.6c-0.2,0.4-0.4,0.8-0.9,1
			c-0.2,0.3-0.7,0.4-1,0.6s-0.7,0-1.2-0.3c-0.6-0.3-1-0.7-1.8-1.6c-1.9-2.3-3.5-5.4-4.6-7.9l-0.4-1l-0.6,1c-0.8,1.3-1.7,2.7-2.6,3.7
			l0.3,0.3l-0.3-0.3c-2.3,2.7-3.7,6.2-4.6,9.4c-0.8,2.7-0.7,5.3-1,7.9l-0.7,4.3l0.4,0.1l-0.4-0.3l0,0c-0.1,0.1-0.4,0.6-0.8,1
			c-0.2,0.2-0.4,0.3-0.7,0.6c-0.2,0.2-0.4,0.3-0.6,0.3s-0.2,0-0.3,0c-0.1-0.1-0.4-0.3-0.8-0.8s-0.6-1.2-0.7-2.3c0-0.1,0-0.1-0.1-0.2
			c-0.7-4.3-0.3-8.7,0-13.2c0-0.1,0.1-0.1,0-0.3c0-0.1,0-0.1-0.1-0.2c-0.1-0.2-0.2-0.3-0.3-0.3c-0.2-0.2-0.4-0.2-0.7-0.2
			c-0.3-0.1-0.8-0.1-1.1-0.1s-0.6,0-0.8,0c-0.1,0-0.3,0-0.6,0.1c-0.4,0-0.9,0.2-1.1,0.4c-0.4,0.2-0.6,0.7-0.8,1.2
			c-1,3.1-2.1,6.3-3.2,9.3l0.6,0.2l-0.4-0.2l-1.8,3.4l0.4,0.2l-0.2-0.4l0,0c0,0-0.3,0.2-0.7,0.3c-0.4,0.2-0.8,0.3-1.2,0.4
			c-0.4,0-0.7,0-1,0c-0.1-0.1-0.2-0.2-0.3-0.3c-0.1-0.2-0.1-0.4-0.2-0.8c-0.1-0.6-0.1-1.2,0.1-2.2l0,0c0.6-3.4,1.7-6.6,3-9.6
			c0.3-0.8,0.8-1.7,1.1-2.3c0.1-0.1,0.2-0.2,0.2-0.3c0.2-0.2,0.4-0.4,0.6-0.8c0.1-0.1,0.1-0.3,0.2-0.6c0.1-0.1,0.1-0.3,0-0.6
			c0-0.1-0.1-0.2-0.1-0.3c-0.1-0.3-0.3-0.4-0.6-0.7c-0.3-0.1-0.6-0.2-0.8-0.1c-0.3,0.1-0.7,0.2-0.9,0.4c-0.4,0.3-1.1,1-1.6,1.7
			c-0.8,1-1.6,2.1-2.2,3.2c-0.3,0.4-0.7,0.9-0.9,1.3c-0.1,0.1-0.2,0.3-0.3,0.4s-0.2,0.2-0.2,0.2l0,0l-2.5,2.8l0.3,0.3l-0.2-0.6l0,0
			c-0.1,0-0.6,0.2-1.1,0.2c-0.4,0-1,0.1-1.5,0c-0.2,0-0.3-0.1-0.4-0.3c-0.1-0.1-0.2-0.3-0.3-0.4c-0.1-0.6,0-1.5,0.7-2.8
			c1.3-3.1,3.4-6,5.6-8.7c0.3-0.4,1-1,1.6-1.8c0.2-0.3,0.4-0.8,0.7-1.1c0.1-0.3,0.2-0.9,0.1-1.3c-0.1-0.2-0.1-0.4-0.2-0.8
			c0-0.1-0.2-0.3-0.3-0.4s-0.3-0.1-0.4-0.2c-0.1-0.1-0.2,0-0.4,0c-0.3,0.1-0.8,0.2-1,0.4c-0.4,0.3-1.1,0.7-1.6,1.1
			c-0.2,0.2-0.4,0.3-0.7,0.6c-0.2,0.2-0.3,0.2-0.3,0.3c-1.2,0.9-2.5,1.8-3.8,2.6l0.2,0.4l-0.3-0.4l-3.5,1.7l0.3,0.4v-0.4l0,0
			c-0.1,0-0.8,0-1.5-0.2c-0.3-0.1-0.7-0.2-1-0.4c-0.3-0.1-0.3-0.3-0.4-0.6s-0.1-0.6,0.2-1c0.2-0.4,0.7-1,1.3-1.7
			c1.9-2,4.4-3.8,6.7-5.3c1-0.7,2.1-1.1,3.1-1.8c1-0.7,2-1.3,2.8-2.7c1.1-1.7,1.8-3.6,2.7-5.3c0.8-1.8,1.6-3.5,2.8-5
			c2-2.8,4.8-5.1,8.2-6c0.3-0.1,0.8-0.2,1.2-0.2c1.3-0.2,2.9-0.2,4.3,0.1c1.5,0.3,2.7,1,3.6,2l0,0l0,0l0.3-0.3l-0.3,0.3l0,0l0.3-0.3
			l-0.3,0.3l0,0c0.2,0.2,2.5,2.6,4.1,5.5c0.6,1,0.9,2.1,1.2,3.2c0.3,1.1,0.6,2.5,1,3.6c0.9,2.3,2.1,4.4,3.1,6.5
			c0.7,1.3,1.2,2.6,1.9,3.9c0.8,1.7,1.6,3.2,2.3,4.9L81.4,281.1l-0.6,0.2L81.4,281.1z"/>
		<path class="st2" d="M259.6,188.6c-4.3-3.2-9.3-6.2-14.9-8.7c-2.5-1.2-5.3-2.3-7.9-3.4c-0.3-0.1-0.8-0.3-1.2-0.4
			c-0.2,0-0.4-0.2-0.7-0.2c-0.6-0.2-1.1-0.3-1.6-0.6c-0.3-0.1-0.7-0.2-1.1-0.3c-0.4-0.2-0.9-0.3-1.3-0.6c-0.1,0-0.1-0.1-0.2,0
			c-2-0.7-2.6-0.9-4.6-1.5c-0.2,0-0.3-0.1-0.7-0.1c-0.1,0-0.1-0.1-0.2,0c-0.2,0-0.3-0.1-0.7-0.1c-2.3-0.7-4.8-1.3-7.2-2
			c-0.1-0.1-0.3-0.1-0.6-0.2c-0.9-0.2-1.7-0.4-2.6-0.6c-0.8-0.2-1.6-0.4-2.3-0.6c-0.7-0.1-1.5-0.3-2-0.6c-0.9-0.2-1.9-0.4-2.8-0.7
			c-0.7-0.1-1.1-0.3-1.8-0.3c-1-0.2-2-0.6-3-0.7c-0.4-0.1-1.1-0.2-1.7-0.3c-1-0.2-2.1-0.4-3.1-0.7c-0.4-0.1-1.1-0.2-1.7-0.3
			c-1-0.1-2-0.4-3-0.6c-0.7-0.1-1.2-0.2-1.9-0.3c-0.4-0.1-1-0.2-1.7-0.3c-1-0.1-2-0.3-2.9-0.4l0,0c-11.1-2-21.6-3.5-30.3-4.6
			c-2.9,50.7-31.8,100.2-36.6,150.8c30.8-1.7,56,29.8,86.8,25.7c-5.8-44.3,25.1-95.2,41.8-125.2C251.3,204,255.4,196.9,259.6,188.6"
			/>
		<path class="st0" d="M261.2,103.8c0,0,9.2-0.2,8.5,7s-6,19.6-14.8,17.6c0,0-0.6-1.1,0.1-1.9c0.7-0.9,4.4-22.7,4.4-22.7H261.2z"/>
		<path class="st3" d="M260.8,108.8l-0.1-0.2L260.8,108.8L260.8,108.8l-0.1-0.2L260.8,108.8c0,0,1.1-0.1,2.3,0.2
			c0.6,0.2,1.1,0.3,1.6,0.7c0.3,0.3,0.8,0.8,0.9,1.5c0.1,0.6,0.1,1.3-0.1,2.5c-0.2,1-0.8,2.2-1.7,3.9c-0.2,0.4-0.1,0.9,0.2,1.1
			c0.4,0.2,0.9,0.1,1.1-0.2c0.9-1.6,1.6-3,1.9-4.1s0.4-2.2,0.2-3.1c-0.2-1.1-0.8-1.9-1.5-2.5c-1-0.9-2.2-1.1-3.2-1.3
			c-1-0.1-1.7,0-1.8,0c-0.4,0-0.8,0.4-0.8,1C260.1,108.5,260.4,108.8,260.8,108.8L260.8,108.8z"/>
		<polyline class="st4" points="195.1,176.6 222,180.7 228.1,147.2 201.1,143.2 195.1,176.6 		"/>
		<path class="st5" d="M192.7,162.5l-4,1.8c0.1,0,0.2,0,0.3,0c0.4,0.1,1,0.1,1.7,0.3c0.7,0.1,1.2,0.2,1.9,0.3c0.4,0.1,1,0.1,1.5,0.2
			C193.3,163.7,192.7,162.5,192.7,162.5"/>
		<path class="st6" d="M188.7,164.3l-4.3,1.9c-4.4,7.3,10.7,27.7,10.7,27.7l4-4.5l-0.2-1.1l5.5-4.7l1.9-2.1l0,0
			c-1.6-1-2.9-2.3-4.3-3.8l-6.9-1l1.3-6.9c-1-1.7-1.8-3.2-2.3-4.5c-0.4-0.1-1-0.1-1.5-0.2c-0.7-0.1-1.2-0.2-1.9-0.3
			c-0.4-0.1-1-0.2-1.7-0.3C188.9,164.3,188.8,164.3,188.7,164.3"/>
		<polyline class="st7" points="204.5,183.7 199,188.4 199.2,189.5 204.5,183.7 		"/>
		<path class="st6" d="M207.4,180.3l-1,1.1l0,0C206.6,181.4,207,180.9,207.4,180.3 M208.4,179.1c-0.2,0.1-0.6,0.7-1,1.1l0,0
			L208.4,179.1C208.5,179,208.5,179,208.4,179.1"/>
		<path class="st8" d="M196.4,169.7l-1.3,6.9l6.9,1C199.8,175.1,197.9,172.3,196.4,169.7"/>
		<path class="st9" d="M193.8,159.5c0,0,5.1,13.1,13.5,18.9c0.3,0.2,0.8,0.4,1.1,0.6l-10.1,14.3c0,0-19-21.1-14.5-28.3L193.8,159.5z
			"/>
		<path class="st5" d="M230.4,168.2c0,0-1.8,2.1-4.6,4.7c0.1,0,0.1,0.1,0.2,0c2.1,0.7,2.7,0.8,4.6,1.5c0.1,0,0.1,0.1,0.2,0
			c0.4,0.2,0.9,0.3,1.3,0.6c0.3,0.1,0.7,0.2,1.1,0.3c0.6,0.2,1.1,0.3,1.6,0.6c0.2,0,0.4,0.2,0.7,0.2l0.1,0.1c0.4-1,0.6-1.8,0.6-2.7
			L230.4,168.2"/>
		<path class="st6" d="M225.8,172.9c-0.4,0.3-0.9,0.8-1.3,1.2c-0.4,0.3-0.9,0.8-1.5,1.2l-1,5.3l-5.5-0.8c-1.3,0.8-2.8,1.5-4.3,1.9
			h0.2l2.8,10.5l0,0l0.7,1.3l0.6,0.9l1.2,2.3c0,0,5-3.5,9.8-8.1c3.7-3.4,7.2-7.3,8.7-10.7c-0.3-0.1-0.8-0.3-1.2-0.4
			c0.3-0.4,0.6-1,0.7-1.5l-0.1-0.1c-0.2,0-0.4-0.2-0.7-0.2c-0.6-0.2-1.1-0.3-1.6-0.6c-0.3-0.1-0.7-0.2-1.1-0.3
			c-0.4-0.2-0.9-0.3-1.3-0.6c-0.1,0-0.1-0.1-0.2,0c-2-0.7-2.6-0.9-4.6-1.5C226,172.9,225.8,172.9,225.8,172.9"/>
		<path class="st7" d="M212.3,181.8c-0.3,0.1-0.7,0.2-1.1,0.3c-0.2,0.1-0.4,0.1-0.7,0.2c-0.2,0.1-0.3,0-0.6,0.1l5.4,10.1l0,0
			l-2.8-10.5L212.3,181.8"/>
		<path class="st8" d="M222.9,175.3c-2,1.6-4.1,3.1-6.5,4.5l5.5,0.8L222.9,175.3"/>
		<path class="st9" d="M235,177.6c-3.7,5.8-13.8,12.8-19.1,16c-2,1.2-3.2,2-3.2,2l-4.3-16.8c0.4,0.1,0.8,0,1.2-0.1
			c3.7-1.2,7.4-3.5,10.5-5.9c5.1-3.9,8.7-8.1,8.7-8.1l7.3,8.3c0,0.1,0.1,0.3,0,0.4C236.4,174.8,235.9,176.3,235,177.6z"/>
		<path class="st10" d="M251.7,68.5c0,0,20.9-2.6,18.3,10.3c-2.6,12.8-14.2,22.4-14.2,22.4L251.7,68.5z"/>
		<path class="st0" d="M260.6,107.3c0,1,0,2,0,2.9c-0.1,2.7-0.1,5-0.3,7.3c-0.1,0.1,0,0.3-0.1,0.4c-0.1,1-0.2,1.9-0.3,2.9
			c0,0.3,0,0.6-0.1,0.9c0,0.1,0,0.2,0,0.3c-0.4,3.1-0.9,5.9-1.5,8.5c-0.3,1.5-0.7,2.7-1.1,4c-6.3,20.5-20.4,23.9-35.6,23.8
			c-14.1-0.1-26.1-11.4-31.7-27.9c-1.7-4.9-2.9-10.3-3.2-16c-0.2-2.8-0.3-5.7-0.2-8.6c1.1-28.7,18.6-51.9,39.2-51.7
			c33.4,0.3,35.2,35.7,35.1,52.5C260.5,107.1,260.6,107.2,260.6,107.3z"/>
		<path class="st11" d="M260.2,117.5c0.2-2.3,0.3-4.7,0.3-7.3c-1.6-0.7-3.2-1.1-4.9-1.1c-6.4-0.1-11.7,4.7-11.7,10.7
			s5.1,11,11.5,11.1c0.7,0,2.1,0,2.9-0.1c0.6-2.6,1.1-5.5,1.5-8.5c0-0.1,0-0.2,0-0.3c0-0.2,0-0.6,0.1-0.9c0.1-1,0.2-1.9,0.3-2.9
			V117.5z"/>
		<path class="st12" d="M259.8,121c0,0.3,0,0.6-0.1,0.9c0,0.1,0,0.2,0,0.3c-1.6,0.7-3.1,0.2-4.7-0.3
			C256.5,121.4,258.1,120.9,259.8,121z"/>
		<path class="st12" d="M260.2,117.5c-1.2-0.6-2.5-0.8-4.3,0c1.7,0.9,3,1.1,4.1,0.6L260.2,117.5z"/>
		<path class="st10" d="M260.2,48.4c-3.2,0.1-6.6,0-9.6-0.3c-45.6-28.1-58.9,10-71.7,18c-13.4,8.4,1.8,39.5,1.8,39.5
			s4.6-0.8,6.6-0.7c2,0,12.8-37.2,12.8-37.2l16.8-3.7c0,0,14,3.8,27.9,6.2c-2.2,2.2-4.5,3.7-6.5,3.6c-7-0.6,17,9.1,30.9-2.2
			c2.1-0.6,5.1-6,5.9-7.6C284.7,43.4,267,46,260.2,48.4z"/>
		<path class="st13" d="M241.2,134.9c-1.8,7.4-6.3,12.8-11.4,13c-6.7,0.3-12.4-8.5-12.4-19.5l13.3-0.6l11.4-0.4
			C241.9,130.1,241.7,132.7,241.2,134.9z"/>
		<path class="st14" d="M241.2,134.9c-1.9-3.2-6.8-5.6-10.6-6.9l11.4-0.4C241.9,130.1,241.7,132.7,241.2,134.9z"/>
		<path class="st15" d="M267.6,62.1l0.7,0.1L267.6,62.1L267.6,62.1l0.7,0.1L267.6,62.1c0,0,0,0.1,0,0.2c-0.1,0.7-0.8,2.1-2.1,3.6
			c-1.3,1.5-3.5,2.9-6.7,3.5c-1.2,0.1-2.8,0.3-4.5,0.1c-0.7,0-1.2,0.4-1.3,1.1c0,0.7,0.4,1.2,1.1,1.3c1.9,0.1,3.6,0,5-0.2
			c2.2-0.3,4-1.1,5.5-2c2.1-1.5,3.5-3.1,4.4-4.6c0.8-1.5,1.1-2.5,1-2.6c0.1-0.7-0.2-1.3-0.9-1.5C268.3,61,267.7,61.4,267.6,62.1
			L267.6,62.1z"/>
		<path class="st15" d="M259.3,60.9l0.4,0.2L259.3,60.9L259.3,60.9l0.4,0.2L259.3,60.9L259.3,60.9c-0.1,0.1-0.6,0.9-1.3,1.7
			c-0.8,0.8-2,1.6-3.7,1.8c-1.2,0.1-2.7,0.1-4.6-0.3c-0.3-0.1-0.9,0.2-1,0.6c-0.1,0.3,0.2,0.9,0.6,1c2,0.6,3.7,0.6,5.1,0.3
			c2.2-0.3,3.8-1.5,4.8-2.5s1.5-1.9,1.3-2c0.2-0.4,0-0.8-0.3-1.1C260,60.3,259.6,60.5,259.3,60.9L259.3,60.9z"/>
		
			<ellipse transform="matrix(1.301253e-02 -0.9999 0.9999 1.301253e-02 79.9774 321.2398)" class="st11" cx="202.7" cy="120.1" rx="11" ry="11"/>
		<path class="st12" d="M202.8,119.7c-1.9-0.7-3.8-1.3-6.4-0.9C198.7,120.8,200.7,120.5,202.8,119.7z"/>
		<path class="st12" d="M197.9,115.3c1.5,1.1,2.7,0.8,4.6-0.1C200.6,114.3,199.1,114.7,197.9,115.3z"/>
		<path class="st16" d="M233.1,106.6c-3.7,5.4-2.3,14.1,2.6,16.3C232.1,117.7,232.3,112.2,233.1,106.6z"/>
		<path class="st0" d="M185.2,105.6c0,0-9.2-0.4-8.7,7c0.4,7.5,5.6,20.8,14.3,18.8c0,0,0.6-1.1,0-2c-0.6-1-3.8-23.8-3.8-23.8
			L185.2,105.6z"/>
		<path class="st3" d="M185.6,109.3c0,0-1.1-0.1-2.3,0c-0.6,0.1-1.1,0.2-1.6,0.6c-0.8,0.3-1.7,1-2.1,2c-0.6,1-0.7,2.2-0.4,3.8
			c0.2,1.5,0.9,3.1,1.9,5.1c0.2,0.4,0.8,0.6,1.1,0.3c0.4-0.2,0.6-0.8,0.3-1.1c-1-1.9-1.5-3.6-1.8-4.6c-0.2-0.9-0.1-1.5,0-2
			c0.2-0.8,0.6-1.2,1-1.7c0.4-0.3,1.1-0.6,1.7-0.7c0.4,0,1-0.1,1.2-0.1c0.1,0,0.3,0,0.3,0h0.1l0,0l0,0v-0.3v0.3l0,0v-0.3v0.3
			c0.4,0.1,0.9-0.2,0.9-0.8C186.4,109.7,186,109.3,185.6,109.3L185.6,109.3z"/>
		<path class="st2" d="M236.9,201l17.3,61.5c1.9,6.7,9.1,10.5,16,8.5s11.1-9.1,9.2-15.7l-17.3-61.5c-1.9-6.7-9.1-10.5-16-8.5
			C239.3,187.3,235.1,194.3,236.9,201"/>
		<path class="st2" d="M149.8,160.4l-60.1,21.9c-6.6,2.3-9.8,9.8-7.3,16.6s9.7,10.3,16.3,7.9l60.1-21.9c6.6-2.3,9.8-9.8,7.3-16.6
			C163.6,161.6,156.3,158.1,149.8,160.4"/>
		<path class="st17" d="M163.5,157.7c0,0,6.6,0.9,7.5,1.1c0.8,0.3-1,47.3-1,47.3s46.2,13.5,50,11.2c3.8-2.5,21.7-40,21.7-40l7.2,3
			c0,0-21.7,48.9-21.7,53.9s-7.7,36.1-7.5,41.2c0.2,5-0.4,62.9-5.4,73.6c0,0-77.1,5.7-97-14.3c-19.8-20,34-127.1,34-127.1l3.8-3.6
			L163.5,157.7z"/>
		<path class="st2" d="M78.2,192l-26.1,58.4c-2.8,6.4,0.2,13.9,6.8,16.8s14.2,0.1,17-6.3l26.1-58.4c2.8-6.4-0.2-13.9-6.8-16.8
			C88.8,182.9,81.1,185.6,78.2,192"/>
		<path class="st0" d="M284.5,201.2c5.4,3.8,11.5,6.5,17.3,9.3c1.7,0.8,1.9,1.5,3.5,2.2l0.3-0.7c3.9-8.8,1-12.8-5.3-16.3
			c-6.2-3.7-7.3-10.3-11.2-1.6l-5.7,7C283.6,201.2,284.2,201.1,284.5,201.2z"/>
		<path class="st1" d="M284.5,201.2l-0.3,0.4c5.5,3.9,11.5,6.5,17.4,9.4c0.8,0.3,1.1,0.7,1.7,1c0.4,0.3,1,0.8,1.8,1.2l0.6,0.3
			l0.6-1.2c1.6-3.6,2.1-6.4,1.7-8.8c-0.3-1.8-1.2-3.4-2.3-4.7c-1.2-1.3-2.8-2.5-4.7-3.6c-2-1.1-3.5-2.7-4.7-3.9
			c-0.7-0.6-1.2-1.1-1.7-1.6c-0.3-0.1-0.6-0.4-0.9-0.4c-0.3-0.1-0.7-0.1-1,0s-0.7,0.2-0.9,0.4c-0.4,0.3-0.9,0.9-1.3,1.5
			c-0.4,0.8-0.9,1.6-1.3,2.7l0.6,0.2l-0.4-0.3l-6,7.5l0.4,0.3c0.1,0.1,0.2,0,0.3,0.1c0.1,0.1,0.2,0,0.3,0c0.1,0,0.3,0,0.4,0h0.1l0,0
			l0,0l0,0l0,0l0,0v-0.3l-0.1,0.3c0,0.1,0.1,0.1,0.1,0.1v-0.3l-0.1,0.3L284.5,201.2l0.3-0.4c-0.1-0.1-0.2,0-0.3-0.1
			c-0.1-0.1-0.2,0-0.3,0c-0.1,0-0.3,0-0.4,0h-0.1l0,0l0,0l0,0l0,0l0,0v0.3l0.1-0.3c0-0.1-0.1-0.1-0.1-0.1v0.3l0.1-0.3l-0.5,0.4
			l0.4,0.3l5.7-7v-0.1c0.6-1.5,1.2-2.5,1.7-3.1c0.2-0.3,0.4-0.4,0.6-0.7c0.2-0.2,0.4-0.2,0.4-0.3s0.2,0,0.4,0.1
			c0.3,0.1,0.7,0.3,1.1,0.7c0.7,0.6,1.5,1.5,2.3,2.3c1,0.9,2.1,1.9,3.5,2.7c1.9,1,3.5,2.2,4.5,3.4c1.1,1.2,1.9,2.5,2.1,4.1
			c0.3,2.1,0,4.6-1.7,8.1l-0.3,0.7l0.6,0.2l0.2-0.6c-0.8-0.3-1.1-0.7-1.7-1c-0.4-0.3-1-0.8-1.8-1.2c-5.8-2.9-12-5.5-17.3-9.3
			L284.5,201.2z"/>
		<path class="st0" d="M302.9,204.2c0.9-0.1,0.4,0.7,4.4,1.3c7.6,1.1,15.1-4.1,21.7-7.7c0,0,0.7-2.1,0.3-2.8c-0.1-0.7-2-0.8-2.3-0.8
			l-9.6-17.7l-6,1.8c-0.2,0.1-0.3,0.1-0.4,0.3c-2.7,1.3-4.5,3.6-6.8,5.5c-2.5,2.1-5.8,3.1-8.9,4.1c-1.2,0.3-2.5,0.4-3.7,0.6"/>
		<path class="st1" d="M303,204.7C303.1,204.7,303.1,204.7,303,204.7c0.1,0,0.2-0.1,0.3,0c0.1,0.1,0.6,0.3,1.1,0.6s1.5,0.4,2.7,0.7
			c1.8,0.2,3.4,0.2,5-0.1c3-0.6,5.9-1.8,8.8-3.2c2.9-1.3,5.6-3.1,8.3-4.5l0.2-0.1v-0.2c0,0,0.2-0.6,0.2-1.1c0-0.2,0.1-0.7,0.1-1
			s0-0.6,0-1v-0.1c-0.1-0.2-0.1-0.4-0.3-0.4c-0.2-0.2-0.4-0.3-0.8-0.4c-0.3-0.1-0.8-0.2-1.1-0.2c-0.3,0-0.6,0-0.8-0.1v0.6l0.4-0.3
			l-9.7-18.1l-6.5,2l0,0c-0.1,0-0.3,0.1-0.4,0.3c-2.8,1.5-4.7,3.8-6.9,5.6c-2.5,2-5.7,3.1-8.7,4.1c-0.4,0.1-0.9,0.2-1.3,0.3
			c-0.8,0.1-1.5,0.2-2.2,0.2c-0.3,0-0.4,0.3-0.6,0.7c0,0.3,0.3,0.4,0.7,0.6c0.8,0,1.6-0.1,2.3-0.3c0.4,0,1-0.2,1.5-0.3
			c3.1-0.9,6.5-2.1,9.2-4.3c2.3-1.9,4.3-4.1,6.8-5.4c0.1,0,0.3-0.1,0.4-0.3l-0.3-0.4l0.2,0.6l5.6-1.7l9.5,17.7h0.3
			c0.1,0,0.7,0,1.1,0.1c0.2,0,0.4,0.1,0.7,0.1l0.1,0.1l0,0h0.1h-0.1l0,0h0.1h-0.1l0,0c0,0.1,0,0.3,0,0.6c-0.1,0.3-0.2,0.9-0.3,1.2
			c0,0.2-0.1,0.3-0.1,0.4l-0.1,0.1l0,0l0.6,0.2l-0.3-0.4c-2.7,1.3-5.4,3-8.3,4.5c-2.9,1.3-5.6,2.7-8.5,3.1c-1.6,0.2-3.2,0.3-4.7,0.1
			c-1-0.1-1.7-0.3-2-0.4c-0.3-0.1-0.7-0.1-0.8-0.3c-0.3-0.1-0.4-0.2-0.7-0.3c-0.1-0.1-0.3-0.1-0.3-0.1c-0.1-0.1-0.3,0-0.4,0
			c-0.3,0-0.4,0.3-0.6,0.7C302.5,204.5,302.8,204.8,303,204.7L303,204.7z"/>
		<path class="st0" d="M328.4,169.9c0,0,8.1,1.2,1.8,6.7c0,0,7.6,1.3,2.5,7.3c0,0,6.2,3.2,0.3,7.3c0,0,4.8,2.7,1.1,6.4l-16,4.7
			c0,0-6.9-4,0.1-7.3l2.9-0.9l-3.1,0.2c0,0-6.5-1-2.5-5.3l5.4-1.8l-4.8,0.1c0,0-6-1.9-1.3-5.5l4.9-1.8l-5,0.8c0,0-6.2-2.6-0.7-6.2
			C319.6,171.2,328.4,169.9,328.4,169.9z"/>
		<path class="st0" d="M289.9,192.4c0,0,7.9-21.5,10-22.1c2-0.6,14.5-0.4,16.1,1.9c0.6,0.8,0.8,1.9,0.9,2.8c0.3,1.5,0.6,2.9,0.7,4.4
			c0.2,1.5,0.3,2.9,0.4,4.4c0.1,0.9,0.3,3.5,0.2,4.4c-0.1,1.5-1.6,1.7-2.6,1.7c-1.1-0.1-1.9-0.4-2.6-1.3c-0.9-1.1-1.8-4.7-1.9-6.2
			c-0.1-3-1.1-3.4-1.1-3.4s-4.1,11.9-10.5,13.5"/>
		<path class="st1" d="M290.5,192.6c0,0,0.1-0.3,0.3-0.9c0.8-2,2.7-7.3,4.8-12c1-2.3,2-4.6,2.8-6.3c0.4-0.9,0.8-1.6,1.1-2
			c0.1-0.3,0.3-0.4,0.4-0.4s0.1-0.1,0.1-0.1l0,0l0,0v-0.1v0.1l0,0v-0.1v0.1c0.1,0,0.2-0.1,0.3-0.1c0.7-0.1,2-0.1,3.4-0.2
			c2.2,0,5,0,7.4,0.4c1.1,0.2,2.2,0.3,3,0.7c0.3,0.1,0.8,0.2,1,0.4c0.3,0.1,0.4,0.3,0.4,0.4c0.4,0.7,0.7,1.7,0.8,2.6
			c0.2,0.6,0.2,1,0.2,1.6c0.2,0.9,0.2,1.8,0.4,2.7c0.2,1.5,0.3,2.9,0.4,4.4c0,0.4,0.1,1.3,0.1,2.2c0,0.4,0,0.8,0.1,1.2
			c0,0.3,0,0.7,0.1,0.9c0,0.3-0.2,0.6-0.3,0.7c-0.2,0.2-0.4,0.3-0.8,0.3c-0.2,0.1-0.6,0.1-0.8,0c-0.4-0.1-0.9-0.2-1.2-0.3
			c-0.3-0.1-0.6-0.4-1-0.8c-0.2-0.2-0.3-0.4-0.4-0.8c-0.4-1-0.9-2.8-1.1-4c0-0.4-0.1-0.8-0.1-1.1c0-0.4-0.1-0.9-0.2-1.3
			c-0.2-1-0.4-1.7-0.8-1.9c-0.2-0.4-0.6-0.6-0.7-0.6l-0.6-0.2l-0.2,0.6c0,0,0,0-0.1,0.1c-0.2,0.7-1.3,3.5-3.1,6.5
			c-0.9,1.5-1.9,3-3.1,4.3c-1.1,1.2-2.5,2.1-3.8,2.6c-0.3,0.1-0.4,0.3-0.4,0.6c0.1,0.3,0.3,0.4,0.6,0.4c1.8-0.4,3.2-1.7,4.6-3
			c1.9-2,3.6-4.8,4.6-7s1.7-3.9,1.7-3.9l-0.6-0.2l-0.2,0.6l0.1-0.3l-0.1,0.3l0,0l0.1-0.3l-0.1,0.3l0,0l0,0l0,0l0,0l0,0
			c0,0,0.1,0.1,0.2,0.3c0.2,0.2,0.3,0.6,0.4,1.3c0.1,0.3,0.1,0.8,0.1,1.2c0,0.3,0.1,0.8,0.1,1.2c0.2,0.9,0.3,1.9,0.7,2.9
			c0.1,0.4,0.3,1,0.6,1.3c0.1,0.4,0.3,0.7,0.6,1c0.3,0.4,0.9,0.8,1.2,1c0.6,0.2,1.1,0.3,1.6,0.4c0.3,0,0.7,0,1.1,0s1-0.3,1.3-0.6
			s0.7-0.8,0.7-1.6c0-0.2,0-0.6,0-1.1c0-1.1-0.2-2.8-0.2-3.5c-0.1-1.5-0.2-3-0.4-4.5c-0.1-0.9-0.2-1.8-0.4-2.7
			c-0.1-0.6-0.2-1.1-0.3-1.7c-0.2-0.9-0.4-2-1.1-2.9c-0.2-0.4-0.7-0.7-1.2-0.9c-0.9-0.4-2.1-0.8-3.5-0.9c-2-0.3-4.4-0.4-6.5-0.4
			s-4,0-5,0.2c-0.1,0-0.3,0.1-0.4,0.1s-0.3,0.1-0.4,0.2c-0.2,0.2-0.3,0.3-0.6,0.7c-0.4,0.4-0.8,1.2-1.2,2c-1.6,3-3.6,7.9-5.3,12
			c-1.6,4.1-2.9,7.6-2.9,7.6c-0.1,0.3,0.1,0.6,0.3,0.7C290.2,193,290.4,192.9,290.5,192.6L290.5,192.6z"/>
		<path class="st2" d="M300.9,206.5c-2.5-1.3-4.8-2.6-7.3-3.9c0.6,0.3,1.1,0.6,1.7,0.9c-0.9-0.6-10.9-5.9-10.4-6.7
			c-0.2,0.4-0.6,0.8-0.8,1.3L255,254.9c-3.1,6.2-0.2,13.9,6.4,17.3c6.7,3.4,14.7,1.1,17.9-5c0,0,28.9-56.5,29-56.8
			c-0.2-0.4-1.6-0.9-2-1.1c-1.6-0.8-3-1.7-4.6-2.3C301.5,206.7,301.1,206.6,300.9,206.5z"/>
		<path class="st18" d="M403,102.7l36.2-6.6c1.6-0.2,2.6-1.8,2.3-3.4c-0.2-1.6-1.8-2.6-3.4-2.3L402,97c-1.6,0.2-2.6,1.8-2.3,3.4
			C399.9,101.9,401.4,102.9,403,102.7"/>
		<g>
			<path class="st19" d="M351.6,70.3c0.4,0.4,0.6,0.8,0.6,1.4v15.9c0,0.5-0.2,1-0.6,1.4c-0.4,0.4-0.8,0.6-1.4,0.6h-20.5
				c-0.5,0-0.8,0.3-0.8,0.8v92.2c0,0.5-0.2,1-0.6,1.4c-0.4,0.4-0.8,0.6-1.4,0.6h-19.2c-0.5,0-1-0.2-1.4-0.6
				c-0.4-0.4-0.6-0.8-0.6-1.4V90.4c0-0.5-0.3-0.8-0.8-0.8h-19.7c-0.5,0-1-0.2-1.4-0.6c-0.4-0.4-0.6-0.8-0.6-1.4V71.7
				c0-0.5,0.2-1,0.6-1.4c0.4-0.4,0.8-0.6,1.4-0.6h65C350.8,69.7,351.2,69.9,351.6,70.3z"/>
			<g>
				<path class="st19" d="M405.1,62.3c0.4-0.4,0.8-0.6,1.4-0.6h19.2c0.5,0,1,0.2,1.4,0.6c0.4,0.4,0.6,0.8,0.6,1.4v110.9
					c0,0.5-0.2,1-0.6,1.4c-0.4,0.4-0.8,0.6-1.4,0.6h-19.2c-0.5,0-1-0.2-1.4-0.6c-0.4-0.4-0.6-0.8-0.6-1.4v-44.8
					c0-0.5-0.3-0.8-0.8-0.8h-16.4c-0.5,0-0.8,0.3-0.8,0.8v44.8c0,0.5-0.2,1-0.6,1.4c-0.4,0.4-0.8,0.6-1.4,0.6h-19.2
					c-0.5,0-1-0.2-1.4-0.6c-0.4-0.4-0.6-0.8-0.6-1.4V63.7c0-0.5,0.2-1,0.6-1.4c0.4-0.4,0.8-0.6,1.4-0.6h19.2c0.5,0,1,0.2,1.4,0.6
					c0.4,0.4,0.6,0.8,0.6,1.4v44.6c0,0.5,0.3,0.8,0.8,0.8h16.4c0.5,0,0.8-0.3,0.8-0.8V63.7C404.5,63.2,404.7,62.7,405.1,62.3z"/>
				<circle class="st19" cx="374.5" cy="68.9" r="1.7"/>
				<circle class="st19" cx="416.3" cy="68.9" r="1.7"/>
			</g>
			<g>
				<path class="st19" d="M568.7,62.3c0.4-0.4,0.8-0.6,1.4-0.6h19c0.5,0,1,0.2,1.4,0.6c0.4,0.4,0.6,0.8,0.6,1.4v110.9
					c0,0.5-0.2,1-0.6,1.4c-0.4,0.4-0.8,0.6-1.4,0.6h-21.7c-1.1,0-1.8-0.5-2.1-1.6L545,111.5c-0.1-0.3-0.3-0.5-0.6-0.4
					c-0.3,0.1-0.4,0.2-0.4,0.6l0.2,63c0,0.5-0.2,1-0.6,1.4c-0.4,0.4-0.8,0.6-1.4,0.6h-19c-0.5,0-1-0.2-1.4-0.6
					c-0.4-0.4-0.6-0.8-0.6-1.4V63.7c0-0.5,0.2-1,0.6-1.4c0.4-0.4,0.8-0.6,1.4-0.6h21.5c1.1,0,1.8,0.5,2.1,1.6l20.5,63.5
					c0.1,0.3,0.3,0.5,0.6,0.4c0.3-0.1,0.4-0.2,0.4-0.6l-0.2-63C568.1,63.2,568.3,62.7,568.7,62.3z"/>
				<circle class="st19" cx="534.5" cy="68.9" r="1.7"/>
				<circle class="st19" cx="580.2" cy="68.9" r="1.7"/>
			</g>
			<g>
				<path class="st19" d="M488.2,190.8l-2.6-15.8c0-0.5-0.3-0.8-1-0.8h-20.8c-0.7,0-1,0.3-1,0.8l-2.6,15.8c-0.1,1.2-0.8,1.8-2.1,1.8
					h-19.2c-1.4,0-2-0.7-1.6-2.1l24.1-110.9c0.2-1.2,0.9-1.8,2.1-1.8h22.2c1.2,0,1.9,0.6,2.1,1.8l24,110.9l0.2,0.7
					c0,1-0.6,1.5-1.8,1.5h-19.7C489,192.6,488.3,192,488.2,190.8z M466.7,156.3h14.8c0.5,0,0.8-0.3,0.7-0.8l-7.7-44.8
					c-0.1-0.3-0.3-0.5-0.5-0.5c-0.2,0-0.4,0.2-0.5,0.5l-7.4,44.8C466,156,466.3,156.3,466.7,156.3z"/>
				<circle class="st19" cx="474.5" cy="86.8" r="1.7"/>
			</g>
			<g>
				<path class="st19" d="M606.1,192c-0.4-0.4-0.6-0.8-0.6-1.4V79.7c0-0.5,0.2-1,0.6-1.4c0.4-0.4,0.8-0.6,1.4-0.6h19.2
					c0.5,0,1,0.2,1.4,0.6c0.4,0.4,0.6,0.8,0.6,1.4V121c0,0.4,0.1,0.7,0.4,0.7c0.3,0.1,0.5-0.1,0.6-0.6l21.2-42
					c0.5-1,1.3-1.5,2.3-1.5h20.3c0.8,0,1.3,0.2,1.6,0.6c0.3,0.4,0.2,1-0.1,1.7l-24.3,47.3c-0.1,0.4-0.2,0.8-0.2,1l25.8,62
					c0.1,0.2,0.2,0.5,0.2,1c0,0.9-0.5,1.3-1.6,1.3h-20.5c-1.2,0-2-0.5-2.3-1.5l-17.1-43c-0.1-0.3-0.3-0.5-0.5-0.4
					c-0.2,0.1-0.4,0.2-0.7,0.4l-4.8,8.5c-0.2,0.4-0.3,0.8-0.3,1v33c0,0.5-0.2,1-0.6,1.4c-0.4,0.4-0.8,0.6-1.4,0.6h-19.2
					C606.9,192.6,606.5,192.4,606.1,192z"/>
				<circle class="st19" cx="617.5" cy="86.8" r="1.7"/>
				<circle class="st19" cx="660.4" cy="86.8" r="1.7"/>
			</g>
			<g>
				<path class="st19" d="M391.8,329.3c-0.4-0.4-0.6-0.8-0.6-1.4v-42.7l-0.2-1l-23-66.8c-0.1-0.2-0.2-0.5-0.2-0.8
					c0-1,0.6-1.5,1.8-1.5h20.2c1.2,0,2,0.5,2.3,1.6l10.2,39.2c0.1,0.3,0.3,0.5,0.5,0.5c0.2,0,0.4-0.2,0.5-0.5l10.2-39.2
					c0.3-1.1,1.1-1.6,2.3-1.6H436c0.7,0,1.1,0.2,1.5,0.6c0.3,0.4,0.4,1,0.2,1.7l-23.1,66.8l-0.2,1v42.7c0,0.5-0.2,1-0.6,1.4
					c-0.4,0.4-0.8,0.6-1.4,0.6h-19.2C392.6,329.9,392.2,329.7,391.8,329.3z"/>
				<circle class="st19" cx="382" cy="223.8" r="1.7"/>
				<circle class="st19" cx="424.2" cy="223.8" r="1.7"/>
			</g>
			<g>
				<path class="st19" d="M452.6,338.5c-6-5.9-9-13.8-9-23.6v-52.5c0-9.8,3-17.7,9-23.6c6-5.9,14.1-8.9,24.1-8.9
					c10.1,0,18.1,3,24.2,8.9c6.1,5.9,9.1,13.8,9.1,23.6v52.5c0,9.8-3,17.7-9.1,23.6c-6.1,5.9-14.1,8.9-24.2,8.9
					C466.6,347.3,458.6,344.4,452.6,338.5z M484.1,324.3c1.9-2.1,2.8-4.9,2.8-8.5v-54.5c0-3.5-0.9-6.3-2.8-8.5
					c-1.9-2.1-4.3-3.2-7.4-3.2c-3.1,0-5.5,1.1-7.3,3.2c-1.8,2.1-2.7,5-2.7,8.5v54.5c0,3.5,0.9,6.3,2.7,8.5c1.8,2.1,4.2,3.2,7.3,3.2
					C479.8,327.5,482.2,326.4,484.1,324.3z"/>
				<path class="st19" d="M531.3,322.1c-6-6.2-8.9-14.4-8.9-24.7v-80.2c0-0.5,0.2-1,0.6-1.4c0.4-0.4,0.8-0.6,1.4-0.6h19.2
					c0.5,0,1,0.2,1.4,0.6c0.4,0.4,0.6,0.8,0.6,1.4v82.5c0,3.5,0.9,6.3,2.6,8.5c1.7,2.2,4,3.3,6.9,3.3c2.8,0,5.1-1.1,6.8-3.3
					c1.7-2.2,2.5-5,2.5-8.5v-82.5c0-0.5,0.2-1,0.6-1.4c0.4-0.4,0.8-0.6,1.4-0.6h19.2c0.5,0,1,0.2,1.4,0.6c0.4,0.4,0.6,0.8,0.6,1.4
					v80.2c0,10.3-3,18.5-8.9,24.7c-6,6.2-13.8,9.3-23.5,9.3C545.1,331.4,537.2,328.3,531.3,322.1z"/>
				<circle class="st19" cx="476.8" cy="238.8" r="1.7"/>
			</g>
		</g>
	</g>
</g>
<g>
	<path class="st20" d="M186,234.7C186,234.6,186,234.6,186,234.7c0.1,0,0.1,0,0.2-0.1l0,0l0.4-1.7c0-0.1,0.1-0.1,0.1-0.1
		s0.1,0,0.2,0l0.6,0.2c0.1,0,0.1,0.1,0.1,0.1s0,0.1,0,0.2l-0.2,0.9c0,0.1-0.1,0.1-0.1,0.1c-0.1,0-0.1-0.1-0.2,0l-0.6-0.2l-0.2,0.6
		c0.2,0,0.5,0,0.6,0l-0.1-0.2l0,0l0,0c0-0.1,0.1-0.1,0.1,0c0,0,0,0.1,0.2,0.2c0.1,0.3,0.1,0.5,0.1,0.5c0,0.1-0.1,0.1-0.1,0
		s-0.1-0.1-0.2-0.2v-0.1c-0.2,0.1-0.5,0-0.7,0.1s-0.3,0-0.3,0C186,234.8,186,234.7,186,234.7z M187.5,233.2
		C187.5,233.1,187.5,233.1,187.5,233.2L187,233h-0.1v0.2l0.6,0.2V233.2L187.5,233.2z M187.3,233.9v-0.2l-0.6-0.2l-0.1,0.4l0.5,0.1
		C187.3,233.9,187.3,233.9,187.3,233.9z M187.4,235.3l0.6-2.1c0-0.1,0.1-0.1,0.1-0.1s0.1,0,0.2,0l0.5,0.1c0.1,0,0.1,0.1,0.1,0.1
		s0,0.1,0.1,0.2l-0.5,1.6c0,0.1-0.1,0.1-0.2,0.2c0,0-0.1,0-0.2,0h-0.2c-0.1,0-0.1-0.1-0.2-0.2c0-0.1,0.1-0.1,0.1,0l0.1,0.1
		c0.1,0,0.1,0,0.1,0l0.4-1.5c0-0.1,0-0.1,0-0.1l-0.4-0.1c-0.1,0-0.1,0-0.1,0L187.4,235.3c0,0.2-0.1,0.2-0.2,0.3
		C187.5,235.5,187.3,235.4,187.4,235.3z M192.2,236.1c0,0.1-0.1,0.1-0.1,0l-1-0.3v0.2c0,0.1-0.1,0.1-0.1,0.1s-0.1,0-0.2,0.1h-0.2
		c-0.1,0-0.1-0.1-0.2-0.2c0-0.1,0.1-0.1,0.2-0.1l0.1,0.1c0.1,0,0.1,0,0.1,0v-0.2l-1-0.3c-0.1,0-0.1-0.1,0-0.1c0,0,0-0.1,0.1,0
		s0,0,0.1,0l1,0.3c0-0.1,0-0.1,0.1-0.1s0.1,0,0.2-0.1l0.2-0.1c0.1,0.1,0.2,0,0.2,0l-1.5-0.4c-0.1,0-0.1-0.1,0-0.1
		c0-0.1,0.1-0.1,0.1,0l1.6,0.5c0.1,0,0.1,0.1,0.2,0.2l0,0c0,0,0,0.1-0.1,0.1h-0.1c-0.1-0.1-0.2,0.1-0.5,0c-0.1,0-0.1-0.1-0.2,0.1
		h-0.1L192.2,236.1C192.2,236,192.2,236,192.2,236.1z M190.2,233.8c0-0.1,0.1-0.1,0.1,0l1,0.3V234c0-0.1,0.1-0.1,0.2-0.1
		c0.1,0,0.1,0.1,0.2,0.2v0.1l1,0.3c0.1,0,0.1,0.1,0,0.1s-0.1,0.1-0.1,0l-2.2-0.6C190.1,233.9,190.1,233.9,190.2,233.8z M192,234.5
		c0.1,0,0.1,0.1,0.1,0.1s0,0.1-0.1,0.1v0.2c-0.1,0.1-0.1,0.1-0.3,0.1l-1.5-0.4c-0.1,0-0.1-0.1-0.1-0.1c0-0.1,0-0.1,0-0.2v-0.2
		c0.1-0.1,0.2-0.2,0.3-0.1L192,234.5L192,234.5z M191.9,234.8C191.9,234.8,191.9,234.7,191.9,234.8l-1.3-0.4h-0.1v0.1v0.1
		L191.9,234.8C191.9,234.9,191.9,234.9,191.9,234.8L191.9,234.8L191.9,234.8z M194.2,236.1H194l-0.2,0.8h0.2c0,0,0,0,0,0.1
		c0,0,0,0,0,0.1h-0.1c0,0-0.2,0-0.5-0.1l-0.4-0.1c-0.1,0-0.1-0.1,0-0.1c0-0.1,0.1,0,0.2-0.1h0.2l0.2-0.9h-0.2c-0.1,0-0.1-0.1,0-0.1
		c0-0.1,0.1-0.1,0.1,0h0.2v-0.2h-0.2c-0.1,0-0.1-0.1,0-0.1l0,0h-0.1c-0.1,0-0.1-0.1,0-0.1c0,0,0-0.1,0.1-0.1
		c0.2-0.2,0.4-0.3,0.5-0.5h0.1c0.1,0,0.1,0.1,0,0.1c0,0,0,0-0.1,0c0.2,0.2,0.2,0.3,0.2,0.3c0,0.1,0,0.1,0.1,0.2c0,0.1-0.1,0.1-0.1,0
		v-0.1c0,0-0.2-0.2-0.2-0.3c-0.1,0.1-0.3,0.2-0.4,0.3l0,0l0.6,0.2c0.1,0,0.1,0.1,0,0.1c0,0.1-0.1,0.1-0.1,0h-0.2v0.2h0.2
		c0.1,0,0.1,0.1,0,0.1C194.3,236.1,194.3,236.1,194.2,236.1z M193.5,236.5C193.4,236.6,193.4,236.6,193.5,236.5c0-0.1,0-0.1,0-0.1
		v-0.2c0-0.1,0.1-0.1,0.1,0c0.1,0,0.1,0.1,0,0.1l-0.1,0.4C193.5,236.5,193.5,236.5,193.5,236.5z M194.2,236.2c0.1,0,0.1,0.1,0,0.1
		v0.2c0,0.1-0.1,0.1-0.1,0s-0.1-0.1,0-0.1v-0.2H194.2z M195.8,236.4l-0.3,1c0,0.1-0.1,0.1-0.2,0.2c0,0-0.1,0-0.2,0.1l-0.1-0.1
		c-0.1,0-0.1-0.1,0-0.1c0-0.1,0.1-0.1,0.1,0h0.1c0.1,0,0.1,0,0.1,0l0.2-0.9c0-0.1,0-0.1,0-0.1l-0.9-0.2c-0.1,0-0.1,0-0.1,0l-0.3,1
		c0,0.1-0.1,0.1-0.1,0s-0.1-0.1,0-0.1l0.3-1.1c0-0.1,0-0.1,0.1-0.1s0.1,0,0.2-0.1l0.2-0.8c0-0.2,0.2-0.3,0.3-0.2l0.6,0.2
		c0.1,0,0.1,0.1,0.1,0.1s0,0.1,0.1,0.2l-0.2,0.8C195.9,236.2,195.9,236.3,195.8,236.4z M195.8,235.4
		C195.8,235.4,195.7,235.3,195.8,235.4l-0.5-0.2h-0.1l-0.1,0.7h0.2l0.1-0.4c0-0.1,0.1-0.1,0.1-0.1s0.1,0,0.2-0.1h0.2L195.8,235.4
		L195.8,235.4z M195,237.2l-0.4-0.1c-0.1,0-0.1,0-0.1-0.1s0-0.1,0.1-0.1l0.1-0.4c0.1-0.1,0.1-0.1,0.2-0.2l0.4,0.1
		c0.1,0,0.1,0.1,0.2,0.2l-0.1,0.4C195.2,237.2,195.1,237.2,195,237.2z M195.2,236.7C195.2,236.7,195.2,236.6,195.2,236.7l-0.3-0.2
		h-0.1v0.2v0.1h0.2h0.1L195.2,236.7z M195.6,235.7h-0.2h-0.1v0.2h0.2L195.6,235.7z"/>
	<path class="st20" d="M187.8,225.2c0,0.2-0.3,0.3-0.6,0.3l-1.4-0.4l-0.9,3c-0.1,0.7,0.1,1.3,0.9,1.6c0.2,0,0.3,0.3,0.3,0.5
		s-0.2,0.4-0.5,0.4c-1.1-0.4-1.8-1.5-1.5-2.6l0.9-3h-0.2l-1.1-0.4l-1.3,4.8c0,0.2-0.3,0.3-0.5,0.3s-0.3-0.3-0.3-0.5l1.3-4.8l-1-0.3
		c-0.4-0.1-0.4-0.3-0.4-0.6c0-0.2,0.3-0.3,0.6-0.3l5.3,1.5C187.8,224.8,187.9,225,187.8,225.2z M180.9,223.2c0-0.1,0.2-0.2,0.3-0.4
		c1-1.1,1.5-1.8,1.6-2c0.1-0.4-0.2-0.6-0.8-0.8l-1.4-0.4c-0.4-0.1-0.6-0.1-0.8,0c-0.2,0.2-0.4,0.3-0.4,0.7l-2.1,7.8
		c-0.1,0.4,0,0.6,0.3,0.6c0.2,0,0.5,0,0.6-0.4l2.1-7.6c0-0.2,0.3-0.3,0.5-0.3l0.7,0.1c0.2,0,0.3,0.2,0.2,0.3c0,0.1,0,0.2-0.2,0.4
		c-0.4,0.6-0.8,0.9-0.9,1.2c-0.2,0.3-0.3,0.4-0.3,0.5s0,0.2,0.1,0.4c0.2,0.7,0.2,1.3,0.2,1.8c-0.1,0.5-0.4,0.6-0.8,0.6
		c-0.4-0.1-0.7,0.1-0.7,0.3c-0.1,0.4,0,0.6,0.4,0.6c1,0.3,1.6-0.1,1.9-1.2c0.2-0.6,0.1-1.3-0.2-1.9
		C180.9,223.4,180.8,223.2,180.9,223.2z M183.4,221.3l3.9,1.1c0.4,0.1,0.6,0,0.6-0.3c0-0.2-0.1-0.4-0.4-0.6l-3.9-1.1
		c-0.4-0.1-0.6,0-0.6,0.3S183,221.2,183.4,221.3z M192.8,223.7l4.5,1.3c0.2,0,0.5,0,0.5-0.3c0-0.2,0-0.5-0.4-0.5l-4.5-1.3
		c-0.2,0-0.5,0-0.5,0.3C192.4,223.5,192.6,223.7,192.8,223.7z M190.9,228.8c0.2-0.5,0.5-0.7,1.1-0.5l3.7,1c0.6,0.2,0.8,0.5,0.7,1
		l-0.1,0.7c0,0.2-0.2,0.4-0.4,0.6c-0.2,0.2-0.4,0.1-0.7,0l-3.7-1c-0.6-0.2-0.8-0.5-0.7-1C190.8,229.4,190.9,228.8,190.9,228.8z
		 M191.6,229.5c0,0.2,0,0.3,0.2,0.4l3.3,0.9c0.2,0,0.3,0,0.4-0.2l0.1-0.4c0-0.2-0.1-0.2-0.2-0.4l-3.2-0.9c-0.2,0-0.3,0-0.4,0.2
		L191.6,229.5L191.6,229.5z M192.2,226.3l4.6,1.2c0.2,0,0.5,0,0.5-0.3s0-0.5-0.3-0.5l-4.6-1.2c-0.2,0-0.5,0-0.5,0.3
		C191.8,226.1,191.9,226.2,192.2,226.3z M191.8,227.5l4.6,1.2c0.2,0,0.5,0,0.5-0.3c0-0.2,0-0.5-0.3-0.5l-4.6-1.2
		c-0.2,0-0.5,0-0.5,0.3C191.4,227.3,191.6,227.5,191.8,227.5z M191.6,224.7l6,1.6c0.2,0,0.5,0,0.5-0.3c0-0.2,0-0.5-0.4-0.5l-6-1.6
		c-0.2,0-0.5,0-0.5,0.3S191.4,224.7,191.6,224.7z M205.3,234.9l-1.2-0.3c-0.2,0-0.4-0.2-0.4-0.3s-0.1-0.3,0-0.6l0.4-1.4
		c0.1-0.5,0.4-0.7,0.9-0.5l1.2,0.3c0.5,0.1,0.7,0.5,0.5,0.9l-0.4,1.4C206.1,234.8,205.8,235,205.3,234.9z M205.8,233.1
		c0-0.2,0-0.3-0.2-0.4l-0.7-0.1c-0.2,0-0.3,0-0.4,0.2l-0.2,0.9c0,0.2,0,0.3,0.2,0.4l0.7,0.1c0.2,0,0.3,0,0.4-0.2L205.8,233.1z
		 M203,227.6c0.1,0.2,0.2,0.3,0.3,0.4c0.2,0,0.5,0,0.5-0.3c0-0.1,0-0.3-0.3-0.6c-0.2-0.3-0.5-0.7-1-1.2c0.1-0.1,0.1-0.1,0.2-0.3
		c0-0.2,0-0.3-0.3-0.5c-0.2,0-0.3,0-0.5,0.1c-0.6,0.6-1.2,1.3-2,1.7c-0.1,0-0.3,0.2-0.3,0.3c0,0.2,0,0.5,0.3,0.5
		c0.1,0,0.2,0,0.3-0.1v0.1c0,0.2,0,0.5,0.4,0.5l0.6,0.2l-0.3,1l-1-0.3c-0.2,0-0.5,0-0.5,0.3c0,0.2,0,0.5,0.4,0.5l1,0.3l-0.9,3.3
		l-1.2-0.3c-0.2,0-0.4,0.1-0.5,0.3c0,0.2,0.1,0.4,0.3,0.5l2.8,0.8c0.2,0,0.4-0.1,0.5-0.3c0.1-0.1-0.1-0.4-0.3-0.5l-1-0.3l0.9-3.3
		l0.9,0.2c0.2,0,0.5,0.1,0.5-0.1c0-0.2,0-0.5-0.4-0.5l-0.9-0.2l0.3-1l0.9,0.2c0.2,0,0.5,0,0.6-0.3c0-0.2,0-0.5-0.4-0.5l-2.2-0.6
		h-0.1c0.6-0.4,1.1-0.8,1.6-1.2C202.6,226.9,203,227.4,203,227.6z M199.2,232.4c0.2,0,0.3,0,0.5-0.3l0.3-1.2c0-0.2,0-0.5-0.3-0.5
		c-0.2,0-0.5,0-0.5,0.3l-0.3,1.2c0,0.1,0,0.2,0,0.3C199,232.4,199.1,232.3,199.2,232.4z M201.6,231.3l-0.3,1.1c0,0.2,0,0.5,0.3,0.5
		c0.2,0,0.5,0,0.5-0.3l0.3-1.1c0-0.2,0-0.3-0.3-0.5C201.8,231,201.6,231.2,201.6,231.3z M208.4,232l-0.9,3.6
		c-0.1,0.4-0.3,0.6-0.5,0.7c-0.2,0.2-0.4,0.1-0.8,0l-0.5-0.2c-0.2,0-0.4-0.2-0.3-0.5c0-0.2,0.2-0.4,0.5-0.3l0.4,0.1
		c0.2,0,0.5,0,0.5-0.3l0.8-3.1c0-0.2,0-0.3-0.2-0.4l-3.2-0.9c-0.2,0-0.3,0-0.4,0.2l-1.1,4.1c-0.1,0.4-0.3,0.4-0.6,0.4
		c-0.2,0-0.4-0.2-0.3-0.6l1.1-4.2c0-0.2,0.2-0.5,0.3-0.5c0.2-0.2,0.3-0.2,0.5-0.1l0.7-2.7c0.2-0.6,0.6-0.8,1.2-0.7l2.4,0.7
		c0.2,0,0.5,0.2,0.6,0.4c0.2,0.2,0.1,0.4,0,0.8l-0.8,2.7C208.4,231.2,208.5,231.6,208.4,232z M207.6,229.5l-0.8-0.2
		c-0.2,0-0.3,0-0.4,0.2l-0.3,1.1l1.1,0.3L207.6,229.5L207.6,229.5z M207.9,228.3c0-0.2,0-0.3-0.2-0.4l-2-0.5c-0.2,0-0.3,0-0.4,0.2
		l-0.8,2.6l0.9,0.2l0.3-1.2c0-0.2,0.2-0.4,0.4-0.6c0.2-0.2,0.4-0.1,0.7-0.1l1,0.3L207.9,228.3C207.8,228.3,207.9,228.3,207.9,228.3z
		 M196.6,232.6l-6.8-1.9c-0.7-0.1-1-0.8-0.9-1.6l0.7-2.5c0-0.2-0.1-0.4-0.3-0.5c-0.1-0.1-0.4,0.1-0.5,0.3l-0.7,2.5
		c-0.3,1.1,0.3,2.3,1.5,2.6l6.8,1.9c0.2,0,0.4-0.1,0.5-0.4C197,232.9,196.8,232.6,196.6,232.6z M190.4,225c0.1-0.4-0.1-0.8-0.5-0.9
		c-0.4-0.1-0.8,0.1-0.9,0.5c-0.1,0.4,0.1,0.8,0.5,0.9C189.9,225.6,190.3,225.3,190.4,225z"/>
	<path class="st20" d="M167.2,229.3c-0.3,0-0.8-0.1-1.2-0.2c-0.1-0.1-0.2,0-0.4-0.1c0.2-3.1-1.7-5.9-4.6-7c0-0.3,0.1-0.7,0.3-1.1
		c0.1-0.1,0-0.2,0.1-0.4C165,221.7,167.4,225.4,167.2,229.3z M161,223.1c0.2,2.2,1.5,4.2,3.5,5.4C164.4,226.2,163.1,224.1,161,223.1
		z M169.5,216c-2.8-0.8-5.9,0.4-7.5,2.8c2.9,1.1,5.1,3.5,6.1,6.2c1.8-0.5,3.7-0.5,5.7,0c0.1,0,0.1,0,0.1,0.1c0-0.2,0.2-0.5,0.2-0.8
		C175.2,220.8,173.1,217.1,169.5,216z M168.8,228.1c1.1-0.3,2-0.5,3.1-0.3c0.5-0.4,0.8-0.8,1.2-1.3c-1.5-0.4-3-0.3-4.5,0.1
		C168.7,227.1,168.7,227.6,168.8,228.1z"/>
	<path class="st21" d="M168.9,221.5c-0.2-1.4,1.2-2.3,1.3-2.2c-0.1,0-0.2,1.1-0.1,2.5c0.2,1.4-1.2,2.3-1.3,2.2
		C168.9,224.2,169,223,168.9,221.5z M170.9,217.9c-0.2-2,1.6-3.1,1.7-3.1c-0.1,0-0.2,1.6,0,3.5c0.2,2-1.6,3.1-1.7,3.1
		C171,221.5,171.1,219.9,170.9,217.9z"/>
</g>
</svg>
