<?xml version="1.0" encoding="utf-8"?>
<!-- Generator: Adobe Illustrator 21.1.0, SVG Export Plug-In . SVG Version: 6.00 Build 0)  -->
<svg version="1.1" id="圖層_1" xmlns="http://www.w3.org/2000/svg" xmlns:xlink="http://www.w3.org/1999/xlink" x="0px" y="0px"
	 viewBox="0 0 713.7 349" style="enable-background:new 0 0 713.7 349;" xml:space="preserve">
<style type="text/css">
	.st0{fill:#FDDAC0;}
	.st1{fill:#F8B295;}
	.st2{fill:#D4D7DB;}
	.st3{fill:#E8A26F;}
	.st4{fill:#FFB9A4;}
	.st5{fill:#B9BCC1;}
	.st6{fill:#9A9FA6;}
	.st7{fill:#981A1C;}
	.st8{fill:#B9887C;}
	.st9{fill:#E8EBF0;}
	.st10{fill:#754C24;}
	.st11{fill:#F6A383;}
	.st12{fill:#D67051;}
	.st13{fill:#F68D65;}
	.st14{fill:#F67645;}
	.st15{fill:#8C6239;}
	.st16{fill:#2A3954;}
	.st17{fill:#D12325;}
	.st18{fill:#D1512D;}
	.st19{fill:#FF8754;}
	.st20{display:none;fill:#FDA625;}
	.st21{fill:#FFFFFF;}
	.st22{fill:#FED821;}
</style>
<g id="栝鍣_1">
</g>
<g id="栝鍣_2">
</g>
<g>
	<g>
		<path class="st0" d="M76.8,281.1c-0.8-1.7-1.6-3.2-2.3-4.9c-0.7-1.3-1.2-2.6-1.9-3.9c-1-2-2.3-4.3-3.1-6.5c-0.9-2.3-1-4.8-2.2-6.9
			c-1.7-3-4.1-5.6-4.1-5.6c-2.5-2.5-6.5-3.1-9.6-2.1c-3.5,1.1-6.4,3.5-8.5,6.3c-2.3,3.1-3.4,7-5.5,10.3c-1.5,2.2-3.7,2.9-5.7,4.3
			c-2.5,1.5-4.9,3.2-6.8,5.3c-4.7,4.8,1.6,4.9,1.6,4.9l3.5-1.7c1.2-0.9,2.5-1.8,3.8-2.6c0.7-0.4,3-2.9,3.9-2.3
			c0.1,0.1,0.2,0.2,0.2,0.3c0.9,1.7-1.1,3.2-2,4.5c-2.2,2.7-4.4,5.7-5.6,8.9c-2.7,6.3,3.4,4,3.4,4l2.5-2.8c0.8-0.9,5.4-9.3,6.5-6.6
			c0.3,0.7-0.7,1.6-1,2.2c-0.4,0.9-0.8,1.7-1.2,2.5c-1.3,3.1-2.6,6.4-3.1,9.7c-1,6.7,4.3,3.1,4.3,3.1l1.8-3.4
			c1.2-3.1,2.2-6.2,3.2-9.3c0.3-0.9,1-1.2,1.9-1.3c0.3,0,2.2,0.1,2.5,0.6c0,0.1,0,0.1,0.1,0.2c-0.3,4.5-0.7,8.8,0.1,13.3
			c1.1,7.6,4.9,1.7,4.9,1.7l0.3-4.3c0.3-2.6,0.3-5.1,1-7.8c0.9-3.2,2.3-6.7,4.5-9.3c0.9-1.1,1.8-2.3,2.7-3.8
			c1.1,2.7,2.7,5.7,4.8,8.2c4.6,5.3,6.5-1.5,6.5-1.5L76.8,281.1z"/>
		<path class="st1" d="M76.8,281.1l0.4-0.3c-0.8-1.7-1.6-3.2-2.3-4.9c-0.7-1.3-1.2-2.6-1.9-3.9c-1-2.1-2.3-4.3-3.1-6.4
			c-0.4-1-0.8-2.2-1-3.5c-0.2-1.2-0.7-2.3-1.2-3.6c-0.9-1.6-1.9-3-2.8-4c-0.4-0.6-0.8-0.9-1.1-1.2c-0.2-0.2-0.2-0.3-0.3-0.3v-0.1
			l0,0l0,0l0,0l0,0l0,0l-0.3,0.3l0.3-0.3c-1.1-1.2-2.6-1.9-4.1-2.3c-1.6-0.4-3.2-0.4-4.7-0.2c-0.4,0-0.9,0.2-1.3,0.3
			c-3.6,1.1-6.5,3.6-8.7,6.5c-1.2,1.7-2.1,3.4-2.8,5.1c-0.8,1.8-1.6,3.6-2.6,5.1c-0.6,1-1.5,1.7-2.5,2.3c-1,0.6-2,1.1-3.1,1.8
			c-2.5,1.5-4.8,3.4-6.9,5.4c-0.7,0.7-1.2,1.5-1.6,2c-0.3,0.6-0.4,1.2-0.3,1.7c0.1,0.6,0.4,1,0.9,1.2c0.6,0.4,1.3,0.7,1.9,0.7
			c0.6,0,1.1,0.1,1.1,0.1h-0.1l3.6-1.8l0,0c1.2-0.9,2.5-1.8,3.8-2.6c0.2-0.2,0.3-0.3,0.7-0.6c0.3-0.3,0.8-0.8,1.3-1.1
			c0.2-0.2,0.4-0.3,0.7-0.4c0.2-0.1,0.4-0.1,0.6-0.2h0.1l0,0l0,0l0,0l0,0l0,0l0,0l0,0c0,0,0,0,0,0.1s0.1,0.3,0.1,0.4
			c0.1,0.2,0,0.4-0.1,0.8c-0.1,0.3-0.6,0.9-0.9,1.3s-0.8,0.9-1.1,1.3c-2.2,2.7-4.3,5.8-5.7,9.1c-0.6,1.5-0.9,2.6-0.7,3.4
			c0,0.4,0.2,0.9,0.4,1.1c0.3,0.4,0.9,0.7,1.3,0.7c0.4,0.1,1,0,1.3-0.1c0.7-0.1,1.2-0.2,1.3-0.3h0.3l2.6-3l0,0
			c0.1-0.1,0.2-0.3,0.4-0.6c0.6-0.9,1.5-2.3,2.6-3.8c0.4-0.8,1-1.3,1.5-1.8c0.3-0.2,0.4-0.3,0.7-0.6c0.2-0.2,0.3-0.2,0.4-0.2
			c0.1,0,0.1,0,0.1,0s0,0.1,0.2,0.2v0.1c0,0,0,0.1,0,0.2c-0.1,0.1-0.2,0.4-0.4,0.6c-0.1,0.3-0.4,0.4-0.6,0.8
			c-0.4,0.9-0.8,1.7-1.2,2.5c-1.5,3.2-2.5,6.5-3.1,9.8l0,0c-0.1,1.1-0.2,1.9-0.1,2.7c0,0.4,0.2,0.8,0.3,1.1c0.3,0.4,0.7,0.7,1.1,0.8
			c0.3,0.1,0.9,0.1,1.2,0.1c0.7-0.1,1.2-0.3,1.6-0.6c0.4-0.2,0.7-0.4,0.7-0.4l0,0l1.8-3.6l0,0c1.2-3.1,2.2-6.2,3.2-9.4
			c0.1-0.3,0.2-0.6,0.4-0.6c0.2-0.2,0.4-0.2,0.7-0.3c0.1,0,0.2-0.1,0.3,0c0.1,0,0.2,0,0.4,0c0.3,0,0.8,0.1,1.1,0.1
			c0.1,0.1,0.2,0,0.3,0.1l0,0l0,0l0.1-0.1h-0.1l0,0l0.1-0.1h-0.1l0.2-0.2l-0.2,0.1v0.1l0.2-0.2l-0.2,0.1l0.2-0.1l-0.2,0.1v0.1
			l0.2-0.1l-0.2,0.1H52h-0.1l0,0H52h-0.1l0,0l0,0c-0.3,4.5-0.7,8.9,0.1,13.4c0,0.1,0,0.1,0.1,0.2c0.2,1.6,0.7,2.7,1.2,3.2
			c0.2,0.3,0.6,0.6,0.9,0.7c0.3,0.1,0.7,0.1,1,0.1c0.4,0,0.9-0.2,1.1-0.4c0.4-0.3,0.9-0.8,1.2-1.2c0.3-0.3,0.6-0.7,0.6-0.7l0.1-0.1
			l0.6-4.4c0.4-2.7,0.3-5.3,1-7.8c0.9-3.1,2.2-6.5,4.5-8.9l0,0c1-1.1,1.9-2.5,2.7-3.9l-0.4-0.2l-0.6,0.2c1.1,2.7,2.7,5.8,4.8,8.3
			c0.8,0.8,1.5,1.5,2.1,1.8c0.7,0.3,1.3,0.4,1.9,0.3c0.7-0.1,1.2-0.3,1.6-0.9c0.7-0.6,1.1-1.3,1.3-2c0.3-0.6,0.3-1.1,0.4-1.1
			l0.1-0.1l-1.1-3.9l0,0L76.8,281.1l-0.6,0.2l1.1,3.7l0.6-0.2l-0.6-0.2l0,0c0,0.1-0.2,0.8-0.7,1.6c-0.2,0.4-0.4,0.8-0.9,1
			c-0.2,0.3-0.7,0.4-1,0.6c-0.3,0.2-0.7,0-1.2-0.3c-0.6-0.3-1-0.7-1.8-1.6c-1.9-2.3-3.5-5.4-4.6-7.9l-0.4-1l-0.6,1
			c-0.8,1.3-1.7,2.7-2.6,3.7l0.3,0.3l-0.3-0.3c-2.3,2.7-3.7,6.2-4.6,9.4c-0.8,2.7-0.7,5.3-1,7.9l-0.7,4.3l0.4,0.1l-0.4-0.3l0,0
			c-0.1,0.1-0.4,0.6-0.8,1c-0.2,0.2-0.4,0.3-0.7,0.6c-0.2,0.2-0.4,0.3-0.6,0.3s-0.2,0-0.3,0c-0.1-0.1-0.4-0.3-0.8-0.8
			s-0.6-1.2-0.7-2.3c0-0.1,0-0.1-0.1-0.2c-0.7-4.3-0.3-8.7,0-13.2c0-0.1,0.1-0.1,0-0.3c0-0.1,0-0.1-0.1-0.2
			c-0.1-0.2-0.2-0.3-0.3-0.3c-0.2-0.2-0.4-0.2-0.7-0.2c-0.3-0.1-0.8-0.1-1.1-0.1s-0.6,0-0.8,0c-0.1,0-0.3,0-0.6,0.1
			c-0.4,0-0.9,0.2-1.1,0.4c-0.4,0.2-0.6,0.7-0.8,1.2c-1,3.1-2.1,6.3-3.2,9.3l0.6,0.2l-0.4-0.2l-1.8,3.4l0.4,0.2l-0.2-0.4l0,0
			c0,0-0.3,0.2-0.7,0.3c-0.4,0.2-0.8,0.3-1.2,0.4c-0.4,0-0.7,0-1,0c-0.1-0.1-0.2-0.2-0.3-0.3c-0.1-0.2-0.1-0.4-0.2-0.8
			c-0.1-0.6-0.1-1.2,0.1-2.2l0,0c0.6-3.4,1.7-6.6,3-9.6c0.3-0.8,0.8-1.7,1.1-2.3c0.1-0.1,0.2-0.2,0.2-0.3c0.2-0.2,0.4-0.4,0.6-0.8
			c0.1-0.1,0.1-0.3,0.2-0.6c0.1-0.1,0.1-0.3,0-0.6c0-0.1-0.1-0.2-0.1-0.3c-0.1-0.3-0.3-0.4-0.6-0.7c-0.3-0.1-0.6-0.2-0.8-0.1
			c-0.3,0.1-0.7,0.2-0.9,0.4c-0.4,0.3-1.1,1-1.6,1.7c-0.8,1-1.6,2.1-2.2,3.2c-0.3,0.4-0.7,0.9-0.9,1.3c-0.1,0.1-0.2,0.3-0.3,0.4
			s-0.2,0.2-0.2,0.2l0,0l-2.5,2.8l0.3,0.3l-0.2-0.6l0,0c-0.1,0-0.6,0.2-1.1,0.2c-0.4,0-1,0.1-1.5,0c-0.2,0-0.3-0.1-0.4-0.3
			c-0.1-0.1-0.2-0.3-0.3-0.4c-0.1-0.6,0-1.5,0.7-2.8c1.3-3.1,3.4-6,5.6-8.7c0.3-0.4,1-1,1.6-1.8c0.2-0.3,0.4-0.8,0.7-1.1
			c0.1-0.3,0.2-0.9,0.1-1.3c-0.1-0.2-0.1-0.4-0.2-0.8c0-0.1-0.2-0.3-0.3-0.4s-0.3-0.1-0.4-0.2c-0.1-0.1-0.2,0-0.4,0
			c-0.3,0.1-0.8,0.2-1,0.4c-0.4,0.3-1.1,0.7-1.6,1.1c-0.2,0.2-0.4,0.3-0.7,0.6c-0.2,0.2-0.3,0.2-0.3,0.3c-1.2,0.9-2.5,1.8-3.8,2.6
			l0.2,0.4l-0.3-0.4l-3.5,1.7l0.3,0.4v-0.4l0,0c-0.1,0-0.8,0-1.5-0.2c-0.3-0.1-0.7-0.2-1-0.4c-0.3-0.1-0.3-0.3-0.4-0.6
			s-0.1-0.6,0.2-1c0.2-0.4,0.7-1,1.3-1.7c1.9-2,4.4-3.8,6.7-5.3c1-0.7,2.1-1.1,3.1-1.8c1-0.7,2-1.3,2.8-2.7c1.1-1.7,1.8-3.6,2.7-5.3
			c0.8-1.8,1.6-3.5,2.8-5c2-2.8,4.8-5.1,8.2-6c0.3-0.1,0.8-0.2,1.2-0.2c1.3-0.2,2.9-0.2,4.3,0.1c1.5,0.3,2.7,1,3.6,2l0,0l0,0
			l0.3-0.3l-0.3,0.3l0,0l0.3-0.3l-0.3,0.3l0,0c0.2,0.2,2.5,2.6,4.1,5.5c0.6,1,0.9,2.1,1.2,3.2c0.3,1.1,0.6,2.5,1,3.6
			c0.9,2.3,2.1,4.4,3.1,6.5c0.7,1.3,1.2,2.6,1.9,3.9c0.8,1.7,1.6,3.2,2.3,4.9L76.8,281.1l-0.6,0.2L76.8,281.1z"/>
		<path class="st2" d="M255,188.6c-4.3-3.2-9.3-6.2-14.9-8.7c-2.5-1.2-5.3-2.3-7.9-3.4c-0.3-0.1-0.8-0.3-1.2-0.4
			c-0.2,0-0.4-0.2-0.7-0.2c-0.6-0.2-1.1-0.3-1.6-0.6c-0.3-0.1-0.7-0.2-1.1-0.3c-0.4-0.2-0.9-0.3-1.3-0.6c-0.1,0-0.1-0.1-0.2,0
			c-2-0.7-2.6-0.9-4.6-1.5c-0.2,0-0.3-0.1-0.7-0.1c-0.1,0-0.1-0.1-0.2,0c-0.2,0-0.3-0.1-0.7-0.1c-2.3-0.7-4.8-1.3-7.2-2
			c-0.1-0.1-0.3-0.1-0.6-0.2c-0.9-0.2-1.7-0.4-2.6-0.6c-0.8-0.2-1.6-0.4-2.3-0.6c-0.7-0.1-1.5-0.3-2-0.6c-0.9-0.2-1.9-0.4-2.8-0.7
			c-0.7-0.1-1.1-0.3-1.8-0.3c-1-0.2-2-0.6-3-0.7c-0.4-0.1-1.1-0.2-1.7-0.3c-1-0.2-2.1-0.4-3.1-0.7c-0.4-0.1-1.1-0.2-1.7-0.3
			c-1-0.1-2-0.4-3-0.6c-0.7-0.1-1.2-0.2-1.9-0.3c-0.4-0.1-1-0.2-1.7-0.3c-1-0.1-2-0.3-2.9-0.4l0,0c-11.1-2-21.6-3.5-30.3-4.6
			c-2.9,50.7-31.8,100.2-36.6,150.8c30.8-1.7,56,29.8,86.8,25.7c-5.8-44.3,25.1-95.2,41.8-125.2C246.7,204,250.8,196.9,255,188.6"/>
		<path class="st0" d="M256.6,103.8c0,0,9.2-0.2,8.5,7c-0.7,7.2-6,19.6-14.8,17.6c0,0-0.6-1.1,0.1-1.9c0.7-0.9,4.4-22.7,4.4-22.7
			H256.6z"/>
		<path class="st3" d="M256.2,108.8l-0.1-0.2L256.2,108.8L256.2,108.8l-0.1-0.2L256.2,108.8c0,0,1.1-0.1,2.3,0.2
			c0.6,0.2,1.1,0.3,1.6,0.7c0.3,0.3,0.8,0.8,0.9,1.5c0.1,0.6,0.1,1.3-0.1,2.5c-0.2,1-0.8,2.2-1.7,3.9c-0.2,0.4-0.1,0.9,0.2,1.1
			c0.4,0.2,0.9,0.1,1.1-0.2c0.9-1.6,1.6-3,1.9-4.1s0.4-2.2,0.2-3.1c-0.2-1.1-0.8-1.9-1.5-2.5c-1-0.9-2.2-1.1-3.2-1.3
			c-1-0.1-1.7,0-1.8,0c-0.4,0-0.8,0.4-0.8,1C255.5,108.5,255.8,108.8,256.2,108.8L256.2,108.8z"/>
		<polyline class="st4" points="190.5,176.6 217.4,180.7 223.5,147.2 196.5,143.2 190.5,176.6 		"/>
		<path class="st5" d="M188.1,162.5l-4,1.8c0.1,0,0.2,0,0.3,0c0.4,0.1,1,0.1,1.7,0.3c0.7,0.1,1.2,0.2,1.9,0.3c0.4,0.1,1,0.1,1.5,0.2
			C188.7,163.7,188.1,162.5,188.1,162.5"/>
		<path class="st6" d="M184.1,164.3l-4.3,1.9c-4.4,7.3,10.7,27.7,10.7,27.7l4-4.5l-0.2-1.1l5.5-4.7l1.9-2.1l0,0
			c-1.6-1-2.9-2.3-4.3-3.8l-6.9-1l1.3-6.9c-1-1.7-1.8-3.2-2.3-4.5c-0.4-0.1-1-0.1-1.5-0.2c-0.7-0.1-1.2-0.2-1.9-0.3
			c-0.4-0.1-1-0.2-1.7-0.3C184.3,164.3,184.2,164.3,184.1,164.3"/>
		<polyline class="st7" points="199.9,183.7 194.4,188.4 194.6,189.5 199.9,183.7 		"/>
		<path class="st6" d="M202.8,180.3l-1,1.1l0,0C202,181.4,202.4,180.9,202.8,180.3 M203.8,179.1c-0.2,0.1-0.6,0.7-1,1.1l0,0
			L203.8,179.1C203.9,179,203.9,179,203.8,179.1"/>
		<path class="st8" d="M191.8,169.7l-1.3,6.9l6.9,1C195.2,175.1,193.3,172.3,191.8,169.7"/>
		<path class="st9" d="M189.2,159.5c0,0,5.1,13.1,13.5,18.9c0.3,0.2,0.8,0.4,1.1,0.6l-10.1,14.3c0,0-19-21.1-14.5-28.3L189.2,159.5z
			"/>
		<path class="st5" d="M225.8,168.2c0,0-1.8,2.1-4.6,4.7c0.1,0,0.1,0.1,0.2,0c2.1,0.7,2.7,0.8,4.6,1.5c0.1,0,0.1,0.1,0.2,0
			c0.4,0.2,0.9,0.3,1.3,0.6c0.3,0.1,0.7,0.2,1.1,0.3c0.6,0.2,1.1,0.3,1.6,0.6c0.2,0,0.4,0.2,0.7,0.2l0.1,0.1c0.4-1,0.6-1.8,0.6-2.7
			L225.8,168.2"/>
		<path class="st6" d="M221.2,172.9c-0.4,0.3-0.9,0.8-1.3,1.2c-0.4,0.3-0.9,0.8-1.5,1.2l-1,5.3l-5.5-0.8c-1.3,0.8-2.8,1.5-4.3,1.9
			h0.2l2.8,10.5l0,0l0.7,1.3l0.6,0.9l1.2,2.3c0,0,5-3.5,9.8-8.1c3.7-3.4,7.2-7.3,8.7-10.7c-0.3-0.1-0.8-0.3-1.2-0.4
			c0.3-0.4,0.6-1,0.7-1.5l-0.1-0.1c-0.2,0-0.4-0.2-0.7-0.2c-0.6-0.2-1.1-0.3-1.6-0.6c-0.3-0.1-0.7-0.2-1.1-0.3
			c-0.4-0.2-0.9-0.3-1.3-0.6c-0.1,0-0.1-0.1-0.2,0c-2-0.7-2.6-0.9-4.6-1.5C221.4,172.9,221.2,172.9,221.2,172.9"/>
		<path class="st7" d="M207.7,181.8c-0.3,0.1-0.7,0.2-1.1,0.3c-0.2,0.1-0.4,0.1-0.7,0.2c-0.2,0.1-0.3,0-0.6,0.1l5.4,10.1l0,0
			l-2.8-10.5L207.7,181.8"/>
		<path class="st8" d="M218.3,175.3c-2,1.6-4.1,3.1-6.5,4.5l5.5,0.8L218.3,175.3"/>
		<path class="st9" d="M230.4,177.6c-3.7,5.8-13.8,12.8-19.1,16c-2,1.2-3.2,2-3.2,2l-4.3-16.8c0.4,0.1,0.8,0,1.2-0.1
			c3.7-1.2,7.4-3.5,10.5-5.9c5.1-3.9,8.7-8.1,8.7-8.1l7.3,8.3c0,0.1,0.1,0.3,0,0.4C231.8,174.8,231.3,176.3,230.4,177.6z"/>
		<path class="st10" d="M247.1,68.5c0,0,20.9-2.6,18.3,10.3c-2.6,12.8-14.2,22.4-14.2,22.4L247.1,68.5z"/>
		<path class="st0" d="M256,107.3c0,1,0,2,0,2.9c-0.1,2.7-0.1,5-0.3,7.3c-0.1,0.1,0,0.3-0.1,0.4c-0.1,1-0.2,1.9-0.3,2.9
			c0,0.3,0,0.6-0.1,0.9c0,0.1,0,0.2,0,0.3c-0.4,3.1-0.9,5.9-1.5,8.5c-0.3,1.5-0.7,2.7-1.1,4c-6.3,20.5-20.4,23.9-35.6,23.8
			c-14.1-0.1-26.1-11.4-31.7-27.9c-1.7-4.9-2.9-10.3-3.2-16c-0.2-2.8-0.3-5.7-0.2-8.6c1.1-28.7,18.6-51.9,39.2-51.7
			c33.4,0.3,35.2,35.7,35.1,52.5C255.9,107.1,256,107.2,256,107.3z"/>
		<path class="st11" d="M255.6,117.5c0.2-2.3,0.3-4.7,0.3-7.3c-1.6-0.7-3.2-1.1-4.9-1.1c-6.4-0.1-11.7,4.7-11.7,10.7
			s5.1,11,11.5,11.1c0.7,0,2.1,0,2.9-0.1c0.6-2.6,1.1-5.5,1.5-8.5c0-0.1,0-0.2,0-0.3c0-0.2,0-0.6,0.1-0.9c0.1-1,0.2-1.9,0.3-2.9
			L255.6,117.5z"/>
		<path class="st12" d="M255.2,121c0,0.3,0,0.6-0.1,0.9c0,0.1,0,0.2,0,0.3c-1.6,0.7-3.1,0.2-4.7-0.3
			C251.9,121.4,253.5,120.9,255.2,121z"/>
		<path class="st12" d="M255.6,117.5c-1.2-0.6-2.5-0.8-4.3,0c1.7,0.9,3,1.1,4.1,0.6L255.6,117.5z"/>
		<path class="st10" d="M255.6,48.4c-3.2,0.1-6.6,0-9.6-0.3c-45.6-28.1-58.9,10-71.7,18c-13.4,8.4,1.8,39.5,1.8,39.5
			s4.6-0.8,6.6-0.7c2,0,12.8-37.2,12.8-37.2l16.8-3.7c0,0,14,3.8,27.9,6.2c-2.2,2.2-4.5,3.7-6.5,3.6c-7-0.6,17,9.1,30.9-2.2
			c2.1-0.6,5.1-6,5.9-7.6C280.1,43.4,262.4,46,255.6,48.4z"/>
		<path class="st13" d="M236.6,134.9c-1.8,7.4-6.3,12.8-11.4,13c-6.7,0.3-12.4-8.5-12.4-19.5l13.3-0.6l11.4-0.4
			C237.3,130.1,237.1,132.7,236.6,134.9z"/>
		<path class="st14" d="M236.6,134.9c-1.9-3.2-6.8-5.6-10.6-6.9l11.4-0.4C237.3,130.1,237.1,132.7,236.6,134.9z"/>
		<path class="st15" d="M263,62.1l0.7,0.1L263,62.1L263,62.1l0.7,0.1L263,62.1c0,0,0,0.1,0,0.2c-0.1,0.7-0.8,2.1-2.1,3.6
			c-1.3,1.5-3.5,2.9-6.7,3.5c-1.2,0.1-2.8,0.3-4.5,0.1c-0.7,0-1.2,0.4-1.3,1.1c0,0.7,0.4,1.2,1.1,1.3c1.9,0.1,3.6,0,5-0.2
			c2.2-0.3,4-1.1,5.5-2c2.1-1.5,3.5-3.1,4.4-4.6c0.8-1.5,1.1-2.5,1-2.6c0.1-0.7-0.2-1.3-0.9-1.5C263.7,61,263.1,61.4,263,62.1
			L263,62.1z"/>
		<path class="st15" d="M254.7,60.9l0.4,0.2L254.7,60.9L254.7,60.9l0.4,0.2L254.7,60.9L254.7,60.9c-0.1,0.1-0.6,0.9-1.3,1.7
			c-0.8,0.8-2,1.6-3.7,1.8c-1.2,0.1-2.7,0.1-4.6-0.3c-0.3-0.1-0.9,0.2-1,0.6c-0.1,0.3,0.2,0.9,0.6,1c2,0.6,3.7,0.6,5.1,0.3
			c2.2-0.3,3.8-1.5,4.8-2.5s1.5-1.9,1.3-2c0.2-0.4,0-0.8-0.3-1.1C255.4,60.3,255,60.5,254.7,60.9L254.7,60.9z"/>
		
			<ellipse transform="matrix(1.301233e-02 -0.9999 0.9999 1.301233e-02 75.4833 316.7248)" class="st11" cx="198.2" cy="120.1" rx="11" ry="11"/>
		<path class="st12" d="M198.2,119.7c-1.9-0.7-3.8-1.3-6.4-0.9C194.1,120.8,196.1,120.5,198.2,119.7z"/>
		<path class="st12" d="M193.3,115.3c1.5,1.1,2.7,0.8,4.6-0.1C196,114.3,194.5,114.7,193.3,115.3z"/>
		<path class="st16" d="M228.5,106.6c-3.7,5.4-2.3,14.1,2.6,16.3C227.5,117.7,227.7,112.2,228.5,106.6z"/>
		<path class="st0" d="M180.6,105.6c0,0-9.2-0.4-8.7,7c0.4,7.5,5.6,20.8,14.3,18.8c0,0,0.6-1.1,0-2c-0.6-1-3.8-23.8-3.8-23.8
			S180.6,105.6,180.6,105.6z"/>
		<path class="st3" d="M181,109.3c0,0-1.1-0.1-2.3,0c-0.6,0.1-1.1,0.2-1.6,0.6c-0.8,0.3-1.7,1-2.1,2c-0.6,1-0.7,2.2-0.4,3.8
			c0.2,1.5,0.9,3.1,1.9,5.1c0.2,0.4,0.8,0.6,1.1,0.3c0.4-0.2,0.6-0.8,0.3-1.1c-1-1.9-1.5-3.6-1.8-4.6c-0.2-0.9-0.1-1.5,0-2
			c0.2-0.8,0.6-1.2,1-1.7c0.4-0.3,1.1-0.6,1.7-0.7c0.4,0,1-0.1,1.2-0.1c0.1,0,0.3,0,0.3,0h0.1l0,0l0,0v-0.3v0.3l0,0v-0.3v0.3
			c0.4,0.1,0.9-0.2,0.9-0.8C181.8,109.7,181.4,109.3,181,109.3L181,109.3z"/>
		<path class="st2" d="M232.3,201l17.3,61.5c1.9,6.7,9.1,10.5,16,8.5s11.1-9.1,9.2-15.7l-17.3-61.5c-1.9-6.7-9.1-10.5-16-8.5
			C234.7,187.3,230.5,194.3,232.3,201"/>
		<path class="st2" d="M145.2,160.4l-60.1,21.9c-6.6,2.3-9.8,9.8-7.3,16.6s9.7,10.3,16.3,7.9l60.1-21.9c6.6-2.3,9.8-9.8,7.3-16.6
			C159,161.6,151.7,158.1,145.2,160.4"/>
		<path class="st17" d="M158.9,157.7c0,0,6.6,0.9,7.5,1.1c0.8,0.3-1,47.3-1,47.3s46.2,13.5,50,11.2c3.8-2.5,21.7-40,21.7-40l7.2,3
			c0,0-21.7,48.9-21.7,53.9s-7.7,36.1-7.5,41.2c0.2,5-0.4,62.9-5.4,73.6c0,0-77.1,5.7-97-14.3c-19.8-20,34-127.1,34-127.1l3.8-3.6
			L158.9,157.7z"/>
		<path class="st2" d="M73.6,192l-26.1,58.4c-2.8,6.4,0.2,13.9,6.8,16.8s14.2,0.1,17-6.3l26.1-58.4c2.8-6.4-0.2-13.9-6.8-16.8
			C84.2,182.9,76.5,185.6,73.6,192"/>
		<path class="st0" d="M279.9,201.2c5.4,3.8,11.5,6.5,17.3,9.3c1.7,0.8,1.9,1.5,3.5,2.2l0.3-0.7c3.9-8.8,1-12.8-5.3-16.3
			c-6.2-3.7-7.3-10.3-11.2-1.6l-5.7,7C279,201.2,279.6,201.1,279.9,201.2z"/>
		<path class="st1" d="M279.9,201.2l-0.3,0.4c5.5,3.9,11.5,6.5,17.4,9.4c0.8,0.3,1.1,0.7,1.7,1c0.4,0.3,1,0.8,1.8,1.2l0.6,0.3
			l0.6-1.2c1.6-3.6,2.1-6.4,1.7-8.8c-0.3-1.8-1.2-3.4-2.3-4.7c-1.2-1.3-2.8-2.5-4.7-3.6c-2-1.1-3.5-2.7-4.7-3.9
			c-0.7-0.6-1.2-1.1-1.7-1.6c-0.3-0.1-0.6-0.4-0.9-0.4c-0.3-0.1-0.7-0.1-1,0s-0.7,0.2-0.9,0.4c-0.4,0.3-0.9,0.9-1.3,1.5
			c-0.4,0.8-0.9,1.6-1.3,2.7l0.6,0.2l-0.4-0.3l-6,7.5l0.4,0.3c0.1,0.1,0.2,0,0.3,0.1c0.1,0.1,0.2,0,0.3,0c0.1,0,0.3,0,0.4,0h0.1l0,0
			l0,0l0,0l0,0l0,0v-0.3l-0.1,0.3c0,0.1,0.1,0.1,0.1,0.1v-0.3l-0.1,0.3L279.9,201.2l0.3-0.4c-0.1-0.1-0.2,0-0.3-0.1
			c-0.1-0.1-0.2,0-0.3,0c-0.1,0-0.3,0-0.4,0h-0.1l0,0l0,0l0,0l0,0l0,0v0.3l0.1-0.3c0-0.1-0.1-0.1-0.1-0.1v0.3l0.1-0.3l-0.5,0.4
			l0.4,0.3l5.7-7v-0.1c0.6-1.5,1.2-2.5,1.7-3.1c0.2-0.3,0.4-0.4,0.6-0.7c0.2-0.2,0.4-0.2,0.4-0.3s0.2,0,0.4,0.1
			c0.3,0.1,0.7,0.3,1.1,0.7c0.7,0.6,1.5,1.5,2.3,2.3c1,0.9,2.1,1.9,3.5,2.7c1.9,1,3.5,2.2,4.5,3.4c1.1,1.2,1.9,2.5,2.1,4.1
			c0.3,2.1,0,4.6-1.7,8.1l-0.3,0.7l0.6,0.2l0.2-0.6c-0.8-0.3-1.1-0.7-1.7-1c-0.4-0.3-1-0.8-1.8-1.2c-5.8-2.9-12-5.5-17.3-9.3
			L279.9,201.2z"/>
		<path class="st0" d="M298.3,204.2c0.9-0.1,0.4,0.7,4.4,1.3c7.6,1.1,15.1-4.1,21.7-7.7c0,0,0.7-2.1,0.3-2.8c-0.1-0.7-2-0.8-2.3-0.8
			l-9.6-17.7l-6,1.8c-0.2,0.1-0.3,0.1-0.4,0.3c-2.7,1.3-4.5,3.6-6.8,5.5c-2.5,2.1-5.8,3.1-8.9,4.1c-1.2,0.3-2.5,0.4-3.7,0.6"/>
		<path class="st1" d="M298.4,204.7C298.5,204.7,298.5,204.7,298.4,204.7c0.1,0,0.2-0.1,0.3,0c0.1,0.1,0.6,0.3,1.1,0.6
			s1.5,0.4,2.7,0.7c1.8,0.2,3.4,0.2,5-0.1c3-0.6,5.9-1.8,8.8-3.2c2.9-1.3,5.6-3.1,8.3-4.5l0.2-0.1v-0.2c0,0,0.2-0.6,0.2-1.1
			c0-0.2,0.1-0.7,0.1-1s0-0.6,0-1v-0.1c-0.1-0.2-0.1-0.4-0.3-0.4c-0.2-0.2-0.4-0.3-0.8-0.4c-0.3-0.1-0.8-0.2-1.1-0.2
			c-0.3,0-0.6,0-0.8-0.1v0.6l0.4-0.3l-9.7-18.1l-6.5,2l0,0c-0.1,0-0.3,0.1-0.4,0.3c-2.8,1.5-4.7,3.8-6.9,5.6c-2.5,2-5.7,3.1-8.7,4.1
			c-0.4,0.1-0.9,0.2-1.3,0.3c-0.8,0.1-1.5,0.2-2.2,0.2c-0.3,0-0.4,0.3-0.6,0.7c0,0.3,0.3,0.4,0.7,0.6c0.8,0,1.6-0.1,2.3-0.3
			c0.4,0,1-0.2,1.5-0.3c3.1-0.9,6.5-2.1,9.2-4.3c2.3-1.9,4.3-4.1,6.8-5.4c0.1,0,0.3-0.1,0.4-0.3l-0.3-0.4l0.2,0.6l5.6-1.7l9.5,17.7
			h0.3c0.1,0,0.7,0,1.1,0.1c0.2,0,0.4,0.1,0.7,0.1l0.1,0.1l0,0h0.1h-0.1l0,0h0.1h-0.1l0,0c0,0.1,0,0.3,0,0.6
			c-0.1,0.3-0.2,0.9-0.3,1.2c0,0.2-0.1,0.3-0.1,0.4l-0.1,0.1l0,0l0.6,0.2l-0.3-0.4c-2.7,1.3-5.4,3-8.3,4.5c-2.9,1.3-5.6,2.7-8.5,3.1
			c-1.6,0.2-3.2,0.3-4.7,0.1c-1-0.1-1.7-0.3-2-0.4c-0.3-0.1-0.7-0.1-0.8-0.3c-0.3-0.1-0.4-0.2-0.7-0.3c-0.1-0.1-0.3-0.1-0.3-0.1
			c-0.1-0.1-0.3,0-0.4,0c-0.3,0-0.4,0.3-0.6,0.7C297.9,204.5,298.2,204.8,298.4,204.7L298.4,204.7z"/>
		<path class="st0" d="M323.8,169.9c0,0,8.1,1.2,1.8,6.7c0,0,7.6,1.3,2.5,7.3c0,0,6.2,3.2,0.3,7.3c0,0,4.8,2.7,1.1,6.4l-16,4.7
			c0,0-6.9-4,0.1-7.3l2.9-0.9l-3.1,0.2c0,0-6.5-1-2.5-5.3l5.4-1.8l-4.8,0.1c0,0-6-1.9-1.3-5.5l4.9-1.8l-5,0.8c0,0-6.2-2.6-0.7-6.2
			C315,171.2,323.8,169.9,323.8,169.9z"/>
		<g id="XMLID_2_">
			<g id="XMLID_131_">
				<path id="XMLID_146_" class="st18" d="M565.5,230.2h-20.9c-1.9,0-2.6-1-1.9-2.9l31.3-102c0.4-2,1.6-2.9,3.4-2.9h26.5
					c1.8,0,2.9,1,3.4,2.9l31.3,102c0.4,0.9,0.4,1.6,0.1,2.1c-0.3,0.6-1,0.8-1.9,0.8h-21c-2.2,0-3.6-1-4-2.9l-4.9-17.2h-32.6
					l-4.7,17.2C569.1,229.2,567.8,230.2,565.5,230.2z M580,186.3h21.3l-10.6-34.5L580,186.3z"/>
			</g>
			<g id="XMLID_137_">
				<path id="XMLID_145_" class="st18" d="M634.6,322.9c-8.4,0-17.8-7.4-27.6-15.2c-6-4.8-15.2-12.1-18.7-12.1
					c-42.3,0-81.8-22.8-102.9-59.5l11.9-6.8c18.7,32.4,53.6,52.6,90.9,52.6c8.3,0,17,6.9,27.2,15c5.4,4.3,15.4,12.2,18.8,12.2
					c0.1,0,0.1,0,0.2,0c2.1-1.7,4.4-13.6,5.5-20c2.2-12.3,4.1-22.8,10.6-27.6c26.6-19.7,42.6-51.3,42.6-84.5
					c0-57.8-47.1-104.9-104.9-104.9c-24.2,0-47.8,8.4-66.4,23.7l-8.7-10.6c21.1-17.2,47.8-26.7,75.1-26.7
					c65.4,0,118.7,53.2,118.7,118.7c0,37.5-18,73.2-48.2,95.5c-2.2,1.9-4.1,12.6-5.4,19.1c-2.6,14.1-5,27.4-14.8,30.6
					C637.5,322.7,636,322.9,634.6,322.9z"/>
			</g>
			<g id="XMLID_130_">
				<path id="XMLID_142_" class="st19" d="M447.4,216.6l-12.9-22.8c-5.5,1.3-10.2,2-14.1,2c-9.7,0-18.7-2.3-26.7-6.9
					c-8.1-4.6-14.3-11-18.9-19c-4.6-8.1-6.9-17-6.9-26.8c0-9.7,2.3-18.6,6.9-26.6c4.6-8.1,11-14.4,18.9-19
					c8.1-4.7,16.9-6.9,26.7-6.9c7.3,0,14.2,1.3,20.7,4.1c6.5,2.7,12.1,6.5,16.8,11.1c4.7,4.7,8.4,10.3,11.2,16.8
					c2.8,6.5,4.1,13.4,4.1,20.7c0,7.7-1.5,14.9-4.5,21.6c-3,6.7-7.4,12.6-13.2,17.8l12.8,22.6c0.7,1.6,0.4,2.8-0.7,3.7l-16.1,8.4
					c-1,0.6-1.8,0.8-2.2,0.8C448.5,217.9,447.9,217.5,447.4,216.6z M420.6,172c7.9,0,14.8-2.8,20.2-8.5c5.6-5.7,8.3-12.5,8.3-20.5
					s-2.8-14.8-8.3-20.4c-5.5-5.7-12.3-8.5-20.2-8.5s-14.7,2.8-20.1,8.5c-5.4,5.7-8.2,12.5-8.2,20.5c0,8.1,2.7,14.9,8.1,20.6
					C405.8,169.3,412.5,172,420.6,172z"/>
			</g>
			<g id="XMLID_133_">
				<path id="XMLID_125_" class="st19" d="M371.9,296.1c-1.6,0-3.1-0.2-4.6-0.8c-9.4-3.4-11-17.1-13-32.9
					c-0.9-6.9-2.2-18.5-4.3-20.8c-30.1-22.1-48.1-57.8-48.1-95.4c0-65.4,53.2-118.7,118.7-118.7s118.7,53.2,118.7,118.7
					s-53.2,118.7-118.6,118.7c-3.7,0-13.5,8.4-19.9,13.9C390,288,380.6,296.1,371.9,296.1z M420.7,41.3
					c-57.8,0-104.9,47.1-104.9,104.9c0,33.2,16,64.8,42.7,84.6c6.2,4.5,7.6,14.3,9.5,30c0.9,7,2.2,18.6,4.4,21.6
					c3.7-0.3,13.9-9.2,19.5-14c10.7-9.3,20-17.2,28.9-17.2c57.8,0,104.9-47.1,104.9-104.9C525.7,88.4,478.6,41.3,420.7,41.3z"/>
			</g>
			<circle id="XMLID_134_" class="st18" cx="679.7" cy="64.2" r="16.3"/>
			<g id="XMLID_136_">
				<path id="XMLID_120_" class="st18" d="M641.2,62.2C630,62.2,621,53.1,621,42s9.1-20.2,20.2-20.2c11.2,0,20.2,9.1,20.2,20.2
					S652.3,62.2,641.2,62.2z M641.2,35.6c-3.6,0-6.5,2.9-6.5,6.5s2.9,6.5,6.5,6.5s6.5-2.9,6.5-6.5C647.6,38.5,644.7,35.6,641.2,35.6
					z"/>
			</g>
			<path id="XMLID_139_" class="st19" d="M336.9,244.2L326,247l-10.6-3.5c-3.4-1.1-6.7,2-5.8,5.5l2.8,10.9l-3.5,10.6
				c-1.1,3.4,2,6.7,5.5,5.8l10.9-2.8l10.6,3.5c3.4,1.1,6.7-2,5.8-5.5l-2.8-10.9l3.5-10.6C343.5,246.5,340.4,243.3,336.9,244.2z"/>
			<g id="XMLID_138_">
				<path id="XMLID_110_" class="st19" d="M325.7,54.7c-1.6,0-3.2-0.6-4.5-1.7c-2.9-2.5-3.1-6.8-0.7-9.7c1.2-1.5,30.9-35.1,78-37.6
					c3.6-0.2,7,2.7,7.3,6.5c0.2,3.8-2.7,7-6.5,7.3c-41.1,2.1-68,32.6-68.2,32.9C329.5,53.9,327.6,54.7,325.7,54.7z"/>
			</g>
		</g>
		<path class="st0" d="M285.3,192.4c0,0,7.9-21.5,10-22.1c2-0.6,14.5-0.4,16.1,1.9c0.6,0.8,0.8,1.9,0.9,2.8c0.3,1.5,0.6,2.9,0.7,4.4
			c0.2,1.5,0.3,2.9,0.4,4.4c0.1,0.9,0.3,3.5,0.2,4.4c-0.1,1.5-1.6,1.7-2.6,1.7c-1.1-0.1-1.9-0.4-2.6-1.3c-0.9-1.1-1.8-4.7-1.9-6.2
			c-0.1-3-1.1-3.4-1.1-3.4s-4.1,11.9-10.5,13.5"/>
		<path class="st1" d="M285.9,192.6c0,0,0.1-0.3,0.3-0.9c0.8-2,2.7-7.3,4.8-12c1-2.3,2-4.6,2.8-6.3c0.4-0.9,0.8-1.6,1.1-2
			c0.1-0.3,0.3-0.4,0.4-0.4s0.1-0.1,0.1-0.1l0,0l0,0v-0.1v0.1l0,0v-0.1v0.1c0.1,0,0.2-0.1,0.3-0.1c0.7-0.1,2-0.1,3.4-0.2
			c2.2,0,5,0,7.4,0.4c1.1,0.2,2.2,0.3,3,0.7c0.3,0.1,0.8,0.2,1,0.4c0.3,0.1,0.4,0.3,0.4,0.4c0.4,0.7,0.7,1.7,0.8,2.6
			c0.2,0.6,0.2,1,0.2,1.6c0.2,0.9,0.2,1.8,0.4,2.7c0.2,1.5,0.3,2.9,0.4,4.4c0,0.4,0.1,1.3,0.1,2.2c0,0.4,0,0.8,0.1,1.2
			c0,0.3,0,0.7,0.1,0.9c0,0.3-0.2,0.6-0.3,0.7c-0.2,0.2-0.4,0.3-0.8,0.3c-0.2,0.1-0.6,0.1-0.8,0c-0.4-0.1-0.9-0.2-1.2-0.3
			c-0.3-0.1-0.6-0.4-1-0.8c-0.2-0.2-0.3-0.4-0.4-0.8c-0.4-1-0.9-2.8-1.1-4c0-0.4-0.1-0.8-0.1-1.1c0-0.4-0.1-0.9-0.2-1.3
			c-0.2-1-0.4-1.7-0.8-1.9c-0.2-0.4-0.6-0.6-0.7-0.6l-0.6-0.2l-0.2,0.6c0,0,0,0-0.1,0.1c-0.2,0.7-1.3,3.5-3.1,6.5
			c-0.9,1.5-1.9,3-3.1,4.3c-1.1,1.2-2.5,2.1-3.8,2.6c-0.3,0.1-0.4,0.3-0.4,0.6c0.1,0.3,0.3,0.4,0.6,0.4c1.8-0.4,3.2-1.7,4.6-3
			c1.9-2,3.6-4.8,4.6-7s1.7-3.9,1.7-3.9l-0.6-0.2l-0.2,0.6l0.1-0.3l-0.1,0.3l0,0l0.1-0.3l-0.1,0.3l0,0l0,0l0,0l0,0l0,0
			c0,0,0.1,0.1,0.2,0.3c0.2,0.2,0.3,0.6,0.4,1.3c0.1,0.3,0.1,0.8,0.1,1.2c0,0.3,0.1,0.8,0.1,1.2c0.2,0.9,0.3,1.9,0.7,2.9
			c0.1,0.4,0.3,1,0.6,1.3c0.1,0.4,0.3,0.7,0.6,1c0.3,0.4,0.9,0.8,1.2,1c0.6,0.2,1.1,0.3,1.6,0.4c0.3,0,0.7,0,1.1,0s1-0.3,1.3-0.6
			s0.7-0.8,0.7-1.6c0-0.2,0-0.6,0-1.1c0-1.1-0.2-2.8-0.2-3.5c-0.1-1.5-0.2-3-0.4-4.5c-0.1-0.9-0.2-1.8-0.4-2.7
			c-0.1-0.6-0.2-1.1-0.3-1.7c-0.2-0.9-0.4-2-1.1-2.9c-0.2-0.4-0.7-0.7-1.2-0.9c-0.9-0.4-2.1-0.8-3.5-0.9c-2-0.3-4.4-0.4-6.5-0.4
			s-4,0-5,0.2c-0.1,0-0.3,0.1-0.4,0.1s-0.3,0.1-0.4,0.2c-0.2,0.2-0.3,0.3-0.6,0.7c-0.4,0.4-0.8,1.2-1.2,2c-1.6,3-3.6,7.9-5.3,12
			c-1.6,4.1-2.9,7.6-2.9,7.6c-0.1,0.3,0.1,0.6,0.3,0.7C285.6,193,285.8,192.9,285.9,192.6L285.9,192.6z"/>
		<path class="st2" d="M296.3,206.5c-2.5-1.3-4.8-2.6-7.3-3.9c0.6,0.3,1.1,0.6,1.7,0.9c-0.9-0.6-10.9-5.9-10.4-6.7
			c-0.2,0.4-0.6,0.8-0.8,1.3l-29.1,56.8c-3.1,6.2-0.2,13.9,6.4,17.3c6.7,3.4,14.7,1.1,17.9-5c0,0,28.9-56.5,29-56.8
			c-0.2-0.4-1.6-0.9-2-1.1c-1.6-0.8-3-1.7-4.6-2.3C296.9,206.7,296.5,206.6,296.3,206.5z"/>
		<path class="st20" d="M403,102.7l36.2-6.6c1.6-0.2,2.6-1.8,2.3-3.4c-0.2-1.6-1.8-2.6-3.4-2.3L402,97c-1.6,0.2-2.6,1.8-2.3,3.4
			C399.9,101.9,401.4,102.9,403,102.7"/>
	</g>
</g>
<g>
	<path class="st21" d="M186,234.7C186,234.6,186,234.6,186,234.7c0.1,0,0.1,0,0.2-0.1l0,0l0.4-1.7c0-0.1,0.1-0.1,0.1-0.1
		s0.1,0,0.2,0l0.6,0.2c0.1,0,0.1,0.1,0.1,0.1s0,0.1,0,0.2l-0.2,0.9c0,0.1-0.1,0.1-0.1,0.1c-0.1,0-0.1-0.1-0.2,0l-0.6-0.2l-0.2,0.6
		c0.2,0,0.5,0,0.6,0l-0.1-0.2l0,0l0,0c0-0.1,0.1-0.1,0.1,0c0,0,0,0.1,0.2,0.2c0.1,0.3,0.1,0.5,0.1,0.5c0,0.1-0.1,0.1-0.1,0
		s-0.1-0.1-0.2-0.2v-0.1c-0.2,0.1-0.5,0-0.7,0.1s-0.3,0-0.3,0C186,234.8,186,234.7,186,234.7z M187.5,233.2
		C187.5,233.1,187.5,233.1,187.5,233.2L187,233h-0.1v0.2l0.6,0.2V233.2L187.5,233.2z M187.3,233.9v-0.2l-0.6-0.2l-0.1,0.4l0.5,0.1
		C187.3,233.9,187.3,233.9,187.3,233.9z M187.4,235.3l0.6-2.1c0-0.1,0.1-0.1,0.1-0.1s0.1,0,0.2,0l0.5,0.1c0.1,0,0.1,0.1,0.1,0.1
		s0,0.1,0.1,0.2l-0.5,1.6c0,0.1-0.1,0.1-0.2,0.2c0,0-0.1,0-0.2,0h-0.2c-0.1,0-0.1-0.1-0.2-0.2c0-0.1,0.1-0.1,0.1,0l0.1,0.1
		c0.1,0,0.1,0,0.1,0l0.4-1.5c0-0.1,0-0.1,0-0.1l-0.4-0.1c-0.1,0-0.1,0-0.1,0L187.4,235.3c0,0.2-0.1,0.2-0.2,0.3
		C187.5,235.5,187.3,235.4,187.4,235.3z M192.2,236.1c0,0.1-0.1,0.1-0.1,0l-1-0.3v0.2c0,0.1-0.1,0.1-0.1,0.1s-0.1,0-0.2,0.1h-0.2
		c-0.1,0-0.1-0.1-0.2-0.2c0-0.1,0.1-0.1,0.2-0.1l0.1,0.1c0.1,0,0.1,0,0.1,0v-0.2l-1-0.3c-0.1,0-0.1-0.1,0-0.1c0,0,0-0.1,0.1,0
		s0,0,0.1,0l1,0.3c0-0.1,0-0.1,0.1-0.1s0.1,0,0.2-0.1l0.2-0.1c0.1,0.1,0.2,0,0.2,0l-1.5-0.4c-0.1,0-0.1-0.1,0-0.1
		c0-0.1,0.1-0.1,0.1,0l1.6,0.5c0.1,0,0.1,0.1,0.2,0.2l0,0c0,0,0,0.1-0.1,0.1h-0.1c-0.1-0.1-0.2,0.1-0.5,0c-0.1,0-0.1-0.1-0.2,0.1
		h-0.1L192.2,236.1C192.2,236,192.2,236,192.2,236.1z M190.2,233.8c0-0.1,0.1-0.1,0.1,0l1,0.3V234c0-0.1,0.1-0.1,0.2-0.1
		c0.1,0,0.1,0.1,0.2,0.2v0.1l1,0.3c0.1,0,0.1,0.1,0,0.1s-0.1,0.1-0.1,0l-2.2-0.6C190.1,233.9,190.1,233.9,190.2,233.8z M192,234.5
		c0.1,0,0.1,0.1,0.1,0.1s0,0.1-0.1,0.1v0.2c-0.1,0.1-0.1,0.1-0.3,0.1l-1.5-0.4c-0.1,0-0.1-0.1-0.1-0.1c0-0.1,0-0.1,0-0.2v-0.2
		c0.1-0.1,0.2-0.2,0.3-0.1L192,234.5L192,234.5z M191.9,234.8C191.9,234.8,191.9,234.7,191.9,234.8l-1.3-0.4h-0.1v0.1v0.1
		L191.9,234.8C191.9,234.9,191.9,234.9,191.9,234.8L191.9,234.8L191.9,234.8z M194.2,236.1H194l-0.2,0.8h0.2c0,0,0,0,0,0.1
		c0,0,0,0,0,0.1h-0.1c0,0-0.2,0-0.5-0.1l-0.4-0.1c-0.1,0-0.1-0.1,0-0.1c0-0.1,0.1,0,0.2-0.1h0.2l0.2-0.9h-0.2c-0.1,0-0.1-0.1,0-0.1
		c0-0.1,0.1-0.1,0.1,0h0.2v-0.2h-0.2c-0.1,0-0.1-0.1,0-0.1l0,0h-0.1c-0.1,0-0.1-0.1,0-0.1c0,0,0-0.1,0.1-0.1
		c0.2-0.2,0.4-0.3,0.5-0.5h0.1c0.1,0,0.1,0.1,0,0.1c0,0,0,0-0.1,0c0.2,0.2,0.2,0.3,0.2,0.3c0,0.1,0,0.1,0.1,0.2c0,0.1-0.1,0.1-0.1,0
		v-0.1c0,0-0.2-0.2-0.2-0.3c-0.1,0.1-0.3,0.2-0.4,0.3l0,0l0.6,0.2c0.1,0,0.1,0.1,0,0.1c0,0.1-0.1,0.1-0.1,0h-0.2v0.2h0.2
		c0.1,0,0.1,0.1,0,0.1C194.3,236.1,194.3,236.1,194.2,236.1z M193.5,236.5C193.4,236.6,193.4,236.6,193.5,236.5c0-0.1,0-0.1,0-0.1
		v-0.2c0-0.1,0.1-0.1,0.1,0c0.1,0,0.1,0.1,0,0.1l-0.1,0.4C193.5,236.5,193.5,236.5,193.5,236.5z M194.2,236.2c0.1,0,0.1,0.1,0,0.1
		v0.2c0,0.1-0.1,0.1-0.1,0s-0.1-0.1,0-0.1v-0.2H194.2z M195.8,236.4l-0.3,1c0,0.1-0.1,0.1-0.2,0.2c0,0-0.1,0-0.2,0.1l-0.1-0.1
		c-0.1,0-0.1-0.1,0-0.1c0-0.1,0.1-0.1,0.1,0h0.1c0.1,0,0.1,0,0.1,0l0.2-0.9c0-0.1,0-0.1,0-0.1l-0.9-0.2c-0.1,0-0.1,0-0.1,0l-0.3,1
		c0,0.1-0.1,0.1-0.1,0s-0.1-0.1,0-0.1l0.3-1.1c0-0.1,0-0.1,0.1-0.1s0.1,0,0.2-0.1l0.2-0.8c0-0.2,0.2-0.3,0.3-0.2l0.6,0.2
		c0.1,0,0.1,0.1,0.1,0.1s0,0.1,0.1,0.2l-0.2,0.8C195.9,236.2,195.9,236.3,195.8,236.4z M195.8,235.4
		C195.8,235.4,195.7,235.3,195.8,235.4l-0.5-0.2h-0.1l-0.1,0.7h0.2l0.1-0.4c0-0.1,0.1-0.1,0.1-0.1s0.1,0,0.2-0.1h0.2L195.8,235.4
		L195.8,235.4z M195,237.2l-0.4-0.1c-0.1,0-0.1,0-0.1-0.1s0-0.1,0.1-0.1l0.1-0.4c0.1-0.1,0.1-0.1,0.2-0.2l0.4,0.1
		c0.1,0,0.1,0.1,0.2,0.2l-0.1,0.4C195.2,237.2,195.1,237.2,195,237.2z M195.2,236.7C195.2,236.7,195.2,236.6,195.2,236.7l-0.3-0.2
		h-0.1v0.2v0.1h0.2h0.1L195.2,236.7z M195.6,235.7h-0.2h-0.1v0.2h0.2L195.6,235.7z"/>
	<path class="st21" d="M187.8,225.2c0,0.2-0.3,0.3-0.6,0.3l-1.4-0.4l-0.9,3c-0.1,0.7,0.1,1.3,0.9,1.6c0.2,0,0.3,0.3,0.3,0.5
		s-0.2,0.4-0.5,0.4c-1.1-0.4-1.8-1.5-1.5-2.6l0.9-3h-0.2l-1.1-0.4l-1.3,4.8c0,0.2-0.3,0.3-0.5,0.3s-0.3-0.3-0.3-0.5l1.3-4.8l-1-0.3
		c-0.4-0.1-0.4-0.3-0.4-0.6c0-0.2,0.3-0.3,0.6-0.3l5.3,1.5C187.8,224.8,187.9,225,187.8,225.2z M180.9,223.2c0-0.1,0.2-0.2,0.3-0.4
		c1-1.1,1.5-1.8,1.6-2c0.1-0.4-0.2-0.6-0.8-0.8l-1.4-0.4c-0.4-0.1-0.6-0.1-0.8,0c-0.2,0.2-0.4,0.3-0.4,0.7l-2.1,7.8
		c-0.1,0.4,0,0.6,0.3,0.6c0.2,0,0.5,0,0.6-0.4l2.1-7.6c0-0.2,0.3-0.3,0.5-0.3l0.7,0.1c0.2,0,0.3,0.2,0.2,0.3c0,0.1,0,0.2-0.2,0.4
		c-0.4,0.6-0.8,0.9-0.9,1.2c-0.2,0.3-0.3,0.4-0.3,0.5s0,0.2,0.1,0.4c0.2,0.7,0.2,1.3,0.2,1.8c-0.1,0.5-0.4,0.6-0.8,0.6
		c-0.4-0.1-0.7,0.1-0.7,0.3c-0.1,0.4,0,0.6,0.4,0.6c1,0.3,1.6-0.1,1.9-1.2c0.2-0.6,0.1-1.3-0.2-1.9
		C180.9,223.4,180.8,223.2,180.9,223.2z M183.4,221.3l3.9,1.1c0.4,0.1,0.6,0,0.6-0.3c0-0.2-0.1-0.4-0.4-0.6l-3.9-1.1
		c-0.4-0.1-0.6,0-0.6,0.3S183,221.2,183.4,221.3z M192.8,223.7l4.5,1.3c0.2,0,0.5,0,0.5-0.3c0-0.2,0-0.5-0.4-0.5l-4.5-1.3
		c-0.2,0-0.5,0-0.5,0.3C192.4,223.5,192.6,223.7,192.8,223.7z M190.9,228.8c0.2-0.5,0.5-0.7,1.1-0.5l3.7,1c0.6,0.2,0.8,0.5,0.7,1
		l-0.1,0.7c0,0.2-0.2,0.4-0.4,0.6c-0.2,0.2-0.4,0.1-0.7,0l-3.7-1c-0.6-0.2-0.8-0.5-0.7-1C190.8,229.4,190.9,228.8,190.9,228.8z
		 M191.6,229.5c0,0.2,0,0.3,0.2,0.4l3.3,0.9c0.2,0,0.3,0,0.4-0.2l0.1-0.4c0-0.2-0.1-0.2-0.2-0.4l-3.2-0.9c-0.2,0-0.3,0-0.4,0.2
		L191.6,229.5L191.6,229.5z M192.2,226.3l4.6,1.2c0.2,0,0.5,0,0.5-0.3s0-0.5-0.3-0.5l-4.6-1.2c-0.2,0-0.5,0-0.5,0.3
		C191.8,226.1,191.9,226.2,192.2,226.3z M191.8,227.5l4.6,1.2c0.2,0,0.5,0,0.5-0.3c0-0.2,0-0.5-0.3-0.5l-4.6-1.2
		c-0.2,0-0.5,0-0.5,0.3C191.4,227.3,191.6,227.5,191.8,227.5z M191.6,224.7l6,1.6c0.2,0,0.5,0,0.5-0.3c0-0.2,0-0.5-0.4-0.5l-6-1.6
		c-0.2,0-0.5,0-0.5,0.3S191.4,224.7,191.6,224.7z M205.3,234.9l-1.2-0.3c-0.2,0-0.4-0.2-0.4-0.3s-0.1-0.3,0-0.6l0.4-1.4
		c0.1-0.5,0.4-0.7,0.9-0.5l1.2,0.3c0.5,0.1,0.7,0.5,0.5,0.9l-0.4,1.4C206.1,234.8,205.8,235,205.3,234.9z M205.8,233.1
		c0-0.2,0-0.3-0.2-0.4l-0.7-0.1c-0.2,0-0.3,0-0.4,0.2l-0.2,0.9c0,0.2,0,0.3,0.2,0.4l0.7,0.1c0.2,0,0.3,0,0.4-0.2L205.8,233.1z
		 M203,227.6c0.1,0.2,0.2,0.3,0.3,0.4c0.2,0,0.5,0,0.5-0.3c0-0.1,0-0.3-0.3-0.6c-0.2-0.3-0.5-0.7-1-1.2c0.1-0.1,0.1-0.1,0.2-0.3
		c0-0.2,0-0.3-0.3-0.5c-0.2,0-0.3,0-0.5,0.1c-0.6,0.6-1.2,1.3-2,1.7c-0.1,0-0.3,0.2-0.3,0.3c0,0.2,0,0.5,0.3,0.5
		c0.1,0,0.2,0,0.3-0.1v0.1c0,0.2,0,0.5,0.4,0.5l0.6,0.2l-0.3,1l-1-0.3c-0.2,0-0.5,0-0.5,0.3c0,0.2,0,0.5,0.4,0.5l1,0.3l-0.9,3.3
		l-1.2-0.3c-0.2,0-0.4,0.1-0.5,0.3c0,0.2,0.1,0.4,0.3,0.5l2.8,0.8c0.2,0,0.4-0.1,0.5-0.3c0.1-0.1-0.1-0.4-0.3-0.5l-1-0.3l0.9-3.3
		l0.9,0.2c0.2,0,0.5,0.1,0.5-0.1c0-0.2,0-0.5-0.4-0.5l-0.9-0.2l0.3-1l0.9,0.2c0.2,0,0.5,0,0.6-0.3c0-0.2,0-0.5-0.4-0.5l-2.2-0.6
		h-0.1c0.6-0.4,1.1-0.8,1.6-1.2C202.6,226.9,203,227.4,203,227.6z M199.2,232.4c0.2,0,0.3,0,0.5-0.3l0.3-1.2c0-0.2,0-0.5-0.3-0.5
		c-0.2,0-0.5,0-0.5,0.3l-0.3,1.2c0,0.1,0,0.2,0,0.3C199,232.4,199.1,232.3,199.2,232.4z M201.6,231.3l-0.3,1.1c0,0.2,0,0.5,0.3,0.5
		c0.2,0,0.5,0,0.5-0.3l0.3-1.1c0-0.2,0-0.3-0.3-0.5C201.8,231,201.6,231.2,201.6,231.3z M208.4,232l-0.9,3.6
		c-0.1,0.4-0.3,0.6-0.5,0.7c-0.2,0.2-0.4,0.1-0.8,0l-0.5-0.2c-0.2,0-0.4-0.2-0.3-0.5c0-0.2,0.2-0.4,0.5-0.3l0.4,0.1
		c0.2,0,0.5,0,0.5-0.3l0.8-3.1c0-0.2,0-0.3-0.2-0.4l-3.2-0.9c-0.2,0-0.3,0-0.4,0.2l-1.1,4.1c-0.1,0.4-0.3,0.4-0.6,0.4
		c-0.2,0-0.4-0.2-0.3-0.6l1.1-4.2c0-0.2,0.2-0.5,0.3-0.5c0.2-0.2,0.3-0.2,0.5-0.1l0.7-2.7c0.2-0.6,0.6-0.8,1.2-0.7l2.4,0.7
		c0.2,0,0.5,0.2,0.6,0.4c0.2,0.2,0.1,0.4,0,0.8l-0.8,2.7C208.4,231.2,208.5,231.6,208.4,232z M207.6,229.5l-0.8-0.2
		c-0.2,0-0.3,0-0.4,0.2l-0.3,1.1l1.1,0.3L207.6,229.5L207.6,229.5z M207.9,228.3c0-0.2,0-0.3-0.2-0.4l-2-0.5c-0.2,0-0.3,0-0.4,0.2
		l-0.8,2.6l0.9,0.2l0.3-1.2c0-0.2,0.2-0.4,0.4-0.6c0.2-0.2,0.4-0.1,0.7-0.1l1,0.3L207.9,228.3C207.8,228.3,207.9,228.3,207.9,228.3z
		 M196.6,232.6l-6.8-1.9c-0.7-0.1-1-0.8-0.9-1.6l0.7-2.5c0-0.2-0.1-0.4-0.3-0.5c-0.1-0.1-0.4,0.1-0.5,0.3l-0.7,2.5
		c-0.3,1.1,0.3,2.3,1.5,2.6l6.8,1.9c0.2,0,0.4-0.1,0.5-0.4C197,232.9,196.8,232.6,196.6,232.6z M190.4,225c0.1-0.4-0.1-0.8-0.5-0.9
		c-0.4-0.1-0.8,0.1-0.9,0.5c-0.1,0.4,0.1,0.8,0.5,0.9C189.9,225.6,190.3,225.3,190.4,225z"/>
	<path class="st21" d="M167.2,229.3c-0.3,0-0.8-0.1-1.2-0.2c-0.1-0.1-0.2,0-0.4-0.1c0.2-3.1-1.7-5.9-4.6-7c0-0.3,0.1-0.7,0.3-1.1
		c0.1-0.1,0-0.2,0.1-0.4C165,221.7,167.4,225.4,167.2,229.3z M161,223.1c0.2,2.2,1.5,4.2,3.5,5.4C164.4,226.2,163.1,224.1,161,223.1
		z M169.5,216c-2.8-0.8-5.9,0.4-7.5,2.8c2.9,1.1,5.1,3.5,6.1,6.2c1.8-0.5,3.7-0.5,5.7,0c0.1,0,0.1,0,0.1,0.1c0-0.2,0.2-0.5,0.2-0.8
		C175.2,220.8,173.1,217.1,169.5,216z M168.8,228.1c1.1-0.3,2-0.5,3.1-0.3c0.5-0.4,0.8-0.8,1.2-1.3c-1.5-0.4-3-0.3-4.5,0.1
		C168.7,227.1,168.7,227.6,168.8,228.1z"/>
	<path class="st22" d="M168.9,221.5c-0.2-1.4,1.2-2.3,1.3-2.2c-0.1,0-0.2,1.1-0.1,2.5c0.2,1.4-1.2,2.3-1.3,2.2
		C168.9,224.2,169,223,168.9,221.5z M170.9,217.9c-0.2-2,1.6-3.1,1.7-3.1c-0.1,0-0.2,1.6,0,3.5c0.2,2-1.6,3.1-1.7,3.1
		C171,221.5,171.1,219.9,170.9,217.9z"/>
</g>
</svg>
