<?xml version="1.0" encoding="utf-8"?>
<!-- Generator: Adobe Illustrator 21.1.0, SVG Export Plug-In . SVG Version: 6.00 Build 0)  -->
<svg version="1.1" id="圖層_1" xmlns="http://www.w3.org/2000/svg" xmlns:xlink="http://www.w3.org/1999/xlink" x="0px" y="0px"
	 viewBox="0 0 345 345" style="enable-background:new 0 0 345 345;" xml:space="preserve">
<style type="text/css">
	.st0{fill:#DEDFDF;}
	.st1{fill:#FCBF6C;}
	.st2{opacity:0.6;fill:#FFA46F;enable-background:new    ;}
	.st3{fill:#FA8D80;}
	.st4{fill:#F2756A;}
	.st5{fill:#8FC1A4;}
	.st6{opacity:0.25;fill:#FFFFFF;enable-background:new    ;}
	.st7{fill:#F6BCC9;}
	.st8{opacity:0.3;fill:#F7ABBD;enable-background:new    ;}
	.st9{fill:#F7ABBD;}
	.st10{fill:#E2A691;}
	.st11{opacity:0.3;fill:#D2805A;enable-background:new    ;}
	.st12{opacity:0.2;fill:#FFFFFF;enable-background:new    ;}
	.st13{fill:#CD8673;}
	.st14{opacity:0.4;fill:#FFFFFF;enable-background:new    ;}
	.st15{fill:#FDCF9E;}
	.st16{opacity:0.5;fill:#FFA46F;enable-background:new    ;}
	.st17{fill:#90BF9E;}
	.st18{opacity:0.5;fill:#6FA986;enable-background:new    ;}
	.st19{fill:#FFA8B0;}
	.st20{fill:#FFD7DD;}
	.st21{opacity:0.5;fill:#FFA8B0;enable-background:new    ;}
	.st22{fill:#F4CCA6;}
	.st23{fill:#E9BB96;}
	.st24{opacity:0.3;fill:#FFFFFF;enable-background:new    ;}
	.st25{fill:#C07C6B;}
	.st26{fill:#F2E7DB;}
	.st27{fill:#E8DCD1;}
</style>
<ellipse transform="matrix(0.9922 -0.1247 0.1247 0.9922 -26.5904 23.9985)" class="st0" cx="178.4" cy="224.4" rx="162" ry="56.5"/>
<g>
	<g>
		<g>
			<path class="st1" d="M337.4,153.6c-2.3,22.3-9.3,47.5-13.4,53.7c-6.2,9.4-18.9,18.7-74.8,18.7s-65.3-12.2-74.1-21
				c-5.7-5.7-10.6-27.3-13.3-48.3c-1.3-10.4-2.1-20.6-2.2-28.7v-0.1c0-0.5,0-1.1,0-1.6c0-23.9,45.6-41.3,91.7-41.3
				c53.2,0,77.2,18.9,84.7,39.1c0.4,1.1,0.7,2.2,1,3.5l0,0C338.4,134.4,338.4,143.7,337.4,153.6z"/>
			<path class="st2" d="M337.4,153.6c-13.7,12.8-42.7,33-89.2,33c-52.5,0-77.6-20.4-86.4-29.9c-1.3-10.4-2.1-20.6-2.2-28.7v-0.1
				c0-0.5,0-1.1,0-1.6c0-23.9,45.6-41.3,91.7-41.3c53.2,0,77.2,18.9,84.7,39.1c0.4,1.1,0.7,2.2,1,3.5l0,0
				C338.4,134.4,338.4,143.7,337.4,153.6z"/>
			<path class="st3" d="M336.9,127.5L336.9,127.5c0,8.8-5.9,31.1-40.8,42.1c-12.4,4-28.5,6.5-49.3,6.5c-78,0-87-37.7-87.3-48.2v-0.1
				c0-0.5,0-1.1,0-1.6c0-12.7,12.9-23.6,31.9-30.9c11-4.3,24.2-7.4,38-9.1c7.1-0.8,14.4-1.3,21.8-1.3c45.5,0,69.6,13.8,80.3,30.4
				c1.8,2.8,3.2,5.7,4.3,8.6C336.2,125.1,336.6,126.3,336.9,127.5z"/>
			<path class="st4" d="M331.5,115.5L331.5,115.5c-4.1,6.3-10.5,11.1-17.8,12.5c-3.5,0.6-7.1,0.5-10.6,0.1
				c-7.2-0.8-14.8-2.9-19.4-8.5c-2.3-2.7-3.6-6.1-5.7-9c-3.9-5.2-10.2-8.5-16.7-8.7c-7.4-0.1-14.9,3.5-21.9,1
				c-4.6-1.6-8-5.8-9.3-10.5c-0.5-1.9-0.7-4.1-0.6-6.2c7.1-0.8,14.4-1.3,21.8-1.3C296.6,85,320.8,98.8,331.5,115.5z"/>
			<g>
				<path class="st4" d="M324.1,130.5c0.3,1.1,1.4,2,2.6,2s2.3-0.8,2.6-1.9c0.1-0.4,0.1-0.9,0.1-1.3c-0.1-0.7-0.3-1.3-0.7-1.9
					c-0.4-0.5-1-0.9-1.7-1C325.1,126.4,323.6,128.8,324.1,130.5z"/>
				<path class="st4" d="M331.2,128.3c-0.2,0.5-0.1,1.1,0.3,1.4s1,0.4,1.4,0.1c0.2-0.1,0.3-0.3,0.4-0.4c0.2-0.3,0.3-0.5,0.3-0.8
					s-0.1-0.6-0.3-0.8C332.7,127.2,331.5,127.6,331.2,128.3z"/>
				<path class="st4" d="M328.7,125.1c0.2,0.6,0.7,1,1.3,1c0.6,0,1.1-0.4,1.3-0.9c0.1-0.2,0.1-0.4,0-0.6c0-0.3-0.1-0.7-0.3-0.9
					s-0.5-0.5-0.8-0.5C329.2,123,328.4,124.2,328.7,125.1z"/>
			</g>
			<g>
				<path class="st4" d="M220.8,124c0.3,1.1,1.4,2,2.6,2c1.2,0,2.3-0.8,2.6-1.9c0.1-0.4,0.1-0.9,0.1-1.3c-0.1-0.7-0.3-1.3-0.7-1.9
					c-0.4-0.5-1-0.9-1.7-1C221.8,119.8,220.3,122.3,220.8,124z"/>
				<path class="st4" d="M227.9,121.8c-0.2,0.5-0.1,1.1,0.3,1.4c0.4,0.3,1,0.4,1.4,0.1c0.2-0.1,0.3-0.3,0.4-0.4
					c0.2-0.3,0.3-0.5,0.3-0.8s-0.1-0.6-0.3-0.8C229.4,120.7,228.2,121.1,227.9,121.8z"/>
				<path class="st4" d="M225.4,118.6c0.2,0.6,0.7,1,1.3,1s1.1-0.4,1.3-0.9c0.1-0.2,0.1-0.4,0-0.6c0-0.3-0.1-0.7-0.3-0.9
					c-0.2-0.3-0.5-0.5-0.8-0.5C225.9,116.5,225.2,117.7,225.4,118.6z"/>
			</g>
			<path class="st4" d="M296.1,169.7c-12.4,4-28.5,6.5-49.3,6.5c-78,0-87-37.7-87.3-48.2v-0.1c0-0.5,0-1.1,0-1.6
				c0-12.7,12.9-23.6,31.9-30.9c4.1,4,7.1,9.2,9.7,14.4c3.8,7.6,7.1,15.8,13.4,21.5c6.8,6.2,16.3,8.7,25.5,8.7
				c9.3,0,18.6-2.2,27.8-0.8s17.8,6.7,23.3,14.3C294.3,158.2,296.5,164,296.1,169.7z"/>
			<path class="st5" d="M216.3,125.9c1-0.7,1.5-2,1.9-3.3c1.5-5.3,1.6-11,0.2-16.4c-0.3-1-0.6-2.1-1.2-3s-1.6-1.6-2.7-1.6
				c-1.5-0.1-2.8,1.1-3.7,2.3c-2,2.9-2.4,6.6-2.5,10.2c-2-3-4.9-5.2-8.4-5.9c-0.7-0.2-1.5-0.2-2.2,0c-1.5,0.5-2.1,2.3-2,3.9
				c0.1,1.9,0.9,3.7,2.1,5.2c1.2,1.5,2.6,2.7,4.2,3.8c3.9,2.8,8.6,5.2,13.4,4.7C215.8,125.8,215.9,126.2,216.3,125.9z"/>
			<path class="st6" d="M208,117.7c-0.8-0.8-1.6-1.7-2.4-2.5c-1-1-2-2.1-3.2-2.9c-0.7-0.5-1.6-1-2.5-0.8c-0.2,0.1-0.5,0.2-0.6,0.4
				c-0.2,0.3,0,0.8,0.1,1.1c1.8,3.8,5.1,6.6,8.7,8.7c0.7,0.4,1.5,0.8,2.3,0.6c0.2,0,0.3-0.1,0.4-0.3c0.3-0.3,0-0.8-0.3-1.1
				C209.7,120,209.1,118.8,208,117.7z"/>
			<path class="st5" d="M236.7,158.5c0.5-0.9,1.2-1.9,2.1-2.2c1.3-0.4,2.7,0.4,3.6,1.4c1.3,1.4,2.2,3.1,3,4.8
				c1.8,3.7,3.6,7.6,3.7,11.8c0,0.3,0,0.5-0.1,0.8c-0.2,0.4-0.7,0.5-1.2,0.5c-2.9,0.3-5.7,0.5-8.6,0.6c-1.5,0.1-4,0.4-5.1-0.8
				c-1-1.1-0.8-3.2-0.7-4.5C233.5,166.5,234.6,162.3,236.7,158.5z"/>
			<path class="st6" d="M236.8,169.8c0.1,0.8,0.3,1.7,0.9,2.4s1.6,1,2.3,0.5c0.8-0.5,1-1.5,1-2.5c0.2-2.9,0-5.8-0.4-8.7
				c-0.1-0.8-0.6-2.2-1.7-1.7c-0.7,0.3-0.8,1.6-1,2.3C237,164.5,236.5,167.1,236.8,169.8z"/>
			<path class="st2" d="M326.7,201.6c-1,2.5-1.9,4.5-2.7,5.7c-6.2,9.4-18.9,18.7-74.8,18.7s-65.3-12.2-74.1-21
				c-1.6-1.6-3.1-4.3-4.5-7.9c9.6,7.9,25.7,19.9,78.6,19.9C296.9,217,316.8,208.2,326.7,201.6z"/>
			<path class="st6" d="M251.5,200.7c0.1-1.7,0.2-3.5-0.4-5.2c-1-2.7-3.6-4.4-6.3-5.2s-5.6-0.7-8.4-0.9c-5.3-0.3-10.6-1.2-15.9-2.1
				c-11.1-1.9-22.3-3.8-32.9-7.8c-1.2-0.5-2.5-0.9-3.8-1c-1.3,0-2.7,0.6-3.3,1.8c-0.3,0.6-0.3,1.3-0.3,2c0,3.8,1,7.5,2.2,11.1
				c2.6,7.6,6.8,15.2,14.1,18.5c2.2,1,4.5,1.5,6.9,2c12.2,2.7,24.4,4.9,36.8,6.7c3.6,0.5,9.6,1.6,10.7-3.1
				C251.8,212.4,251.3,206.2,251.5,200.7z"/>
		</g>
		<path class="st5" d="M249.3,119.5c0.6,0.5,1.4,1,2.2,1c0.7,0,1.3-0.4,1.8-0.8c6-4.1,12-8.3,17.8-12.7c1-0.8,2.1-1.7,2.3-3
			c0.2-1-0.3-2-1-2.8c-0.7-0.7-1.6-1.3-2.5-1.7c-8.5-4.5-18.3-6.6-27.9-5.8c-2,0.2-5.7,0.3-7.1,2c-1,1.1,0.8,4.9,1.3,6.2
			c1.7,4.4,4.1,8.6,7.2,12.2C245.2,116,247.2,117.8,249.3,119.5z"/>
		<g>
			<path class="st6" d="M244.5,99.2c0.3,0.5,0.7,0.9,1.2,1.1c0.9,0.4,2.1,0.1,2.7-0.6c0.7-0.7,0.8-1.9,0.4-2.8
				C247.6,93.8,242.5,96,244.5,99.2z"/>
			<path class="st6" d="M251.3,100.5c0.5,0.9,1.5,1.4,2.5,1.9c1.6,0.8,3.3,1.5,5,2.2c1.5,0.6,3,1.3,4.7,1.3c0.8,0,1.7-0.1,2.1-0.8
				c0.4-0.6,0.2-1.4-0.2-2s-1.1-1-1.7-1.3c-2.5-1.4-5.1-2.7-7.8-3.7c-1.2-0.5-2.6-0.9-3.8-0.3C251.1,98.3,250.8,99.5,251.3,100.5z"
				/>
		</g>
		<g>
			<path class="st1" d="M316,137.1c-1.4,3.2-4.1,5.5-7,7.4c-8,5.2-17.5,7.5-26.8,9.2c-4.6,0.8-9.3,1.5-14,1.8c-5.9,0.4-12,0-17-3.1
				c-6.4-3.9-10-12-8.4-19.3c0.9-4.3,3.4-8.1,6.2-11.5c0.2-0.2,0.4-0.4,0.5-0.6c2.1-2.5,4.3-4.7,6.6-6.9c3.8-3.5,8.5-7.7,13.4-9.6
				c5.1-1.9,10.3-2.8,15.7-3.2c3.2-0.2,6.5-0.4,9.6,0.3c4.1,0.9,7.7,3.4,10.5,6.4c2.4,2.5,4.3,5.4,6,8.3c0.4,0.7,0.7,1.3,1.1,1.9
				c1.6,2.9,3.1,5.8,3.9,9C317.3,130.6,317.4,134.1,316,137.1z"/>
			<path class="st6" d="M310.4,127.1c-1.7,5.7-6.2,9.6-11.1,13.1c-2.5,1.7-5.1,3.4-7.9,4.4c-2.3,0.9-4.8,1.4-7.3,1.9
				c-3.5,0.7-7,1.4-10.5,1.9c-3,0.4-6,0.6-9,0.3c-5.4-0.6-10.7-3.1-13.8-7.5c-2.9-4.1-3.6-9.5-2.9-14.5c0.3-1.8,0.7-3.5,1.2-5.2
				c0.2-0.2,0.4-0.4,0.5-0.6c2.1-2.5,4.3-4.7,6.6-6.9c3.8-3.5,8.5-7.7,13.4-9.6c5.1-1.9,10.3-2.8,15.7-3.2c3.2-0.2,6.5-0.4,9.6,0.3
				c4.1,0.9,7.7,3.4,10.5,6.4c2.4,2.5,4.3,5.4,6,8.3C311.7,119.7,311.5,123.3,310.4,127.1z"/>
			<path class="st6" d="M296.2,125.7c0.4,0.2,0.9,0.3,1.4,0.4c1.2,0.2,2.5,0.1,3.6-0.4s2.1-1.4,2.4-2.6c0.2-0.5,0.2-1,0.2-1.5
				s0-1.1-0.1-1.6c-0.7-2.8-5.1-4.1-7.4-2.5C293.5,119.4,292.7,124.1,296.2,125.7z"/>
			<path class="st6" d="M269.9,123.8c-0.7,1-1.1,2.3-0.7,3.5c0.3,0.8,1,1.4,1.9,1.7c0.8,0.3,1.7,0.3,2.6,0.3
				c2.8-0.2,5.4-1.6,7.2-3.7c0.4-0.5,0.7-0.9,1-1.5c1.2-3.1-1.9-5.1-4.7-4.7C274.5,119.7,271.3,121.7,269.9,123.8z"/>
			<path class="st6" d="M276,107.5c-6.8,2.1-13.3,5.5-18,10.7c-2,2.2-3.7,4.8-4.1,7.7c-0.2,1.4,0,3,1.1,3.8c1,0.7,2.5,0.4,3.5-0.3
				s1.7-1.8,2.5-2.8c2.5-3.6,5.5-6.8,9.1-9.4s7.7-4.4,12-4.9c1.6-0.2,3.1-0.2,4.7-0.5c1.4-0.2,2.9-0.7,3.8-1.7
				c0.8-0.9,1.3-2.6,0.4-3.6c-0.8-0.9-2.5-0.8-3.6-0.8C283.6,105.6,279.8,106.4,276,107.5z"/>
		</g>
		<g>
			<path class="st7" d="M316.8,156.7c-0.5,3.2-3.8,5.1-6.8,6.4c-1.5,0.6-2.9,1.3-4.4,1.8c-3,1.2-6.1,2.3-9.2,3.3
				c-1.3,0.4-2.5,0.8-3.8,1.2c-1,0.3-1.9,0.6-2.9,0.8c-4.9,1.3-9.9,2.4-14.9,3.2c-1.2,0.2-2.3,0.4-3.5,0.6c-4.3,0.6-8.5,1-12.8,1.3
				c-1,0-1.4,0.2-1.9-0.6s-0.6-2.1-0.8-3c-0.4-2.1-0.5-4.2-0.6-6.3c-0.1-2.2,0-4.4,0.3-6.6c0.1-0.3,0.1-0.7,0.2-1
				c0.9-4.2,3.2-8.1,5.6-11.7c1-1.5,2.1-2.9,3.4-4.2c1.2-1.2,2.7-2.1,4.1-2.9c0.4-0.2,0.8-0.5,1.3-0.7c6.8-3.5,14.5-5.5,22.1-4.8
				c0.2,0,0.4,0,0.5,0c4.5,0.5,8.9,2,12.7,4.3c2.8,1.8,5.3,4,7.2,6.7c1.9,2.7,3.3,5.8,4,9C316.8,154.7,317,155.7,316.8,156.7z"/>
			<path class="st8" d="M292.7,169.5c-1,0.3-1.9,0.6-2.9,0.8c-2.9-3.3-6.6-5.9-10.6-7.8c-4.4-2.1-9.1-3.4-13.8-4.3
				c-3.2-0.6-6.5-0.9-9.6-0.4c0.9-4.2,3.2-8.1,5.6-11.7c1-1.5,2.1-2.9,3.4-4.2c1.2-1.2,2.7-2.1,4.1-2.9
				C278.9,147.3,287,157.8,292.7,169.5z"/>
			<path class="st8" d="M305.4,138c-0.5,3.7-1.5,7.3-2.7,10.9c-1.5,4.7-3.2,9.5-6.2,13.4c-0.9,1.2-2,2.3-3.3,3
				c-0.2,0.1-0.4,0.2-0.7,0.2c-0.5-0.1-0.6-0.7-0.6-1.2c0-2.1,0.4-4.2,0.6-6.4c1-8,0.5-16.1-0.4-24.1c0-0.1,0-0.2,0-0.3
				c0.2,0,0.4,0,0.5,0C297.2,134.1,301.6,135.6,305.4,138z"/>
			<path class="st6" d="M273.2,152.7c3.7-3.5,8.7-5.6,13.7-6c3.1-0.2,6.2,0.2,9.4,0.2c1.5,0,3.4-0.2,4-1.6c0.6-1.3-0.3-2.9-1.4-3.9
				c-3.3-3.2-8-4.4-12.6-4.1s-8.8,2.1-12.8,4.4c-2.4,1.4-4.8,3.1-6.8,5c-2.5,2.4-4.5,5.3-5.9,8.4c-1.5,3.4-2.9,10.7,1.9,12.3
				c1.8,0.6,2.7-0.6,3.3-2.1c0.8-2.1,1.2-4.2,2.2-6.3C269.5,156.8,271.2,154.5,273.2,152.7z"/>
			<path class="st9" d="M305.6,165c-3,1.2-6.1,2.3-9.2,3.3c-7.1,2.3-14.3,4-21.6,5.2c-0.5-0.7-1-1.6-1.3-2.5
				c-0.9-2.8-0.3-5.9,0.7-8.7c0.9-2.4,2.1-4.8,4.1-6.5c1.2-1.1,2.7-1.8,4.1-2.4c5.8-2.3,13.1-1.9,17.7,2.4c2.5,2.3,4,5.5,5.3,8.6
				C305.5,164.7,305.5,164.8,305.6,165z"/>
		</g>
		<path class="st1" d="M231.7,138.7c0.6-0.3,1-1,1.3-1.6c0.4-1.1,0.5-2.3,0.7-3.5c0.7-4.7,2.7-9.2,5.4-13.1s6.2-7.3,9.9-10.3
			c1.5-1.2,3.1-2.5,3.6-4.3c0.1-0.4,0.2-0.7,0-1.1c-0.3-0.7-1.3-0.8-2-0.7c-2.9,0.4-5.4,2-7.7,3.8c-2.8,2.1-5.3,4.6-7.5,7.2
			c-2.6,3.1-4.8,6.5-6.1,10.4C228.7,127.4,227,141,231.7,138.7z"/>
		<g>
			<path class="st9" d="M177.8,103.2c6.8-2.8,13.2-6.5,18.4-11.8c5.2-5.2,8.9-12,9.5-19.3c0.2-2.6-0.1-5.6-2.1-7.4
				c-1.6-1.4-3.9-1.7-5.9-1.2s-3.8,1.6-5.5,2.9c-3.7,2.7-7,6-9.8,9.7c-1.7-7.1-3.9-14.2-8.6-19.8c-1-1.2-2.1-2.2-3.5-2.9
				s-3.1-0.7-4.4,0.1c-1,0.6-1.7,1.7-2.2,2.7c-3.3,6.1-4.6,13.3-4,20.2s3,13.7,6.7,19.6c1.2,2,2.6,3.9,4.5,5.4
				S175.6,104.1,177.8,103.2z"/>
			<path class="st6" d="M187.8,75.6c-2.2,2.3-4.1,5.1-4.1,8.3c0,0.7,0.2,1.5,0.8,1.8c0.3,0.1,0.6,0.2,0.9,0.2c1.4,0,2.7-0.6,3.9-1.3
				c5.5-3,10.2-8,11.1-14.2c0.1-0.7,0.1-1.5-0.4-2c-1.4-1.4-4.5,1-5.7,1.8C192,71.7,189.8,73.5,187.8,75.6z"/>
			<path class="st6" d="M165.3,76.3c0.5,3.3,1.5,6.6,3.9,9c0.4,0.4,0.9,0.8,1.4,0.8c0.7,0,1.3-0.4,1.6-1s0.4-1.2,0.5-1.9
				c0.6-5.3-0.1-10.7-0.9-15.9c-0.3-1.8-1.1-9.5-4-8.6c-3.3,1-3,7.4-3,9.9C164.7,71.2,164.9,73.8,165.3,76.3z"/>
			<path class="st7" d="M223.7,174.4c-9.6-1.6-18-3.1-25.5-5.3c-1.9-0.6-3.8-1.2-5.6-1.8c-7.1-2.6-13.3-6-19-11.2
				c-1.2-1.1-2.4-2.2-3.5-3.4c-1-1-1.9-2.1-2.8-3.2c-1.1-1.4-2.2-2.9-3.1-4.5c-3.2-5.7-4.4-12.4-4.3-19c0-0.9,0-1.8,0.1-2.7
				c0.2-3.5,0.7-7,1.5-10.4c2.1-8.9,6.5-17.2,13.3-23.1c0.8-0.7,1.8-1.4,2.8-1.4c1.8,0,3.1,1.8,3.6,3.6c1.5,4.7,0.3,9.9,0.7,14.8
				c0,0.1,0,0.3,0,0.4c0.2,2.1,0.7,4.1,1.4,6.1c1.5,4.2,4.2,8,7.3,11.3c0.5,0.5,0.9,1,1.4,1.4c1.7,1.7,3.6,3.2,5.5,4.6
				c3.9,2.9,8,5.5,12.1,8.2c1.2,0.8,2.5,1.6,3.7,2.5c2.5,1.8,4.8,3.7,6.7,6c0.1,0.1,0.2,0.2,0.3,0.3c2,2.5,3.5,5.3,4.9,8.2
				s2.4,5.9,3.2,9C229.1,167.8,226.9,174.9,223.7,174.4z"/>
			<path class="st9" d="M183.3,113.3c-5.3,0.4-10.4,2.3-14.9,5.2c-3.2,2.1-6.1,4.6-8.6,7.5c0-0.9,0-1.8,0.1-2.7
				c0.2-3.5,0.7-7,1.5-10.4c4.1-2.1,8.4-3.8,12.8-5c2.5-0.7,5.1-1.2,7.6-1.1c0,0.1,0,0.3,0,0.4C182.1,109.3,182.6,111.3,183.3,113.3
				z"/>
			<path class="st9" d="M197.5,130.6c-8.3,3.6-15,10.5-20.3,17.9c-1.1,1.6-2.2,3.2-3,5c-0.2,0.4-0.4,1.4-0.6,2.5
				c-1.2-1.1-2.4-2.2-3.5-3.4c-1-1-1.9-2.1-2.8-3.2c3.3-10.1,10.7-18.9,20.3-23.6c1-0.5,2.1-1,3.2-1.3c0.5,0.5,0.9,1,1.4,1.4
				C193.8,127.7,195.6,129.2,197.5,130.6z"/>
			<path class="st6" d="M173.9,146.1c1.9,3,4.4,5.9,7.9,6.8c1.5,0.4,3.2,0.3,4.2-0.9c0.8-1,0.8-2.4,0.3-3.5s-1.3-2.1-2.1-3
				c-4.5-5.3-8.1-11.4-10.2-18c-2.1-6.6-2.5-13.8-0.9-20.6c0.6-2.5,1.5-5,1.5-7.6c0-1.4-0.7-3.3-2.4-2.9c-1.3,0.3-2.2,2-2.6,3.2
				c-1.3,3.5-2.3,7.2-2.9,10.8c-1.3,7.8-0.7,15.9,1.6,23.5C169.6,138.2,171.5,142.3,173.9,146.1z"/>
			<path class="st9" d="M220.1,147.3c-7,2.2-13.3,6.7-17.7,12.6c-2,2.7-3.6,5.8-4.2,9.1c0,0.1,0,0.1,0,0.2c-1.9-0.6-3.8-1.2-5.6-1.8
				c0.4-5.1,2.6-10,5.8-14c3.6-4.6,8.4-8.2,13.5-11.1c0.5-0.3,1-0.6,1.5-0.8C215.8,143.1,218.1,145,220.1,147.3z"/>
		</g>
		<path class="st6" d="M190.4,160.5c1.5,1.4,3.5,2.4,5.5,2.6c1.2,0.1,2.6-0.2,3.4-1.1c0.5-0.7,0.7-1.6,0.5-2.5
			c-0.1-0.8-0.6-1.6-1-2.3c-1.6-2.3-5.3-5.4-8.4-4.5C186.6,153.7,188.4,158.6,190.4,160.5z"/>
	</g>
	<g>
		<path d="M168.3,51.8c4.7,1.3,7.6,4.8,10,8.7c2.4,4,4,8.3,4.1,13.4c0.4-0.5,0.7-0.8,0.9-1.1c2.8-4.1,6.5-7.3,10.9-9.5
			c2.1-1.1,4.4-1.6,6.7-1.2c3.1,0.4,5.3,3,5.5,6.9c0.1,2.1-0.1,4.4-0.7,6.4c-1.8,5.9-4.3,11.5-8.7,16c-0.2,0.2-0.4,0.5-0.7,1
			c0.6-0.1,0.9-0.2,1.2-0.3c18-6.5,36.7-8.9,55.7-8.5c15.3,0.3,30.3,2.5,44.8,7.4c9.8,3.3,19,7.6,26.8,14.4
			c5.9,5.1,10.1,11.2,12.5,18.8c1.9,6,2.2,12,1.9,18.1c-0.7,14.8-1.7,29.7-5.6,44.1c-1.4,5.3-3.2,10.6-5.3,15.7
			c-2.6,6.2-6.9,10.9-12.9,14c-11.6,6-24,9.3-37,10.6c-12.7,1.2-25.4,0.8-38.2,0.7c-6.8-0.1-13.7,0-20.5-0.5
			c-9.2-0.7-18.2-2.8-26.8-6c-5.8-2.2-10.8-5.9-15.4-10.1c-3.4-3.1-5.5-7.2-7.3-11.4c-5.8-13.6-9.2-27.7-10.5-42.4
			c-0.7-8.3-1.1-16.7-1.6-25c-0.2-2.9-0.6-5.8-0.4-8.6c0.5-8.2,2.8-15.9,6.6-23.1c0.4-0.8,0.8-1.5,1.3-2.3
			c-7.1-8.4-7.4-18.5-7.1-28.7c0.1-3.5,0.7-6.9,2.1-10.2c0.4-0.9,0.8-1.8,1.2-2.7c1.2-2.3,2.8-4.1,5.5-4.7
			C167.8,51.8,168,51.8,168.3,51.8z M164.3,160.9c1,12.1,5.6,29.3,11.1,40c1.3,2.6,3.1,5.2,5.1,7.2c4.5,4.3,9.6,7.9,15.5,9.9
			c8.1,2.8,16.5,4.9,25.1,5.3c11.3,0.4,22.6,0.5,33.9,0.6c6.6,0,13.3-0.2,19.9-0.6c13.4-0.8,26.1-3.9,38.1-10
			c6.2-3.1,10.3-8,12.8-14.4c5.1-13.3,7.9-27.2,8.7-41.4c0-0.3,0-0.6-0.1-1.1c-6.5,7.4-14.2,12.9-22.7,17.2
			c-16.6,8.5-34.4,12.8-52.9,14.1c-15.9,1.2-31.7,0-47.3-3.6c-13.9-3.2-27-8.2-38.7-16.5C170,165.6,167.2,163.2,164.3,160.9z
			 M231.4,173.8c0.1-5.2,1.8-13,5.6-18.1c1.1-1.5,2.1-1.9,3.7-0.8c1.5,1.1,3.1,2.3,4.3,3.7c3.8,4.5,5.2,9.9,5.3,15.7
			c1.4,0,2.9,0,4.5,0c-2.3-6.5-2.1-12.9-0.4-19.3c-0.3-0.1-0.4-0.2-0.5-0.3c-8-2.6-12.2-8.3-12.2-16.6c0-4.9,1.5-9.4,4.2-13.5
			c0.8-1.2,1.5-2.5,2.3-3.7c-1.6-1.4-3.1-2.7-4.6-4c-0.2,0.2-0.3,0.4-0.5,0.6c-4.7,6-8,12.7-9.2,20.3c-0.3,1.9-1.7,2.7-3.4,2.1
			c-1.5-0.5-2.5-1.6-2.8-3.1c-0.3-1.7-0.5-3.6-0.2-5.4c0.9-4.9,2.7-9.5,5.4-13.8c1.7-2.7,3.6-5.2,5.5-7.8c-0.2-0.3-0.4-0.6-0.7-1
			c-2.5-3.7-3.8-7.8-4.1-12.3c-0.1-1.6,0.3-2.3,1.7-2.6c5.8-1.3,11.7-1.9,17.7-1.2c6.3,0.6,12.2,2.3,17.6,5.6c1,0.6,1.9,1.6,2.9,2.4
			c0.4,0.3,0.9,0.5,1.3,0.4c2.1-0.4,4.3-0.9,6.4-1.4c9.8-1.9,18.5,0.3,25.6,7.5c4,4,7.3,8.6,9.7,13.7c1.9,3.9,2.6,8.1,1.9,12.5
			c-0.6,3.7-2.4,6.8-5.5,9.1c2.8,4.1,5.4,8.1,5.7,13.2c0.3-0.1,0.4-0.1,0.5-0.2c5.5-3.9,10.3-8.4,13.6-14.4c3.2-5.8,4-11.9,2-18.3
			c-1.4-4.4-3.9-8.2-7.1-11.5c-6.4-6.7-14.2-11.2-22.6-14.8c-17.2-7.2-35.3-9.9-53.9-10c-9.3-0.1-18.5,0.7-27.6,2.2
			c-12.2,2-24.1,5.3-35.3,10.9c-4,2-3.8,2-3.7,6.5c0.2,7.6,3.6,13.5,9.5,18c1.8,1.4,3.7,2.5,5.5,3.7c4.8,3.2,9.7,6.2,14.4,9.5
			c8.2,5.8,13.7,13.6,16.1,23.5c0.9,3.9,1,7.6-0.8,11.3c-0.2,0.4-0.3,0.7-0.5,1.2C229.7,173.6,230.2,173.7,231.4,173.8z
			 M162.7,145.5c-0.1,0-0.2,0.1-0.2,0.1c0.4,3.2,0.7,6.3,1.1,9.5c0.1,0.5,0.4,0.9,0.8,1.3c2,1.9,4,3.9,6.2,5.7
			c10,8.2,21.4,13.4,33.6,17.2c17.3,5.3,35.1,6.9,53.1,5.6c12.8-0.9,25.3-3.2,37.5-7.4c14.1-4.8,27-11.9,37.8-22.4
			c1.9-1.8,3-3.7,3.1-6.4c0-2.5,0.2-5,0.3-7.5c-0.8,0.9-1.2,1.9-1.8,2.8c-4.1,7-9.9,12.1-16.6,16.4c-9.7,6.2-20.3,10.2-31.4,12.9
			c-22,5.4-44.2,6.1-66.5,2.4c-12.1-2-23.7-5.4-34.6-11c-8.1-4.2-15.4-9.4-20.7-17C163.7,147,163.2,146.3,162.7,145.5z M184.3,97.6
			c2.3-1.6,4.5-3,6.6-4.7c6.5-5.3,10.2-12.3,12.1-20.3c0.4-1.6,0-3.4-0.4-5c-0.3-1.5-1.5-2.4-3-2.1c-1.7,0.3-3.4,0.7-4.9,1.4
			c-4.2,2-7.3,5.3-10.2,8.9c-0.9,1.1-1.8,2.1-2.7,3.3c-0.3-0.4-0.6-0.7-0.6-0.9c-0.6-2-1.2-4.1-1.8-6.1c-1.6-5.6-3.6-10.9-8-14.9
			c-3.5-3.2-5.2-2.8-7.2,1.4c-1.6,3.3-2.2,6.8-2.4,10.4c-0.4,8.5,0.2,16.9,4.1,24.7c0.4,0.7,0.7,1.4,1.1,2.2
			c0.9-1.3,1.7-2.5,2.6-3.7c1.6-2.1,3.4-3.8,5.8-4.9c2.8-1.4,5.1-0.7,6.7,2c0.6,1,1.1,2.1,1.3,3.2C183.8,94,184,95.7,184.3,97.6z
			 M192.1,164.5c2.1-11.7,9.8-18.5,19.5-23.7c0,0-0.1-0.2-0.2-0.2c-4.5-3-9-6-13.6-9c-0.3-0.2-0.8-0.2-1.1,0
			c-10.3,4.8-17.2,12.8-21.6,23.2C180.3,158.8,186,161.9,192.1,164.5z M276.1,133.2c9.5-3.1,18.7-3,27.6,1.6
			c3.1-3.3,5.4-6.7,5.1-11.4c-0.2-4.6-1.7-8.7-4.4-12.2c-7,3.2-13.9,6.3-20.8,9.4c0.6,2.5,0.5,3.5-1.2,5.2c-1.2,1.2-2.5,2.5-4,3.2
			c-1.8,0.8-2.4,2-2.4,3.8C276.1,132.9,276.1,132.9,276.1,133.2z M199.9,167.3c0.2,0.1,0.4,0.2,0.6,0.3c7.4,2.4,14.9,4.1,22.6,5.2
			c0.6,0.1,1.6-0.4,1.9-0.9c1.1-1.9,2-3.9,1.7-6.2c-0.5-4.3-1.9-8.4-3.8-12.3c-0.9-1.7-2-3.2-3-4.7
			C211.2,151.2,201.5,160.2,199.9,167.3z M167.6,147.4c3.4-10.9,10.1-18.7,20.2-23.3c-1.4-2-2.9-4.1-4.3-6.1c-0.6-0.9-1-2.4-1.9-2.8
			c-1-0.4-2.4,0.1-3.5,0.3c-6.5,1.3-11.6,5-16.3,9.3c-0.3,0.3-0.4,0.8-0.4,1.2c0.1,2.5,0.1,5.1,0.3,7.6
			C162,139,164.4,143.3,167.6,147.4z M257,159c-0.1,0.7-0.2,1.4-0.3,2c-0.6,4,0,7.9,0.6,11.8c0.2,1.1,0.6,1.5,1.8,1.4
			c9-0.7,18-2,26.8-4.2c0.4-0.1,0.7-0.3,1.3-0.4C278.6,161.5,268.6,158.2,257,159z M271.8,139.6c7.3,7.6,14.8,14.8,18.8,24.9
			c0.5-3.6,0.8-7.2,1-10.8c0.2-5.8,0.3-11.7-1-17.5c-0.2-0.9-0.5-1.4-1.5-1.3c-2.3,0.2-4.7,0.3-7.1,0.6
			C278.3,136,274.9,137.7,271.8,139.6z M279.9,103.7c-8,0.3-23.5,9.9-25,15.3c4.7,1,9.5,2.1,14.2,3.1c0.3,0.1,0.8-0.2,1.2-0.4
			c1.1-0.7,2.1-1.8,3.4-2.2c2.6-0.7,3.3-2.2,3.6-4.7C277.8,111.1,279,107.5,279.9,103.7z M287.1,165c0.1-0.1,0.2-0.2,0.3-0.3
			c-0.9-1.7-1.5-3.5-2.6-5c-4.3-6.5-9.3-12.4-14.8-17.8c-0.7-0.7-1.2-0.7-2-0.1c-4.3,3.4-7.6,7.7-9.8,12.8c-0.2,0.4-0.3,0.8-0.4,1.4
			C269.1,154.3,278.6,158,287.1,165z M247.3,102.9c-0.6-0.2-1.2-0.4-1.7-0.6c-1.3-0.5-2.6-1-3.8-1.6c-0.5-0.3-1.2-0.9-1-1.5
			s1-0.9,3.1-0.3c6.3,1.6,12.1,4.1,17.6,7.6c0.4,0.2,1,0.5,1.3,0.4c2.7-1.4,5.4-3,8.3-4.6c-10.7-6.9-22.3-8.4-34.7-6.3
			c0.5,4.5,1.9,8.4,4.2,12C242.8,106.1,245,104.5,247.3,102.9z M306.4,141c-0.2,0.1-0.3,0.2-0.5,0.3c-0.6,4.8-2.1,9.4-4,13.8
			c-2,4.4-4.4,8.6-7.9,12.5c0.6-0.1,0.8-0.2,1-0.3c6.4-2.1,12.6-4.8,18.5-8.1c1.6-0.9,2-1.9,1.7-3.5c0-0.2-0.1-0.5-0.1-0.7
			c-1-4.6-3.6-8.2-6.5-11.6C307.8,142.6,307.1,141.8,306.4,141z M282.9,103.1c-1.2,5-2.3,9.8-3.4,14.6c0.5,0.2,1,0.2,1.4,0.5
			c0.9,0.7,1.6,0.4,2.5-0.1c2.9-1.6,5.8-3.3,8.9-4.7c3.4-1.6,6.8-2.9,10.3-4.4C297.1,103,290.2,102.1,282.9,103.1z M180.8,105.6
			c-0.2-4.1-0.3-8-0.6-11.9c-0.1-1-0.6-1.9-1-2.9c-0.5-1-1.3-1.2-2.3-0.7c-2.1,1.1-3.9,2.6-5.1,4.6c-2.3,3.9-4.5,8-6.7,12
			c-0.7,1.4-1.1,3-1.6,4.5C168.7,107.8,174.2,105.7,180.8,105.6z M268.2,124.4c0,0-9.8-2.1-14.3-3c-0.3-0.1-0.9,0.3-1.1,0.6
			c-1.7,3.1-2.8,6.5-2.9,10.1c-0.1,2.5,0.4,4.8,1.9,7c4.3-4,15.6-11.3,15.6-11.3S267.1,125.5,268.2,124.4z M190.2,126.3
			c-10.6,4.4-17,12.9-20.6,22.2c-0.1,0.4-0.2,1,0.1,1.3c1.2,1.3,2.5,2.4,3.8,3.7c1.4-5.7,4.3-10.3,8-14.4c3.7-4.1,7.8-7.5,13.2-9.4
			C193.1,128.4,191.7,127.4,190.2,126.3z M293.9,163.4c0.2-0.3,0.4-0.5,0.5-0.8c3.7-5.8,6.4-12.1,7.9-18.9c1.2-5.4,1.1-5.5-4.2-7.3
			c-1.4-0.5-2.9-0.7-4.4-1.1C295.5,144.8,295.2,154,293.9,163.4z M252.9,141.2c2.1,1.4,3.9,2.7,5.7,3.8c0.3,0.2,1.1,0,1.3-0.3
			c3.2-4.4,7.6-7.3,12.4-9.7c0.4-0.2,0.8-0.8,0.9-1.2c0.2-1,0.2-2,0.3-2.8c-1.6-0.6-3-1.1-4.5-1.6
			C263.8,133.2,258.6,137.1,252.9,141.2z M218.2,146c-0.9-0.7-1.8-1.3-2.5-2c-0.7-0.8-1.4-1-2.4-0.5c-8.7,3.8-14.7,10.2-18.3,18.9
			c-0.4,0.9-0.7,1.9-1,2.9c0.9,0.3,1.6,0.6,2.3,0.9c0.7,0.3,1.4,0.5,1.9,0.7C200.8,156.1,207.7,149.8,218.2,146z M243,174.4
			c1.5,0,3,0,4.6,0c-0.3-6.3-3.9-14.3-8.4-16.6c-3.7,4.7-4.3,10.5-5.2,16.2c2.1,0.1,4,0.2,6,0.4c-0.1-0.7-0.2-1.2-0.2-1.7
			c-0.2-2.3-0.4-4.5-0.4-6.8c0-1,0-2,1.2-2.6c0.2,0.4,0.6,0.6,0.6,1C241.8,167.5,242.4,170.9,243,174.4z M251.2,105.9
			c-0.2-0.3-0.3-0.5-0.5-0.8c-0.6,0.1-1.2,0-1.8,0.3c-0.8,0.4-1.7,0.9-2.4,1.4c-8.5,6-13.9,14.1-16.8,23.9c-0.3,0.9-0.4,1.9-0.5,2.9
			c-0.1,1.4,0.1,2.7,1.3,3.6c0.3,0.2,0.9,0.3,1.3,0.2c0.3-0.1,0.5-0.6,0.5-0.9c0-3.9,1-7.6,2.7-11.1c3-6.4,7.3-11.9,12.8-16.5
			C248.9,107.8,250,106.9,251.2,105.9z M247,127.7c-6.5,8.4-1.8,22.2,8.4,24.4c0.7-1.2,1.4-2.5,2-3.7
			C246.9,140.5,245.9,138.4,247,127.7z M161,121.7c0.2,0,0.4,0.1,0.5,0.1c5.5-5.4,11.8-9.4,19.7-9.9c-0.1-0.6-0.1-1.1-0.2-1.5
			c-0.1-0.5-0.2-1-0.3-1.5c-0.4,0-0.6-0.1-0.9,0c-6.3,0.1-11.8,2.5-17,5.8c-0.3,0.2-0.6,0.4-0.6,0.7
			C161.8,117.5,161.4,119.6,161,121.7z M312.1,119.7c0.5,3.3,0.8,6.4-0.5,9.2c-1.3,2.8-3.1,5.3-4.7,8c1.2,1,2.5,2.3,3.9,3.5
			C317.4,135.9,316.2,125.7,312.1,119.7z M249.5,118.5c3.5-3.3,6.8-6.5,10.2-9.8c-2-1-3.9-2.1-5.9-3c-1.9,4.1-5.9,5.9-8.6,9.3
			C246.7,116.1,248.1,117.3,249.5,118.5z M278.5,120.6c-3.3,0.2-5.5,1.9-7.3,4.2c-0.9,1.3-0.3,2.5,1.2,2.7c0.5,0.1,1.1,0,1.6-0.1
			c2.3-0.5,4.2-1.8,5.7-3.5c0.4-0.5,0.9-1.3,0.7-1.9C280.3,121.1,279.4,120.4,278.5,120.6z"/>
		<path d="M207.2,111.7c0.6-2.3,1.1-4.5,1.8-6.6c0.3-1,1-1.9,1.7-2.7c2.2-2.3,5.7-2.1,7.2,0.7c1.1,2.1,2,4.5,2.4,6.9
			c0.7,4.3,0.4,8.7-0.7,13c-0.9,3.9-2.6,6.2-6.4,5.1c-5.1-1.5-10.7-4.8-14.6-8.4c-2.1-2-3.7-4.4-4.3-7.3c-0.4-2.1,0.2-4,1.9-5.3
			c1.6-1.2,3.5-1,5.1,0.1c1.7,1.1,3.2,2.5,4.8,3.8C206.6,111.2,207,111.5,207.2,111.7z M215.8,124.7c1.9-3.8,1.7-9.5,1.6-13.2
			c0-2-0.8-4.1-1.5-6c-0.9-2.2-2.5-2.2-3.8-0.2s-1.8,4.3-2,6.7c-0.1,0.8-0.1,1.7-0.3,2.5c-0.4,1.9-0.9,2.1-2.5,0.9
			c-1.2-0.9-2.3-2-3.5-3s-2.3-2.1-3.6-2.8c-0.7-0.4-2.1-0.7-2.5-0.3c-0.6,0.5-0.7,1.7-0.7,2.6c0.1,0.8,0.5,1.7,1,2.4
			c1.3,1.6,4,5,14.7,11.3c-0.8-1.4-2.6-4.2-3.2-5.7c-0.2-0.5,0-1.6,0.3-1.8c0.5-0.6,1.7-0.9,2.3,0.2c0.2,0.4,0.4,0.8,0.7,1.3
			C214,121.2,214.8,122.8,215.8,124.7z"/>
		<path d="M172.9,83.4c-0.6-0.2-1.3-2.7-1.5-4.2c-0.6-3.7-1-7.3-1.4-11c-0.2-1.3-0.3-2.6-0.3-3.9c0-0.5,0.4-1,0.7-1.5
			c0.4,0.4,0.9,0.7,1,1.1c0.6,2.2,1.3,4.5,1.6,6.7c0.4,3.8,0.5,7.6,0.7,11.3C173.6,82.4,173.5,83.6,172.9,83.4z"/>
		<path d="M165.7,64.5c1.2,6.2,1.8,12.3,2.1,18.6C165,81.4,163.2,66.6,165.7,64.5z"/>
		<path d="M194.8,72.5c-0.9,1.3-1.7,2.5-2.5,3.6c-2.1,2.8-4.2,5.5-6.3,8.3c-0.2,0.3-0.5,0.4-0.8,0.6c-0.2-0.3-0.5-0.7-0.5-1
			c0-0.6,0.1-1.2,0.3-1.7c1.9-3.9,4.5-7.1,8.1-9.4c0.3-0.2,0.6-0.3,0.9-0.4C194.1,72.4,194.2,72.5,194.8,72.5z"/>
		<path d="M196.7,76.3c-0.7,1.6-1.2,3.1-2,4.3c-1.5,2.5-3.2,5-4.9,7.4c-0.3,0.4-0.9,0.6-1.4,0.8c-0.1-0.6-0.5-1.3-0.4-1.7
			c1.7-4.3,4.1-7.9,7.8-10.7C196,76.3,196.1,76.4,196.7,76.3z"/>
	</g>
</g>
<g>
	<g>
		<g>
			<g>
				<path class="st10" d="M230,232.8c-4.9,16.6-9.5,23.4-17.8,28.2s-25.7,12-71,12c-78.2,0-79.3-11.8-84.6-16.1
					c-5.2-4.3-20.7-37.1-22.1-63.5c0-0.4,0-0.8,0-1.1c0.3-25.8,57.3-44.5,102.1-44.5c84.1,0,99.6,29.8,103.4,41.4
					c0.3,1,0.6,2,0.7,3.1l0,0C242.3,203.5,234.5,217.6,230,232.8z"/>
				<path class="st11" d="M224.1,248.4c-3.2,6.1-6.8,9.7-11.9,12.6c-8.3,4.8-25.7,12-71,12c-78.2,0-79.3-11.8-84.6-16.1
					c-1.2-1-3-3.6-5-7.2c5.3,5.2,16.6,13.8,89.9,13.8c49.4,0,68.4-7.2,77.5-12C220.9,250.6,222.6,249.6,224.1,248.4z"/>
				<path class="st12" d="M139,248.3c-0.1-0.6-0.1-1.1-0.5-1.6c-0.4-0.6-1.1-0.9-1.8-1.1c-3.8-1.3-7.9-1.3-11.9-1.3
					c-21.3-0.1-43.4-1-62.5-10.5c-2-1-4-2.1-6.2-2.5c-0.4-0.1-0.8-0.1-1.2,0.1c-0.6,0.3-0.7,1.2-0.6,1.9c0.4,5.8,2.9,11.2,5.4,16.4
					c1.6,3.4,3.3,6.9,6.3,9c2.3,1.6,5.1,2.1,7.8,2.7c21.1,4.2,52.8,5.3,66.8,5.3C140.8,260.6,139.7,254.3,139,248.3z"/>
			</g>
			<path class="st13" d="M240.8,192.3L240.8,192.3c0,7-11.5,46.8-103,46.8c-91.6,0-103.2-37-103.2-46.8l0,0
				c0.3-25.8,57.3-44.5,102.1-44.5c84.1,0,99.6,29.8,103.4,41.4C240.4,190.3,240.6,191.3,240.8,192.3z"/>
			<path class="st1" d="M203.6,148c-4.7-8.7-13.9-14.7-23.8-15.6c-3.2-0.3-6.6,0-9.6,1c-1.8,0.6-3.5,1.5-5.1,2.5
				c-4.7,2.7-9.4,5.9-11.6,10.8c-2.2,4.7-1.8,10.2-1.2,15.4c0.1,0.8,0.2,1.7,0.7,2.4c0.4,0.5,1,0.9,1.6,1.2c7,4.1,14.4,7.5,22.3,9.7
				c7.8,2.1,16.7,3.3,24.7,1.6c6-1.3,6.1-12.7,5.6-17.5C206.6,155.4,205.5,151.5,203.6,148z"/>
			<path class="st14" d="M171.3,140.9c1.9-0.4,3.9-0.6,5.9-1c1.1-0.2,2.5-0.7,2.7-1.9c0.2-0.9-0.4-1.7-1.2-2.2
				c-0.8-0.4-1.7-0.5-2.5-0.5c-7.7-0.1-15.1,3.8-20.1,9.6c-1.1,1.3-2.5,3.3-1.9,5.1c0.8,2.5,2.5,1,3.5-0.3c2.1-2.9,4.9-5.2,8-6.9
				C167.4,142,169.3,141.3,171.3,140.9z"/>
			<path class="st14" d="M199.4,167.4c-0.1,2.5-0.4,7.3-2.7,8.8s-7.1,0.1-9.6-0.5c-1.1-0.3-2.1-0.6-3.1-1c-2.1-0.7-4.1-1.5-6.2-2.1
				c-3.3-0.9-6.7-1.4-9.9-2.4c-1.1-0.3-2.1-0.7-3.2-1.2c-1.9-0.8-3.8-1.8-5.7-2.8c-0.7-0.4-1.4-0.7-1.9-1.3
				c-0.6-0.7-0.8-1.7-0.9-2.6c-0.3-2.8,0.6-5.7,1.7-8.3c0.6-1.5,1.4-3.1,2.5-4.3c1-1,2.2-1.7,3.4-2.4c3.6-2,7.4-3.5,11.5-4.2
				c4-0.7,8.3-0.4,12,1.3c4.2,1.9,7.5,5.4,9.6,9.5C198.9,158.1,199.6,162.8,199.4,167.4z"/>
			<path class="st14" d="M168.6,157.4c1.7-0.7,3.6-1,5.3-1.5c1-0.3,2-0.7,2.5-1.5c0.5-0.7,0.6-1.7,0.6-2.5c0.1-1.1,0.1-2.4-0.7-3.2
				c-0.7-0.8-2-0.9-3-0.8c-3.9,0.2-7.6,1.7-10.6,4.1c-1.6,1.4-3.1,3.1-3.5,5.2c-0.1,0.3-0.1,0.7,0,1c0.2,0.6,0.7,0.9,1.3,1.2
				c0.7,0.4,1.5,0.7,2.3,0.9c1,0.3,1.1,0.4,1.9-0.2C166,159.1,167,158,168.6,157.4z"/>
			<path class="st14" d="M185.8,170.2c-0.3,1.6-1,3.1-1.8,4.6c-2.1-0.7-4.1-1.5-6.2-2.1c-3.3-0.9-6.7-1.4-9.9-2.4
				c-1.1-0.3-2.1-0.7-3.2-1.2c0.5-1.4,1.1-2.7,1.9-3.8c1.7-2.5,4.2-4.4,7.2-4.9c1.6-0.3,3.3-0.2,5,0.2c2.3,0.5,4.7,1.4,6.1,3.4
				C186.1,165.7,186.3,168.1,185.8,170.2z"/>
			<path class="st10" d="M7.5,109.8"/>
			<path class="st15" d="M237.1,206.3c-3.3,2.6-6.7,5.2-10.2,7.7c-7.5,5.4-15.3,10.3-23.5,14.2c-7.7,3.6-38.8,18.6-118.7,5.7
				c-2-0.3-4.1-0.7-6.1-1.3c-9-2.3-17.9-6.4-25.2-12.2c-1-0.7-1.9-1.5-2.8-2.3c-1.9-1.7-3.7-3.5-5.3-5.4c3.5-3.6,7.1-7.4,8.5-12.3
				c1-3.3,0.8-6.9,2.5-9.9c3.9-6.8,14.2-5.8,20.6-10.4c3.1-2.2,5.2-5.8,8.2-8.1c4.7-3.7,11.3-4.2,17.3-3.7c6,0.6,12,2,18,1.6
				c12.6-0.9,24.1-9.9,36.6-8c9,1.4,16.3,8.2,25.1,10.1c5.5,1.2,11.3,0.4,16.9,0.7C217.2,173.9,233.7,188.4,237.1,206.3z"/>
			<path class="st14" d="M133.4,174.8c7.5-1.9,15.1-4.2,22.7-3.1c3.3,0.5,6.9,1.5,9.7-0.2c0.3-0.2,0.6-0.4,0.7-0.7
				c0.3-0.6-0.1-1.2-0.5-1.7c-2.5-3.4-6.7-5.2-10.9-5.4c-4.2-0.3-8.4,0.7-12.4,1.9c-8.6,2.6-17.2,6.2-26.2,5.8c-2-0.1-6.1,0-5.7,3.1
				c0.3,2.3,4.1,2.3,5.8,2.4C122.3,177.3,127.9,176.1,133.4,174.8z"/>
			<path class="st16" d="M121.6,192c1.5,0.8,3.1,1.6,4.8,1.9c1.4,0.3,2.8,0.2,4.2,0c2.5-0.3,4.9-1,7.2-2.1c1.7-0.8,3.3-1.8,5.1-2.2
				c1.9-0.4,3.8-0.1,5.7-0.3c0.7-0.1,1.5-0.4,1.6-1.1c0-0.6-0.6-1-1.2-1.3c-2-0.9-4.1-1.5-6.2-1.5c-1.5,0-2.9,0.3-4.4,0.7
				c-2.8,0.8-5.6,1.7-8.5,2.2c-3,0.5-5.8,0.4-8.8,0.1c-0.7-0.1-2.3,0.1-2.3,1.1C118.7,190.7,120.8,191.6,121.6,192z"/>
			<path class="st16" d="M99,176.2c-2.1,2.6-5.9,3.1-8.6,5c-2.3,1.6-3.7,4.1-5.8,5.9c-2.8,2.4-6.4,3.5-9.9,4.7s-7.1,2.8-9.1,5.8
				c-3,4.5-1.9,10.8-4.8,15.3c-1.4,2.2-3.7,4.5-5.6,6.3c-0.4,0.4-1,0.8-1.7,1.1c-1-0.7-1.9-1.5-2.8-2.3c0.3-0.6,0.7-1.2,1-1.6
				c2.5-3.7,6.7-6.4,8.1-10.8c1.1-3.4,0.4-7.4,2.1-10.6c1.2-2.3,3.6-3.8,6-4.7c2.4-1,5-1.4,7.4-2.3c3.1-1.1,6-2.9,8.5-5
				c2.2-1.8,4.1-3.9,6.4-5.7c2.3-1.7,5-3.1,7.8-3c0.5,0,1.1,0.1,1.4,0.6C99.6,175.4,99.3,175.8,99,176.2z"/>
			<path class="st16" d="M226.9,214c-7.5,5.4-15.3,10.3-23.5,14.2c-7.7,3.6-38.8,18.6-118.7,5.7c-2-0.3-4.1-0.7-6.1-1.3
				c6.8-5.7,13.8-11.2,22.1-14.2c20.7-7.6,44.2,1.4,65.8-3.3c13.7-3,25.9-11.4,39.7-14c6-1.1,13.1-0.8,17.2,3.7
				C225.5,206.9,226.8,210.5,226.9,214z"/>
			<path class="st17" d="M204.5,227.4c4.5-7.3,8.9-14.7,13.2-22.2c1.4-2.5,2.9-5,4.3-7.4c1.9-3.3,3.8-6.6,5.3-10.1
				c0.7-1.5,1.3-3.3,0.7-4.9c-0.7-2-2.8-3-4.7-3.8c-0.6-0.2-1.2-0.5-1.8-0.4s-1.1,0.5-1.5,0.8c-1.5,1.3-2.8,2.8-3.9,4.4
				c-1.4-0.7-3.1-1.5-4.6-0.8c-0.5,0.3-0.9,0.7-1.3,1.1c-1.5,1.6-2.8,3.4-4,5.3c-1.7-1-3.7-2-5.5-1.2c-0.6,0.3-1.2,0.7-1.7,1.2
				c-2.5,2.3-4.9,4.9-7.1,7.5c-0.8-0.6-1.9-1.1-2.4-0.9c-9.5,5.2-16.4,15.7-24.2,23.2c-2.2,2.2-4.6,4.2-6.9,6.4
				c-4.3,4-8.3,8.3-12.3,12.6c3.1,0.6,6.4,0.4,9.6,0.2C172.5,237.3,189.7,235,204.5,227.4z"/>
			<path class="st6" d="M169.9,217.4c-1.4,1.6-2.8,3.1-4.2,4.7c-1.2,1.3-2.4,2.6-3.3,4.1c-0.5,0.8-1,1.8-0.5,2.6
				c0.4,0.7,1.4,0.8,2.1,0.5s1.3-0.9,1.8-1.5c4.5-5,9-10,13.5-15c1.2-1.4,2.5-2.7,3.7-4.1c1.1-1.3,2.3-2.7,2.9-4.3
				c0.1-0.4,0.2-0.9-0.1-1.1c-0.2-0.1-0.4-0.1-0.6-0.1c-1.6,0-2.7,1.5-3.9,2.4c-1.4,1.2-2.7,2.5-4,3.8
				C174.8,212,172.4,214.7,169.9,217.4z"/>
			<path class="st18" d="M219.1,186.7c0.2,1.6-0.5,3.1-1.3,4.5c-8,14.1-19.8,25.9-27.6,40.2c1.4-0.1,2.7-0.3,4.1-0.6
				c0.5-0.1,1.1-0.3,1.5-0.6c0.5-0.3,0.8-0.8,1.2-1.2c8.2-10.8,16.3-21.6,23.3-33.1c1.3-2.2,2.6-4.5,3-7.1c0.4-2.5-0.4-5.4-2.6-6.9
				c-0.5-0.3-1-0.5-1.5-0.5c-0.9,0-2.5,1.3-2.2,2.3c0.1,0.4,1,0.8,1.3,1.2C218.7,185.5,219,186.1,219.1,186.7z"/>
			<path class="st18" d="M207.1,193.5c-1.4,3.3-3.7,6.2-6.1,8.9c-5.6,6.7-11.1,13.3-16.7,20c-3.4,4-6.8,8.1-9.1,12.8
				c1.8,0.7,3.8,0.5,5.4-0.4c0.9-0.6,1.7-1.4,2.5-2.1c9.3-9.9,17.1-21,25.1-31.9c1.4-1.9,2.8-3.9,3.5-6.1s0.5-5-1.1-6.7
				c-0.4-0.4-0.8-0.8-1.4-0.9c-1.1-0.2-2.8,1-2.6,2.2c0.1,0.7,0.8,1.2,0.9,1.9C207.7,192,207.4,192.8,207.1,193.5z"/>
			<path class="st18" d="M192.8,202.7c-2.9,4.3-6.7,7.9-10.2,11.6c-6.5,6.8-12.5,14-17.9,21.7c1.1,0.4,2.3,0.6,3.5,0.7
				c0.4,0,0.8,0,1.2-0.1c0.4-0.2,0.7-0.5,1-0.8c9.5-9.9,18-20.7,26.1-31.7c0.9-1.2,1.8-2.5,2.1-4.1c0.3-2-0.6-4-2-5.5
				c-0.3-0.3-0.7-0.7-1.1-0.6c-0.3,0-0.5,0.2-0.7,0.4c-0.5,0.4-1.6,1.2-1.8,1.9c-0.2,0.6,0.3,1,0.6,1.5
				C194.6,199.5,193.9,201.2,192.8,202.7z"/>
			<path class="st6" d="M197.6,194.8c-0.4,0.5-0.8,0.9-0.9,1.5c-0.2,0.6-0.1,1.2,0.3,1.7c0.4,0.4,1.1,0.5,1.6,0.4
				c0.6-0.1,1.1-0.5,1.5-0.9c1.2-1,2.3-2.2,3.1-3.6c0.4-0.6,0.7-1.2,0.6-1.9C203.5,188.5,198.2,194.1,197.6,194.8z"/>
			<path class="st6" d="M209.9,188c-0.2,0.4-0.5,0.8-0.5,1.2c-0.1,0.4,0.1,0.9,0.4,1.2c0.4,0.3,0.9,0.3,1.3,0.1s0.7-0.5,1-0.8
				c0.8-0.9,1.5-1.9,2-2.9c0.2-0.5,0.4-1,0.3-1.4C213.7,182.7,210.3,187.3,209.9,188z"/>
			<path class="st6" d="M219.7,182.8c-0.2,0.3-0.3,0.5-0.4,0.8c0,0.3,0,0.6,0.3,0.8c0.2,0.2,0.6,0.2,0.9,0.1
				c0.3-0.1,0.5-0.3,0.7-0.5c0.6-0.6,1-1.3,1.3-2c0.1-0.3,0.3-0.7,0.2-1C222.3,179.3,220,182.4,219.7,182.8z"/>
		</g>
		<g>
			<path class="st19" d="M161.4,180c-1-0.6-1.9-1.2-3-1.4s-2.3-0.1-3.2,0.6c-0.8,0.7-1.1,1.9-1,3s0.6,2.1,1.2,3.1
				c2.4,4.2,5.7,7.9,9.7,10.6c1.3,0.9,2.8,1.7,4.4,1.8c1.4,0.1,2.9-0.5,4-1.3s2.1-2,2.9-3.2c2.4-3.6,3.8-7.8,3.9-12.1c0-1,0-2-0.1-3
				c-0.1-0.9-0.5-1.9-1.2-2.4c-1-0.6-2.3-0.3-3.3,0.3c-2.3,1.3-3.7,3.8-5,6.2c-0.4,0.7-0.9,2.4-1.7,2.8c-0.8,0.4-1.6-0.5-2.1-0.9
				C165.2,182.3,163.4,181.1,161.4,180z"/>
			<path class="st14" d="M163,189.2c0.4,0.4,1,0.7,1.5,0.4c0.3-0.2,0.5-0.6,0.5-0.9c0.1-0.8-0.3-1.5-0.7-2.2c-0.9-1.5-2-2.8-3.2-3.8
				c-0.2-0.2-0.5-0.4-0.8-0.5s-0.6-0.1-0.8,0.1c-0.8,0.8,0.4,2.7,0.8,3.4C161,187,161.9,188.2,163,189.2z"/>
			<path class="st20" d="M176.5,203.8c0,1.1,0,2.3-0.4,3.4c-0.4,1.2-1.3,2.3-2.1,3.3c-4.2,4.8-8.8,9.2-13.5,13.5
				c-1.7,1.6-3.4,3.1-5,4.7c-1.3,1.2-2.8,3.2-4.4,3.9c-2.3,1-7.6-0.5-8.8-2.9c-0.3-0.3-0.6-0.7-0.8-1.1c-1.5-2.4-1.7-5.7-0.1-8.1
				c1.1-1.7,2.8-2.8,4.5-3.9c7-4.6,13.9-9.8,17.7-17.2c0.9-1.8,1.6-3.6,2.9-5.1c1.3-1.5,3.4-2.5,5.2-1.8c1.1,0.4,2,1.3,2.6,2.2
				c0.4,0.6,0.7,1.2,1,1.8C176.1,198.8,176.4,201.3,176.5,203.8z"/>
			<path class="st21" d="M176.5,203.8c0,1.1,0,2.3-0.4,3.4c-0.4,1.2-1.3,2.3-2.1,3.3c-4.2,4.8-8.8,9.2-13.5,13.5
				c-1.7,1.6-3.4,3.1-5,4.7c-1.3,1.2-2.8,3.2-4.4,3.9c-2.3,1-7.6-0.5-8.8-2.9c-0.3-0.3-0.6-0.7-0.8-1.1c8.6-1.1,16.8-5.2,22.9-11.5
				c1.6-1.6,3-3.4,4.2-5.3c1.9-2.8,3.4-5.8,4.6-8.9c0.9-2.1,1.4-4.3,2.1-6.5C176.1,198.8,176.4,201.3,176.5,203.8z"/>
			<path class="st14" d="M166.7,200.6c-1.6,2.5-3.3,5-5.4,7.1c-3.6,3.5-8.3,5.7-12.4,8.6c-1,0.7-2,1.6-2.8,2.6
				c-0.7,1-1.2,2.3-1.2,3.5c0,0.4,0.1,0.9,0.4,1.2c0.5,0.6,1.4,0.7,2.2,0.7c2.6-0.1,5-1.1,7.2-2.5s4.1-3.1,5.9-4.9
				c1.6-1.6,3.1-3.2,4.3-5c0.6-1,1.2-2.1,1.7-3.1c1.9-3.6,3.8-7.4,3.6-11.5c0-0.3-0.1-0.7-0.2-1c-0.2-0.3-0.5-0.5-0.8-0.5
				c-0.8,0.1-0.9,1.4-1.1,1.9C167.8,198.9,167.2,199.7,166.7,200.6z"/>
		</g>
		<g>
			<path class="st19" d="M109.3,209c1-0.6,2-1.3,2.8-2.2c1-1.2,1.5-2.8,2-4.3c0.6-1.7,1.2-3.5,1.4-5.3c0.2-1.2,0.2-2.4-0.1-3.5
				c-0.3-1.1-0.9-2.1-1.5-3s-1.4-1.9-2.4-2.3c-1.5-0.6-3.2-0.2-4.6,0.5c-0.9,0.5-1.8,1.2-2.5,2c-1.9,2.1-2.6,4.9-3.3,7.7
				c-1.1-1.5-1.7-3.2-2.6-4.9c-0.9-1.6-2-3.2-3.6-4c-0.9-0.4-1.8-0.6-2.8-0.7c-1.6-0.2-3.3,0-4.5,1c-1.6,1.3-1.8,3.8-1.4,5.8
				c0.6,3.1,2.1,6,4,8.6c1.5,2.1,3.4,4,5.6,5.3C98.1,210.9,102.5,212.8,109.3,209z"/>
			<path class="st14" d="M91.8,199.7c0.2,0.7,0.5,1.4,0.9,2s1,1.1,1.7,1.3c0.4,0.1,0.8,0.1,1.1-0.1c0.7-0.4,0.7-1.3,0.6-2.1
				c-0.4-2.9-1.5-5.7-3.5-7.9c-1.3-1.4-2.8-0.3-2.6,1.4C90.2,196.1,91.2,198,91.8,199.7z"/>
			<path class="st20" d="M122.8,237.2c-1.2,0.4-2.5,0.7-2.9,0.7c-5.1,0.4-10.4,0.8-15.5,0c-2.2-0.3-4.4-0.8-6.5-1.7
				c-0.6-0.3-1.3-0.5-1.7-1c-0.6-0.6-0.8-1.4-1-2.2c-1.2-4.8-2.5-9.8-1.9-14.7c0.4-2.9,1.3-5.6,2.5-8.3c0.7-1.6,1.7-3.2,3.2-4.1
				c0.3-0.1,0.6-0.3,0.9-0.4c2.5-0.9,5.6-0.5,7.1,1.7c1.7,2.5,1.9,7.1,2.6,10C111.7,225.2,116.3,232.4,122.8,237.2z"/>
			<path class="st14" d="M100.7,221.4c0.4,3.6,1.5,7.1,3.8,9.9c0.6,0.7,1.3,1.5,2.2,1.8s2,0.2,2.6-0.5s0.6-1.8,0.5-2.8
				c-0.5-5.2-1.7-10.4-3.6-15.3c-0.5-1.4-3.5-7.5-4.7-3.5C100.5,214.3,100.4,218.1,100.7,221.4z"/>
			<path class="st21" d="M104.5,238c-2.2-0.3-4.4-0.8-6.5-1.7c-0.6-0.3-1.3-0.5-1.7-1c-0.6-0.6-0.8-1.4-1-2.2
				c-1.2-4.8-2.5-9.8-1.9-14.7c0.4-2.9,1.3-5.6,2.5-8.3c0.7-1.6,1.7-3.2,3.2-4.1c0.3-0.1,0.6-0.3,0.9-0.4c-0.7,2.1-1.3,4.2-1.5,6.3
				c-0.2,1.7-0.3,3.5-0.4,5.2c-0.1,1.6-0.1,3.2,0,4.8C98.4,227.7,101.2,233.2,104.5,238z"/>
		</g>
		<g>
			<path class="st22" d="M151.8,160.1c0,0.3,0.3,0.8,0.3,1.1c-0.2,1-3.5,1.2-4.6,1.5c-1.9,0.5-3.9,1.1-5.7,1.7
				c-3.7,1.2-7.4,2.6-11.2,3.7c-1.6,0.5-3.2,0.9-4.9,1.2c-5.7,1.2-11.7,1.4-17.2-0.5c-1.7-0.6-3.3-1.4-4.6-2.6
				c-1.2-1.2-2-2.7-2.8-4.2c-4.3-8.9-7.1-18.5-10-28c-0.4-1.3-0.8-2.7-0.8-4.1c0-1.2,0.3-2.4,1.1-3.2c0.1-0.2,0.3-0.4,0.5-0.5
				c1.5-1.3,3.8-1.1,5.7-0.7c2.1,0.4,4.2,1.1,6.2,1.8c2.6,1,5.1,2.3,7.5,3.6c11.6,6,23.5,11.5,35.6,16.4c1.8,0.7,3.8,1.6,4.7,3.4
				c0.6,1.2,0.5,2.6,0.4,3.9c-0.1,1.2-0.1,2.5-0.2,3.7C151.8,159,151.7,159.6,151.8,160.1z"/>
			<path class="st14" d="M115.6,154.7c2.1,2.6,4.4,5.1,7.2,6.8c4.1,2.5,9.4,3,13.9,1.3c0.7-0.3,1.5-0.7,1.8-1.4
				c0.2-0.7-0.1-1.5-0.5-2.1c-0.5-1.1-1.1-2.1-1.8-3c-1-1.3-2.4-2.3-3.7-3.2c-7.2-5.2-14.7-10-22.3-14.5c-1.6-0.9-3.3-1.9-5.1-2.2
				c-2.9-0.5-1.4,1.5-0.4,3c2.1,3.4,4.4,6.8,6.8,10C112.7,151.1,114.2,152.9,115.6,154.7z"/>
			<path class="st23" d="M125.6,169.4c-5.7,1.2-11.7,1.4-17.2-0.5c-1.7-0.6-3.3-1.4-4.6-2.6c-1.2-1.2-2-2.7-2.8-4.2
				c-4.3-8.9-7.1-18.5-10-28c-0.4-1.3-0.8-2.7-0.8-4.1c0-1.2,0.3-2.4,1.1-3.2c0.1,0.2,0.1,0.4,0.2,0.5c0.7,1.5,1.4,3,2.2,4.5
				c1.5,2.9,3,5.9,4.6,8.7c1.8,3.2,3.8,6.3,6,9.3C110,157.7,117.1,164.7,125.6,169.4z"/>
		</g>
		<g>
			<path class="st19" d="M69,156.4c3-0.1,6.2-1.5,7.6-4.2c0.9-1.8,1-4,0.9-6c-0.1-2.8-0.3-5.6-1-8.2c-0.7-2.7-1.9-5.3-3.7-7.4
				c-0.6-0.7-1.3-1.3-2.2-1.7c-1.6-0.7-3.6-0.1-4.8,1.2c-1.3,1.4-1.6,3.4-1.7,5.3c-0.2,2.4-0.1,4.9,0.3,7.3
				c-2.6-1.3-4.8-3.7-7.7-4.2c-0.9-0.2-1.8-0.2-2.7-0.1c-0.5,0-1.1,0.1-1.5,0.4c-1.2,0.6-1.8,2.1-1.8,3.5c0,2.6,1.4,5.1,3.2,6.9
				c1.9,2,4.4,3.5,6.6,5.1C62.6,155.8,66.3,156.4,69,156.4z"/>
			<path class="st24" d="M67.3,141.7c0.2,0.5,0.5,1,1,1.4c0.5,0.3,1.1,0.4,1.6,0.2c0.4-0.2,0.6-0.6,0.7-1c1-2.4,1.2-5.2,0.4-7.7
				c-0.2-0.6-0.4-1.2-0.8-1.7s-1-0.8-1.7-0.7c-1.6,0.2-1.6,3-1.7,4.2C66.5,138.1,66.6,140,67.3,141.7z"/>
			<path class="st20" d="M109.8,166.8c0,0.5-0.1,1-0.5,1.3s-0.9,0.3-1.3,0.3c-4.5-0.2-9.1-0.7-13.4,0.5c-3.7,1.1-7,3.3-10,5.7
				c-1.6,1.3-3.4,2.7-5.4,2.5c-0.2,0-0.4-0.1-0.7-0.1c-1.4-0.4-2.5-1.4-3.3-2.6l-4-3.9c-1.2-1.6-2.3-3.3-3.2-5.1
				c-1.2-2.5-2.1-5.1-2.6-7.8s-0.6-5.7,0.8-8.1c1.4-2.4,4.5-3.9,7-2.7c0.9,0.5,1.7,1.2,2.4,2c1.1,1.1,2.1,2.3,3.2,3.4
				c0.4,0.4,0.8,0.9,1.2,1.3c0.8,0.9,1.7,1.7,2.7,2.4c1.6,1.2,3.4,1.9,5.3,2.5c1,0.3,2,0.5,3.1,0.7c3,0.5,6,0.5,9,0.8
				c2.2,0.2,4.4,0.5,6.4,1.6C108.3,162.6,109.8,164.6,109.8,166.8z"/>
			<path class="st21" d="M87.9,159.1c-0.1,0.4-0.4,0.8-0.7,1.1c-2.7,2.8-5.5,5.6-7.1,9.1c-1.1,2.4-1.7,5-1.6,7.7
				c-1.4-0.4-2.5-1.4-3.3-2.6l-4-3.9c-1.2-1.6-2.3-3.3-3.2-5.1c2.3-5.2,6.7-9.5,11.9-11.8c0.8,0.9,1.7,1.7,2.7,2.4
				c1.6,1.2,3.4,1.9,5.3,2.5C88,158.7,88,158.9,87.9,159.1z"/>
			<path class="st14" d="M71.4,163.9c1.6,3.4,3.9,6.7,7.3,8.3c0.7,0.3,1.6,0.6,2.4,0.6c0.8-0.1,1.7-0.5,2-1.2
				c0.5-1.1-0.1-2.4-0.7-3.4c-3-5.4-6.1-10.7-10.2-15.4c-2.1-2.4-4.6-0.9-4,2C69,157.9,70,161,71.4,163.9z"/>
		</g>
	</g>
	<g>
		<path d="M234.8,210.4c-1,0.9-2,1.8-2.9,2.7c-6.8,6.5-14.8,11-23.4,14.6c-17.1,7.2-35,10.7-53.4,12.3c-18.2,1.6-36.3,1-54.3-1.9
			c-13.3-2.1-26.3-5.5-38.5-11.2c-8.8-4.1-16.9-9.1-23.1-16.8c-0.1-0.1-0.2-0.1-0.5-0.2c0.1,0.5,0.1,0.9,0.2,1.3
			c3,14.5,8.8,27.9,16,40.8c0.5,0.9,1.1,1.9,1.8,2.7c1,1.1,2,2.2,3.3,3c9.4,6.1,19.7,9.1,30.7,10.2c10.6,1,21.2,1.4,31.8,2
			c15.2,0.8,30.3,0.4,45.4-1.1c8.2-0.8,16.3-2.1,24.5-3.1c6.2-0.8,12.1-2.6,17.8-5.3c3-1.5,5.8-3.4,7.7-6.3
			c4.3-6.4,7.8-13.2,10.2-20.5c2.4-7,4.3-14.2,6.4-21.3C234.5,211.5,234.6,210.9,234.8,210.4z M216.8,180.6
			c-4.4-3.4-9.4-5.5-14.7-6.2c-4.6-0.7-9.2-0.6-13.9-0.6s-9.2-0.6-13.4-2.5c-3.3-1.4-6.6-3-9.8-4.7c-5.5-2.8-11.3-3.6-17.2-2.5
			c-3.6,0.6-7.1,2.1-10.6,3.4c-10.2,3.8-20.5,5.3-31.2,2c-4-1.3-8.1-1-12.1,0.5c-4.2,1.6-7.8,4-11,7.1c-4.1,3.9-8.8,6.6-14.5,7.8
			c-6.7,1.4-11.1,5.6-13,12.2c-0.4,1.5-0.8,3-1,4.5c-0.6,3.5-2.2,6.3-5,8.5c-0.8,0.7-1.4,1.7-2,2.6c-0.2,0.3-0.2,1,0.1,1.2
			c1.1,1,2.2,1.8,3.5,2.9c0.5-2.2,1.4-3.8,3.1-4.9c2.2-1.4,3.6-3.4,4-5.9c0.3-1.6,0.4-3.3,0.7-5c0.6-4.2,2.1-8,5.8-10.3
			c2.2-1.4,4.8-2.2,7.3-2.8c5.1-1.3,9.6-3.4,13.2-7.4c0.9-1,1.9-1.9,2.9-2.8c2.6-2.3,5.5-3.8,9.1-3.5c0.4,0,0.9,0.2,1.3,0.3
			c0,0.1,0,0.3,0,0.4c-0.7,0.4-1.3,1-2,1.2c-4.1,1.1-7,3.9-9.8,6.9c-3,3.3-6.7,5.4-10.9,6.8c-1.5,0.5-3,0.8-4.6,1.2
			c-4.9,1.2-8.6,3.5-9.4,11.4c-0.5,5.2-2.2,9.6-7,12.5c-0.8,0.5-1.2,1.6-1.8,2.4c-0.4,0.6-0.2,1,0.4,1.3c0.9,0.5,1.7,1.1,2.6,1.6
			c11.4,6.6,23.8,10.4,36.6,13.1c0.2,0.1,0.5,0,0.9,0c-2.4-7.9-2.9-15.7,0.4-22.9c-2.1-2.2-4.1-4.1-5.8-6.3
			c-2.6-3.3-3.4-7.1-2.9-11.3c0.4-3.1,2.1-4.7,5.3-4.7c3,0,5.3,1.3,7.1,3.5c1.1,1.3,2.1,2.7,3,3.8c1.1-1.8,2-3.7,3.3-5.5
			c1.1-1.6,2.7-2.7,4.7-3.1c2.9-0.6,5.2,0.8,6.8,3.9c3.1,6.1,1,15.8-4.3,20.2c-0.6,0.5-0.9,0.8-0.7,1.6c0.5,1.9,0.8,3.9,1.3,5.8
			c1.9,7.3,5.5,13.5,12.1,17.5c0.3,0.2,0.5,0.5,0.8,0.7c0.4,0.3,0.9,0.8,1.4,0.8c6,0.1,12.1,0.1,18.1,0.1c0.4,0,0.9-0.1,1.1-0.3
			c0.9-1,1.7-2,2.5-2.9c-1.9-0.8-3.8-1.4-5.5-2.3c-2.2-1.1-3.4-3-3.8-5.3c-0.7-3.9,0.3-7.3,3.5-9.7c2.4-1.8,5.1-3.4,7.7-5
			c3.9-2.4,7.5-5.3,10.4-8.7c1.3-1.5,2.1-3.5,3-5.3c0.2-0.3-0.1-1-0.4-1.3c-1.4-1.5-3.2-2.7-4.4-4.4c-1.9-2.7-3.7-5.5-4.9-8.5
			c-1.5-3.9,0.8-6.3,5-5.9c3.2,0.3,5.6,2,7.9,4c0.7,0.7,1.5,1.3,2.2,2c0.6-1.5,1.2-2.8,1.8-4.1c1.2-2.4,3-4.1,5.5-5
			c2.8-0.9,5.3,0.5,6.1,3.3c0.2,0.8,0.3,1.6,0.3,2.3c-0.1,4.8-1.3,9.3-3.8,13.3c-1.1,1.7-1.3,3-0.9,4.9c0.5,2,0.4,4.1,0.5,6.1
			c3-2.5,6.1-5.1,9.1-7.6c1.6-1.3,3.3-2.4,5.4-1.3c1.7-2,3.4-3.8,5-5.8c2.3-2.7,5-3.8,8.4-2.3c1.1-1.3,2.1-2.5,3.1-3.7
			c1.7-2.1,3.7-2.9,6.3-2C216.3,181.9,216.7,181.6,216.8,180.6z M116,145.2c-0.6-1.2-1.6-3.2-2.1-4.4c-0.4-0.9-1.2-2.1-0.1-2.7
			c1.2-0.7,2.1,0.5,2.6,1.4c1.6,2.8,3,5.7,4.6,8.6c0.3,0.5,0.5,1.1,1,1.5c4,3.4,8,6.8,11.9,10.3c0.3,0.2,0.6,0.4,0.9,0.7
			c-0.1-0.8-0.4-1.5-0.7-2.2c-1.5-3.4-3.1-6.8-4.6-10.3c-0.4-0.8-1.2-2,0-2.6c1.1-0.6,1.6,0.8,2.1,1.5c2.9,4.6,5.5,9.4,7.3,14.6
			c0.2,0.5,0.4,1,0.5,1.3c3.9-0.9,7.7-1.8,11.3-2.7c-0.2-1.6-0.9-3.5-0.6-5.2c0.5-2.5-0.8-3.5-2.6-4.4c-0.3-0.1-0.5-0.2-0.8-0.4
			c-8.3-3.6-16.5-7.1-24.7-10.7c-6.1-2.7-12-5.8-18.1-8.5c-3.1-1.4-6.4-2.3-9.6-3.2c-1.3-0.4-1.8,0-1.9,1.4
			c-0.1,1.2-0.1,2.3,0.1,3.5c1.4,8.5,3.8,16.8,7.8,24.5c0.2,0.4,0.6,0.8,1,0.9c2.7,0.7,5,2.1,7.3,3.7c1.7,1.3,3.1,2.9,3.6,5
			c0.2,0.9,0.7,1,1.5,1.1c4.8,0.6,9.6,0.2,14.3-0.8c2.3-0.5,4.6-1.3,7.1-2c-3-2.6-5.7-5-8.5-7.3c-0.4-0.3-1-0.4-1.5-0.4
			c-5.2-0.3-10.5-0.5-15.7-0.9c-0.8-0.1-1.6-0.5-2.5-0.8c0-0.2,0.1-0.5,0.1-0.7c4.7-2.3,9.8-0.7,14.8-1.3c-0.1-0.2-0.4-0.3-0.6-0.5
			c-3.5-2.7-6.9-5.5-10.4-8.1c-0.4-0.3-1.1-0.3-1.6-0.2c-2,0.4-4.1,0.9-6.1,1.2c-0.4,0.1-1.2,0.2-1.4-0.6s0.4-1.1,0.8-1.3
			c1.1-0.6,2.3-1,3.5-1.4c0.4-0.2,0.8-0.3,1.4-0.5c-0.5-0.4-0.8-0.7-1.2-1c-1.8-1.5-3.5-3-5.2-4.6c-0.3-0.3-1-1.1-0.4-1.8
			s2.5,0.7,3,1c1.6,1,3.2,2.1,4.7,3.2C110.4,140.9,115.9,145.3,116,145.2z M45.5,212c0-2.4,1.8-3.7,3.1-5.3c1.1-1.3,2.1-2.9,2.5-4.6
			c1.1-4.5,2-8.9,4.5-12.4c-3.6-4.5-7.1-8.8-10.6-13.1C32.5,188.1,34.2,202.4,45.5,212z M203.9,171.1c0.2-0.6,0.4-1.1,0.6-1.6
			c1-3,1-6.3,0.3-9.2c-1-3.9-2.4-7.8-4.5-11.1c-5.7-8.9-13.5-14.2-24.7-13.2c-8.7,0.8-15.5,4.7-20.1,12.2c-2.3,3.7-2.8,7.9-2.3,12.2
			c0.6,0,1.2,0,1.7,0c0.1-1,0.2-2,0.4-2.9c1.8-7.7,7-12.4,14-15c12.1-4.6,28.9,2.3,32.1,19.3c0.3,1.6,0.1,3.3,0.1,5
			c-0.1,1.2-0.4,2.4-0.6,3.7C201.9,170.7,202.8,170.9,203.9,171.1z M148.9,236.7c0,0.1,0.1,0.2,0.1,0.4c4.6-0.4,9.2-0.9,13.8-1.3
			c0.3,0,0.6-0.3,0.8-0.5c2.1-2.6,4.2-5.3,6.4-7.9c4.2-5,8.5-9.9,12.7-14.8c3.2-3.7,6.4-7.4,9.4-11.2c1.6-1.9,1.2-2.8-1.4-4.1
			C176.8,210.4,162.9,223.5,148.9,236.7z M178.9,232.8c0.1,0.1,0.1,0.3,0.2,0.4c3.3-0.8,6.7-1.6,10-2.4c0.3-0.1,0.5-0.3,0.7-0.6
			c2.1-3,4.2-6,6.2-9c6.1-8.8,12.3-17.7,18.4-26.5c1.2-1.7,2.1-3.6,2.9-5.5c1.1-2.5,0.5-3.6-2.1-4.6c-1.3-0.5-2.6-1.1-3.8,0.3
			c-1.2,1.3-2.3,2.6-3.5,3.9c2,1.6,1.9,3.6,0.8,5.4c-1.5,2.7-3,5.4-4.9,7.8c-5,6.3-10.3,12.5-15.3,18.8
			C185.2,224.6,182,228.7,178.9,232.8z M236.9,201c1.7-3.7,2.3-7.4,1.8-11.1c-0.8-5.2-3.5-9.6-7-13.3c-6.4-6.7-14.3-11.1-22.6-14.7
			c-0.1-0.1-0.3,0-0.6-0.1c0.3,3.5,0.2,6.9-1.4,10.2c4.5,1.3,8.5,3.2,11.9,6.1c0.6-0.2,1.1-0.4,1.7-0.5c6-1,10.4,4.1,8.4,10
			c-0.3,1-0.1,1.5,0.5,2.3c1.9,2.3,3.7,4.6,5.3,7.1C235.7,198,236.2,199.4,236.9,201z M194.2,196.2c2,3.2,2,4.6-0.1,7.5
			c-0.8,1.2-1.8,2.3-2.7,3.4c-7.8,8.8-15.6,17.6-23.4,26.5c-0.4,0.5-0.7,1-1.3,1.7c2.8-0.4,5.2-0.8,7.5-1.3c0.8-0.2,1.6-0.7,2.1-1.3
			c4.8-6.2,9.4-12.4,14.2-18.5c3.8-4.9,7.9-9.7,11.7-14.7c1.6-2.1,2.8-4.6,4.2-6.9c0.2-0.4,0.3-1.1,0.1-1.4
			c-1.3-2.2-4.3-2.6-6.2-0.9C198.2,192.3,196.2,194.3,194.2,196.2z M227.5,191.7c-6.5,10.8-13,21.5-19.5,32.2
			c0.1,0.1,0.2,0.2,0.3,0.3c5.7-2.5,11.1-5.3,16.1-9.1c0.3-0.2,0.4-1,0.2-1.4c-0.7-2-1.5-4-2.2-6c-0.3-0.9-0.2-2-0.3-3
			c0.2-0.1,0.4-0.1,0.6-0.2c2.7,2,3.5,5.2,4.6,8.4c2.8-2.4,5.3-4.9,7.3-7.9c0.2-0.3,0.2-0.9,0-1.3
			C233.1,199.2,230.9,195.1,227.5,191.7z M193.1,229.4c0,0.1,0.1,0.2,0.1,0.2c3-1,6-2,8.9-3.1c0.9-0.3,1.7-1.1,2.2-1.9
			c1.7-2.9,3.2-5.9,4.9-8.7c4.8-8.1,9.7-16.2,14.4-24.3c1-1.8,1.9-3.7,2.6-5.7c0.8-2.2-0.4-4.4-2.4-5.3c-2.5-1.1-3.6-0.7-5.6,2.2
			c2.9,1.9,2.7,4.6,1.6,7.4c-0.6,1.5-1.3,3.1-2.2,4.5c-3.8,5.7-7.6,11.4-11.6,17C201.8,217.8,197.4,223.6,193.1,229.4z M109.3,207.9
			c3-3.7,4.4-7.9,3.8-12.6c-0.2-1.5-0.8-3-1.5-4.3c-0.7-1.4-2-1.7-3.3-0.8c-1,0.6-2,1.4-2.5,2.3c-1.2,2-2.2,4.2-3.1,6.4
			c-0.6,1.5-1.3,1.9-2.5,0.7c-0.7-0.6-1.3-1.5-1.8-2.3c-1-1.4-1.9-2.9-3.1-4.1c-0.9-1-2.1-1.8-3.4-2.3c-2.6-1-3.7-0.2-3.9,2.6
			c0,0.5,0,0.9,0,1.4c0.2,5.5,3.9,9,7.3,12.7C101.2,201.9,104.6,201.9,109.3,207.9z M75.7,147c-0.1-1.9-0.2-3.7-0.4-5.5
			c-0.4-3.3-1.7-6.3-3.8-8.8c-0.9-1.1-2.1-2-3.6-1.6s-1.8,1.7-2.1,3c-0.1,0.5-0.2,1-0.2,1.5c0.1,2.1,0.2,4.3,0.3,6.4
			c0.2,2.3-0.4,2.7-2.5,1.7c-1.5-0.7-2.9-1.6-4.4-2.1s-3-1-4.6-1.1c-1.7-0.1-2.6,1.2-2,2.8c0.4,1.3,1,2.7,1.8,3.9
			c1.9,2.7,4.6,4.7,7.5,6.3c0.7,0.4,1.4,0.7,1.9,1c0.6-2,0.9-3.8,1.6-5.6c1.3-3.2,4.4-4.4,7.7-3.2C74,146.1,74.8,146.6,75.7,147z
			 M175.3,192.6c1.4-2,3.1-6.9,3.5-10.3c0.1-1.1,0.2-2.3,0-3.4c-0.2-1.5-1-1.8-2.4-1.3c-1.6,0.6-2.7,1.8-3.5,3.3
			c-0.9,1.7-1.8,3.4-2.7,5c-0.9,1.5-1.4,1.7-2.8,0.7c-1.3-0.9-2.4-1.9-3.6-2.8c-1.7-1.4-3.5-2.6-5.7-3c-2.1-0.3-2.7,0.2-1.7,2.1
			c1.4,2.7,3.2,5.2,4.9,7.7c0.8,1.2,1.9,2.3,2.9,3.5C168.4,189.3,170.6,189.1,175.3,192.6z M97.6,234.4c2.8-6.1,7.3-8.5,13.1-8.8
			c-0.8-2.5-1.5-5-2.3-7.5c-0.1-0.3-0.4-0.7-0.7-0.7c-4.4-0.8-8.7-0.6-12.6,2.1c-0.3,0.2-0.6,0.8-0.6,1.2c-0.2,4.1,0.6,8.1,1.7,12.1
			C96.3,233.3,97,233.7,97.6,234.4z M150.1,214.8c-2.4,1.6-4.9,3.1-7.1,4.9c-2.4,2.1-2.4,6.9-0.1,8.6c1.5,1.1,3.2,1.7,5,2.4
			c1.6,0.6,3.2,0.2,4.3-1.3c0.4-0.5,0.9-1,1.4-1.4c1.3-1,1.6-2.1,1.3-3.7C154.2,220.8,152.7,217.7,150.1,214.8z M186.5,163.2
			c3.2-1.8,6.6-3.6,10-5.5c-1.9-5.4-5.9-8.7-10.9-11.1c-1.6,4.4-3.1,8.6-4.5,12.5C183.3,160.1,184.9,161.4,186.5,163.2z
			 M178.4,158.4c0.6-2.1,1.1-4.3,1.8-6.4c0.7-2.2,1.5-4.2,2.3-6.4c-4.2-1.7-11.6-0.8-14.7,1.6c1.4,4,2.8,8,4.1,11.7
			C174.3,158.4,176,158.3,178.4,158.4z M80,175.7c8.2-7.4,16.9-12.1,28.3-8.8c-0.4-0.5-0.6-0.9-0.8-1.1c-2.2-1.9-4.5-3.6-7.4-4
			c-2.8-0.4-5.7,0.1-8.5-0.4c-2.9-0.5-4.6,0.9-6.3,2.8c-0.1,0.1-0.3,0.3-0.4,0.4C82.3,167.6,80.8,171.3,80,175.7z M77.8,175
			c0.5-6.2,2.8-11,7.4-14.7c-2-1.6-3.9-3.1-5.7-4.5c-0.9,0.6-1.5,1.2-2.3,1.6c-2.6,1.7-4.9,3.8-6.7,6.4c-0.5,0.7-0.6,1.3-0.1,2
			c1.2,1.8,2.4,3.7,3.7,5.4C75.2,172.5,76.4,173.6,77.8,175z M157.5,224.2c3.1-3,6-5.7,8.8-8.5c0.2-0.2,0.3-0.6,0.2-0.8
			c-1.3-2.8-3.2-5.1-6.1-6.4c-0.3-0.1-0.9-0.2-1.1,0c-2.2,1.7-4.4,3.5-6.5,5.3C155.7,217,156.8,219.4,157.5,224.2z M45,176.6
			l10.6,13.1c0,0,11-7.6,12.2-7.9c-2.3-5.4-4.6-10.8-6.9-16.3C59,166.6,45,176.6,45,176.6z M158,160.5c3.1,1.1,6.2,2.1,9,3
			c0.5-1.3,1.2-2.2,2.3-3.2c-1.5-3.7-2.9-7.5-4.4-11.3C161.1,152,158.6,155.7,158,160.5z M63.1,162.4c1.7,4.7,3,8.3,4.8,12.9
			c0.7,1.7,1.5,3.4,2.4,5c0.2,0.3,0.8,0.7,1,0.7c2.1-0.9,4.2-1.9,6.3-2.9c-1.5-1.1-2.9-1.9-4-2.9c-4.5-4.4-7.5-9.6-9-15.7
			c-0.3-1.7-0.9-2.6-3-2.8c0,0-3.2-0.2-4.9-2.4c-0.3-0.4-0.7-0.7-1.1-1c-2.5-2.1-4.7-4.4-5.8-7.5c-1.4-3.9-1.3-7.1,2.5-7.9
			s12.1,5.3,11.8,1.5c-0.3-3.9-0.8-12.6,3-12.6s5.5,2.1,6.9,4c2.7,3.5,4.1,7.5,4.2,11.9c0.1,2-0.2,4.1-0.3,6.1c0,0.4,0,0.8,0.2,1.1
			c1,1.2,2,2.3,3.1,3.4c0.3,0.3,0.8,0.5,1.2,0.4c3.6-0.9,7.2-1.8,11-2.8c-0.2-0.6-0.4-1.1-0.6-1.7c-2-5.8-3.8-11.7-4.2-17.8v-0.1
			c-0.5-5.6,2-7.6,7.4-6.5c5.1,1.1,9.7,3.2,14.2,5.5c6.9,3.6,14.1,6.4,21.3,9.3c4.6,1.9,9.1,4,13.6,6.2c2,1,4.2,0.9,6.3,0.9
			c0.4,0,0.9-0.6,1.2-1.1c6.8-10.9,21.5-16.4,33.5-12.2c9.5,3.4,16.1,10,19.7,19.5c0.5,1.3,0.9,2.5,1.2,3.8c0.2,1,0.7,1.5,1.7,1.9
			c7.4,3.1,14.5,6.8,20.6,12.1c4.7,4,8.7,8.7,10.8,14.6c1.7,4.7,1.9,9.5,0.6,14.2c-3.1,11.4-6,22.8-9.4,34.1
			c-2.4,8.1-6.3,15.6-11,22.6c-3.3,4.8-8.5,7.4-13.8,9.5c-5.6,2.2-11.5,3.4-17.4,4c-7.1,0.8-14.2,2-21.3,2.7
			c-15.6,1.5-31.2,2.1-46.9,1c-6.3-0.4-12.6-0.3-18.9-0.8c-8.7-0.7-17.4-1.4-25.9-3.5c-7.1-1.8-13.5-5.2-19.6-9.1
			c-0.9-0.6-1.8-1.4-2.4-2.3c-1.3-1.8-2.7-3.7-3.7-5.7c-5.2-10.3-10.3-20.6-13.1-31.8c-1.8-7.1-3.3-14.2-4.1-21.4
			c-1-9.2,2.2-16.8,8.4-23.3c1.6-1.6,11.2-10.8,11.8-9.6c2.1-1.1,4-2.2,5.9-3.3c0.2-0.1,1.2-0.7,2.1-0.9
			C62.3,161.6,62.6,162,63.1,162.4z M119.7,236.9c0-0.2,0.1-0.3,0.1-0.5c-2.9-1.9-5.2-4.5-7.1-7.4c-0.2-0.2-0.6-0.4-0.9-0.4
			c-4.2,0.1-7.8,1.8-10.8,4.7c-0.3,0.3-0.5,0.6-1,1.2C106.8,235.4,113.2,236.1,119.7,236.9z M78,154c-1.6-1.6-3-3.1-4.6-4.5
			c-0.5-0.4-1.2-0.7-1.8-1c-1.3-0.5-2.4,0-3,1.1c-2.2,4.2-1.6,8.3-0.1,12.8C70.8,158.5,73.4,155.4,78,154z M94.9,216.9
			c3.9-3.1,8.1-3.5,12.8-2.8c-0.5-1.7-0.7-3.3-1.2-4.7c-1.2-3.1-4.7-3.9-7.1-1.6C96.7,210.2,95.4,213.2,94.9,216.9z M169.3,164.9
			c4.8,2.4,9.5,4.6,14.8,5.2c0.5-2.9-0.7-5.4-3.3-6.8C176.8,161.2,172.5,161.8,169.3,164.9z M187.9,170.1c2.9,0,5.8,0,8.6,0
			c0.3,0,0.8-0.2,0.9-0.4c0.7-2.8,1.2-5.6,0.3-8.5c-3.4,1.8-6.8,3.5-10,5.1C187.7,167.7,187.8,168.9,187.9,170.1z M174.6,204.4
			c0.2-3.3,0-6.4-1.7-9.1c-1.4-2.4-4.1-2.4-5.4,0.2c-0.9,1.8-1.4,3.9-2.1,5.8C169.7,201.4,171.1,201.9,174.6,204.4z M173.7,208.1
			c-1.7-2.5-4.3-3.7-7.2-4.2c-2.2-0.4-3.6,0.3-4.6,2.5c3.4,1.1,5.7,3.5,7,6.9C170.5,211.5,172.1,209.9,173.7,208.1z M97.1,157.6
			c-0.6-1-1.1-1.8-1.5-2.7c-0.4-0.8-0.9-0.9-1.7-0.7c-2.5,0.6-5,1.2-7.6,1.8c-0.3,0.1-0.5,0.2-0.9,0.4
			C89.3,158.5,93.2,157.7,97.1,157.6z"/>
		<path d="M160,172.4c-1,0.1-2,0.5-3,0.3c-4.8-1-9.3,0.2-13.7,2.1c-6.3,2.7-12.9,4.6-19.8,4.2c-2.8-0.2-5.5-0.8-8.2-1.4
			c-0.9-0.2-1.7-0.7-2.4-1.3c-0.4-0.3-0.4-1-0.6-1.6c0.5-0.2,1.1-0.5,1.6-0.4c2.1,0.3,4.2,0.8,6.3,1c7.2,1,14.1-0.8,20.8-3.2
			c3.1-1.1,6.2-2,9.3-2.8c2.6-0.6,5.2-0.1,7.6,0.9c0.8,0.3,1.5,0.9,2.2,1.4C160.1,171.9,160,172.2,160,172.4z"/>
		<path d="M149.8,187.2c-0.8,0.2-1.3,0.4-1.7,0.4c-5.8-0.6-11.2,1.1-16.7,2.4c-3.7,0.8-7.4,0.5-11.1-0.2c-0.4-0.1-0.9-0.2-1.2-0.4
			c-0.4-0.3-0.8-0.8-1.1-1.3c0.5-0.3,0.9-0.8,1.4-0.9c2.6-0.1,5.3,0.1,7.9-0.2c3.4-0.4,6.7-1.2,10.1-1.8c3.4-0.6,6.8-0.6,10.1,0.7
			C148.3,186.2,148.9,186.6,149.8,187.2z"/>
		<path d="M155.6,196.3c-0.9,0.9-1.7,2-2.8,2.7c-2.4,1.7-5.3,2.2-8.2,2.6c-5.5,0.7-10.9,0.6-16.4-0.2c-1-0.2-2-0.6-3-1.1
			c-0.3-0.1-0.6-0.7-0.5-1s0.6-0.6,0.9-0.6c0.5-0.1,1,0,1.5,0c6.5,0.1,13,0.6,19.4-0.7c1.8-0.4,3.6-1.1,5.4-1.6c1-0.3,2-0.5,3-0.7
			C155.3,195.8,155.5,196,155.6,196.3z"/>
		<path d="M82.5,197.5c0.1,0.6-2.6,1.3-3.9,1.5c-6.4,1.2-9.7,5.3-11.1,11.4c-0.1,0.7-0.1,1.9-1.1,1.9s-1.1-1.2-1.1-1.9
			c-0.1-1.4,0-2.9,0.4-4.2C69.4,195,82.4,196.9,82.5,197.5z"/>
		<path d="M135.9,216c-0.6,0.1-1.1,0.3-1.7,0.3c-1.7,0-3.4-0.1-5.1-0.2c-4.5-0.3-8.9,0.6-13.2,1.5c-0.5,0.1-1.2-0.1-1.7-0.2
			c0.3-0.6,0.5-1.6,1-1.7c2.2-0.9,4.4-1.8,6.7-2.2c4.5-0.9,8.9-0.6,13,1.5c0.4,0.2,0.8,0.5,1.2,0.8C136,215.8,136,215.9,135.9,216z"
			/>
		<path d="M136.4,226.7c-2.1,0-4.1,0-6.2,0c-2.9,0-5.8-0.1-8.7-0.2c-0.5,0-1-0.3-1.5-0.5c0.3-0.5,0.6-1.3,1-1.5
			c1.2-0.5,2.4-0.9,3.7-1c4.2-0.4,8.2,0.5,11.7,2.8C136.4,226.4,136.4,226.5,136.4,226.7z"/>
		<path d="M197,186.3c-3.1,0.9-6.2,1.7-9.4,2.5c-0.4,0.1-2.7,0.1-2.9-0.7s0.8-1.4,1.2-1.5c3.5-1,7-1.9,10.6-2.7
			c0.9-0.2,2.9-0.6,3.2,0.3C200.1,184.9,198,186,197,186.3z"/>
		<path d="M94.4,203.4c-0.5,0.2-1.4-0.6-1.8-1.1c-2-2.2-3.2-4.8-3.2-7.8c0-0.5,0-1.4,0.7-1.6c0.7-0.2,1,0.6,1.3,1.1
			c1.1,2.4,2.2,4.8,3.2,7.2C94.8,201.8,94.9,203.2,94.4,203.4z"/>
		<path d="M61.4,149.6c-0.6-0.2-1.4-0.2-1.9-0.6c-1.5-1.1-2.9-2.4-4.3-3.6c-0.3-0.3-0.1-1-0.2-1.5c0.5,0.1,1,0,1.3,0.2
			c1.5,1.2,2.9,2.5,4.3,3.8c0.4,0.4,0.6,0.9,1,1.4C61.5,149.4,61.4,149.5,61.4,149.6z"/>
		<path d="M162.6,189.8c-1-1.2-2.1-2.4-3.1-3.7c-0.2-0.2,0-0.7,0.1-1.1c0.3,0.1,0.8,0,1,0.2c1.2,1.2,2.2,2.5,2.5,4.3
			C162.9,189.5,162.7,189.6,162.6,189.8z"/>
	</g>
</g>
<g>
	<ellipse class="st0" cx="269" cy="283.6" rx="20.5" ry="6.9"/>
	<g>
		<g>
			<g>
				<path class="st13" d="M283.1,281c-0.3,0.4-0.9,0.6-1.4,0.8c-6.4,1.7-13.1,2.5-19.6,1.2c-1.4-0.3-2.8-0.7-4-1.5s-2.1-2.1-2.3-3.5
					c-0.1-0.8,0.1-1.6,0.2-2.4c0.2-1,0.4-1.9,0.6-2.9c0.2-0.9,0.4-1.8,0.5-2.6c0.3-1.5,0.4-3.3,1.7-4.3c0.3-0.2,0.7-0.2,1.1-0.2
					c4.1,0,8.2,0.1,12.3,0.2c1.4,0,2.7,0,4.1,0.3c0.8,0.1,1.7,0.4,2.3,1.1c0.4,0.4,0.6,0.9,0.8,1.4c0.8,1.9,1.6,3.8,2.3,5.7
					c0.6,1.5,1.1,3.1,1.6,4.6C283.4,279.5,283.6,280.4,283.1,281z"/>
				<path class="st25" d="M281.7,274.1c-1.1,0.7-2.2,1.3-3.4,1.6c-2,0.5-4.1,0.5-6.2,0.5c-4-0.1-8-0.3-11.8-1.7
					c-0.9-0.4-2.4-1-3.6-1.7c0.2-0.9,0.4-1.8,0.5-2.6c0.3-1.5,0.4-3.3,1.7-4.3c0.3-0.2,0.7-0.2,1.1-0.2c4.1,0,8.2,0.1,12.3,0.2
					c1.4,0,2.7,0,4.1,0.3c0.8,0.1,1.7,0.4,2.3,1.1c0.4,0.4,0.6,0.9,0.8,1.4C280.1,270.3,280.9,272.2,281.7,274.1z"/>
				<path class="st10" d="M268.3,271.4c-45.1,0-40.3-44.8-40.3-52.8c0-0.4,0-0.8,0.2-1.2c1.9-7.6,22.2-14.3,39.5-14.3
					c32.6,0,39.8,8.3,41.3,13.8c0.3,1.2,0.4,2.3,0.4,3.2C309.3,224.7,313.4,271.4,268.3,271.4z"/>
				<path class="st3" d="M308.9,216.9c0,1.1-0.9,16.4-39.4,16.4c-15.7,0-25.4-2.5-31.5-5.4c-9.4-4.6-9.9-10.5-9.9-10.5
					c0.2-0.9,0.7-1.7,1.4-2.5c5.2-6.5,22.8-11.7,38.1-11.7c6.5,0,12,0.3,16.7,0.9c3.1,0.4,5.8,0.9,8.1,1.4
					C304.4,208.3,307.9,213.2,308.9,216.9z"/>
				<path class="st4" d="M308.9,216.9c0,1.1-0.9,16.4-39.4,16.4c-15.7,0-25.4-2.5-31.5-5.4c3.2-3,7.5-4.9,11.8-5.5
					c4.6-0.6,9.4,0.1,13.6,2.1c3,1.4,5.7,3.3,8.8,4.3c4,1.2,8.3,0.7,12.4-0.1c2.1-0.4,4.1-0.9,5.8-2.1c3.7-2.5,4.9-7.6,3.8-11.9
					c-0.6-2.4-1.8-4.6-2-7c-0.1-0.7,0-1.5,0.1-2.2C304.4,208.3,307.9,213.2,308.9,216.9z"/>
				<path class="st11" d="M268.3,271.4c-42.1,0-40.7-38.9-40.3-50.7c0.7,16,6.3,41.4,40.3,41.4c34.6,0,40.3-27.4,41-42.3
					c0,0.1,0,0.2,0,0.3C309.3,224.7,313.4,271.4,268.3,271.4z"/>
				<path class="st6" d="M267.5,261c0,1-0.1,2.1-0.6,3c-0.6,1.1-1.9,1.7-3.2,1.8c-1.2,0.1-2.5-0.1-3.7-0.4
					c-5.6-1.2-11.4-3.1-15.2-7.5c-2.9-3.4-4.3-7.8-5.4-12.2c-0.6-2.1-1.1-4.3-1-6.5c0.1-0.9,0.3-1.8,0.9-2.4
					c0.7-0.6,1.7-0.6,2.7-0.5c6.5,0.3,13,0.9,19.5,1.7c2.1,0.3,5.5-0.2,6.1,2.4c0.6,3,0.2,6.6,0.2,9.6
					C267.7,253.7,267.6,257.3,267.5,261z"/>
			</g>
			<path class="st4" d="M286.1,219.2c-0.8,0.9-1.9,1.5-3,2c-5.3,2.1-11.8,0.9-15.9-3.1c-2-1.9-3.5-4.4-5.8-5.7
				c-3.8-2.1-8.6-0.8-12.5,1c-4,1.8-8,4.1-12.3,3.8c-2.5-0.2-4.8-1.2-7-2.3c5.2-6.5,22.8-11.7,38.1-11.7c6.5,0,12,0.3,16.7,0.9
				c0.3,2.2,1.3,4.4,2.1,6.6C287.5,213.4,288,216.9,286.1,219.2z"/>
			<path class="st3" d="M263.6,209.2c0.2,0.4,0.6,0.6,1,0.7c0.7,0.2,1.4,0.2,2-0.2s1-1.1,0.9-1.8C267,204.9,262.3,206.8,263.6,209.2
				z"/>
			<path class="st3" d="M299.5,217.8c0.2,0.4,0.6,0.6,1,0.7c0.7,0.2,1.4,0.2,2-0.2s1-1.1,0.9-1.8
				C302.8,213.5,298.2,215.5,299.5,217.8z"/>
			<path class="st3" d="M269.3,208.1c0.1,0.2,0.3,0.4,0.6,0.5c0.4,0.1,0.9,0.1,1.3-0.1c0.4-0.2,0.6-0.7,0.5-1.1
				C271.4,205.4,268.5,206.7,269.3,208.1z"/>
			<path class="st3" d="M302,221.5c0.1,0.2,0.3,0.4,0.6,0.5c0.4,0.1,0.9,0.1,1.3-0.1c0.4-0.2,0.6-0.7,0.5-1.1
				C304.1,218.8,301.3,220,302,221.5z"/>
			<path class="st3" d="M260.3,210.6c0.1,0.2,0.3,0.4,0.6,0.5c0.4,0.1,0.9,0.1,1.3-0.1c0.4-0.2,0.6-0.7,0.5-1.1
				C262.3,207.9,259.5,209.1,260.3,210.6z"/>
			<path class="st3" d="M297.5,214.6c0.1,0.2,0.4,0.4,0.6,0.5c0.4,0.1,0.9,0.1,1.3-0.1s0.6-0.7,0.5-1.1
				C299.6,211.9,296.8,213.2,297.5,214.6z"/>
		</g>
		<g>
			<path d="M282.3,271.3c0.8,2.1,1.7,4.1,2.4,6.2c1,2.9,0.2,4.8-2.7,5.7c-2.5,0.8-5.2,1.2-7.9,1.6c-4.4,0.6-8.8,1-13.1-0.1
				c-1.3-0.3-2.7-0.8-3.9-1.4c-2.3-1.1-3.2-2.7-2.8-5.2c0.3-2.1,0.9-4.2,1.4-6.4c-0.3-0.1-0.8-0.3-1.3-0.4
				c-7.2-2.5-13.8-5.9-18.6-12.2c-4.9-6.6-7.8-14-8.8-22.1c-0.7-5.7-1-11.5-0.4-17.2c0.4-3.7,2.1-6.7,5.1-8.9
				c4.7-3.4,10.1-5.1,15.6-6.4c5.5-1.3,11.2-1.6,16.8-2.1c5.6-0.4,11.2-0.4,16.8,0.1c7.1,0.7,14.1,2,20.8,5c2.7,1.2,5.2,2.7,7.2,4.9
				c2.3,2.5,3,5.3,2,8.7c-0.6,1.8-0.4,3.9-0.6,5.8c-0.5,5.1-0.7,10.3-1.7,15.3c-1.9,9.3-6.6,17.1-14,23.1c-3.3,2.7-7.1,4.2-11.1,5.4
				c-0.4,0.1-0.8,0.2-1.2,0.4C282.5,271.1,282.4,271.2,282.3,271.3z M229.7,224.5c-0.1,0.2-0.2,0.3-0.2,0.4
				c0.4,7.1,0.9,14.1,3.3,20.8c3.1,8.5,8.1,15.4,16.6,19.4c13.4,6.3,26.6,5.6,39.7-0.7c1.4-0.7,2.7-1.6,3.9-2.6
				c4.8-3.9,8-9,10.4-14.6c2.2-4.9,2.4-10.2,3.1-15.4c0.2-1.9,0.3-3.8,0.5-6c-3.9,2.8-7.9,4.5-12.2,5.6c-15.3,4.2-30.8,4.5-46.3,1.5
				C241.7,231.6,235,229.6,229.7,224.5z M265.6,231c10.7,0.1,19.1-0.7,27.5-3c4.5-1.2,8.8-2.8,12.5-5.8c2.6-2,2.8-6.3,0-8.4
				c-2.6-2-5.4-3.4-8.5-4.4c-10.5-3.7-21.4-4.3-32.3-4.1c-7.7,0.1-15.3,1.6-22.6,4.2c-3.3,1.2-6.5,2.5-9.1,4.9
				c-3.1,2.8-3.1,5.9,0.2,8.4c2,1.5,4.2,2.7,6.5,3.6C248.8,230,258.2,230.8,265.6,231z M259,272.5c-0.4,1.9-0.8,3.9-1.1,5.8
				c-0.1,0.5,0.4,1.3,0.9,1.5c1.2,0.5,2.4,1,3.7,1.2c5.7,1,11.4,0,17-0.9c0.2,0,0.4-0.2,0.7-0.2c1-0.2,1.3-0.7,0.9-1.7
				c-0.7-1.5-1.4-3.1-1.9-4.6c-0.4-1.1-0.9-1.2-2.1-1.1c-3.5,0.4-7,0.7-10.5,0.7C264.1,273.3,261.6,272.8,259,272.5z"/>
			<path d="M296.1,212.9c-0.6,0.5-1.1,1.1-1.7,1.5c-5.6,3.4-11.4,3.5-17.3,0.6c0,0-0.1,0-0.1-0.1c-4.7-3-9.1-1.8-13.5,0.7
				c-2.1,1.2-4.4,2.4-6.8,3.1c-3.3,1-6.7,0.8-10-0.3c-2.4-0.8-4.6-0.4-6.6,0.9c-0.7,0.4-1.4,1-2.1,0.1c-0.7-0.8-0.4-1.7,0.3-2.4
				c2.4-2.3,5.4-3,8.6-2.1c2.8,0.8,5.6,1.4,8.4,0.6c2.1-0.5,4.2-1.3,6-2.4c2.9-1.8,5.9-3,9.3-3.3c2.6-0.3,4.8,0.6,7,1.8
				c3.1,1.7,6.3,2.5,9.8,2c1.6-0.2,3.2-0.8,4.8-1.2c1.2-0.2,2.4-0.3,3.6-0.4C295.9,212.5,296,212.7,296.1,212.9z"/>
			<path d="M297.4,219.1c-0.8,0.7-1.6,1.5-2.5,2c-5.3,2.9-10.9,3.6-16.8,1.7c-4.4-1.4-8.6-0.2-12.6,1.7c-1.9,0.9-3.8,1.9-5.8,2.7
				c-2.2,0.8-4.5,0.7-6.7,0.1c-0.6-0.2-1.3-0.5-1.8-1c-0.3-0.3-0.3-1-0.4-1.5c0.4-0.1,0.9-0.2,1.3-0.2c3.7,0.8,7.2,0.3,10.3-1.8
				c3.5-2.3,7.3-3.4,11.4-3.6c1.6-0.1,3.3,0,4.8,0.5c4.5,1.5,8.8,1.2,13.2-0.3c1.7-0.6,3.4-1.2,5.2-0.8
				C297.2,218.9,297.3,219,297.4,219.1z"/>
		</g>
	</g>
</g>
<g>
	<ellipse class="st0" cx="199.1" cy="297.7" rx="19.8" ry="6.9"/>
	<g>
		<g>
			<g>
				<path class="st26" d="M226.5,254.7c3,3.3,4.5,7.9,3.9,12.3c-0.5,3.8-2.3,7.3-3.2,11.1c-0.7,3-0.8,6.2-0.2,9.3
					c-4.8-0.7-9.4,2.1-13.3,5.1c-3.9,3-7.6,6.5-12.4,7.5c-3.8,0.8-7.9-0.1-11.2-2.1c-0.7-0.4-1.4-0.9-2-1.5l0,0
					c-2.3-1.9-4.2-4.5-5.5-7.3c-2.1-4.6-3.1-9.8-4.2-15.4c-0.2-0.9-0.4-1.8-0.6-2.8c-1.4-6.2-7.5-9-12.6-12.8
					c-5.1-3.7-10.8-6.6-16.3-9.8c-0.9-0.6-1.9-1.2-2.5-2.1c-0.6-0.9-0.2-3.6,0.6-4.2c0.8-0.6,1.9-0.8,2.9-0.7
					c4.3,0.1,8.2,2.5,12.4,3.9c-3.2-2.2-5.8-5.1-8.4-8c-1.3-1.5-2.5-3.1-3.1-4.9c-0.3-1.1-0.4-2.3,0.4-3.1c0.8-0.9,2.3-0.8,3.4-0.4
					c2.5,0.7,4.7,2,6.9,3.4c2.7,1.7,5.2,3.5,7.7,5.5c-0.3-2.2-0.6-5.1,1.5-5.9c1.3-0.5,2.9,0.2,3.8,1.3c0.9,1.1,1.4,2.5,2,3.8
					c1.1,2.3,2.7,4.4,4.7,6c4.2,3.3,9.6,4.6,15,4.9c0.7,0,1.5,0.1,2.2,0.1c4.6,0.2,9.2,0,13.8,0.6c1.9,0.2,3.8,0.6,5.6,1.2
					C221.1,250.5,224.2,252.1,226.5,254.7z"/>
				<path class="st27" d="M226.5,254.7c3,3.3,4.5,7.9,3.9,12.3c-0.5,3.8-2.3,7.3-3.2,11.1c-0.7,3-0.8,6.2-0.2,9.3
					c-4.8-0.7-9.4,2.1-13.3,5.1c-3.9,3-7.6,6.5-12.4,7.5c-3.8,0.8-7.9-0.1-11.2-2.1c-0.7-0.4-1.4-0.9-2-1.5c1.4-0.1,2.7-0.3,4.1-0.7
					c4.7-1.3,8.8-4,13-6.5s8.6-4.8,13.4-5.4c-0.7-3.6,0.6-7.3,1.4-10.9c1.8-7.8,1.1-16.3-2.2-23.5
					C221.1,250.5,224.2,252.1,226.5,254.7z"/>
				<path class="st17" d="M198.4,247.7c-0.1,0.2-0.3,0.4-0.4,0.6c-1.8,2.7-4.4,4.8-7.5,6c-1.2,0.5-2.7,1-3,2.3
					c-0.1,0.8,0.3,1.6,0.7,2.4c0.8,1.4,1.5,2.9,2.2,4.4c0.3,0.7,0.5,1.4,0.3,2.1c-0.4,1.2-1.9,1.6-3.2,1.4c-1.5-0.2-2.9-0.8-4.3-1.3
					c-0.6-0.2-1.3-0.4-2-0.2c-1.2,0.3-1.9,1.6-2.1,2.8c-0.2,1.2,0,2.5-0.2,3.7c-0.1,0.6-0.3,1.2-0.6,1.8c-0.2-0.9-0.4-1.8-0.6-2.8
					c-1.4-6.2-7.5-9-12.6-12.8c-5.1-3.7-10.8-6.6-16.3-9.8c-0.9-0.6-1.9-1.2-2.5-2.1c-0.6-0.9-0.2-3.6,0.6-4.2
					c0.8-0.6,1.9-0.8,2.9-0.7c4.3,0.1,8.2,2.5,12.4,3.9c-3.2-2.2-5.8-5.1-8.4-8c-1.3-1.5-2.5-3.1-3.1-4.9c-0.3-1.1-0.4-2.3,0.4-3.1
					c0.8-0.9,2.3-0.8,3.4-0.4c2.4,0.7,4.6,1.9,6.7,3.2l0.2,0.1c2.7,1.7,5.2,3.5,7.7,5.5c-0.1-0.3-0.1-0.7-0.1-1
					c-0.2-2-0.1-4.2,1.6-4.9c1.3-0.5,2.9,0.2,3.8,1.3c0.9,1.1,1.4,2.5,2,3.8c1.1,2.3,2.7,4.4,4.7,6c4.2,3.3,9.6,4.6,15,4.9
					C196.9,247.6,197.7,247.7,198.4,247.7z"/>
				<path class="st6" d="M152.2,246.6c0.4-0.4,0.8-1.1,0.6-1.7c-0.2-0.5-0.6-0.9-1.1-1.2c-1.1-0.7-3.1-0.6-2.8,1.2
					C149.1,246.4,151,247.8,152.2,246.6z"/>
				<path class="st6" d="M155,248.7c3.9,2.7,8,5,12.3,6.9c0.8,0.4,1.7,0.7,2.6,0.8c0.3,0,0.8,0,0.9-0.3c0.1-0.1,0.1-0.3,0.1-0.5
					c-0.1-0.7-0.7-1.3-1.3-1.7c-3.3-2.6-7.1-4.7-10.8-6.7c-1.1-0.6-3.2-2-4.4-1.4C152.8,246.6,154.2,248.1,155,248.7z"/>
				<path class="st18" d="M169,236.4c0.4,0.7,0.6,1.4,0.9,2.1c0.9,2.5,2.1,4.9,3.5,7.2c0.7,1.1,1.5,2.2,2.4,3.2
					c0.8,0.9,2,1.8,2.6,2.8c-3.2-0.4-6.7-2.5-9.2-4.4c-2.7-2.1-5-4.6-6.6-7.6c-1.3-2.3-2.2-4.9-1.6-7.4c0-0.2,0.1-0.4,0.2-0.5
					l0.2,0.1c2.7,1.7,5.2,3.5,7.7,5.5C169.1,237.1,169,236.7,169,236.4z"/>
			</g>
			<g>
				<path class="st6" d="M188.6,286.8c2.1,3.4,5,6.6,8.9,7.6c1.9,0.5,4.1,0.4,5.6-1c1-1,1.4-2.4,1.6-3.8c0.5-4.9-1.8-9.7-5-13.5
					c-2.6-3-6.1-5.7-10.1-5.5c-1.1,0.1-2.2,0.3-3.1,1c-2.1,1.6-1.6,4.6-1.2,6.8C185.8,281.4,187.1,284.2,188.6,286.8z"/>
				<path class="st6" d="M189.1,284.7c1.1,1.8,2.6,3.5,4.6,4c1,0.3,2.2,0.2,2.9-0.5c0.5-0.5,0.8-1.3,0.8-2c0.3-2.6-0.9-5.1-2.6-7.1
					c-1.4-1.6-3.2-3-5.3-2.9c-0.6,0-1.2,0.2-1.6,0.5c-1.1,0.9-0.9,2.4-0.6,3.6C187.6,281.9,188.3,283.4,189.1,284.7z"/>
			</g>
		</g>
		<g>
			<path d="M156.8,241.5c-1.5-1.6-3-2.8-4.1-4.3s-2.2-3.2-2.8-5c-1.3-3.8,1.3-6.4,5.2-5.4c3.4,0.9,6.4,2.9,9.2,5
				c1.2,0.9,2.4,1.9,3.6,2.9c0.5-1,0.8-2.1,1.4-3c1.7-2.4,4.3-2.5,6-0.1c0.8,1.1,1.4,2.4,2,3.6c1.9,4,4.8,6.8,8.7,8.6
				c0.8,0.4,1.7,0.7,2.6,0.9c2,0.4,4.1,0.9,6.1,1.2c1.9,0.2,3.8,0.3,5.7,0.3c5.1-0.1,10.1-0.6,15.1,0.7c4.1,1.1,7.8,2.9,10.9,5.9
				c4.9,4.8,6.3,10.7,4.6,17.3c-0.9,3.6-2.2,7.2-3.2,10.8c-0.4,1.5-0.4,3.2-0.2,4.8c0.1,1.9-0.1,2.2-2,2.5
				c-5.5,0.9-10.5,2.9-14.4,7.2c-6.9,7.8-17.6,7.9-25.4,0.4c-3.7-3.5-6.3-7.7-7.6-12.6c-0.7-2.6-1.3-5.3-1.9-8
				c-0.7-2.9-1.4-5.9-2.2-8.8c-0.1-0.5-0.6-1-1-1.4c-6-5.4-13.2-8.9-20.4-12.3c-2.3-1.1-4.5-2.7-6.5-4.3c-1.8-1.4-2.4-3.5-1.9-5.8
				s1.9-3.5,4.2-3.2c2.1,0.2,4.3,0.9,6.4,1.4C155.5,241,156,241.2,156.8,241.5z M224.1,285.4c-0.6-2.7,0.2-5.3,0.9-7.9
				c0.8-2.9,1.8-5.7,2.5-8.5c1.4-5.6,0-10.5-4.5-14.3c-2.3-2-5-3.2-7.9-4c-4.7-1.3-9.6-0.8-14.4-0.8c-1.9,0-3,0.3-5,2.7
				c-1.8,2-4.1,3-6.8,3.3c0.2,0.7,0.4,1.2,0.6,1.7c0.7,1.7,1.6,3.3,2.1,5c1,2.9-0.9,5.6-4,5.5c-1.3,0-2.6-0.3-3.8-0.6
				c-0.9-0.2-1.9-0.4-2.7-0.6c-0.3,2-0.3,3.8-0.9,5.4c-0.7,2.1-0.5,4,0.1,6c0.4,1.4,0.8,2.9,1.2,4.3c1.2,4.1,3.5,7.6,6.6,10.6
				c5.4,5.3,14.4,6.4,20.3-0.2C212.6,288.5,217.7,285.5,224.1,285.4z M179.7,253c-0.7-0.1-0.9-0.1-1.1-0.2c-3.7-2.8-6.8-6-8.2-10.4
				c-0.7-2.3-1.9-3.9-4-5.1c-3-1.8-5.8-4-8.8-5.9c-1.1-0.7-2.3-1.2-3.6-1.6c-1.1-0.4-1.5,0.1-1.2,1.2c0.2,0.8,0.4,1.6,0.9,2.2
				c1.1,1.6,2.3,3.3,3.6,4.7c1.8,2,3.9,3.8,5.7,5.9c0.9,1,1.8,1.7,2.9,2.4c2.8,1.7,5.6,3.5,8.3,5.4c0.5,0.4,1.7,1.4,1.2,2.1
				c-0.6,0.7-2.6,0-3.7-0.6c-3.8-2.1-7.6-4.2-11.4-6.2c-3.4-1.9-7-3.4-10.9-4.1c-1.8-0.3-2.5,0.4-1.8,2c0.4,1,1.3,2,2.2,2.6
				c2.2,1.4,4.5,2.5,6.9,3.6c6,2.9,11.8,6,16.5,10.6c0.5,0.5,1,0.9,1.6,1.4s1.3,1,1.7,1.6c0.6,1.1,1,2.3,1.6,3.8
				c0.4-3.9,1.2-4.5,4.7-3.9c1.5,0.2,2.9,0.6,4.4,0.7c1.8,0.2,2.2-0.5,1.6-2.2c-0.6-1.5-1.4-2.9-2-4.5c-1.7-4.4-0.5-5.2,2.9-6
				c1.8-0.4,3.1-1.5,4.3-3.1c-0.6-0.2-1.1-0.3-1.6-0.4c-1.9-0.4-4-0.6-5.8-1.3c-5.2-1.8-9.1-5.3-11.7-10.2c-0.6-1.2-1.2-2.5-1.9-3.7
				c-0.5-0.9-1.1-0.8-1.4,0c-0.3,0.8-0.3,1.8-0.1,2.7c1,4.6,2.9,8.8,5.8,12.5C178.2,250.2,178.8,251.5,179.7,253z"/>
			<path d="M207.1,276.2c2.6,0.3,5.1,1.1,7.6,1.9c0.7,0.2,1.2,1.4,1.8,2.1c-0.8,0.2-1.7,0.6-2.5,0.5c-2.9-0.3-5.9-0.7-8.8-1
				c-3.2-0.3-6.3-0.7-9.1-2.3c-1.8-1-3.2-2.3-3.6-4.3c-0.1-0.5-0.2-1.2,0.6-1.7C193.6,270.8,195.2,275.9,207.1,276.2z"/>
			<path d="M184.2,276.3c-0.3-1,0-2.1,0.6-2.4s1.3,0.5,1.7,1.1c1.5,2.3,2.8,4.8,4.3,7.1c1.5,2.4,4.1,3.5,6.5,4.8
				c0.9,0.5,2.7,0.9,2.3,2.2c-0.3,1.2-2.1,0.7-3.2,0.4C194.7,288.9,187.4,286.1,184.2,276.3z"/>
		</g>
	</g>
</g>
</svg>
