<?xml version="1.0" encoding="utf-8"?>
<!-- Generator: Adobe Illustrator 21.1.0, SVG Export Plug-In . SVG Version: 6.00 Build 0)  -->
<svg version="1.1" id="圖層_1" xmlns="http://www.w3.org/2000/svg" xmlns:xlink="http://www.w3.org/1999/xlink" x="0px" y="0px"
	 viewBox="0 0 690 500" style="enable-background:new 0 0 690 500;" xml:space="preserve">
<style type="text/css">
	.st0{fill:#FFFFFF;}
	.st1{fill:#1A2E35;}
	.st2{fill:#E1E1E1;}
	.st3{fill:#F3C8B7;}
	.st4{fill:#F6F0E9;}
	.st5{fill:#AFAFB0;}
	.st6{fill:#848484;}
	.st7{fill:#95252D;}
	.st8{fill:#D1512D;}
</style>
<g>
	<g>
		<g>
			<g>
				<path class="st0" d="M420.9,52.3H540c4.7,0,8.5,2.2,8.5,4.9v69.1c0,2.7-3.8,4.9-8.5,4.9h-88.7c-8.1,4-23.6,12-23.6,12l-1.1-12
					H421c-4.7,0-8.5-2.2-8.5-4.9V57.3C412.4,54.5,416.2,52.3,420.9,52.3z"/>
			</g>
		</g>
		<g>
			<g>
				<g>
					<path class="st1" d="M420.9,52.3c0,0.1-1-0.1-2.7,0.3c-0.9,0.2-1.9,0.5-2.9,1c-1,0.5-1.9,1.3-2.4,2.3c-0.5,1-0.3,2.1-0.3,3.4
						c0,1.3,0,2.7,0,4.2c0,3,0,6.4,0.1,10.3c0,7.7,0.1,17.1,0.1,27.7c0,5.3,0,11,0,17c0,1.5,0,3,0,4.5c0,0.8,0,1.6,0,2.3
						c0,0.8-0.1,1.6,0.3,2.3c0.7,1.4,2.7,2.7,5.2,3.1c1.3,0.3,2.6,0.2,4,0.2s2.8,0,4.2,0h0.4v0.2c0.4,3.8,0.8,7.8,1.2,12l-0.6-0.2
						c7.5-3.8,15.5-7.9,23.6-12.1l0.1-0.1h0.2c23.5,0,48.8,0,75,0c4.8,0,9.6,0,14.3,0c2.3-0.1,4.4-0.8,5.8-1.8
						c0.7-0.5,1.2-1.1,1.5-1.7c0.3-0.6,0.3-1.3,0.3-2c0-5.5,0-10.8,0-16.1c0-10.5,0-20.6,0-30.3c0-4.8,0-9.6,0-14.2
						c0-2.3,0-4.5,0-6.8c0-0.6,0-1.1-0.1-1.6c-0.1-0.5-0.4-1-0.8-1.5c-0.8-0.9-2.2-1.7-3.8-2.1c-0.8-0.2-1.7-0.3-2.5-0.4
						c-0.9-0.1-1.8-0.1-2.7-0.1c-1.8,0-3.6,0-5.4,0c-3.6,0-7.1,0-10.5,0c-6.9,0-13.5,0-19.8,0c-25.2-0.1-45.6-0.1-59.7-0.1
						c-7,0-12.5-0.1-16.2-0.1c-1.8,0-3.2,0-4.2,0C421.4,52.3,420.9,52.3,420.9,52.3s0.5,0,1.4,0c1,0,2.4,0,4.2,0
						c3.7,0,9.2,0,16.2-0.1c14.1,0,34.5-0.1,59.7-0.1c6.3,0,12.9,0,19.8,0c3.4,0,7,0,10.5,0c1.8,0,3.6,0,5.4,0c0.9,0,1.8,0,2.8,0.1
						s1.9,0.2,2.8,0.5c1.8,0.5,3.2,1.3,4.1,2.3c0.5,0.5,0.8,1,0.9,1.6c0.1,0.6,0.1,1.2,0.1,1.7c0,2.2,0,4.5,0,6.8
						c0,4.6,0,9.3,0,14.2c0,9.7,0,19.8,0,30.3c0,5.3,0,10.6,0,16.1c0,0.6,0,1.4-0.3,2.1c-0.3,0.7-0.9,1.3-1.6,1.9
						c-1.5,1.2-3.9,1.9-6.4,2c-4.8,0.1-9.6,0-14.4,0c-26.2,0-51.5,0-75,0l0.3-0.1c-8.2,4.2-16.1,8.2-23.6,12l-0.6,0.3v-0.5
						c-0.4-4.2-0.8-8.2-1.1-12l0.4,0.2c-1.4,0-2.8,0-4.2,0s-2.9,0-4.2-0.3c-2.8-0.5-4.9-1.9-5.7-3.4c-0.4-0.8-0.4-1.6-0.4-2.4
						c0-0.8,0-1.6,0-2.3c0-1.5,0-3.1,0-4.5c0-6,0-11.7,0-17c0-10.7,0.1-20,0.1-27.7c0-3.8,0-7.3,0.1-10.3c0-1.5,0-2.9,0-4.2
						c0.1-1.3-0.2-2.4,0.4-3.5c0.5-1,1.5-1.8,2.5-2.3c1-0.5,2.1-0.8,3-1c0.9-0.2,1.6-0.2,2.1-0.2C420.7,52.3,420.9,52.3,420.9,52.3z
						"/>
				</g>
			</g>
		</g>
	</g>
</g>
<g>
	<g>
		<g>
			<g>
				<polygon class="st2" points="636.9,97.1 636.9,233.1 441.6,233.1 434.5,98 				"/>
			</g>
		</g>
	</g>
	<g>
		<g>
			<g>
				<rect x="434.5" y="98.1" class="st0" width="195.4" height="134.8"/>
			</g>
		</g>
		<g>
			<g>
				<path class="st2" d="M630.8,233.7H433.6V97.1h197.2V233.7z M435.4,231.9h193.5V99H435.4V231.9z"/>
			</g>
		</g>
	</g>
	<g>
		<g>
			<g>
				<g>
					<rect x="455.7" y="114.8" class="st0" width="153.1" height="101.3"/>
				</g>
			</g>
		</g>
		<g>
			<g>
				<g>
					<g>
						<path class="st2" d="M608.7,114.8c0,0-0.3,0-0.8,0s-1.2,0-2.2,0c-1.9,0-4.8,0-8.4,0.1c-7.4,0-18,0.1-31.5,0.1
							c-27,0.1-65.2,0.1-110.2,0.2l0.4-0.4c0,31,0,65.2,0,101.3l0,0l-0.5-0.5c57.7,0,111,0.1,153.1,0.1l-0.4,0.4
							c0.1-30.8,0.2-56.1,0.2-73.7c0-8.8,0.1-15.7,0.1-20.4c0-2.3,0-4.1,0-5.4C608.7,115.4,608.7,114.8,608.7,114.8s0,0.6,0,1.8
							s0,3,0,5.3c0,4.7,0.1,11.5,0.1,20.3c0,17.7,0.1,43,0.2,73.9v0.4h-0.4c-42.1,0-95.3,0.1-153.1,0.1H455v-0.5l0,0
							c0-36,0-70.3,0-101.3v-0.4h0.4c45.1,0.1,83.4,0.2,110.5,0.2c13.5,0.1,24.1,0.1,31.4,0.1c3.6,0,6.4,0,8.3,0.1
							c0.9,0,1.6,0,2.1,0C608.5,114.8,608.7,114.8,608.7,114.8z"/>
					</g>
				</g>
			</g>
		</g>
	</g>
	<g>
		<g>
			<g>
				<g>
					<path class="st2" d="M434.5,97.6c0.1-0.1,1.4,0.7,3.4,2.2c2,1.4,4.7,3.5,7.7,5.8c2.9,2.4,5.5,4.6,7.3,6.2
						c1.8,1.7,2.9,2.8,2.8,2.9c-0.2,0.2-4.9-3.7-10.7-8.4C439.1,101.7,434.3,97.9,434.5,97.6z"/>
				</g>
			</g>
		</g>
	</g>
	<g>
		<g>
			<g>
				<g>
					
						<ellipse transform="matrix(0.7841 -0.6206 0.6206 0.7841 67.656 407.3492)" class="st2" cx="619.3" cy="106.4" rx="13.5" ry="0.5"/>
				</g>
			</g>
		</g>
	</g>
	<g>
		<g>
			<g>
				<g>
					<path class="st0" d="M629.7,232.8c-7.3-5.9-14.5-11.8-21.8-17.7"/>
				</g>
			</g>
		</g>
		<g>
			<g>
				<g>
					<g>
						
							<ellipse transform="matrix(0.6297 -0.7769 0.7769 0.6297 55.1086 563.7615)" class="st2" cx="618.9" cy="224.1" rx="0.5" ry="14"/>
					</g>
				</g>
			</g>
		</g>
	</g>
	<g>
		<g>
			<g>
				<g>
					
						<ellipse transform="matrix(0.7843 -0.6203 0.6203 0.7843 -43.3048 324.4738)" class="st2" cx="445" cy="224.5" rx="13.4" ry="0.5"/>
				</g>
			</g>
		</g>
	</g>
	<g>
		<g>
			<g>
				<rect x="486.8" y="146.4" class="st2" width="96.3" height="33.9"/>
			</g>
		</g>
	</g>
</g>
<g id="栝鍣_1">
</g>
<g id="栝鍣_2">
</g>
<g>
	<path class="st3" d="M655.5,295.5l-110.1-4.4c0-0.2,0-0.3,0-0.5c0-0.1,0-0.1,0-0.2c0-0.1,0-0.3,0-0.4c0-0.1,0-0.2,0-0.2
		c0,0,0,0,0,0l0,0c0-0.1,0-0.2,0-0.2l0-1.1l0-0.1c0,0,0,0,0,0l0-0.1l0,0l0,0l0-0.1c0,0,0,0,0,0.1l0-0.3c0-0.1,0-0.2,0-0.2l0-0.3
		c0-0.2,0-0.4-0.1-0.7c0,0,0-0.1,0-0.1c0,0,0-0.1,0-0.1l0-0.1c0,0,0,0,0-0.1l0-0.1c-0.1-0.7-0.2-1.3-0.4-1.8c0-0.1-0.1-0.3-0.1-0.4
		c0-0.1,0-0.2-0.1-0.2c0-0.1,0-0.1,0-0.2l0,0l0,0c0,0,0,0,0-0.1l-0.1-0.2l0,0c-0.1-0.2-0.1-0.4-0.2-0.6c-0.1-0.2-0.1-0.3-0.2-0.4
		c-0.1-0.2-0.2-0.4-0.3-0.6l0-0.1c0,0,0-0.1-0.1-0.1c-0.1-0.1-0.1-0.2-0.2-0.3c-0.2-0.4-0.4-0.7-0.5-0.9c0,0,0,0,0-0.1
		c-0.1-0.1-0.1-0.2-0.2-0.2c-0.1-0.1-0.1-0.2-0.2-0.3l-0.2-0.3c0,0-0.1-0.1-0.1-0.1c-0.2-0.2-0.3-0.4-0.5-0.6
		c-0.2-0.3-0.5-0.6-0.7-0.8c0,0,0,0-0.1-0.1l0,0c-0.3-0.3-0.5-0.6-0.8-0.8c-0.2-0.2-0.4-0.4-0.7-0.6c-0.1,0-0.1-0.1-0.2-0.1
		c-0.1-0.1-0.2-0.2-0.3-0.3c0,0,0,0,0,0c-0.1-0.1-0.3-0.2-0.4-0.4c-0.9-0.8-2-1.6-3.3-2.3c-39.2-22.6-78.3-45.2-117.5-67.8
		c-7-4-17-5.2-25.8-3.5l-42.5-48.3l-0.7-0.9l-26.8-30.4c-2.6-2.9-6.9-3.6-10.2-1.7L73.7,259.4c-4.5,2.6-5.4,8.6-2,12.5l76.9,87.4
		c0.8,0.9,1.7,1.5,2.7,2c0.5,0.6,1.1,1.3,1.9,2c0.4,0.4,1,0.9,1.5,1.3c0.4,0.3,0.9,0.6,1.4,0.9c0.5,0.3,0.9,0.6,1.3,0.8c0,0,0,0,0,0
		L169,373l11.8,6.8l11.8,6.8l11.8,6.8l11.8,6.8l11.8,6.8l11.8,6.8l11.8,6.8l11.8,6.8l11.8,6.8c0.1,0.1,0.3,0.2,0.4,0.2
		c0.1,0.1,0.3,0.1,0.4,0.2c0,0,0,0,0.1,0c0.2,0.1,0.4,0.2,0.6,0.3c0.1,0,0.2,0.1,0.2,0.1l0.3,0.1c0.4,0.2,0.7,0.3,1.1,0.5l0.3,0.1
		c0.2,0.1,0.4,0.2,0.6,0.3c0.3,0.1,0.6,0.2,1,0.4c0.1,0,0.2,0.1,0.3,0.1l0.1,0c0.6,0.2,1.1,0.4,1.5,0.5l0.1,0c0.1,0,0.2,0.1,0.4,0.1
		c0.6,0.2,1,0.3,1.4,0.4c0,0,0.1,0,0.1,0c0,0,0,0,0.1,0c0,0,0.1,0,0.1,0c4.7,1.1,10.1,1.5,15.5,0.7l116.8,4.6c0.8,0,1.6-0.2,2.3-0.6
		l130.9-76.1l0.1,0l12.8-7.4l-0.1,0l44.6-25.9l0.2,0l12.8-7.4l-0.2,0l37.9-22C661.3,301.4,659.8,295.7,655.5,295.5z"/>
	<g>
		<path class="st4" d="M499.6,255.5L260.7,394.3c-3.7,2.2-2.3,7.9,2,8.1l120.9,4.8c0.8,0,1.6-0.2,2.3-0.6l238.9-138.9
			c3.7-2.2,2.3-7.9-2-8.1L502,254.9C501.1,254.9,500.3,255.1,499.6,255.5z"/>
		<path class="st4" d="M279.5,85L41,223.6c-4.5,2.6-5.4,8.6-2,12.5l76.9,87.4c2.6,2.9,6.9,3.6,10.2,1.7l238.5-138.6
			c4.5-2.6,5.4-8.6,2-12.5l-76.9-87.4C287.2,83.7,282.9,83,279.5,85z"/>
		<g>
			<polygon class="st3" points="460.9,363.1 473.7,355.7 336,350.6 323.2,358 			"/>
			<polygon class="st3" points="516.9,330.6 529.6,323.2 392,318.1 379.2,325.5 			"/>
			<path class="st3" d="M112.2,183.7l78.4,90.2c0.8,0.9,1.9,1.4,3,1.4c0.9,0,1.8-0.3,2.6-1c1.6-1.4,1.8-3.9,0.4-5.6l-78.2-90
				l-6.8,3.9C111.7,183,111.9,183.3,112.2,183.7z"/>
			<path class="st3" d="M168.2,151.2l78.4,90.2c0.8,0.9,1.9,1.4,3,1.4c0.9,0,1.8-0.3,2.6-1c1.6-1.4,1.8-3.9,0.4-5.6l-78.2-90
				l-6.8,3.9C167.7,150.5,167.9,150.9,168.2,151.2z"/>
			<polygon class="st3" points="574.3,297.3 587.1,289.8 449.4,284.8 436.6,292.2 			"/>
			<path class="st3" d="M225.6,117.8l78.4,90.2c0.8,0.9,1.9,1.4,3,1.4c0.9,0,1.8-0.3,2.6-1c1.6-1.4,1.8-3.9,0.4-5.6l-78.2-90
				l-6.8,3.9C225.1,117.2,225.3,117.5,225.6,117.8z"/>
			<polygon class="st3" points="63.2,263.6 317.3,117.9 312,111.9 57.9,257.5 			"/>
		</g>
		<g>
			<g>
				<path class="st5" d="M512.9,252.6C512.9,252.6,512.9,252.5,512.9,252.6L512.9,252.6L512.9,252.6l0-0.1l0,0l0-0.1c0,0,0,0,0,0.1
					l0-0.3c0-0.1,0-0.2,0-0.2l0-0.3c0-0.2,0-0.4-0.1-0.7c0,0,0-0.1,0-0.1c0,0,0-0.1,0-0.1l0-0.1c0,0,0,0,0-0.1l0-0.1
					c-0.1-0.7-0.2-1.3-0.4-1.8c0-0.1-0.1-0.3-0.1-0.4c0-0.1,0-0.2-0.1-0.2c0-0.1,0-0.1,0-0.2l0,0l0,0c0,0,0,0,0-0.1l-0.1-0.2l0,0
					c-0.1-0.2-0.1-0.4-0.2-0.6c-0.1-0.2-0.1-0.3-0.2-0.4c-0.1-0.2-0.2-0.4-0.3-0.6l0-0.1c0,0,0-0.1-0.1-0.1
					c-0.1-0.1-0.1-0.2-0.2-0.3c-0.2-0.4-0.4-0.7-0.5-0.9c0,0,0,0,0-0.1c-0.1-0.1-0.1-0.2-0.2-0.2c-0.1-0.1-0.1-0.2-0.2-0.3l-0.2-0.3
					c0,0-0.1-0.1-0.1-0.1c-0.2-0.2-0.3-0.4-0.5-0.6c-0.2-0.3-0.5-0.6-0.7-0.8c0,0,0,0-0.1-0.1l0,0c-0.3-0.3-0.5-0.6-0.8-0.8
					c-0.2-0.2-0.4-0.4-0.7-0.6c-0.1,0-0.1-0.1-0.2-0.1c-0.1-0.1-0.2-0.2-0.3-0.3c0,0,0,0,0,0c-0.2-0.2-0.5-0.4-0.7-0.6
					c0,0-0.1-0.1-0.1-0.1c-0.3-0.2-0.5-0.4-0.8-0.6c-0.1-0.1-0.2-0.1-0.3-0.2c0,0,0.1,0,0.1,0.1l-0.1-0.1c0,0,0,0,0,0c0,0,0,0,0,0
					l-0.3-0.2c-0.3-0.2-0.7-0.4-1-0.6c0.4,0.2,0.8,0.5,1.2,0.8c-0.4-0.2-0.9-0.5-1.2-0.8c0,0,0,0,0,0c0,0,0,0,0,0c0,0,0,0,0,0
					c0,0,0,0,0,0c0,0,0,0,0,0c0,0-0.1,0-0.1-0.1c0,0,0,0,0,0c0,0-0.1,0-0.1-0.1c0,0,0,0,0,0c0,0,0,0,0,0c0,0,0,0,0,0c0,0,0,0,0,0
					c0,0,0,0,0,0c0,0,0,0,0,0c0,0,0,0,0,0c0,0,0,0,0,0c0,0,0,0,0,0c0,0,0,0,0,0c0,0,0,0,0,0c0,0,0,0,0,0c0,0,0,0,0,0c0,0,0,0-0.1,0
					c0,0,0,0,0,0c0,0,0,0,0,0c0,0,0,0,0,0c0,0,0,0-0.1,0c0,0,0,0,0,0c0,0,0,0,0,0c0,0,0,0,0,0c0,0-0.1,0-0.1,0c0,0,0,0,0,0
					c0,0,0,0,0,0c0,0-0.1,0-0.1,0c0,0,0,0-0.1,0c0,0,0,0,0,0c-0.1,0-0.1,0.1-0.2,0.1c0.3,0.2,0.6,0.4,0.9,0.5
					c0.6,0.4,1.2,0.8,1.8,1.3c0.2,0.2,0.4,0.3,0.6,0.5c0.8,0.7,1.6,1.5,2.2,2.3c1,1.5,2,3.6,2,5.9c-0.1,2.5-1.2,4.9-3.4,7.1
					c0,0,0,0-0.1,0.1c-0.1,0.1-0.2,0.2-0.4,0.3c-0.8,0.7-1.8,1.4-2.9,2.2c-0.2,0.1-0.4,0.2-0.6,0.4L278.9,388.4
					c-0.5,0.3-1,0.5-1.5,0.8c-1.3,0.6-3,1.3-5.1,2c-4.2,1.2-8.8,1.7-13.4,1.5c-4-0.3-8.4-1.1-13.1-3c-0.9-0.4-1.7-0.8-2.5-1.2
					l-117.5-67.8c-7-4.1-9.1-9.9-6.1-15c0-0.1,0.1-0.2,0.1-0.2c0-0.1,0.1-0.1,0.1-0.2c0.9-1.3,2.1-2.5,3.5-3.6
					c0.7-0.5,1.4-1,2.2-1.5c0,0,0,0,0,0c0,0,0,0,0,0c0,0,0,0-0.1,0c0,0,0,0,0,0c0,0,0,0-0.1,0c0,0,0,0,0,0c0,0,0,0-0.1,0
					c0,0,0,0,0,0c0,0,0,0-0.1,0c0,0,0,0,0,0c0,0,0,0,0,0c0,0,0,0,0,0c0,0,0,0,0,0c0,0,0,0,0,0c0,0,0,0,0,0c0,0,0,0,0,0c0,0,0,0,0,0
					l0,0c0,0,0,0,0,0c0,0,0,0,0,0c0,0,0,0,0,0l0,0c0,0,0,0,0,0c0,0,0,0,0,0c0,0,0,0,0,0c0,0,0,0,0,0l0,0c0,0,0,0,0,0c0,0,0,0,0,0
					c0,0,0,0-0.1,0c0,0,0,0,0,0c0,0,0,0,0,0c0,0,0,0,0,0c0,0,0,0,0,0c0,0,0,0,0,0l0,0c0,0,0,0,0,0c0,0,0,0,0,0c0,0,0,0,0,0
					c0,0,0,0,0,0c0,0,0,0,0,0l0,0c0,0,0,0,0,0c0,0,0,0,0,0c0,0,0,0,0,0c0,0,0,0,0,0c0,0,0,0,0,0c0,0,0,0,0,0c0,0,0,0,0,0
					c0,0,0,0,0,0c0,0,0,0,0,0c0,0,0,0,0,0c0,0,0,0,0,0c0,0,0,0,0,0c0,0,0,0,0,0c0,0,0,0,0,0c0,0,0,0,0,0c0,0,0,0,0,0c0,0,0,0,0,0
					c0,0,0,0,0,0c0,0,0,0,0,0c-0.1,0-0.1,0.1-0.2,0.1c-0.2,0.1-0.4,0.2-0.5,0.3c-0.2,0.1-0.4,0.2-0.5,0.3c-0.1,0.1-0.2,0.1-0.3,0.2
					c0,0,0,0-0.1,0c-0.3,0.2-0.5,0.4-0.8,0.5c-0.2,0.1-0.4,0.3-0.6,0.5c-0.2,0.1-0.3,0.3-0.5,0.4l-1.1,1c-0.3,0.3-0.8,0.8-1.4,1.5
					c0,0,0,0,0,0l0,0c-0.3,0.4-0.7,0.9-0.9,1.3c-0.1,0.2-0.3,0.4-0.4,0.7c0,0-0.1,0.1-0.1,0.1l-0.1,0.1c-0.1,0.2-0.3,0.5-0.4,0.7
					l0,0.1c0,0,0,0,0,0c-0.3,0.5-0.5,1.1-0.7,1.8l0,0.1c0,0,0,0,0,0.1c0,0,0,0.1,0,0.1c0,0.1-0.1,0.2-0.1,0.3c0,0,0,0,0,0
					c0,0.1-0.1,0.3-0.1,0.4c0,0,0,0.1,0,0.1l0,0.1c-0.1,0.5-0.2,0.8-0.2,0.9c0,0.1,0,0.1,0,0.2c0,0.2-0.1,0.4-0.1,0.6l0,0.2
					c0,0.2,0,0.4-0.1,0.6l0,0.1l0,0.2c0,0.3,0,0.6,0,0.8l0,1.1c0,0.6,0,1.1,0.1,1.6c0,0,0,0,0,0.1c0.1,0.6,0.1,1.1,0.2,1.5
					c0,0,0,0,0,0c0.1,0.3,0.1,0.6,0.2,0.8c0,0.1,0,0.2,0.1,0.3c0.1,0.3,0.2,0.6,0.3,0.9c0,0.1,0.1,0.2,0.1,0.3
					c0.3,0.7,0.6,1.3,0.9,1.9c0.1,0.2,0.2,0.4,0.3,0.6c0.1,0.2,0.2,0.4,0.3,0.5c0.1,0.2,0.3,0.4,0.4,0.6c0,0,0.1,0.1,0.1,0.1
					c0.6,0.8,1.2,1.6,2.2,2.5c0.4,0.4,1,0.9,1.5,1.3c0.4,0.3,0.9,0.6,1.4,0.9c0.5,0.3,0.9,0.6,1.3,0.8c-0.1,0-0.2-0.1-0.2-0.2
					c0.1,0.1,0.2,0.1,0.2,0.2l11.8,6.8l11.8,6.8l11.8,6.8l11.8,6.8l11.8,6.8l11.8,6.8l11.8,6.8l11.8,6.8l11.8,6.8l11.8,6.8h0
					c0.1,0.1,0.3,0.2,0.4,0.2c0.1,0.1,0.3,0.1,0.4,0.2c0,0,0,0,0.1,0c0.2,0.1,0.4,0.2,0.6,0.3c0.1,0,0.2,0.1,0.2,0.1l0.3,0.1
					c0.4,0.2,0.7,0.3,1.1,0.5l0.3,0.1c0.2,0.1,0.4,0.2,0.6,0.3c0.3,0.1,0.6,0.2,1,0.4c0.1,0,0.2,0.1,0.3,0.1l0.1,0
					c0.6,0.2,1.1,0.4,1.5,0.5l0.1,0c0.1,0,0.2,0.1,0.4,0.1c0.6,0.2,1,0.3,1.4,0.4c0,0,0.1,0,0.1,0c0,0,0,0,0.1,0c0,0,0.1,0,0.1,0
					c5.3,1.3,11.4,1.6,17.6,0.4c0.9-0.2,1.6-0.3,2.2-0.5c0.6-0.1,1.4-0.3,2-0.5c0,0,0,0,0.1,0c0.6-0.2,1.2-0.4,1.7-0.6l1.7-0.7
					c0.2-0.1,0.5-0.2,0.8-0.3c0.3-0.1,0.5-0.2,0.8-0.4c0.1-0.1,0.2-0.1,0.3-0.2c0.5-0.2,1.1-0.6,1.6-0.8l0,0l22.3-13l22.3-13
					l22.3-13l22.3-13l22.3-13l22.3-13l22.3-13l22.3-13l22.3-13l22.3-13l0,0l0,0c0.6-0.4,1.2-0.7,1.7-1.1c0,0,0,0,0.1,0l0,0
					c0.4-0.3,0.8-0.6,1.2-0.9l0,0c0.4-0.3,0.6-0.5,0.9-0.8c0,0,0.1-0.1,0.1-0.1c0.3-0.2,0.5-0.5,0.8-0.8c0,0,0.1-0.1,0.1-0.1
					l0.1-0.1c0.2-0.3,0.5-0.5,0.7-0.8l0-0.1c0,0,0,0,0,0c0.4-0.4,0.7-0.9,1-1.3c0.1-0.2,0.3-0.4,0.4-0.7l0.1-0.2
					c0.1-0.1,0.1-0.3,0.2-0.4c0,0,0,0,0,0c0-0.1,0.1-0.1,0.1-0.2c0,0,0,0.1-0.1,0.1c0.1-0.2,0.2-0.3,0.3-0.5c0,0,0-0.1,0-0.1l0-0.1
					c0.1-0.2,0.2-0.5,0.3-0.8l0,0l0-0.1c0.1-0.3,0.2-0.6,0.3-0.9c0,0,0-0.1,0-0.1l0-0.1c0,0,0,0,0,0c0.1-0.2,0.1-0.5,0.2-0.7l0,0
					c0,0,0,0,0-0.1c0.1-0.5,0.2-0.9,0.2-1c0-0.2,0-0.3,0.1-0.4l0-0.3c0,0.1,0,0.2,0,0.3c0,0,0,0,0-0.1l0.1-0.3c0,0,0-0.1,0-0.1
					c0-0.2,0-0.4,0.1-0.7c0-0.1,0-0.1,0-0.2c0-0.1,0-0.3,0-0.4c0-0.1,0-0.2,0-0.2v0l0,0c0-0.1,0-0.2,0-0.2l0-1.1L512.9,252.6z
					 M281.1,395.8L281.1,395.8C281.1,395.7,281.1,395.7,281.1,395.8L281.1,395.8C281.1,395.7,281.1,395.7,281.1,395.8z M281.1,395.5
					L281.1,395.5C281.1,395.5,281.1,395.5,281.1,395.5L281.1,395.5C281.1,395.5,281.1,395.5,281.1,395.5z M281.1,395.2L281.1,395.2
					C281.1,395.2,281.1,395.2,281.1,395.2C281.1,395.2,281.1,395.2,281.1,395.2z M123.5,328c0,0.4,0.1,0.8,0.2,1.2
					C123.6,328.8,123.6,328.4,123.5,328z M241,395.2c0,1.3,0.3,2.4,0.8,2.9C241.3,397.6,241,396.6,241,395.2z M241.9,398.2
					c0,0,0.1,0.1,0.1,0.1C242,398.2,241.9,398.2,241.9,398.2z"/>
				<g>
					<path class="st6" d="M503,237.5c9.8,5.7,9.9,14.9,0.1,20.6c-74.5,43.3-151.2,87.8-225.7,131.1c-9.8,5.7-24.9,4.5-34.7-1.2
						c-39.2-22.6-78.3-45.2-117.5-67.8c-9.8-5.7-9.9-14.9-0.1-20.6C199.5,256.3,275.5,213,350,169.7c9.8-5.7,25.7-5.7,35.6,0
						C424.7,192.3,463.8,214.9,503,237.5z"/>
				</g>
				<path class="st4" d="M479.6,236.4l-93.2-53.8c-11.1-6.4-29.1-6.4-40.1,0l-169.8,98.7c-11,6.4-11,16.8,0.1,23.2l93.2,53.8
					c11.1,6.4,29.1,6.4,40.1,0l169.8-98.7C490.7,253.2,490.7,242.8,479.6,236.4z"/>
			</g>
			<path class="st5" d="M218.6,348.3l-26-15c-1.5-0.9-4-0.9-5.6,0c-1.5,0.9-1.5,2.3,0,3.2l26,15c1.5,0.9,4,0.9,5.6,0
				C220.2,350.7,220.2,349.2,218.6,348.3z"/>
		</g>
		<g>
			<path class="st3" d="M330.8,346.2c-0.3-0.6-0.8-1.1-1.4-1.4L197.4,269l-7.3,4.3c0.3,0.6,0.8,1.1,1.4,1.4l131.9,75.7L330.8,346.2z
				"/>
			<path class="st3" d="M386.7,313.7c-0.3-0.6-0.8-1.1-1.4-1.4l-131.9-75.7l-7.3,4.3c0.3,0.6,0.8,1.1,1.4,1.4L379.4,318L386.7,313.7
				z"/>
			<path class="st3" d="M444.2,280.4c-0.3-0.6-0.8-1.1-1.4-1.4l-131.9-75.7l-7.3,4.3c0.3,0.6,0.8,1.1,1.4,1.4l131.9,75.7
				L444.2,280.4z"/>
			<polygon class="st3" points="253.5,348.9 464.7,227.8 456.8,223.3 245.6,344.3 			"/>
		</g>
		<g>
			<path class="st7" d="M466.6,144.2c0-0.2,0-0.4,0-0.6c0-0.3,0-0.7,0-1c0-0.2,0-0.4,0-0.6c0-0.2,0-0.5,0-0.7c0-0.3,0-0.6,0-0.9
				c0-0.2,0-0.3,0-0.5c0-0.3,0-0.6,0-0.9c0-0.3,0-0.6,0-0.9c0-0.1,0-0.2,0-0.3c0-0.4-0.1-0.9-0.1-1.3c0-0.2,0-0.4-0.1-0.7
				c0,0,0-0.1,0-0.1c-0.1-0.7-0.1-1.4-0.2-2.1c0,0,0,0,0-0.1c0-0.1,0-0.3-0.1-0.4c-0.1-0.5-0.1-1.1-0.2-1.6c0-0.1,0-0.2,0-0.3
				c0-0.3-0.1-0.5-0.1-0.8c-0.1-0.3-0.1-0.7-0.2-1c0-0.2-0.1-0.4-0.1-0.5c-0.1-0.3-0.1-0.6-0.2-0.9c0-0.2-0.1-0.5-0.1-0.7
				c-0.1-0.3-0.1-0.5-0.2-0.8c-0.1-0.3-0.1-0.6-0.2-0.9c0-0.2-0.1-0.3-0.1-0.5c-0.1-0.4-0.2-0.8-0.3-1.2c-0.1-0.3-0.1-0.5-0.2-0.8
				c0-0.1,0-0.2-0.1-0.2c-0.2-0.7-0.4-1.4-0.6-2.1c0,0,0-0.1,0-0.1c0,0,0,0,0,0c-0.2-0.7-0.5-1.4-0.7-2.2c0-0.1-0.1-0.2-0.1-0.3
				c-0.1-0.2-0.2-0.5-0.3-0.7c-0.1-0.4-0.3-0.8-0.4-1.2c-0.1-0.2-0.2-0.4-0.2-0.6c-0.1-0.3-0.2-0.6-0.3-0.8
				c-0.1-0.2-0.2-0.5-0.3-0.7c-0.1-0.4-0.3-0.7-0.4-1.1c-0.1-0.2-0.2-0.5-0.3-0.7c0-0.1-0.1-0.2-0.1-0.3c-0.3-0.7-0.6-1.4-0.9-2.1
				c0,0,0,0,0-0.1c-0.1-0.1-0.1-0.2-0.2-0.4c-0.3-0.6-0.5-1.2-0.8-1.8c-0.1-0.2-0.2-0.5-0.3-0.7c-0.3-0.6-0.6-1.2-0.8-1.7
				c-0.2-0.4-0.4-0.7-0.6-1.1c-0.2-0.4-0.4-0.7-0.5-1.1c-0.1-0.2-0.2-0.4-0.3-0.6c-0.2-0.3-0.4-0.7-0.6-1c-0.4-0.7-0.8-1.5-1.2-2.2
				c-0.1-0.2-0.2-0.4-0.3-0.6c-0.2-0.3-0.4-0.7-0.6-1c-0.3-0.6-0.7-1.1-1-1.6c-0.3-0.6-0.7-1.1-1-1.6c-0.3-0.5-0.7-1.1-1-1.6
				c-0.1-0.2-0.3-0.4-0.4-0.6c-0.2-0.2-0.3-0.5-0.5-0.7c-0.6-0.9-1.2-1.8-1.8-2.6c-0.2-0.2-0.3-0.5-0.5-0.7
				c-0.1-0.2-0.3-0.3-0.4-0.5c-0.3-0.4-0.6-0.8-0.9-1.1c-0.3-0.3-0.5-0.7-0.8-1c-0.2-0.3-0.4-0.5-0.7-0.8c-0.2-0.3-0.5-0.6-0.7-0.9
				c-0.2-0.2-0.3-0.4-0.5-0.6c-0.4-0.5-0.8-1-1.2-1.4c-0.2-0.2-0.3-0.4-0.5-0.6c-0.1-0.1-0.1-0.1-0.2-0.2c-0.6-0.7-1.3-1.4-1.9-2.1
				c-0.1-0.1-0.1-0.1-0.2-0.2c-0.2-0.2-0.4-0.4-0.6-0.6c-0.4-0.4-0.8-0.9-1.2-1.3c-0.2-0.2-0.4-0.3-0.5-0.5
				c-0.3-0.3-0.6-0.5-0.8-0.8c-0.2-0.2-0.5-0.5-0.7-0.7c-0.3-0.3-0.6-0.5-0.9-0.8c-0.3-0.3-0.6-0.5-0.8-0.8
				c-0.1-0.1-0.3-0.3-0.4-0.4c-0.5-0.4-1-0.8-1.5-1.3c-0.2-0.2-0.4-0.3-0.6-0.5c0,0-0.1-0.1-0.1-0.1c-0.7-0.6-1.4-1.2-2.2-1.8
				c-0.1,0-0.1-0.1-0.2-0.1c-0.2-0.1-0.4-0.3-0.6-0.4c-0.5-0.4-0.9-0.7-1.4-1c-0.2-0.1-0.4-0.3-0.6-0.4c-0.3-0.2-0.5-0.4-0.8-0.5
				c-0.2-0.2-0.5-0.3-0.7-0.5c-0.4-0.3-0.8-0.5-1.2-0.8c-0.2-0.1-0.4-0.2-0.6-0.4c-0.1,0-0.1-0.1-0.2-0.1c-0.7-0.4-1.3-0.8-2-1.2
				c-0.2-0.1-0.3-0.2-0.5-0.3c-0.5-0.3-1-0.5-1.4-0.8c-0.2-0.1-0.4-0.2-0.6-0.3c-0.2-0.1-0.5-0.3-0.7-0.4c-0.2-0.1-0.4-0.2-0.5-0.3
				c-0.4-0.2-0.7-0.3-1.1-0.5c-0.2-0.1-0.4-0.2-0.6-0.3c-0.1,0-0.1-0.1-0.2-0.1c-0.6-0.3-1.3-0.5-1.9-0.8c0,0-0.1,0-0.1,0
				c-0.1-0.1-0.3-0.1-0.4-0.1c-0.5-0.2-0.9-0.4-1.4-0.5c-0.1,0-0.2-0.1-0.3-0.1c-0.3-0.1-0.5-0.2-0.8-0.2c-0.3-0.1-0.6-0.2-0.8-0.3
				c-0.2-0.1-0.4-0.1-0.6-0.2c-0.3-0.1-0.6-0.2-0.8-0.2c-0.2,0-0.4-0.1-0.6-0.2c-0.3-0.1-0.5-0.1-0.8-0.2c-0.3-0.1-0.6-0.1-0.9-0.2
				c-0.1,0-0.3-0.1-0.4-0.1c-0.3-0.1-0.6-0.1-0.9-0.1c-0.3-0.1-0.6-0.1-0.9-0.2c-0.1,0-0.2,0-0.3,0c-0.3,0-0.6-0.1-0.9-0.1
				c-0.4,0-0.7-0.1-1.1-0.1c-0.1,0-0.2,0-0.3,0c-0.2,0-0.5,0-0.7,0c-0.4,0-0.9,0-1.3,0c-0.1,0-0.2,0-0.3,0c-0.5,0-0.9,0-1.4,0
				c-0.1,0-0.1,0-0.2,0c-0.3,0-0.6,0-0.9,0.1c-0.2,0-0.5,0.1-0.7,0.1c-0.2,0-0.3,0-0.5,0.1c-0.6,0.1-1.1,0.2-1.7,0.3
				c0,0-0.1,0-0.1,0c-0.2,0-0.4,0.1-0.6,0.1c-0.4,0.1-0.8,0.2-1.3,0.3c-0.2,0.1-0.5,0.1-0.7,0.2c-0.3,0.1-0.6,0.2-0.8,0.3
				c-0.1,0-0.1,0.1-0.2,0.1c-0.4,0.2-0.9,0.3-1.3,0.5c-0.2,0.1-0.4,0.2-0.6,0.3c-0.6,0.3-1.2,0.6-1.8,1l-19.1,11.1
				c0.6-0.3,1.2-0.7,1.8-1c0.2-0.1,0.4-0.2,0.6-0.3c0.4-0.2,0.9-0.4,1.3-0.5c0.3-0.1,0.7-0.2,1-0.3c0.2-0.1,0.5-0.2,0.7-0.2
				c0.4-0.1,0.8-0.2,1.3-0.3c0.2,0,0.4-0.1,0.6-0.1c0.6-0.1,1.2-0.2,1.7-0.3c0.1,0,0.3,0,0.5-0.1c0.5-0.1,1.1-0.1,1.6-0.1
				c0.1,0,0.1,0,0.2,0c0.6,0,1.1,0,1.7,0c0.4,0,0.9,0,1.3,0c0.3,0,0.6,0,1,0c0.4,0,0.7,0.1,1.1,0.1c0.4,0,0.7,0.1,1.1,0.1
				c0.3,0,0.6,0.1,0.9,0.2c0.4,0.1,0.8,0.1,1.3,0.2c0.3,0.1,0.6,0.1,0.9,0.2c0.4,0.1,0.9,0.2,1.3,0.3c0.3,0.1,0.6,0.2,0.8,0.2
				c0.5,0.1,0.9,0.3,1.4,0.4c0.3,0.1,0.5,0.2,0.8,0.2c0.6,0.2,1.2,0.4,1.8,0.6c0.1,0.1,0.3,0.1,0.4,0.1c0.7,0.3,1.4,0.6,2.2,0.9
				c0.2,0.1,0.4,0.2,0.6,0.3c0.5,0.3,1.1,0.5,1.6,0.8c0.2,0.1,0.5,0.2,0.7,0.4c0.7,0.4,1.4,0.7,2,1.1c0.9,0.5,1.8,1,2.6,1.6
				c0.2,0.1,0.4,0.2,0.6,0.4c0.7,0.4,1.3,0.9,1.9,1.3c0.3,0.2,0.5,0.4,0.8,0.5c0.6,0.5,1.3,0.9,1.9,1.4c0.2,0.1,0.4,0.3,0.6,0.4
				c0.8,0.6,1.6,1.3,2.5,2c0.2,0.2,0.4,0.3,0.6,0.5c0.6,0.5,1.3,1.1,1.9,1.7c0.3,0.3,0.6,0.5,0.8,0.8c0.5,0.5,1.1,1,1.6,1.5
				c0.3,0.3,0.6,0.5,0.8,0.8c0.6,0.6,1.2,1.2,1.7,1.8c0.2,0.2,0.4,0.4,0.6,0.6c0.8,0.8,1.5,1.6,2.2,2.5c0.2,0.2,0.3,0.4,0.5,0.6
				c0.6,0.7,1.1,1.3,1.7,2c0.2,0.3,0.5,0.6,0.7,0.9c0.5,0.6,0.9,1.2,1.4,1.8c0.3,0.4,0.6,0.7,0.9,1.1c0.3,0.4,0.6,0.8,0.9,1.3
				c0.6,0.9,1.2,1.7,1.8,2.6c0.3,0.4,0.6,0.9,0.9,1.3c0.4,0.5,0.7,1.1,1,1.6c0.4,0.5,0.7,1.1,1,1.7c0.3,0.5,0.7,1.1,1,1.6
				c0.3,0.5,0.6,1.1,1,1.6c0.4,0.7,0.8,1.5,1.2,2.2c0.3,0.5,0.6,1.1,0.9,1.6c0.2,0.3,0.4,0.7,0.5,1.1c0.5,0.9,1,1.9,1.4,2.9
				c0.4,0.8,0.8,1.7,1.1,2.5c0.1,0.1,0.1,0.2,0.2,0.4c0.4,0.8,0.7,1.7,1.1,2.5c0.1,0.2,0.2,0.5,0.3,0.7c0.2,0.6,0.5,1.2,0.7,1.8
				c0.1,0.3,0.2,0.6,0.3,0.8c0.2,0.6,0.4,1.2,0.6,1.8c0.1,0.2,0.2,0.5,0.3,0.7c0.3,0.8,0.5,1.6,0.8,2.5c0,0,0,0.1,0,0.1
				c0.2,0.8,0.5,1.6,0.7,2.4c0.1,0.3,0.1,0.5,0.2,0.8c0.1,0.5,0.3,1.1,0.4,1.6c0.1,0.3,0.1,0.6,0.2,0.9c0.1,0.5,0.2,1,0.3,1.5
				c0.1,0.3,0.1,0.6,0.2,0.9c0.1,0.5,0.2,1,0.3,1.6c0,0.3,0.1,0.5,0.1,0.8c0.1,0.6,0.2,1.3,0.3,1.9c0,0.1,0,0.3,0.1,0.4
				c0.1,0.8,0.2,1.5,0.3,2.3c0,0.2,0,0.4,0.1,0.7c0,0.5,0.1,1.1,0.1,1.6c0,0.3,0,0.6,0,0.9c0,0.5,0,0.9,0,1.4c0,0.3,0,0.6,0,0.9
				c0,0.4,0,0.8,0,1.3c0,0.3,0,0.7,0,1c0,0.4,0,0.8-0.1,1.2c0,0.4,0,0.7-0.1,1.1c0,0.6-0.1,1.2-0.1,1.8c-0.1,1-0.2,1.9-0.4,2.9
				c0,0.2,0,0.3-0.1,0.5c-0.2,1-0.4,2-0.6,2.9c-0.1,0.4-0.2,0.7-0.3,1.1c-0.2,0.7-0.3,1.3-0.5,2c0,0.1-0.1,0.3-0.1,0.4
				c-0.3,0.9-0.6,1.8-0.9,2.7c-0.4,1.1-0.9,2.1-1.3,3.2c-0.1,0.3-0.3,0.6-0.4,0.9c-0.3,0.7-0.7,1.5-1,2.2c-0.2,0.4-0.4,0.7-0.5,1.1
				c-0.4,0.7-0.8,1.5-1.2,2.2c-0.1,0.3-0.3,0.5-0.4,0.8c-0.5,1-1.1,1.9-1.7,2.9c-0.1,0.2-0.2,0.4-0.3,0.5c-0.5,0.8-0.9,1.6-1.4,2.4
				c-0.2,0.3-0.4,0.7-0.6,1c-0.4,0.6-0.8,1.3-1.2,1.9c-0.3,0.5-0.7,1-1,1.6c-0.4,0.6-0.8,1.3-1.2,1.9c-0.6,1-1.2,1.9-1.8,2.9
				c-1.3,2.2-2.7,4.3-4,6.5c-0.1,0.1-0.1,0.2-0.2,0.2c-1.8,2.8-3.6,5.5-5.4,8.3c-0.5,0.7-0.9,1.4-1.4,2.1c-1.8,2.7-3.6,5.4-5.4,8.1
				c-2.9,4.3-5.7,8.5-8.6,12.7c-0.3,0.5-0.7,0.8-1,1.1c-0.1,0.1-0.2,0.2-0.4,0.2l0,0c0,0,0,0,0,0l19.1-11.1c0.5-0.3,1-0.7,1.4-1.4
				c2.9-4.2,5.8-8.5,8.6-12.7c1.8-2.7,3.6-5.4,5.4-8.1c0.5-0.7,0.9-1.4,1.4-2.1c1.8-2.7,3.6-5.5,5.3-8.3c0-0.1,0.1-0.1,0.1-0.2
				c0,0,0,0,0,0c1.4-2.1,2.7-4.3,4-6.5c0.6-1,1.2-1.9,1.8-2.9c0.4-0.6,0.8-1.3,1.2-1.9c0.3-0.5,0.7-1,1-1.6c0.4-0.6,0.8-1.3,1.2-1.9
				c0.2-0.3,0.4-0.7,0.6-1c0.5-0.8,1-1.6,1.4-2.4c0.1-0.2,0.2-0.4,0.3-0.5c0.6-1,1.1-1.9,1.7-2.9c0.1-0.3,0.3-0.5,0.4-0.8
				c0.4-0.7,0.8-1.4,1.2-2.2c0.2-0.4,0.4-0.7,0.5-1.1c0.2-0.3,0.3-0.7,0.5-1c0.2-0.4,0.3-0.8,0.5-1.1c0.1-0.3,0.3-0.6,0.4-0.9
				c0.5-1,0.9-2.1,1.3-3.2c0-0.1,0.1-0.3,0.1-0.4c0.3-0.8,0.5-1.6,0.8-2.4c0-0.1,0.1-0.3,0.1-0.4c0-0.1,0.1-0.3,0.1-0.4
				c0.2-0.5,0.3-1.1,0.4-1.6c0.1-0.4,0.2-0.7,0.3-1.1c0-0.1,0-0.1,0-0.2c0.2-0.9,0.4-1.7,0.5-2.6c0,0,0-0.1,0-0.1
				c0-0.2,0-0.3,0.1-0.5c0.1-0.6,0.2-1.2,0.3-1.8c0-0.3,0.1-0.7,0.1-1c0-0.4,0.1-0.8,0.1-1.3c0-0.2,0-0.3,0-0.5c0-0.4,0-0.7,0.1-1.1
				C466.6,144.6,466.6,144.4,466.6,144.2z"/>
			<g>
				<path class="st8" d="M400.7,74.5c14.9,8.6,29.2,25,38.2,43.8c7.1,14.9,9.6,28.6,8.4,40.4c-0.5,4.4-1.5,8.6-2.9,12.4
					c-3.6,9.6-9.2,17.4-14.1,25.5c-5.3,8.6-10.8,17-16.3,25.2c-2.9,4.3-5.7,8.5-8.6,12.7c-1.3,1.9-3,2.2-4.7,1.2
					c-1.7-1-3.4-3.3-4.7-6.6c-5.8-14.9-11.4-29.9-17-44.9c-3.7-9.9-7.2-19.7-10.6-29.5c-3.4-9.9-7.3-19.8-10.4-29.7
					c-5-16-6.7-30.7-2-41.5C363.1,67.1,381.2,63.3,400.7,74.5z"/>
			</g>
			<path class="st4" d="M401.2,96.8c-14.3-8.3-26-1.6-26,14.8c0,16.5,11.5,36.5,25.8,44.8c14.3,8.3,26,1.6,26-14.8
				C427.1,125.2,415.6,105.1,401.2,96.8z"/>
		</g>
	</g>
</g>
</svg>
