<?xml version="1.0" encoding="utf-8"?>
<!-- Generator: Adobe Illustrator 21.1.0, SVG Export Plug-In . SVG Version: 6.00 Build 0)  -->
<svg version="1.1" id="layer_1" xmlns="http://www.w3.org/2000/svg" xmlns:xlink="http://www.w3.org/1999/xlink" x="0px" y="0px"
	 viewBox="0 0 150 50" style="enable-background:new 0 0 150 50;" xml:space="preserve">
<style type="text/css">
	.st0{fill:#FFFFFF;}
	.st1{fill:#FED821;}
</style>
<path class="st0" d="M85.5,48.5c0-0.1,0-0.2,0.1-0.2c0,0,0.2-0.1,0.5-0.1l0,0v-5.5c0-0.2,0.1-0.5,0.2-0.6s0.3-0.2,0.6-0.1h1.8
	c0.2,0,0.5,0.1,0.6,0.2c0.1,0.1,0.2,0.3,0.1,0.6v2.6c0,0.2-0.1,0.5-0.2,0.6c-0.2,0-0.4,0-0.6,0h-1.8v2c0.6-0.1,1.3-0.2,1.8-0.5
	L88.4,47c0,0,0-0.1-0.1-0.1c0-0.1-0.1-0.1-0.1-0.1c0-0.2,0.1-0.3,0.3-0.3c0.1,0,0.2,0.1,0.5,0.3c0.6,0.9,0.9,1.5,0.9,1.6
	c0,0.2-0.1,0.3-0.3,0.3c-0.2,0-0.3-0.1-0.5-0.5L89,48c-0.6,0.2-1.3,0.5-2,0.7C86.3,49,85.8,49,85.8,49
	C85.6,48.9,85.5,48.8,85.5,48.5z M88.7,42.7c0-0.2-0.1-0.2-0.2-0.2h-1.4c-0.1,0-0.2,0.1-0.2,0.2v0.8h2v-0.8H88.7z M88.7,45v-0.8h-2
	v1h1.6C88.7,45.2,88.7,45.1,88.7,45z M90.2,49.1v-6.6c0-0.2,0.1-0.5,0.2-0.6s0.3-0.2,0.6-0.1h1.5c0.2,0,0.5,0.1,0.6,0.2
	c0.1,0.1,0.2,0.3,0.2,0.6v5c0,0.3-0.1,0.6-0.2,0.7c-0.1,0.1-0.3,0.2-0.7,0.2h-0.6c-0.3,0-0.5-0.1-0.5-0.3s0.1-0.3,0.3-0.3H92
	c0.2,0,0.3-0.1,0.3-0.3V43c0-0.2-0.1-0.3-0.3-0.3h-1c-0.2,0-0.2,0.1-0.3,0.2V49c0,0.2-0.1,0.5-0.3,0.5
	C90.3,49.6,90.2,49.5,90.2,49.1z M105.1,47.5c0,0.2-0.1,0.3-0.3,0.3h-3.2v0.9c0,0.2-0.1,0.5-0.2,0.6s-0.3,0.2-0.6,0.2H100
	c-0.3,0-0.5-0.1-0.5-0.3s0.1-0.3,0.5-0.3h0.5c0.2,0,0.2-0.1,0.3-0.3v-0.8h-3.3c-0.2,0-0.3-0.1-0.3-0.3c0-0.1,0-0.2,0.1-0.2
	s0.1-0.1,0.2-0.1h3.3c0-0.2,0-0.3,0.1-0.5s0.2-0.2,0.5-0.2l0.6-0.2c0.5-0.1,0.7-0.2,0.8-0.2h-4.6c-0.2,0-0.3-0.1-0.3-0.3
	s0.1-0.3,0.3-0.3h5.3c0.3,0,0.6,0.1,0.6,0.3v0.1c0,0.1,0,0.2-0.1,0.3s-0.2,0.1-0.3,0.2c-0.5,0.1-0.8,0.3-1.3,0.5
	c-0.3,0.1-0.5,0.1-0.6,0.2c-0.1,0-0.2,0.1-0.2,0.2h3.2C104.9,47.2,105.1,47.3,105.1,47.5z M97.1,42.5c0-0.2,0.1-0.3,0.3-0.3h3.1
	v-0.3c0-0.2,0.1-0.3,0.5-0.3c0.2,0,0.5,0.1,0.5,0.3v0.3h3.2c0.2,0,0.3,0.1,0.3,0.3s-0.1,0.3-0.3,0.3h-7.3
	C97.2,42.8,97.1,42.7,97.1,42.5z M103.3,43.2c0.2,0,0.5,0,0.6,0.1s0.1,0.2,0.1,0.5v0.6c0,0.5-0.2,0.6-0.7,0.6h-4.6
	c-0.2,0-0.5,0-0.6-0.1C98,44.7,98,44.5,98,44.3v-0.6c0-0.5,0.2-0.7,0.7-0.6L103.3,43.2L103.3,43.2z M103.2,44c0-0.1-0.1-0.2-0.2-0.2
	h-4c-0.1,0-0.2,0.1-0.2,0.2v0.2c0,0.1,0.1,0.2,0.2,0.2h4.1c0.1,0,0.2-0.1,0.2-0.2L103.2,44L103.2,44z M111.2,45.8h-0.7v2.5l0.8-0.1
	c0.1,0,0.1,0,0.2,0.1c0,0,0.1,0.1,0.1,0.2c0,0.1-0.1,0.2-0.2,0.2s-0.6,0.1-1.4,0.2l-1.2,0.1c-0.2,0-0.3-0.1-0.3-0.3s0.2-0.3,0.6-0.3
	l0.8-0.1v-2.6h-0.8c-0.2,0-0.3-0.1-0.3-0.3s0.1-0.3,0.3-0.3h0.8v-0.7h-0.6c-0.2,0-0.3-0.1-0.3-0.3V44c-0.1,0.1-0.2,0.1-0.2,0.1
	c-0.2,0-0.3-0.1-0.3-0.3c0-0.1,0-0.2,0.1-0.3c0.6-0.6,0.9-1.2,1.3-1.8c0.1-0.1,0.2-0.2,0.3-0.2c0.2,0,0.3,0.1,0.3,0.3
	c0,0,0,0.1-0.1,0.2c0.5,0.3,0.8,0.6,1,0.7c0.2,0.2,0.3,0.3,0.3,0.5s-0.1,0.3-0.3,0.3c-0.1,0-0.2-0.1-0.3-0.2
	c-0.1-0.1-0.5-0.5-0.9-0.8c-0.2,0.5-0.6,0.9-0.9,1.3h0.1h1.8c0.2,0,0.3,0.1,0.3,0.3s-0.1,0.3-0.3,0.3h-0.7V45h0.7
	c0.2,0,0.3,0.1,0.3,0.3C111.5,45.6,111.4,45.8,111.2,45.8z M109.1,47.9c-0.1,0-0.1,0-0.2-0.1c0,0-0.1-0.1-0.1-0.2v-0.9
	c0-0.2,0.1-0.3,0.3-0.3c0.2,0,0.3,0.1,0.3,0.3v1C109.4,47.8,109.3,47.9,109.1,47.9z M111.1,46.3c0.2,0,0.3,0.1,0.3,0.3v0.9
	c0,0.2-0.1,0.3-0.3,0.3c-0.2,0-0.3-0.1-0.3-0.3v-0.9C110.8,46.4,110.9,46.3,111.1,46.3z M116.2,45.7v3.1c0,0.3-0.1,0.6-0.2,0.7
	c-0.1,0.1-0.3,0.2-0.6,0.2H115c-0.2,0-0.3-0.1-0.3-0.3s0.1-0.3,0.3-0.3h0.3c0.2,0,0.3-0.1,0.3-0.3V46c0-0.2-0.1-0.2-0.2-0.2h-2.8
	c-0.2,0-0.2,0.1-0.2,0.2v3.3c0,0.2-0.1,0.3-0.3,0.3s-0.3-0.1-0.3-0.3v-3.6c0-0.2,0-0.3,0.1-0.5s0.2-0.2,0.5-0.2v-2.4
	c0-0.6,0.2-0.8,0.8-0.8h2c0.2,0,0.5,0.1,0.6,0.2c0.1,0.1,0.2,0.3,0.2,0.6V45C116.1,45,116.2,45.2,116.2,45.7z M115.1,42.7
	c0-0.1-0.1-0.2-0.2-0.2h-1.6c-0.1,0-0.2,0.1-0.2,0.2v2.2h0.7v-1c0-0.2,0-0.5,0.1-0.6s0.2-0.2,0.5-0.2h0.8v-0.4H115.1z M114.5,48.6
	h-1c-0.2,0-0.3,0-0.5-0.1s-0.1-0.2-0.1-0.5v-1.2c0-0.5,0.2-0.6,0.6-0.6h1c0.3,0,0.6,0.2,0.6,0.6V48
	C115.1,48.3,114.9,48.6,114.5,48.6z M114.5,47c0-0.1-0.1-0.2-0.2-0.2h-0.6c-0.1,0-0.2,0.1-0.2,0.2v0.8c0,0.1,0.1,0.2,0.2,0.2h0.6
	c0.1,0,0.2-0.1,0.2-0.2V47z M115.1,43.7h-0.7c-0.1,0-0.2,0.1-0.2,0.2v0.9h0.9L115.1,43.7z"/>
<path class="st0" d="M83.1,18.7c0,0.9-0.6,1.3-1.6,1.3h-4.4v9.6c0,2.2,1.7,3.9,3.9,3.9c0.7,0,1.3,0.6,1.3,1.3
	c0.1,0.8-0.5,1.4-1.2,1.4c-3.7,0-6.6-3-6.6-6.6V20h-0.8H70v15.4c0,0.7-0.6,1.3-1.3,1.3c-0.7,0-1.3-0.6-1.3-1.3V20h-3.1
	c-1,0-1.6-0.5-1.6-1.3s0.6-1.3,1.6-1.3h17C82.5,17.5,83.1,17.9,83.1,18.7z M60.8,18.3c0-0.2,0.2-0.7,0.6-1.5c2-4.1,3-6.6,3-7.3
	c0-1.3-1-1.8-3-1.8h-4.3c-1,0-1.8,0.2-2.3,0.7s-0.7,1.3-0.7,2.3v24.8c0,1,0.5,1.5,1.3,1.5s1.3-0.5,1.3-1.5V11.1c0.1-0.7,0.5-1,1.2-1
	h2.3c0.6,0,0.9,0.3,0.9,0.8c0,0.2-0.1,0.7-0.5,1.4c-0.8,2-1.4,3.3-1.7,4.3s-0.6,1.6-0.6,1.8c0,0.3,0.1,0.7,0.6,1.3
	c1.3,2,2,3.7,2,5.3c0,1.4-0.7,2.2-1.8,2.3c-1.3,0.1-1.8,0.7-1.8,1.5c0,1,0.6,1.6,1.6,1.6c3.1,0,4.6-1.6,4.7-5.2c0-2-0.6-3.8-2-5.6
	C61.1,19,60.8,18.5,60.8,18.3z M66.7,10.7h12.7c1,0,1.6-0.5,1.6-1.3s-0.6-1.3-1.6-1.3H66.7c-1.2,0-1.6,0.5-1.6,1.3
	C65.1,10.3,65.5,10.8,66.7,10.7z M97,10.2h14.4c0.9,0,1.4-0.3,1.4-1.2s-0.5-1.2-1.4-1.2H97c-0.9,0-1.4,0.3-1.4,1.2
	S96.1,10.2,97,10.2z M95.4,26.7c0-1.7,1-2.6,3-2.5h11.9c2,0,2.9,0.8,2.9,2.5v2.2c0,0.9-0.2,1.5-0.7,2s-1.3,0.7-2.2,0.6h-12
	c-2,0-2.9-0.8-2.9-2.5C95.4,29,95.4,26.7,95.4,26.7z M98,28.3c0,0.6,0.3,0.9,0.9,0.9h10.5c0.6,0,0.9-0.3,0.9-0.9v-1.2
	c0-0.6-0.3-0.8-0.9-0.9H99c-0.6,0-0.9,0.3-0.9,0.9L98,28.3L98,28.3z M96.9,18.4h14.6c0.8,0,1.3-0.3,1.3-1.2c0-0.8-0.5-1.2-1.3-1.2
	H96.9c-0.8,0-1.3,0.5-1.3,1.2C95.6,17.9,96.1,18.4,96.9,18.4z M96.9,22.4h14.6c0.8,0,1.3-0.3,1.3-1.2c0-0.8-0.5-1.2-1.3-1.2H96.9
	c-0.8,0-1.3,0.3-1.3,1.2C95.6,22,96.1,22.4,96.9,22.4z M94.3,14.2h19.4c0.9,0,1.4-0.3,1.4-1.2s-0.5-1.2-1.4-1.2H94.3
	c-0.9,0-1.4,0.3-1.4,1.2S93.4,14.4,94.3,14.2z M143.2,33.3h-3.8c-0.8,0-1.4-0.2-1.7-0.6c-0.3-0.3-0.6-0.9-0.6-1.8v-4.3
	c0-1.5,0.7-2.3,2.2-2.3h3.8c1.5,0,2.3,0.8,2.3,2.3v4.3C145.4,32.4,144.7,33.3,143.2,33.3z M143.3,27.5c0-0.6-0.3-0.9-0.9-0.9h-2.2
	c-0.6,0-0.9,0.3-0.9,0.9v2.6c0,0.6,0.3,0.9,0.9,0.9h2.2c0.7,0,0.9-0.3,0.9-0.9V27.5z M130.5,13.2c0.5,0.6,0.9,0.8,1.3,0.8
	c0.8,0,1.3-0.5,1.3-1.3c0-0.3-0.3-0.9-1.3-1.6c-0.9-0.7-2.2-1.6-4-2.8c0.1-0.3,0.2-0.6,0.2-0.8c0-0.8-0.3-1.2-1.3-1.2
	c-0.6,0-0.9,0.3-1.3,0.9c-1.2,2.5-2.8,4.7-4.7,6.7c-0.3,0.3-0.6,0.7-0.6,1.2c0,0.8,0.3,1.3,1.2,1.3c0.2,0,0.6-0.1,1-0.5v0.2
	c0,0.8,0.5,1.3,1.4,1.3h1.8v3h-3.2c-0.9,0-1.4,0.3-1.4,1.2c0,0.8,0.5,1.3,1.4,1.3h3.2v10.7h-3.9c-0.7,0-1.3,0.6-1.3,1.3
	s0.6,1.3,1.3,1.3h9.2c0.7,0,1.3-0.6,1.3-1.3s-0.6-1.3-1.3-1.3h-3V22.9h2.8c0.9,0,1.5-0.3,1.4-1c0-0.8-0.5-1.3-1.4-1.3h-2.8v-3h2.6
	c0.9,0,1.4-0.5,1.4-1.3c0-0.8-0.5-1.2-1.4-1.2h-7h-0.3c1.5-1.6,2.8-3.2,3.7-5C128.8,11.7,130.1,12.6,130.5,13.2z M123,30.8
	c0.7,0,1.2-0.3,1.3-1.3v-3.8c0-0.8-0.5-1.3-1.2-1.3c-0.8,0-1.2,0.5-1.2,1.3v3.8c0,0.3,0,0.7,0.2,0.9C122.3,30.7,122.7,30.8,123,30.8
	z M129.3,25.6v3.5c0,0.8,0.5,1.3,1.2,1.3c0.8,0,1.2-0.5,1.2-1.3v-3.5c0-0.8-0.3-1.2-1.2-1.2C129.7,24.5,129.3,25,129.3,25.6z
	 M150,22.3v11.5c0,1.2-0.2,2-0.7,2.5S148,37,147,37h-1.7c-0.8,0-1.3-0.5-1.3-1.3s0.5-1.3,1.3-1.3h1.2c0.8,0,1.2-0.5,1.3-1.3V23
	c0-0.7-0.3-1-1-1h-10.3c-0.7,0-1,0.3-1,1v12.6c0,1-0.5,1.5-1.3,1.5s-1.3-0.5-1.3-1.5V22.3c0-0.8,0.1-1.5,0.5-2
	c0.3-0.5,0.8-0.7,1.5-0.8v-8.8c0-2.1,0.9-3,2.9-2.9h7.6c0.9,0,1.6,0.2,2.1,0.7s0.7,1.2,0.7,2.2v8.9C149.3,19.8,150.1,20.7,150,22.3z
	 M145.4,15.3h-2.5c-0.6,0-0.9,0.3-0.9,0.9v3.5h3.5v-4.4H145.4z M145.4,11.4c0-0.6-0.3-0.9-1-1h-6.2c-0.6,0-0.9,0.3-1,1v8.3h2.6v-3.8
	c0-0.9,0.2-1.5,0.6-2c0.5-0.5,1-0.7,1.8-0.7h3.1L145.4,11.4C145.3,11.4,145.4,11.4,145.4,11.4z M115.4,33.5H93.5
	c-2.2,0-3.9-1.7-3.9-3.9v-7.9c0-0.7-0.6-1.3-1.3-1.3c-0.7,0-1.3,0.6-1.3,1.3v7.9c0,3.6,2.9,6.6,6.6,6.6h21.9c0.7,0,1.3-0.6,1.2-1.4
	C116.7,34.1,116.1,33.5,115.4,33.5z M90.7,15.9c0-1.3-1-2.3-2.3-2.3s-2.3,1-2.3,2.3s1,2.3,2.3,2.3C89.6,18.2,90.7,17.1,90.7,15.9z"
	/>
<path class="st0" d="M24.7,47.9c-1.2,0.2-2.5,0.4-3.8,0.4c-0.4,0-0.8,0-1.2-0.1c-2-9.3-9.7-16.3-19.4-17.3C0.1,29.7,0,28.6,0,27.4
	c0-0.5,0-0.9,0.1-1.4C12.4,26.9,22.4,36,24.7,47.9z M1.3,34.5C3.7,41,9.3,46,16.1,47.6C14.1,40.9,8.3,35.7,1.3,34.5z M21,6.4
	C11.7,6.4,3.8,12.5,1,21c9.6,0.9,18,6,23.3,13.4c5-3.1,10.8-4.7,16.8-4.7c0.2,0,0.3,0,0.5,0c0.1-0.8,0.1-1.5,0.2-2.3
	C41.8,15.9,32.5,6.4,21,6.4z M28.8,43c2.7-1.8,5.8-2.9,9-3.4c1.1-1.4,1.9-3,2.6-4.7c-4.7,0.1-9.3,1.5-13.3,3.9
	C27.7,40.1,28.3,41.5,28.8,43z"/>
<path class="st1" d="M23.6,23.3c-1.6-4.3,1.7-7.7,2-7.7c-0.2,0,0.3,3.3,2,7.7c1.6,4.3-1.7,7.7-2,7.7C25.8,31.1,25.2,27.6,23.6,23.3z
	 M26.6,10.9C24.3,5,29,0.3,29.4,0.3c-0.3,0,0.5,4.8,2.8,10.6s-2.4,10.6-2.8,10.6C29.8,21.5,29,16.7,26.6,10.9z"/>
</svg>
