<?xml version="1.0" encoding="utf-8"?>
<!-- Generator: Adobe Illustrator 21.1.0, SVG Export Plug-In . SVG Version: 6.00 Build 0)  -->
<svg version="1.1" id="圖層_1" xmlns="http://www.w3.org/2000/svg" xmlns:xlink="http://www.w3.org/1999/xlink" x="0px" y="0px"
	 viewBox="0 0 136.6 48.1" style="enable-background:new 0 0 136.6 48.1;" xml:space="preserve">
<style type="text/css">
	.st0{fill:#585757;}
	.st1{fill:#FF8754;}
	.st2{clip-path:url(#SVGID_2_);fill:#FF8754;}
	.st3{clip-path:url(#SVGID_4_);fill:none;stroke:#FFFFFF;stroke-width:3.0232;stroke-miterlimit:10;}
	.st4{clip-path:url(#SVGID_6_);fill:none;stroke:#F1B4A6;stroke-width:1.8099;stroke-miterlimit:10;}
	.st5{clip-path:url(#SVGID_8_);fill:none;stroke:#FFFFFF;stroke-width:4.3585;stroke-miterlimit:10;}
	.st6{clip-path:url(#SVGID_10_);fill:none;stroke:#FFFFFF;stroke-width:3.0667;stroke-miterlimit:10;}
	.st7{clip-path:url(#SVGID_12_);fill:none;stroke:#FFFFFF;stroke-width:4.3585;stroke-miterlimit:10;}
	.st8{fill:#FFCC33;}
</style>
<g>
	<g>
		<g>
			<path class="st0" d="M79.4,45.7c0-0.1,0-0.2,0.1-0.2c0,0,0.2-0.1,0.4-0.1l0,0v-4.8c0-0.2,0.1-0.4,0.2-0.5s0.3-0.2,0.5-0.1h1.6
				c0.2,0,0.4,0.1,0.5,0.2c0.1,0.1,0.2,0.3,0.1,0.5V43c0,0.2-0.1,0.4-0.2,0.5s-0.3,0.1-0.5,0.1h-1.6v1.7c0.5-0.1,1.1-0.2,1.6-0.4
				L82,44.3c0,0,0-0.1-0.1-0.1c0-0.1-0.1-0.1-0.1-0.1c0-0.2,0.1-0.3,0.3-0.3c0.1,0,0.2,0.1,0.4,0.3c0.5,0.8,0.8,1.3,0.8,1.4
				c0,0.2-0.1,0.3-0.3,0.3c-0.2,0-0.3-0.1-0.4-0.4l-0.1-0.2c-0.5,0.2-1.1,0.4-1.7,0.6c-0.6,0.2-1,0.2-1,0.2
				C79.5,46,79.4,45.9,79.4,45.7z M82.2,40.7c0-0.2-0.1-0.2-0.2-0.2h-1.2c-0.1,0-0.2,0.1-0.2,0.2v0.7h1.7v-0.7H82.2z M82.2,42.6
				v-0.7h-1.7v0.9H82C82.2,42.9,82.2,42.8,82.2,42.6z M83.5,46.3v-5.7c0-0.2,0.1-0.4,0.2-0.5s0.3-0.2,0.5-0.1h1.3
				c0.2,0,0.4,0.1,0.5,0.2c0.1,0.1,0.2,0.3,0.2,0.5V45c0,0.3-0.1,0.5-0.2,0.6s-0.3,0.2-0.6,0.2H85c-0.3,0-0.4-0.1-0.4-0.3
				s0.1-0.3,0.3-0.3h0.3c0.2,0,0.3-0.1,0.3-0.3v-4c0-0.2-0.1-0.3-0.3-0.3h-0.9c-0.2,0-0.2,0.1-0.3,0.2v5.4c0,0.2-0.1,0.4-0.3,0.4
				C83.6,46.6,83.5,46.5,83.5,46.3z"/>
		</g>
		<g>
			<path class="st0" d="M96.4,44.8c0,0.2-0.1,0.3-0.3,0.3h-2.8v0.8c0,0.2-0.1,0.4-0.2,0.5s-0.3,0.2-0.5,0.2H92
				c-0.3,0-0.4-0.1-0.4-0.3S91.7,46,92,46h0.4c0.2,0,0.2-0.1,0.3-0.3v-0.6h-2.9c-0.2,0-0.3-0.1-0.3-0.3c0-0.1,0-0.2,0.1-0.2
				s0.1-0.1,0.2-0.1h2.9c0-0.2,0-0.3,0.1-0.4c0.1-0.1,0.2-0.2,0.4-0.2l0.5-0.2c0.4-0.1,0.6-0.2,0.7-0.2h-4c-0.2,0-0.3-0.1-0.3-0.3
				s0.1-0.3,0.3-0.3H95c0.3,0,0.5,0.1,0.5,0.3v0.1c0,0.1,0,0.2-0.1,0.3s-0.2,0.1-0.3,0.2c-0.4,0.1-0.7,0.3-1.1,0.4
				c-0.3,0.1-0.4,0.1-0.5,0.2c-0.1,0-0.2,0.1-0.2,0.2h2.8C96.3,44.5,96.4,44.6,96.4,44.8z M89.4,40.4c0-0.2,0.1-0.3,0.3-0.3h2.7
				v-0.3c0-0.2,0.1-0.3,0.4-0.3c0.2,0,0.4,0.1,0.4,0.3v0.3H96c0.2,0,0.3,0.1,0.3,0.3s-0.1,0.3-0.3,0.3h-6.3
				C89.5,40.7,89.4,40.6,89.4,40.4z M94.9,41c0.2,0,0.4,0,0.5,0.1s0.1,0.2,0.1,0.4V42c0,0.4-0.2,0.5-0.6,0.5h-4
				c-0.2,0-0.4,0-0.5-0.1s-0.1-0.2-0.1-0.4v-0.5c0-0.4,0.2-0.6,0.6-0.5H94.9z M94.8,41.7c0-0.1-0.1-0.2-0.2-0.2H91
				c-0.1,0-0.2,0.1-0.2,0.2v0.2c0,0.1,0.1,0.2,0.2,0.2h3.6c0.1,0,0.2-0.1,0.2-0.2C94.8,41.9,94.8,41.7,94.8,41.7z"/>
		</g>
		<g>
			<path class="st0" d="M101.7,43.3H101v2.2l0.7-0.1c0.1,0,0.1,0,0.2,0.1c0,0,0.1,0.1,0.1,0.2c0,0.1-0.1,0.2-0.2,0.2
				s-0.5,0.1-1.2,0.2l-1,0.1c-0.2,0-0.3-0.1-0.3-0.3s0.2-0.3,0.5-0.3l0.7-0.1v-2.3h-0.7c-0.2,0-0.3-0.1-0.3-0.3s0.1-0.3,0.3-0.3h0.7
				v-0.7h-0.4c-0.2,0-0.3-0.1-0.3-0.3v-0.1c-0.1,0.1-0.2,0.1-0.2,0.1c-0.2,0-0.3-0.1-0.3-0.3c0-0.1,0-0.2,0.1-0.3
				c0.5-0.5,0.8-1,1.1-1.6c0.1-0.1,0.2-0.2,0.3-0.2c0.2,0,0.3,0.1,0.3,0.3c0,0,0,0.1-0.1,0.2c0.4,0.3,0.7,0.5,0.9,0.6
				c0.2,0.2,0.3,0.3,0.3,0.4c0,0.2-0.1,0.3-0.3,0.3c-0.1,0-0.2-0.1-0.3-0.2c-0.1-0.1-0.4-0.4-0.8-0.7c-0.2,0.4-0.5,0.8-0.8,1.1h0.1
				h1.6c0.2,0,0.3,0.1,0.3,0.3s-0.1,0.3-0.3,0.3H101v0.7h0.6c0.2,0,0.3,0.1,0.3,0.3S101.9,43.3,101.7,43.3z M99.9,45.2
				c-0.1,0-0.1,0-0.2-0.1c0,0-0.1-0.1-0.1-0.2V44c0-0.2,0.1-0.3,0.3-0.3c0.2,0,0.3,0.1,0.3,0.3v0.9C100.2,45.1,100.1,45.2,99.9,45.2
				z M101.6,43.7c0.2,0,0.3,0.1,0.3,0.3v0.8c0,0.2-0.1,0.3-0.3,0.3c-0.2,0-0.3-0.1-0.3-0.3V44C101.4,43.8,101.4,43.7,101.6,43.7z
				 M106.1,43.2v2.7c0,0.3-0.1,0.5-0.2,0.6s-0.3,0.2-0.5,0.2H105c-0.2,0-0.3-0.1-0.3-0.3s0.1-0.3,0.3-0.3h0.3c0.2,0,0.3-0.1,0.3-0.3
				v-2.4c0-0.2-0.1-0.2-0.2-0.2H103c-0.2,0-0.2,0.1-0.2,0.2v2.9c0,0.2-0.1,0.3-0.3,0.3c-0.2,0-0.3-0.1-0.3-0.3v-3.1
				c0-0.2,0-0.3,0.1-0.4c0.1-0.1,0.2-0.2,0.4-0.2v-2.1c0-0.5,0.2-0.7,0.7-0.7h1.7c0.2,0,0.4,0.1,0.5,0.2c0.1,0.1,0.2,0.3,0.2,0.5
				v2.1C106,42.6,106.1,42.8,106.1,43.2z M105.1,40.6c0-0.1-0.1-0.2-0.2-0.2h-1.4c-0.1,0-0.2,0.1-0.2,0.2v1.9h0.6v-0.9
				c0-0.2,0-0.4,0.1-0.5s0.2-0.2,0.4-0.2h0.7V40.6z M104.6,45.7h-0.9c-0.2,0-0.3,0-0.4-0.1s-0.1-0.2-0.1-0.4v-1
				c0-0.4,0.2-0.5,0.5-0.5h0.9c0.3,0,0.5,0.2,0.5,0.5v1C105.1,45.5,104.9,45.7,104.6,45.7z M104.6,44.4c0-0.1-0.1-0.2-0.2-0.2h-0.5
				c-0.1,0-0.2,0.1-0.2,0.2V45c0,0.1,0.1,0.2,0.2,0.2h0.5c0.1,0,0.2-0.1,0.2-0.2V44.4z M105.1,41.6h-0.6c-0.1,0-0.2,0.1-0.2,0.2v0.8
				h0.8C105.1,42.6,105.1,41.6,105.1,41.6z"/>
		</g>
	</g>
	<g>
		<g>
			<g>
				<path class="st1" d="M56.2,30c-0.9,0-1.4-0.5-1.4-1.4c0-0.7,0.5-1.2,1.6-1.3c1-0.1,1.6-0.8,1.6-2c0-1.4-0.6-2.9-1.7-4.6
					c-0.4-0.5-0.5-0.8-0.5-1.1c0-0.2,0.2-0.7,0.5-1.6c0.3-0.8,0.8-2,1.5-3.7c0.3-0.6,0.4-1,0.4-1.2c0-0.4-0.3-0.7-0.8-0.7h-2
					c-0.6,0-0.9,0.3-1,0.9v21.1c0,0.9-0.4,1.3-1.1,1.3c-0.7,0-1.1-0.4-1.1-1.3V12.8c0-0.9,0.2-1.6,0.6-2c0.4-0.4,1.1-0.6,2-0.6h3.7
					c1.7,0,2.6,0.5,2.6,1.6c0,0.6-0.9,2.7-2.6,6.3c-0.3,0.7-0.5,1.1-0.5,1.3c0,0.2,0.2,0.6,0.6,1.1c1.2,1.6,1.7,3.2,1.7,4.9
					C60.2,28.5,58.9,30,56.2,30z M69.2,20.9h-8.1c-0.9,0-1.4-0.4-1.4-1.1s0.5-1.1,1.4-1.1h14.8c0.9,0,1.4,0.4,1.4,1.1
					c0,0.8-0.5,1.1-1.4,1.1h-4.2H69.2z M61.6,11.8c0-0.7,0.5-1.1,1.4-1.1h11.1c0.9,0,1.4,0.4,1.4,1.1c0,0.7-0.5,1.1-1.4,1.1H63
					C62.1,12.9,61.6,12.5,61.6,11.8z"/>
			</g>
			<g>
				<path class="st1" d="M85.9,15c0-0.7,0.4-1,1.2-1h16.8c0.8,0,1.2,0.3,1.2,1s-0.4,1-1.2,1H87.1C86.3,16,85.9,15.7,85.9,15z
					 M87.9,28.7v-1.9c0-1.5,0.9-2.3,2.6-2.2h10.3c1.7,0,2.5,0.7,2.5,2.2v1.9c0,0.8-0.2,1.3-0.6,1.7c-0.4,0.4-1.1,0.6-1.9,0.5H90.5
					C88.8,30.8,87.9,30.1,87.9,28.7z M88.2,11.4c0-0.7,0.4-1,1.2-1h12.5c0.8,0,1.2,0.3,1.2,1s-0.4,1-1.2,1H89.4
					C88.6,12.4,88.2,12.1,88.2,11.4z M88.2,18.5c0-0.6,0.4-1,1.1-1H102c0.7,0,1.1,0.3,1.1,1s-0.4,1-1.1,1H89.3
					C88.6,19.5,88.2,19.2,88.2,18.5z M88.2,22c0-0.7,0.4-1,1.1-1H102c0.7,0,1.1,0.3,1.1,1s-0.4,1-1.1,1H89.3
					C88.6,23,88.2,22.7,88.2,22z M101,28.1v-1c0-0.5-0.3-0.7-0.8-0.8h-9.1c-0.5,0-0.8,0.3-0.8,0.8v1c0,0.5,0.3,0.8,0.8,0.8h9.1
					C100.7,28.9,101,28.7,101,28.1z"/>
			</g>
			<g>
				<path class="st1" d="M118.6,23.5h-2.4v10h-2v-10h-2.8c-0.8,0-1.2-0.4-1.2-1.1s0.4-1,1.2-1h2.8v-2.6h-1.6c-0.8,0-1.2-0.4-1.2-1.1
					v-0.2c-0.4,0.3-0.7,0.4-0.9,0.4c-0.7,0-1-0.4-1-1.1c0-0.4,0.2-0.7,0.5-1c1.7-1.7,3.1-3.6,4.1-5.8c0.3-0.5,0.6-0.8,1.1-0.8
					c0.8,0,1.1,0.3,1.1,1c0,0.2-0.1,0.4-0.2,0.7c1.6,1,2.7,1.8,3.5,2.4s1.1,1.1,1.1,1.4c0,0.7-0.4,1.1-1.1,1.1
					c-0.3,0-0.7-0.2-1.1-0.7s-1.5-1.3-3.2-2.6c-0.8,1.5-1.9,2.9-3.2,4.3h0.3h6.1c0.8,0,1.2,0.3,1.2,1s-0.4,1.1-1.2,1.1h-2.3v2.6h2.4
					c0.8,0,1.2,0.4,1.2,1.1C119.8,23.1,119.4,23.5,118.6,23.5z M112,30.4c-0.3,0-0.6-0.1-0.7-0.3c-0.2-0.2-0.2-0.5-0.2-0.8V26
					c0-0.7,0.3-1.1,1-1.1c0.6,0,1,0.4,1,1.1v3.3C113,30,112.6,30.4,112,30.4z M118.4,24.9c0.7,0,1,0.3,1,1v3c0,0.7-0.3,1.1-1,1.1
					c-0.6,0-1-0.4-1-1.1v-3C117.4,25.2,117.7,24.9,118.4,24.9z M135.4,23v10c0,1-0.2,1.7-0.6,2.2c-0.4,0.4-1.1,0.6-2,0.6h-1.5
					c-0.7,0-1.1-0.4-1.1-1.1c0-0.7,0.4-1.1,1.1-1.1h1c0.7,0,1-0.4,1.1-1.1v-8.9c0-0.6-0.3-0.9-0.9-0.9h-8.9c-0.6,0-0.9,0.3-0.9,0.9
					v10.9c0,0.9-0.4,1.3-1.1,1.3s-1.1-0.4-1.1-1.3V23c0-0.7,0.1-1.3,0.4-1.7c0.3-0.4,0.7-0.6,1.3-0.7v-7.7c0-1.8,0.8-2.6,2.5-2.5
					h6.6c0.8,0,1.4,0.2,1.8,0.6c0.4,0.4,0.6,1,0.6,1.9v7.7C134.8,20.7,135.4,21.5,135.4,23z M131.4,13.4c0-0.5-0.3-0.8-0.9-0.9h-5.4
					c-0.5,0-0.8,0.3-0.9,0.9v7.2h2.3v-3.3c0-0.8,0.2-1.3,0.5-1.7c0.4-0.4,0.9-0.6,1.6-0.6h2.8L131.4,13.4z M129.5,32.5h-3.3
					c-0.7,0-1.2-0.2-1.5-0.5s-0.5-0.8-0.5-1.6v-3.7c0-1.3,0.6-2,1.9-2h3.3c1.3,0,2,0.7,2,2v3.7C131.4,31.8,130.8,32.5,129.5,32.5z
					 M129.6,27.4c0-0.5-0.3-0.8-0.8-0.8h-1.9c-0.5,0-0.8,0.3-0.8,0.8v2.3c0,0.5,0.3,0.8,0.8,0.8h1.9c0.6,0,0.8-0.3,0.8-0.8V27.4z
					 M131.4,16.9h-2.2c-0.5,0-0.8,0.3-0.8,0.8v3h3V16.9z"/>
			</g>
			<g>
				<path class="st1" d="M105.5,35h-19c-3.2,0-5.7-2.6-5.7-5.7v-6.9c0-0.6,0.5-1.1,1.1-1.1s1.1,0.5,1.1,1.1v6.9
					c0,1.9,1.5,3.4,3.4,3.4h19c0.6,0,1.1,0.5,1.1,1.1C106.6,34.5,106.1,35,105.5,35z"/>
			</g>
			<g>
				<path class="st1" d="M75.6,35c-3.2,0-5.7-2.6-5.7-5.7v-9.1c0-0.6,0.5-1.1,1.1-1.1s1.1,0.5,1.1,1.1v9.1c0,1.9,1.5,3.4,3.4,3.4
					c0.6,0,1.1,0.5,1.1,1.1C76.7,34.5,76.2,35,75.6,35z"/>
			</g>
			<g>
				<path class="st1" d="M64.9,35.5c-0.6,0-1.1-0.5-1.1-1.1V20.2c0-0.6,0.5-1.1,1.1-1.1s1.1,0.5,1.1,1.1v14.2
					C66,35,65.5,35.5,64.9,35.5z"/>
			</g>
			<g>
				<circle class="st1" cx="81.9" cy="17.3" r="2"/>
			</g>
		</g>
		<g>
			<path class="st1" d="M118.7,35h-8c-0.6,0-1.1-0.5-1.1-1.1s0.5-1.1,1.1-1.1h8c0.6,0,1.1,0.5,1.1,1.1C119.9,34.5,119.4,35,118.7,35
				z"/>
		</g>
	</g>
	<g>
		<g>
			<g>
				<defs>
					<path id="SVGID_1_" d="M21.9,42.3L21.9,42.3c-9.9,0-18-8.1-18-18l0,0c0-9.9,8.1-18,18-18l0,0c9.9,0,18,8.1,18,18l0,0
						C39.9,34.2,31.8,42.3,21.9,42.3z"/>
				</defs>
				<clipPath id="SVGID_2_">
					<use xlink:href="#SVGID_1_"  style="overflow:visible;"/>
				</clipPath>
				<path class="st2" d="M21.9,42.3L21.9,42.3c-9.9,0-18-8.1-18-18l0,0c0-9.9,8.1-18,18-18l0,0c9.9,0,18,8.1,18,18l0,0
					C39.9,34.2,31.8,42.3,21.9,42.3z"/>
			</g>
		</g>
		<g>
			<g>
				<defs>
					<path id="SVGID_3_" d="M21.9,42.3L21.9,42.3c-9.9,0-18-8.1-18-18l0,0c0-9.9,8.1-18,18-18l0,0c9.9,0,18,8.1,18,18l0,0
						C39.9,34.2,31.8,42.3,21.9,42.3z"/>
				</defs>
				<clipPath id="SVGID_4_">
					<use xlink:href="#SVGID_3_"  style="overflow:visible;"/>
				</clipPath>
				<circle class="st3" cx="2.4" cy="46.5" r="17.7"/>
			</g>
		</g>
		<g>
			<g>
				<defs>
					<path id="SVGID_5_" d="M21.9,42.3L21.9,42.3c-9.9,0-18-8.1-18-18l0,0c0-9.9,8.1-18,18-18l0,0c9.9,0,18,8.1,18,18l0,0
						C39.9,34.2,31.8,42.3,21.9,42.3z"/>
				</defs>
				<clipPath id="SVGID_6_">
					<use xlink:href="#SVGID_5_"  style="overflow:visible;"/>
				</clipPath>
				<circle class="st4" cx="2.4" cy="46.5" r="10.6"/>
			</g>
		</g>
		<g>
			<g>
				<defs>
					<path id="SVGID_7_" d="M21.9,42.3L21.9,42.3c-9.9,0-18-8.1-18-18l0,0c0-9.9,8.1-18,18-18l0,0c9.9,0,18,8.1,18,18l0,0
						C39.9,34.2,31.8,42.3,21.9,42.3z"/>
				</defs>
				<clipPath id="SVGID_8_">
					<use xlink:href="#SVGID_7_"  style="overflow:visible;"/>
				</clipPath>
				<circle class="st5" cx="2.4" cy="46.5" r="25.6"/>
			</g>
		</g>
		<g>
			<g>
				<defs>
					<path id="SVGID_9_" d="M21.9,42.3L21.9,42.3c-9.9,0-18-8.1-18-18l0,0c0-9.9,8.1-18,18-18l0,0c9.9,0,18,8.1,18,18l0,0
						C39.9,34.2,31.8,42.3,21.9,42.3z"/>
				</defs>
				<clipPath id="SVGID_10_">
					<use xlink:href="#SVGID_9_"  style="overflow:visible;"/>
				</clipPath>
				<path class="st6" d="M27.3,40.7c3.2-2.9,7.4-4.6,12-4.6c9.9,0,18,8.1,18,18s-8.1,18-18,18"/>
			</g>
		</g>
		<g>
			<g>
				<defs>
					<path id="SVGID_11_" d="M21.9,42.3L21.9,42.3c-9.9,0-18-8.1-18-18l0,0c0-9.9,8.1-18,18-18l0,0c9.9,0,18,8.1,18,18l0,0
						C39.9,34.2,31.8,42.3,21.9,42.3z"/>
				</defs>
				<clipPath id="SVGID_12_">
					<use xlink:href="#SVGID_11_"  style="overflow:visible;"/>
				</clipPath>
				<path class="st7" d="M24.3,33.3c4.2-3,9.4-4.8,15-4.8c14.1,0,25.6,11.4,25.6,25.6c0,14.1-11.4,25.6-25.6,25.6"/>
			</g>
		</g>
	</g>
	<g>
		<path class="st8" d="M24.3,20.9c-1.4-3.6,1.5-6.6,1.7-6.6c-0.2,0,0.3,2.9,1.7,6.6c1.4,3.6-1.5,6.6-1.7,6.6
			C26.2,27.5,25.7,24.5,24.3,20.9z"/>
	</g>
	<path class="st8" d="M26.9,10.2c-2-5,2.1-9.1,2.4-9.1c-0.3,0,0.4,4.1,2.4,9.1s-2.1,9.1-2.4,9.1C29.5,19.3,28.8,15.2,26.9,10.2z"/>
</g>
</svg>
