<?xml version="1.0" encoding="utf-8"?>
<!-- Generator: Adobe Illustrator 21.1.0, SVG Export Plug-In . SVG Version: 6.00 Build 0)  -->
<svg version="1.1" id="圖層_1" xmlns="http://www.w3.org/2000/svg" xmlns:xlink="http://www.w3.org/1999/xlink" x="0px" y="0px"
	 viewBox="0 0 759 349" style="enable-background:new 0 0 759 349;" xml:space="preserve">
<style type="text/css">
	.st0{fill:#FFFFFF;}
	.st1{fill:#06C755;stroke:#231815;stroke-width:4;stroke-miterlimit:10;}
	.st2{fill:#06C755;}
	.st3{fill:#231815;}
	.st4{display:none;}
	.st5{display:inline;}
	.st6{fill:#FEFBF0;}
	.st7{fill:#FDDAC0;}
	.st8{fill:#F8B295;}
	.st9{fill:#D4D7DB;}
	.st10{fill:#E8A26F;}
	.st11{fill:#FFB9A4;}
	.st12{fill:#B9BCC1;}
	.st13{fill:#9A9FA6;}
	.st14{fill:#981A1C;}
	.st15{fill:#B9887C;}
	.st16{fill:#E8EBF0;}
	.st17{fill:#754C24;}
	.st18{fill:#F6A383;}
	.st19{fill:#D67051;}
	.st20{fill:#F68D65;}
	.st21{fill:#F67645;}
	.st22{fill:#8C6239;}
	.st23{fill:#2A3954;}
	.st24{fill:#D12325;}
	.st25{fill:#9B131D;}
	.st26{fill:#FDA625;}
	.st27{clip-path:url(#SVGID_2_);fill:#FF6501;}
	.st28{clip-path:url(#SVGID_4_);fill:#FDA625;}
	.st29{display:none;fill:#FDA625;}
	.st30{fill:#FED821;}
</style>
<path class="st0" d="M560,78.7l-365.8-1c-59.5-0.3-107.9,47.5-108.2,107l0,0c-0.3,59.5,47.5,107.9,107,108.2l365.8,1
	c59.5,0.3,107.9-47.5,108.2-107l0,0C667.3,127.5,619.4,79.1,560,78.7z"/>
<g id="栝鍣_1">
</g>
<g id="栝鍣_2">
</g>
<g>
	<g>
		<path class="st1" d="M400.7,175.4c1.5-1.2,3.1-1.9,4.7-1.9h1c1.7,0,3.3,0.6,4.9,1.8c4.3,3.4,9.5,5.9,15.4,7.6
			c0.6,0.2,1,0.5,1.2,1.2c0.1,0.2,0.1,0.4,0.1,0.6c0,0.4-0.1,0.7-0.3,1c-0.4,0.6-0.9,1.3-1.3,2c-0.3,0.5-0.7,0.8-1.2,1
			c-0.2,0.1-0.5,0.1-0.7,0.1s-0.5,0-0.8-0.1c-0.1-0.1-0.2,0-0.2,0.1v9.3c0,0.8-0.3,1.4-0.8,1.9s-1.2,0.8-1.9,0.8h-28.3
			c-0.7,0-1.4-0.3-1.9-0.8s-0.8-1.2-0.8-1.9v-9.3c0-0.1,0-0.2-0.1-0.2s-0.1,0-0.2,0c-0.3,0.1-0.6,0.2-0.9,0.2s-0.7-0.1-1-0.2
			c-0.6-0.2-1.2-0.7-1.5-1.3c-0.2-0.4-0.5-0.7-0.7-1.1c-0.2-0.4-0.4-0.7-0.4-1.1c0-0.2,0-0.4,0.1-0.6c0.2-0.6,0.6-1,1.2-1.2
			c2.7-0.9,5.4-2.1,7.9-3.4C396.7,178.3,398.9,176.9,400.7,175.4z M395,218.6c-0.8,0-1.4-0.3-1.9-0.8s-0.8-1.2-0.8-1.9v-11.2
			c0-0.8,0.3-1.4,0.8-1.9s1.2-0.8,1.9-0.8h23.3c0.8,0,1.4,0.3,1.9,0.8s0.8,1.2,0.8,1.9v11c0,0.8-0.3,1.4-0.8,1.9s-1.2,0.8-1.9,0.8
			h-3.5c-0.2,0-0.4-0.1-0.6-0.2c-0.2-0.2-0.2-0.4-0.2-0.6c0-0.1,0-0.1-0.1-0.1h-14.6c-0.1,0-0.1,0-0.1,0.1c0,0.3-0.1,0.6-0.3,0.7
			c-0.2,0.2-0.4,0.3-0.7,0.3H395z M392.8,187.1C392.7,187.2,392.7,187.2,392.8,187.1c0,0.1,0,0.1,0,0.1H420c0.1,0,0.1,0,0.1,0l0,0
			c-1.6-0.7-3.3-1.5-5-2.4c-0.1-0.1-0.1,0-0.1,0.1c0,0.3-0.1,0.6-0.4,0.9c-0.2,0.2-0.5,0.4-0.9,0.4h-14.2c-0.4,0-0.7-0.1-1-0.4
			c-0.3-0.3-0.4-0.6-0.4-1c0-0.1-0.1-0.2-0.2-0.1C396.3,185.5,394.6,186.3,392.8,187.1z M395.4,196.4c0,0.2,0.1,0.3,0.4,0.3h1.3
			c0.2,0,0.3-0.1,0.3-0.3c-0.1-0.5-0.2-1-0.3-1.5c0-0.2,0-0.4,0-0.6c0-0.5,0.1-1,0.4-1.4c0.4-0.6,0.9-1.1,1.6-1.2h0.2l0,0l0,0h-3.5
			c-0.2,0-0.4,0.1-0.4,0.3V196.4z M413.9,206.7c0-0.2-0.1-0.4-0.4-0.4h-14.2c-0.2,0-0.4,0.1-0.4,0.4v0.5c0,0.2,0.1,0.4,0.4,0.4h14.2
			c0.2,0,0.4-0.1,0.4-0.4V206.7z M399,212.7c0,0.2,0.1,0.3,0.4,0.3h14.2c0.2,0,0.4-0.1,0.4-0.3v-0.6c0-0.2-0.1-0.3-0.4-0.3h-14.2
			c-0.2,0-0.4,0.1-0.4,0.3V212.7z M403.1,196.7c0.2,0,0.3-0.1,0.3-0.3v-4.6c0-0.2-0.1-0.3-0.3-0.3h-1.6c-0.1,0-0.2,0-0.2,0.1
			s-0.1,0.1,0,0.2c0.2,0.6,0.4,1.1,0.6,1.8c0.1,0.2,0.1,0.5,0.1,0.7c0,0.4-0.1,0.8-0.4,1.2c-0.4,0.6-0.9,1-1.6,1.2v0.1L403.1,196.7
			L403.1,196.7z M402.8,181.5v0.1c0,0.1,0,0.1,0.1,0.1h6.8c0.1,0,0.1,0,0.1-0.1s0-0.1,0-0.1c-1.2-0.8-2.3-1.6-3.3-2.5
			c-0.2-0.2-0.3-0.2-0.5,0C405,179.9,404,180.8,402.8,181.5z M411.1,191.8c0-0.2-0.1-0.3-0.3-0.3h-1.5c-0.2,0-0.4,0.1-0.4,0.3v4.6
			c0,0.2,0.1,0.3,0.4,0.3h2.5l0,0c-0.6-0.2-1-0.5-1.2-1c-0.2-0.3-0.3-0.6-0.3-1c0-0.2,0-0.4,0.1-0.6
			C410.7,193.2,410.9,192.5,411.1,191.8z M417,196.7c0.2,0,0.3-0.1,0.3-0.3v-4.6c0-0.2-0.1-0.3-0.3-0.3h-2.8l0,0l0,0l0,0
			c0.7,0.2,1.2,0.5,1.5,1.2c0.2,0.3,0.2,0.7,0.2,1s-0.1,0.6-0.2,0.9c-0.4,0.9-0.7,1.5-0.9,1.9c0,0.1,0,0.2,0,0.2
			c0,0.1,0.1,0.1,0.2,0.1L417,196.7L417,196.7z"/>
		<path class="st1" d="M471.6,207.4c0,0.7-0.3,1.4-0.8,1.9s-1.2,0.8-1.9,0.8H466c0,0.1,0,0.1,0,0.1c2.5,0.8,5.2,1.7,8.1,2.7
			c0.6,0.2,0.9,0.6,1,1.2c0,0.1,0,0.2,0,0.3c0,0.5-0.2,0.8-0.6,1.1l-1.8,1.5c-0.6,0.5-1.4,0.8-2.3,0.9c-0.2,0-0.4,0-0.6,0
			c-0.6,0-1.2-0.1-1.8-0.4c-3.2-1.3-6.7-2.5-10.4-3.6c-0.5-0.2-0.8-0.5-0.9-1.1c0-0.1,0-0.2,0-0.2c0-0.4,0.2-0.8,0.6-1l1.9-1.3v-0.1
			l-0.1-0.1h-11.2c0,0-0.1,0-0.1,0.1v0.1l1.4,1c0.5,0.3,0.7,0.8,0.7,1.3c0,0.7-0.3,1.2-0.9,1.5c-3,1.4-6.2,2.6-9.7,3.7
			c-0.4,0.1-0.8,0.2-1.2,0.2c-0.4,0-0.8-0.1-1.3-0.2c-0.8-0.2-1.5-0.6-2.1-1.2c-0.4-0.4-0.9-0.8-1.3-1.2c-0.2-0.2-0.3-0.4-0.4-0.6
			c-0.1-0.1-0.1-0.2-0.1-0.4c0-0.1,0-0.2,0-0.3c0.1-0.2,0.2-0.5,0.4-0.6c0.2-0.2,0.4-0.3,0.6-0.4c2.7-0.7,5.4-1.7,8-2.8
			c0.1,0,0.1-0.1,0.1-0.1s0,0-0.1,0h-3.2c-0.7,0-1.4-0.3-1.9-0.8s-0.8-1.2-0.8-1.9v-16c0-0.7,0.3-1.4,0.8-1.9s1.2-0.8,1.9-0.8h30
			c0.7,0,1.4,0.3,1.9,0.8s0.8,1.2,0.8,1.9v15.9L471.6,207.4L471.6,207.4z M467.3,174.9c0.8,0,1.4,0.3,1.9,0.8s0.8,1.2,0.8,1.9v7.1
			c0,0.7-0.3,1.4-0.8,1.9s-1.2,0.8-1.9,0.8h-26.2c-0.7,0-1.4-0.3-1.9-0.8s-0.8-1.2-0.8-1.9v-7.1c0-0.7,0.3-1.4,0.8-1.9
			s1.2-0.8,1.9-0.8H467.3z M443.4,193.2c-0.2,0-0.4,0.1-0.4,0.4v0.6c0,0.2,0.1,0.3,0.4,0.3h20.7c0.2,0,0.3-0.1,0.3-0.3v-0.6
			c0-0.2-0.1-0.4-0.3-0.4H443.4z M443.4,198.8c-0.2,0-0.4,0.1-0.4,0.4v0.5c0,0.2,0.1,0.4,0.4,0.4h20.7c0.2,0,0.3-0.1,0.3-0.4v-0.5
			c0-0.2-0.1-0.4-0.3-0.4H443.4z M443.4,204.3c-0.2,0-0.4,0.1-0.4,0.4v0.6c0,0.2,0.1,0.4,0.4,0.4h20.7c0.2,0,0.3-0.1,0.3-0.4v-0.6
			c0-0.2-0.1-0.4-0.3-0.4H443.4z M462.3,182.2c0.2,0,0.3-0.1,0.3-0.4v-1.3c0-0.2-0.1-0.3-0.3-0.3h-16.7c-0.2,0-0.3,0.1-0.3,0.3v1.3
			c0,0.2,0.1,0.4,0.3,0.4H462.3z"/>
		<path class="st1" d="M522.6,189.2c0,0.7-0.3,1.4-0.8,1.9s-1.2,0.8-1.9,0.8h-13c-0.1,0-0.2,0-0.2,0.1s-0.1,0.1,0,0.2
			c3.1,8.3,7.9,14.1,14.6,17.4c0.6,0.3,0.9,0.7,1.1,1.4c0,0.1,0,0.3,0,0.4c0,0.5-0.2,0.9-0.5,1.2c-0.6,0.7-1.2,1.5-1.8,2.3
			c-0.4,0.6-1,1.1-1.8,1.3c-0.3,0.1-0.5,0.1-0.8,0.1c-0.5,0-0.9-0.1-1.3-0.4c-3-1.7-5.6-3.7-7.8-6.2c-2.7-3-5-6.6-6.8-10.8
			c0-0.1-0.1-0.1-0.1-0.1c-0.1,0-0.1,0-0.1,0.1c-2.7,7.2-7.6,12.9-14.5,16.9c-0.4,0.2-0.9,0.4-1.3,0.4c-0.2,0-0.5,0-0.8-0.1
			c-0.7-0.2-1.3-0.6-1.8-1.2c-0.5-0.6-1-1.2-1.6-1.8c-0.4-0.4-0.6-0.8-0.6-1.3c0-0.1,0-0.2,0-0.3c0.1-0.6,0.4-1.1,0.9-1.4
			c3.7-2,6.6-4.3,8.7-7c2.5-3.2,4.3-6.9,5.4-11c0-0.1,0-0.2,0-0.2c-0.1-0.1-0.1-0.1-0.2-0.1H483c-0.7,0-1.4-0.3-1.9-0.8
			s-0.8-1.2-0.8-1.9v-1.7c0-0.7,0.3-1.4,0.8-1.9s1.2-0.8,1.9-0.8h13.7c0.2,0,0.4-0.1,0.4-0.3c0.1-1.7,0.2-4.8,0.2-9.3
			c0-0.7,0.3-1.4,0.8-1.9s1.2-0.8,1.9-0.8h2.1c0.7,0,1.4,0.3,1.9,0.8s0.8,1.2,0.8,1.9c0,3.1-0.1,6.2-0.4,9.3c0,0.2,0.1,0.3,0.3,0.3
			h15.1c0.7,0,1.4,0.3,1.9,0.8s0.8,1.2,0.8,1.9L522.6,189.2L522.6,189.2z"/>
		<path class="st1" d="M569.4,198.6c0.5,0.5,0.8,0.8,0.8,0.8s0,0.4,0,1.1c0,0.7-0.3,1.3-0.8,1.9s-1.1,0.8-1.9,0.8h-3.7
			c0,0-0.1,0-0.1,0.1s0,0.1,0,0.1c1.7,0.9,3.5,1.7,5.5,2.3c0.6,0.2,0.9,0.6,1.1,1.1c0,0.2,0,0.4,0,0.5c0,0.4-0.1,0.8-0.4,1.1
			c-0.3,0.4-0.7,0.8-1,1.2c-0.5,0.6-1.1,1.1-1.8,1.3c-0.3,0.1-0.7,0.2-1,0.2c-0.4,0-0.8-0.1-1.2-0.2c-0.8-0.3-1.6-0.7-2.4-1.2
			c-0.1,0-0.2,0-0.3,0s-0.1,0.1-0.1,0.2c-0.2,1.9-0.5,3.4-0.8,4.5s-0.7,1.9-1.2,2.4c-0.9,0.9-2.2,1.4-3.8,1.6
			c-0.7,0.1-1.7,0.2-3,0.2c-0.8,0-1.4-0.3-2-0.8s-1-1.2-1.2-1.9c0-0.1,0-0.1,0-0.1c-0.1-0.2-0.1-0.4-0.1-0.6c0-0.4,0.1-0.7,0.4-1
			c0.3-0.5,0.7-0.7,1.3-0.7h0.1c0.6,0,1,0,1.5,0c0.6,0,1.1-0.2,1.5-0.5c0.3-0.3,0.5-0.9,0.7-1.9c0.1-0.2,0-0.4-0.3-0.4h-5.9
			c-0.2,0-0.4,0.1-0.5,0.3c-1,1.8-2.4,3.2-4.3,4.4c-1.9,1.2-4.5,2.2-7.8,3c-0.2,0.1-0.5,0.1-0.7,0.1c-0.5,0-1-0.1-1.5-0.4
			c-0.7-0.4-1.2-0.9-1.7-1.6c-0.1-0.2-0.2-0.4-0.4-0.6c-0.2-0.3-0.3-0.6-0.3-0.9c0-0.2,0-0.4,0.1-0.6c0.2-0.6,0.6-0.9,1.2-1
			c3.1-0.6,5.5-1.4,7-2.5c0,0,0,0,0-0.1s0-0.1-0.1-0.1h-4.6c-0.4,0-0.7-0.1-1-0.4c-0.3-0.3-0.4-0.6-0.4-1c0-0.1,0-0.2-0.1-0.1
			c-0.8,0.4-1.6,0.8-2.6,1.2c-0.4,0.2-0.8,0.2-1.2,0.2c-0.3,0-0.7-0.1-1-0.2c-0.7-0.2-1.3-0.7-1.8-1.3c-0.2-0.2-0.3-0.4-0.5-0.6
			c-0.3-0.3-0.4-0.7-0.4-1.1c0-0.2,0-0.3,0.1-0.5c0.1-0.6,0.5-1,1.1-1.2c1.8-0.6,3.3-1.3,4.8-2.2v-0.1c0,0,0-0.1-0.1-0.1h-3.1
			c-0.7,0-1.4-0.3-1.9-0.8s-0.8-1.1-0.8-1.9c0-0.7,0.3-1.3,0.8-1.9c0.5-0.5,1.1-0.8,1.9-0.8h8.9c0.2,0,0.4-0.1,0.5-0.3l0.4-0.5
			c0-0.1,0-0.2,0-0.2c0-0.1-0.1-0.1-0.2-0.1h-4.6c-0.8,0-1.4-0.3-1.9-0.8s-0.8-1.2-0.8-1.9v-8.2c0-0.7,0.3-1.4,0.8-1.9
			s1.2-0.8,1.9-0.8h27.8c0.8,0,1.4,0.3,1.9,0.8s0.8,1.2,0.8,1.9v8.2c0,0.8-0.3,1.4-0.8,1.9s-1.2,0.8-1.9,0.8h-15.4
			c-0.2,0-0.4,0.1-0.5,0.3l-0.3,0.5c0,0.1,0,0.1,0,0.2c0,0.1,0.1,0.1,0.2,0.1h20.8C568.2,197.8,568.9,198.1,569.4,198.6z
			 M538.6,182.3c-0.3,0-0.6-0.1-0.8-0.3s-0.3-0.5-0.3-0.8c0-0.1,0-0.1-0.1-0.1h-6.8c-0.7,0-1.4-0.3-1.9-0.8s-0.8-1.2-0.8-1.9
			s0.3-1.4,0.8-1.9s1.2-0.8,1.9-0.8h6.7c0.2,0,0.2-0.1,0.2-0.3c0-0.5,0.2-1,0.6-1.4c0.4-0.4,0.8-0.6,1.4-0.6h2.8
			c0.5,0,1,0.2,1.4,0.6c0.4,0.4,0.6,0.8,0.6,1.4c0,0.2,0.1,0.3,0.2,0.3h8.4c0.2,0,0.2-0.1,0.2-0.3c0-0.5,0.2-1,0.6-1.4
			s0.8-0.6,1.4-0.6h2.9c0.5,0,1,0.2,1.4,0.6c0.4,0.4,0.6,0.8,0.6,1.4c0,0.2,0.1,0.3,0.2,0.3h6.7c0.7,0,1.4,0.3,1.9,0.8
			s0.8,1.1,0.8,1.9s-0.3,1.4-0.8,1.9s-1.2,0.8-1.9,0.8H560c-0.1,0-0.1,0-0.1,0.1c0,0.3-0.1,0.6-0.3,0.8s-0.5,0.3-0.8,0.3h-4.6
			c-0.3,0-0.6-0.1-0.8-0.3s-0.3-0.5-0.3-0.8c0-0.1,0-0.1-0.1-0.1h-8.6c-0.1,0-0.1,0-0.1,0.1c0,0.3-0.1,0.6-0.3,0.8s-0.5,0.3-0.8,0.3
			H538.6z M539,186.9c-0.2,0-0.3,0.1-0.3,0.4v0.5c0,0.2,0.1,0.4,0.3,0.4h19.1c0.2,0,0.4-0.1,0.4-0.4v-0.5c0-0.2-0.1-0.4-0.4-0.4H539
			z M539,191.7c-0.2,0-0.3,0.1-0.3,0.3v0.5c0,0.2,0.1,0.3,0.3,0.3h19.1c0.2,0,0.4-0.1,0.4-0.3V192c0-0.2-0.1-0.3-0.4-0.3H539z
			 M544.1,205.5c0.1-0.5,0.3-0.9,0.7-1.2s0.8-0.5,1.4-0.5h3c0.5,0,0.8,0.2,1.2,0.5c0.3,0.4,0.4,0.8,0.4,1.2c0,0.2,0,0.2,0.2,0.2h6.2
			c0.1,0,0.1,0,0.1-0.1s0-0.1,0-0.1c-0.5-0.5-1.2-1.2-2-2.1c-0.2-0.2-0.3-0.3-0.6-0.3h-11.6c-0.2,0-0.4,0.1-0.6,0.3
			c-0.8,0.8-1.6,1.5-2.4,2.1v0.1c0,0.1,0.1,0.1,0.1,0.1h3.7C544,205.7,544.1,205.6,544.1,205.5z"/>
		<path class="st1" d="M616.8,203.6c0.5,0.5,0.8,1.2,0.8,1.9s-0.3,1.4-0.8,1.9s-1.2,0.8-1.9,0.8h-9.4c0,0-0.1,0-0.1,0.1v0.1
			c3.2,1.5,6.8,2.8,10.6,3.8c0.6,0.2,1,0.5,1.1,1.1c0.1,0.2,0.1,0.4,0.1,0.6c0,0.4-0.1,0.7-0.4,1c-0.3,0.4-0.6,0.8-0.9,1.2
			c-0.5,0.7-1.1,1.2-1.9,1.4c-0.4,0.2-0.8,0.2-1.2,0.2s-0.7-0.1-1.1-0.2c-4.3-1.5-8.4-3.5-12.3-6c-0.1-0.1-0.1-0.1-0.2,0
			c-0.1,0-0.1,0.1-0.1,0.2v4.2c0,0.8-0.3,1.4-0.8,1.9s-1.2,0.8-1.9,0.8H595c-0.7,0-1.4-0.3-1.9-0.8s-0.8-1.2-0.8-1.9v-4
			c0-0.1,0-0.1-0.1-0.2c-0.1,0-0.1,0-0.2,0c-3.7,2.4-7.9,4.4-12.5,5.9c-0.3,0.1-0.7,0.2-1.1,0.2s-0.8-0.1-1.2-0.2
			c-0.8-0.3-1.4-0.8-1.9-1.4c-0.3-0.4-0.7-0.9-1-1.3c-0.2-0.3-0.4-0.7-0.4-1c0-0.2,0-0.4,0.1-0.6c0.2-0.6,0.6-0.9,1.2-1.1
			c4.3-1,8.1-2.3,11.4-3.8c0,0,0,0,0-0.1c0,0,0-0.1-0.1-0.1H577c-0.7,0-1.4-0.3-1.9-0.8s-0.8-1.2-0.8-1.9s0.3-1.4,0.8-1.9
			s1.2-0.8,1.9-0.8h15c0.2,0,0.3-0.1,0.3-0.3v-0.6c0-0.2-0.1-0.3-0.3-0.3h-9.7c-0.8,0-1.4-0.3-1.9-0.8s-0.8-1.2-0.8-1.9v-9.4
			c0-0.1,0-0.1-0.1-0.1c0,0-0.1,0-0.2,0c-0.4,0.3-0.8,0.5-1.2,0.5c-0.1,0-0.1,0-0.2,0c-0.6-0.1-1-0.3-1.4-0.7
			c-0.4-0.5-0.9-1-1.4-1.4c-0.5-0.5-0.7-1-0.7-1.7s0.3-1.2,0.8-1.7c3.1-2.4,5.6-5.2,7.8-8.4c0.4-0.7,1-1.2,1.8-1.5
			c0.5-0.2,1-0.4,1.6-0.4c0.2,0,0.5,0,0.7,0.1l1.7,0.4c0.6,0.1,1.1,0.5,1.4,1.1c0.1,0.3,0.1,0.5,0.1,0.8s-0.1,0.7-0.3,1
			s-0.4,0.6-0.6,1c-0.1,0.1-0.1,0.1,0,0.2c0,0.1,0.1,0.1,0.2,0.1h4.6c0.2,0,0.4-0.1,0.5-0.3c0.3-0.7,0.6-1.3,0.9-2
			c0.3-0.7,0.8-1.3,1.4-1.8c0.6-0.3,1.1-0.5,1.8-0.5c0.1,0,0.3,0,0.4,0l2.4,0.3c0.6,0.1,1.1,0.4,1.4,1c0.2,0.3,0.2,0.6,0.2,0.8
			c0,0.3-0.1,0.6-0.3,0.9c-0.3,0.4-0.6,0.9-0.8,1.3c0,0.1,0,0.1,0,0.2c0,0.1,0.1,0.1,0.1,0.1h10.4c0.7,0,1.3,0.3,1.9,0.8
			c0.5,0.5,0.8,1.1,0.8,1.9s-0.3,1.3-0.8,1.9c-0.5,0.5-1.1,0.8-1.9,0.8H601c-0.2,0-0.4,0.1-0.4,0.3v0.6c0,0.2,0.1,0.3,0.4,0.3h9.4
			c0.6,0,1.1,0.2,1.5,0.6c0.4,0.4,0.6,0.9,0.6,1.5s-0.2,1.1-0.6,1.5c-0.4,0.4-0.9,0.6-1.5,0.6H601c-0.2,0-0.4,0.1-0.4,0.4v0.6
			c0,0.2,0.1,0.3,0.4,0.3h9.4c0.6,0,1.1,0.2,1.5,0.6c0.4,0.4,0.6,0.9,0.6,1.5s-0.2,1.1-0.6,1.5c-0.4,0.4-0.9,0.6-1.5,0.6H601
			c-0.2,0-0.4,0.1-0.4,0.4v0.6c0,0.2,0.1,0.3,0.4,0.3h12.8c0.7,0,1.3,0.2,1.8,0.7s0.7,1.1,0.7,1.8s-0.2,1.3-0.7,1.8
			s-1.1,0.8-1.8,0.8h-14.1c-0.2,0-0.3,0.1-0.3,0.3v0.6c0,0.2,0.1,0.3,0.3,0.3h15.2C615.7,202.8,616.3,203,616.8,203.6z M593.7,185
			c0.2,0,0.4-0.1,0.4-0.3V184c0-0.2-0.1-0.3-0.4-0.3h-7.1c-0.2,0-0.4,0.1-0.4,0.3v0.6c0,0.2,0.1,0.3,0.4,0.3L593.7,185L593.7,185z
			 M593.7,190.7c0.2,0,0.4-0.1,0.4-0.3v-0.6c0-0.2-0.1-0.4-0.4-0.4h-7.1c-0.2,0-0.4,0.1-0.4,0.4v0.6c0,0.2,0.1,0.3,0.4,0.3H593.7z
			 M586.6,195c-0.2,0-0.4,0.1-0.4,0.4v0.6c0,0.2,0.1,0.3,0.4,0.3h7.1c0.2,0,0.4-0.1,0.4-0.3v-0.6c0-0.2-0.1-0.4-0.4-0.4H586.6z"/>
	</g>
</g>
<g>
	<g>
		<g>
			<path class="st2" d="M393.5,217.5c-0.9,0-1.7-0.3-2.3-0.9c-0.6-0.6-0.9-1.4-0.9-2.3v-11.2c0-0.9,0.3-1.7,0.9-2.3s1.4-0.9,2.3-0.9
				h23.3c0.9,0,1.7,0.3,2.3,0.9c0.6,0.6,0.9,1.4,0.9,2.3v11c0,0.9-0.3,1.7-0.9,2.3s-1.4,0.9-2.3,0.9h-3.5c-0.4,0-0.7-0.1-1-0.4
				c-0.2-0.2-0.3-0.3-0.3-0.5h-14c-0.1,0.3-0.2,0.5-0.4,0.7c-0.3,0.3-0.7,0.4-1.1,0.4H393.5z M411.9,211v-0.2H398v0.2H411.9z
				 M411.9,205.4v-0.2H398v0.2H411.9z M390.9,199.7c-0.9,0-1.6-0.3-2.3-0.9c-0.6-0.6-1-1.4-1-2.3v-8.9c-0.2,0.1-0.5,0.1-0.7,0.1
				c-0.4,0-0.8-0.1-1.2-0.2c-0.7-0.3-1.3-0.8-1.8-1.5l-0.7-1.1c-0.3-0.5-0.5-0.9-0.5-1.4c0-0.3,0.1-0.6,0.2-0.8
				c0.2-0.7,0.7-1.3,1.5-1.5c2.7-0.9,5.3-2.1,7.8-3.4c2.5-1.3,4.7-2.8,6.5-4.3c1.6-1.3,3.3-2,5-2h1c1.8,0,3.6,0.6,5.2,1.9
				c4.3,3.3,9.4,5.9,15.2,7.5c0.8,0.2,1.3,0.7,1.5,1.5c0.1,0.2,0.1,0.5,0.1,0.7c0,0.5-0.1,0.9-0.4,1.3c-0.4,0.6-0.9,1.3-1.3,2
				c-0.3,0.5-0.8,0.9-1.5,1.2c-0.3,0.1-0.6,0.2-0.9,0.2c-0.2,0-0.3,0-0.5,0v8.8c0,0.9-0.3,1.7-1,2.3c-0.6,0.6-1.4,0.9-2.3,0.9h-27.9
				L390.9,199.7L390.9,199.7z M415.3,194.6v-4.3h-0.9c0.1,0.1,0.2,0.3,0.3,0.5c0.2,0.4,0.3,0.8,0.3,1.2s-0.1,0.8-0.3,1.1
				c-0.3,0.6-0.5,1.1-0.7,1.5H415.3z M401.5,194.6v-4.3h-1.1c0.2,0.5,0.3,0.9,0.5,1.4c0.1,0.3,0.1,0.6,0.1,0.8c0,0.5-0.1,1-0.4,1.5
				c-0.1,0.2-0.2,0.3-0.4,0.5h1.3V194.6z M395.3,194.6c-0.1-0.4-0.1-0.8-0.2-1.2c0-0.3-0.1-0.5-0.1-0.8c0-0.6,0.1-1.1,0.4-1.7
				c0.1-0.2,0.3-0.4,0.4-0.6h-1.5v4.3H395.3z M408.9,194.6c-0.1-0.1-0.1-0.2-0.2-0.3c-0.2-0.4-0.3-0.8-0.3-1.2c0-0.3,0-0.5,0.1-0.8
				c0.2-0.7,0.4-1.3,0.6-2H408v4.3H408.9z M416.4,185.2c-0.9-0.4-1.7-0.8-2.6-1.3c-0.1,0.2-0.2,0.4-0.4,0.6
				c-0.3,0.3-0.8,0.5-1.2,0.5H398c-0.5,0-1-0.2-1.4-0.6c-0.2-0.2-0.4-0.5-0.4-0.7c-0.9,0.5-1.9,1-2.9,1.4h23.1L416.4,185.2
				L416.4,185.2z M407,179.7c-0.8-0.6-1.6-1.2-2.3-1.8c-0.7,0.6-1.4,1.2-2.2,1.8H407z"/>
			<path class="st3" d="M405,172c1.7,0,3.3,0.6,4.9,1.8c4.3,3.4,9.5,5.9,15.4,7.6c0.6,0.2,1,0.5,1.2,1.2c0.1,0.2,0.1,0.4,0.1,0.6
				c0,0.4-0.1,0.7-0.3,1c-0.4,0.6-0.9,1.3-1.3,2c-0.3,0.5-0.7,0.8-1.2,1c-0.2,0.1-0.5,0.1-0.7,0.1s-0.5,0-0.8-0.1h-0.1
				c-0.1,0-0.1,0.1-0.1,0.2v9.3c0,0.8-0.3,1.4-0.8,1.9s-1.2,0.8-1.9,0.8h-28.3c-0.7,0-1.4-0.3-1.9-0.8s-0.8-1.2-0.8-1.9v-9.3
				c0-0.1,0-0.2-0.1-0.2s-0.1,0-0.2,0c-0.3,0.1-0.6,0.2-0.9,0.2s-0.7-0.1-1-0.2c-0.6-0.2-1.2-0.7-1.5-1.3c-0.2-0.4-0.5-0.7-0.7-1.1
				c-0.2-0.4-0.4-0.7-0.4-1.1c0-0.2,0-0.4,0.1-0.6c0.2-0.6,0.6-1,1.2-1.2c2.7-0.9,5.4-2.1,7.9-3.4c2.5-1.4,4.7-2.8,6.6-4.3
				c1.5-1.2,3.1-1.9,4.7-1.9h0.9 M401.4,180.2h6.8c0.1,0,0.1,0,0.1-0.1s0-0.1,0-0.1c-1.2-0.8-2.3-1.6-3.3-2.5
				c-0.1-0.1-0.2-0.1-0.2-0.1s-0.2,0-0.3,0.1c-1,0.9-2,1.7-3.1,2.5C401.3,180,401.3,180,401.4,180.2
				C401.3,180.2,401.3,180.2,401.4,180.2 M391.3,185.7h27.2c0.1,0,0.1,0,0.1,0l0,0c-1.6-0.7-3.3-1.5-5-2.4h-0.1c0,0-0.1,0-0.1,0.1
				c0,0.3-0.1,0.6-0.4,0.9c-0.2,0.2-0.5,0.4-0.9,0.4h-14.2c-0.4,0-0.7-0.1-1-0.4c-0.3-0.3-0.4-0.6-0.4-1c0-0.1,0-0.1-0.1-0.1h-0.1
				c-1.6,0.9-3.3,1.7-5.1,2.5C391.3,185.6,391.2,185.6,391.3,185.7C391.2,185.7,391.3,185.7,391.3,185.7 M412.7,189.9L412.7,189.9
				c0.7,0.2,1.2,0.5,1.5,1.2c0.2,0.3,0.2,0.7,0.2,1s-0.1,0.6-0.2,0.9c-0.4,0.9-0.7,1.5-0.9,1.9c0,0.1,0,0.2,0,0.2
				c0,0.1,0.1,0.1,0.2,0.1h1.9c0.2,0,0.3-0.1,0.3-0.3v-4.6c0-0.2-0.1-0.3-0.3-0.3L412.7,189.9L412.7,189.9L412.7,189.9 M407.8,195.1
				h2.5l0,0c-0.6-0.2-1-0.5-1.2-1c-0.2-0.3-0.3-0.6-0.3-1c0-0.2,0-0.4,0.1-0.6c0.2-0.8,0.5-1.6,0.6-2.3c0-0.2-0.1-0.3-0.3-0.3h-1.5
				c-0.2,0-0.4,0.1-0.4,0.3v4.6C407.5,195,407.6,195.1,407.8,195.1 M398.5,195.1h3.1c0.2,0,0.3-0.1,0.3-0.3v-4.6
				c0-0.2-0.1-0.3-0.3-0.3H400c-0.1,0-0.2,0-0.2,0.1s-0.1,0.1,0,0.2c0.2,0.6,0.4,1.1,0.6,1.8c0.1,0.2,0.1,0.5,0.1,0.7
				c0,0.4-0.1,0.8-0.4,1.2C399.7,194.5,399.2,194.9,398.5,195.1L398.5,195.1 M394.2,195.1h1.3c0.2,0,0.3-0.1,0.3-0.3
				c-0.1-0.5-0.2-1-0.3-1.5c0-0.2,0-0.4,0-0.6c0-0.5,0.1-1,0.4-1.4c0.4-0.6,0.9-1.1,1.6-1.2h0.2l0,0l0,0h-3.5
				c-0.2,0-0.4,0.1-0.4,0.3v4.6C393.9,195,394,195.1,394.2,195.1 M416.7,200.4c0.8,0,1.4,0.3,1.9,0.8s0.8,1.2,0.8,1.9v11
				c0,0.8-0.3,1.4-0.8,1.9s-1.2,0.8-1.9,0.8h-3.5c-0.2,0-0.4-0.1-0.6-0.2c-0.2-0.2-0.2-0.4-0.2-0.6c0-0.1,0-0.1-0.1-0.1h-14.6
				c-0.1,0-0.1,0-0.1,0.1c0,0.3-0.1,0.6-0.3,0.7c-0.2,0.2-0.4,0.3-0.7,0.3h-3c-0.8,0-1.4-0.3-1.9-0.8s-0.8-1.2-0.8-1.9v-11.2
				c0-0.8,0.3-1.4,0.8-1.9s1.2-0.8,1.9-0.8H416.7 M397.9,205.9H412c0.2,0,0.4-0.1,0.4-0.4V205c0-0.2-0.1-0.4-0.4-0.4h-14.2
				c-0.2,0-0.4,0.1-0.4,0.4v0.5C397.5,205.8,397.6,205.9,397.9,205.9 M397.9,211.5H412c0.2,0,0.4-0.1,0.4-0.3v-0.6
				c0-0.2-0.1-0.3-0.4-0.3h-14.2c-0.2,0-0.4,0.1-0.4,0.3v0.6C397.5,211.4,397.6,211.5,397.9,211.5 M405,171h-1
				c-1.9,0-3.7,0.7-5.4,2.1c-1.8,1.5-4,2.9-6.4,4.2c-2.5,1.3-5.1,2.5-7.8,3.4c-0.9,0.3-1.5,0.9-1.8,1.8c-0.1,0.3-0.2,0.7-0.2,1
				c0,0.6,0.2,1.1,0.5,1.7l0.7,1.1c0.5,0.8,1.1,1.3,2,1.7c0.4,0.2,0.9,0.3,1.3,0.3c0.1,0,0.1,0,0.2,0v8.4c0,1,0.4,1.9,1.1,2.7
				c0.7,0.7,1.6,1.1,2.6,1.1h0.2c-0.1,0.1-0.2,0.2-0.3,0.2c-0.7,0.7-1.1,1.6-1.1,2.7v11.2c0,1,0.4,1.9,1.1,2.7
				c0.7,0.7,1.6,1.1,2.7,1.1h3c0.5,0,1-0.2,1.4-0.5c0.2-0.2,0.3-0.4,0.4-0.6h13.3c0.1,0.1,0.2,0.3,0.3,0.4c0.3,0.3,0.8,0.5,1.3,0.5
				h3.5c1,0,1.9-0.4,2.6-1.1c0.7-0.7,1.1-1.6,1.1-2.7v-11c0-1-0.4-1.9-1.1-2.6c-0.1-0.1-0.2-0.2-0.3-0.2h0.1c1,0,1.9-0.4,2.6-1.1
				c0.7-0.7,1.1-1.6,1.1-2.7v-8.3c0.4,0,0.7-0.1,1.1-0.2c0.7-0.3,1.3-0.7,1.7-1.4c0.4-0.6,0.9-1.3,1.3-1.9c0.3-0.5,0.5-1,0.5-1.6
				c0-0.3,0-0.6-0.1-0.9c-0.3-0.9-1-1.6-1.9-1.8c-5.7-1.6-10.8-4.1-15-7.4C408.8,171.6,406.9,171,405,171L405,171z M404,179.2
				c0.2-0.2,0.5-0.4,0.7-0.6c0.2,0.2,0.5,0.4,0.8,0.6H404L404,179.2z M395.4,184.7c0.2-0.1,0.3-0.2,0.5-0.3c0.1,0.1,0.1,0.2,0.2,0.3
				H395.4L395.4,184.7z M413.9,184.7l0.1-0.1c0.1,0,0.2,0.1,0.3,0.1H413.9L413.9,184.7z M394.9,190.9L394.9,190.9
				c0.1,0.1,0,0.1,0,0.2V190.9L394.9,190.9z M414.8,194.1L414.8,194.1L414.8,194.1L414.8,194.1L414.8,194.1z"/>
		</g>
		<g>
			<path class="st2" d="M436.7,217c-0.4,0-0.9-0.1-1.4-0.2c-0.9-0.2-1.7-0.7-2.3-1.4l-1.3-1.2c-0.2-0.2-0.4-0.5-0.5-0.8
				c-0.1-0.2-0.1-0.4-0.1-0.5c0-0.2,0-0.3,0.1-0.5c0.1-0.3,0.2-0.6,0.5-0.8c0.2-0.2,0.5-0.4,0.9-0.5c2-0.5,3.9-1.2,5.9-1.9h-1
				c-0.9,0-1.6-0.3-2.3-1c-0.6-0.6-1-1.4-1-2.3v-16c0-0.9,0.3-1.6,1-2.3s1.4-1,2.3-1h30c0.9,0,1.6,0.3,2.3,1c0.6,0.6,1,1.4,1,2.3v16
				c0,0.9-0.3,1.6-1,2.3c-0.6,0.6-1.3,0.9-2.2,1c1.7,0.6,3.5,1.2,5.3,1.8c0.7,0.2,1.2,0.8,1.3,1.6c0,0.1,0.1,0.3,0.1,0.4
				c0,0.6-0.3,1.2-0.8,1.5l-1.8,1.5c-0.7,0.6-1.6,0.9-2.5,1c-0.2,0-0.5,0.1-0.7,0.1c-0.7,0-1.3-0.1-2-0.4c-3.2-1.2-6.6-2.5-10.3-3.6
				c-0.7-0.2-1.1-0.7-1.3-1.5v-0.3c0-0.6,0.3-1.1,0.8-1.4l0.8-0.6h-8.8l0.4,0.3c0.6,0.4,0.9,1,0.9,1.7c0,0.9-0.4,1.6-1.2,2
				c-3,1.4-6.3,2.7-9.8,3.7C437.6,216.9,437.1,217,436.7,217z M462.4,203.5v-0.3H442v0.3H462.4z M462.4,197.9v-0.3H442v0.2
				L462.4,197.9z M462.4,192.4v-0.2H442v0.2H462.4z M439.6,186.4c-0.9,0-1.6-0.3-2.3-1c-0.6-0.6-1-1.4-1-2.3V176
				c0-0.9,0.3-1.6,1-2.3c0.6-0.6,1.4-1,2.3-1h26.2c0.9,0,1.7,0.3,2.3,1c0.6,0.6,0.9,1.4,0.9,2.3v7.1c0,0.9-0.3,1.6-0.9,2.3
				c-0.6,0.6-1.4,1-2.3,1L439.6,186.4L439.6,186.4z M460.7,180.1v-1h-16.4v1H460.7z"/>
			<path class="st3" d="M465.8,173.3c0.8,0,1.4,0.3,1.9,0.8s0.8,1.2,0.8,1.9v7.1c0,0.7-0.3,1.4-0.8,1.9s-1.2,0.8-1.9,0.8h-26.2
				c-0.7,0-1.4-0.3-1.9-0.8s-0.8-1.2-0.8-1.9V176c0-0.7,0.3-1.4,0.8-1.9s1.2-0.8,1.9-0.8H465.8 M444.1,180.6h16.7
				c0.2,0,0.3-0.1,0.3-0.4v-1.3c0-0.2-0.1-0.3-0.3-0.3h-16.7c-0.2,0-0.3,0.1-0.3,0.3v1.3C443.8,180.5,443.9,180.6,444.1,180.6
				 M467.4,187.1c0.7,0,1.4,0.3,1.9,0.8s0.8,1.2,0.8,1.9v16c0,0.7-0.3,1.4-0.8,1.9s-1.2,0.8-1.9,0.8h-2.9c0,0.1,0,0.1,0,0.1
				c2.5,0.8,5.2,1.7,8.1,2.7c0.6,0.2,0.9,0.6,1,1.2c0,0.1,0,0.2,0,0.3c0,0.5-0.2,0.8-0.6,1.1l-1.8,1.5c-0.6,0.5-1.4,0.8-2.3,0.9
				c-0.2,0-0.4,0-0.6,0c-0.6,0-1.2-0.1-1.8-0.4c-3.2-1.3-6.7-2.5-10.4-3.6c-0.5-0.2-0.8-0.5-0.9-1.1c0-0.1,0-0.2,0-0.2
				c0-0.4,0.2-0.8,0.6-1l1.9-1.3v-0.1l-0.1-0.1h-11.2c0,0-0.1,0-0.1,0.1v0.1l1.4,1c0.5,0.3,0.7,0.8,0.7,1.3c0,0.7-0.3,1.2-0.9,1.5
				c-3,1.4-6.2,2.6-9.7,3.7c-0.4,0.1-0.8,0.2-1.2,0.2c-0.4,0-0.8-0.1-1.3-0.2c-0.8-0.2-1.5-0.6-2.1-1.2c-0.4-0.4-0.9-0.8-1.3-1.2
				c-0.2-0.2-0.3-0.4-0.4-0.6c-0.1-0.1-0.1-0.2-0.1-0.4c0-0.1,0-0.2,0-0.3c0.1-0.2,0.2-0.5,0.4-0.6c0.2-0.2,0.4-0.3,0.6-0.4
				c2.7-0.7,5.4-1.7,8-2.8c0.1,0,0.1-0.1,0.1-0.1s0,0-0.1,0h-3.2c-0.7,0-1.4-0.3-1.9-0.8s-0.8-1.2-0.8-1.9v-16
				c0-0.7,0.3-1.4,0.8-1.9s1.2-0.8,1.9-0.8L467.4,187.1 M441.9,192.9h20.7c0.2,0,0.3-0.1,0.3-0.3V192c0-0.2-0.1-0.4-0.3-0.4h-20.7
				c-0.2,0-0.4,0.1-0.4,0.4v0.6C441.5,192.8,441.6,192.9,441.9,192.9 M441.9,198.4h20.7c0.2,0,0.3-0.1,0.3-0.4v-0.5
				c0-0.2-0.1-0.4-0.3-0.4h-20.7c-0.2,0-0.4,0.1-0.4,0.4v0.5C441.5,198.3,441.6,198.4,441.9,198.4 M441.9,204h20.7
				c0.2,0,0.3-0.1,0.3-0.4V203c0-0.2-0.1-0.4-0.3-0.4h-20.7c-0.2,0-0.4,0.1-0.4,0.4v0.6C441.5,203.9,441.6,204,441.9,204
				 M465.8,172.3h-26.2c-1,0-1.9,0.4-2.6,1.1c-0.7,0.7-1.1,1.6-1.1,2.6v7.1c0,1,0.4,1.9,1.1,2.6c0.1,0.1,0.2,0.2,0.3,0.3
				c-1,0-1.8,0.4-2.6,1.1c-0.7,0.7-1.1,1.6-1.1,2.6v16c0,1,0.4,1.9,1.1,2.6c0.4,0.4,0.9,0.7,1.4,0.9c-1.3,0.4-2.5,0.8-3.8,1.2
				c-0.4,0.1-0.8,0.3-1.1,0.6c-0.3,0.3-0.5,0.7-0.6,1.1c-0.1,0.2-0.1,0.4-0.1,0.6c0,0.2,0.1,0.5,0.2,0.7c0.1,0.4,0.3,0.7,0.6,1
				l0.7,0.6l0.6,0.6c0.7,0.7,1.6,1.2,2.5,1.5c0.5,0.1,1,0.2,1.5,0.2s1-0.1,1.5-0.2c3.5-1,6.8-2.3,9.8-3.7c1-0.5,1.5-1.3,1.5-2.4
				c0-0.6-0.2-1.1-0.5-1.5h6c-0.4,0.4-0.6,0.9-0.6,1.5v0.2v0.1v0.1c0.2,0.9,0.7,1.6,1.6,1.9c3.7,1.1,7.1,2.3,10.3,3.6
				c0.7,0.3,1.4,0.4,2.1,0.4c0.3,0,0.5,0,0.8-0.1c1-0.1,2-0.5,2.7-1.1l1.8-1.5c0.6-0.5,1-1.1,1-1.9c0-0.2,0-0.3-0.1-0.5
				c-0.2-0.9-0.7-1.6-1.6-1.9c-1.3-0.5-2.6-0.9-3.8-1.3c0.3-0.2,0.6-0.4,0.8-0.6c0.7-0.7,1.1-1.6,1.1-2.6v-16c0-1-0.4-1.9-1.1-2.6
				c-0.6-0.6-1.2-0.9-2-1.1c0.1-0.1,0.3-0.2,0.4-0.4c0.7-0.7,1.1-1.6,1.1-2.6V176c0-1-0.4-1.9-1.1-2.6
				C467.7,172.7,466.8,172.3,465.8,172.3L465.8,172.3z M444.8,179.6h15.4l0,0H444.8L444.8,179.6L444.8,179.6z"/>
		</g>
		<g>
			<path class="st2" d="M516,215.4c-0.5,0-1.1-0.1-1.6-0.4c-3-1.7-5.7-3.8-7.9-6.3c-2.5-2.8-4.8-6.3-6.6-10.2
				c-2.8,6.9-7.6,12.5-14.4,16.4c-0.5,0.3-1,0.4-1.6,0.4c-0.3,0-0.6,0-0.9-0.1c-0.8-0.3-1.5-0.7-2.1-1.4c-0.5-0.6-1-1.2-1.5-1.8
				c-0.5-0.5-0.7-1.1-0.7-1.7c0-0.1,0-0.3,0.1-0.4c0.1-0.8,0.5-1.3,1.2-1.7c3.6-1.9,6.5-4.2,8.6-6.9c2.4-3.1,4.2-6.6,5.2-10.5h-12.3
				c-0.9,0-1.6-0.3-2.3-1c-0.6-0.6-1-1.4-1-2.3v-1.7c0-0.9,0.3-1.6,1-2.3s1.4-1,2.3-1H495c0.1-1.6,0.2-4.6,0.2-9.1
				c0-0.9,0.4-1.6,1-2.3c0.6-0.6,1.4-1,2.3-1h2.1c0.9,0,1.6,0.3,2.3,0.9s0.9,1.4,0.9,2.3c0,3-0.1,6-0.4,9.1h14.9
				c0.9,0,1.6,0.3,2.3,1c0.6,0.6,1,1.4,1,2.3v1.7c0,0.9-0.3,1.6-1,2.3s-1.4,1-2.3,1h-12.6c3,7.9,7.8,13.6,14.2,16.8
				c0.7,0.3,1.2,0.9,1.3,1.7v0.5c0,0.6-0.2,1.1-0.6,1.6c-0.6,0.7-1.2,1.5-1.7,2.2s-1.2,1.2-2,1.5C516.6,215.3,516.3,215.4,516,215.4
				z"/>
			<path class="st3" d="M500.6,170.9c0.7,0,1.4,0.3,1.9,0.8s0.8,1.2,0.8,1.9c0,3.1-0.1,6.2-0.4,9.3c0,0.2,0.1,0.3,0.3,0.3h15.1
				c0.7,0,1.4,0.3,1.9,0.8s0.8,1.2,0.8,1.9v1.7c0,0.7-0.3,1.4-0.8,1.9s-1.2,0.8-1.9,0.8h-13c-0.1,0-0.2,0-0.2,0.1s-0.1,0.1,0,0.2
				c3.1,8.3,7.9,14.1,14.6,17.4c0.6,0.3,0.9,0.7,1.1,1.4c0,0.1,0,0.3,0,0.4c0,0.5-0.2,0.9-0.5,1.2c-0.6,0.7-1.2,1.5-1.8,2.3
				c-0.4,0.6-1,1.1-1.8,1.3c-0.3,0.1-0.5,0.1-0.8,0.1c-0.5,0-0.9-0.1-1.3-0.4c-3-1.7-5.6-3.7-7.8-6.2c-2.7-3-5-6.6-6.8-10.8
				c0-0.1-0.1-0.1-0.1-0.1c-0.1,0-0.1,0-0.1,0.1c-2.7,7.2-7.6,12.9-14.5,16.9c-0.4,0.2-0.9,0.4-1.3,0.4c-0.2,0-0.5,0-0.8-0.1
				c-0.7-0.2-1.3-0.6-1.8-1.2c-0.5-0.6-1-1.2-1.6-1.8c-0.4-0.4-0.6-0.8-0.6-1.3c0-0.1,0-0.2,0-0.3c0.1-0.6,0.4-1.1,0.9-1.4
				c3.7-2,6.6-4.3,8.7-7c2.5-3.2,4.3-6.9,5.4-11c0-0.1,0-0.2,0-0.2c-0.1-0.1-0.1-0.1-0.2-0.1h-12.6c-0.7,0-1.4-0.3-1.9-0.8
				s-0.8-1.2-0.8-1.9v-1.7c0-0.7,0.3-1.4,0.8-1.9s1.2-0.8,1.9-0.8h13.7c0.2,0,0.4-0.1,0.4-0.3c0.1-1.7,0.2-4.8,0.2-9.3
				c0-0.7,0.3-1.4,0.8-1.9s1.2-0.8,1.9-0.8h2.2 M500.6,169.9h-2.1c-1,0-1.9,0.4-2.7,1.1c-0.7,0.7-1.1,1.6-1.1,2.6
				c-0.1,4.1-0.1,6.9-0.2,8.6h-13.2c-1,0-1.9,0.4-2.6,1.1c-0.7,0.7-1.1,1.6-1.1,2.6v1.7c0,1,0.4,1.9,1.1,2.6
				c0.7,0.7,1.6,1.1,2.6,1.1H493c-1,3.6-2.7,6.9-4.9,9.7c-2,2.6-4.9,4.8-8.4,6.7c-0.8,0.5-1.3,1.2-1.4,2.1c0,0.2-0.1,0.3-0.1,0.5
				c0,0.8,0.3,1.5,0.9,2c0.5,0.5,1,1.1,1.5,1.7c0.6,0.8,1.4,1.3,2.3,1.6l0,0l0,0c0.3,0.1,0.7,0.1,1,0.1c0.6,0,1.3-0.2,1.8-0.5
				c6.6-3.8,11.3-9,14.2-15.6c1.7,3.5,3.8,6.6,6.2,9.3c2.3,2.5,5,4.6,8,6.4c0.6,0.3,1.2,0.5,1.8,0.5c0.4,0,0.7-0.1,1.1-0.2
				c0.9-0.3,1.7-0.8,2.3-1.7c0.5-0.8,1.1-1.5,1.7-2.2c0.5-0.6,0.7-1.2,0.7-1.9v-0.4v-0.1v-0.1c-0.2-1-0.7-1.7-1.6-2.1
				c-6.1-3.1-10.7-8.4-13.7-15.9h11.9c1,0,1.9-0.4,2.6-1.1c0.7-0.7,1.1-1.6,1.1-2.6v-1.7c0-1-0.4-1.9-1.1-2.6
				c-0.7-0.7-1.6-1.1-2.6-1.1H504c0.2-2.9,0.3-5.8,0.3-8.6c0-1-0.4-1.9-1.1-2.6C502.5,170.3,501.6,169.9,500.6,169.9L500.6,169.9z"
				/>
		</g>
		<g>
			<path class="st2" d="M552.1,217.3c-0.9,0-1.7-0.3-2.3-0.9c-0.6-0.6-1.1-1.3-1.4-2.2l0,0l0,0v-0.1c-0.1-0.3-0.1-0.5-0.1-0.7
				c0-0.5,0.2-0.9,0.5-1.3c0.4-0.6,1-0.9,1.7-0.9h0.1c0.5,0,1,0,1.5,0s0.9-0.1,1.2-0.3c0.1-0.1,0.3-0.4,0.5-1.4H548
				c-1.1,1.9-2.6,3.4-4.5,4.7c-1.9,1.2-4.6,2.3-7.9,3.1c-0.3,0.1-0.6,0.1-0.8,0.1c-0.6,0-1.1-0.1-1.7-0.4c-0.8-0.4-1.4-1-1.9-1.8
				c-0.1-0.2-0.2-0.4-0.4-0.6c-0.2-0.3-0.4-0.7-0.4-1.2c0-0.3,0.1-0.6,0.2-0.8c0.3-0.7,0.8-1.2,1.6-1.3c2.3-0.4,4.2-1,5.6-1.7h-3.1
				c-0.5,0-1-0.2-1.4-0.6c-0.2-0.2-0.4-0.5-0.5-0.8c-0.7,0.3-1.4,0.7-2.1,1c-0.4,0.2-0.9,0.3-1.4,0.3c-0.4,0-0.8-0.1-1.2-0.2
				c-0.8-0.3-1.5-0.8-2-1.5c-0.2-0.2-0.3-0.4-0.5-0.6c-0.4-0.4-0.5-0.9-0.5-1.4c0-0.2,0-0.4,0.1-0.6c0.1-0.7,0.6-1.2,1.4-1.5
				c1.2-0.4,2.3-0.9,3.3-1.4h-1.5c-0.9,0-1.6-0.3-2.2-0.9c-0.6-0.6-0.9-1.3-0.9-2.2s0.3-1.6,0.9-2.2c0.6-0.6,1.4-0.9,2.2-0.9h8.9
				c0,0,0,0,0.1-0.1l0.1-0.1h-4c-0.9,0-1.7-0.3-2.3-0.9c-0.6-0.6-0.9-1.4-0.9-2.3v-8.2c0-0.9,0.3-1.6,0.9-2.3c0.6-0.6,1.4-1,2.3-1
				h2.8c-0.1,0-0.1-0.1-0.2-0.2c-0.2-0.2-0.4-0.5-0.4-0.8H529c-0.9,0-1.6-0.3-2.3-0.9s-0.9-1.4-0.9-2.3c0-0.9,0.3-1.6,0.9-2.2
				c0.6-0.6,1.4-0.9,2.2-0.9h6.5c0-0.6,0.3-1.1,0.7-1.5c0.5-0.5,1.1-0.7,1.7-0.7h2.8c0.7,0,1.2,0.2,1.7,0.7c0.4,0.4,0.7,0.9,0.7,1.5
				h7.9c0-0.6,0.3-1.1,0.7-1.5c0.5-0.5,1.1-0.7,1.7-0.7h2.9c0.7,0,1.2,0.2,1.7,0.7c0.4,0.4,0.7,0.9,0.7,1.5h6.5
				c0.9,0,1.6,0.3,2.2,0.9c0.6,0.6,0.9,1.4,0.9,2.2c0,0.9-0.3,1.6-0.9,2.3s-1.4,0.9-2.3,0.9h-6.5c-0.1,0.3-0.2,0.6-0.4,0.8
				c-0.1,0.1-0.1,0.1-0.2,0.2h3c0.9,0,1.7,0.3,2.3,1c0.6,0.6,0.9,1.4,0.9,2.3v8.2c0,0.9-0.3,1.7-0.9,2.3c-0.6,0.6-1.4,0.9-2.3,0.9
				h-15.4l-0.1,0.2H566c0.9,0,1.6,0.3,2.2,0.9l0.9,0.9v1.3c0,0.9-0.3,1.6-0.9,2.2s-1.4,0.9-2.2,0.9h-1.9c1.2,0.6,2.5,1.1,3.9,1.5
				c0.7,0.2,1.2,0.7,1.4,1.4c0.1,0.3,0.1,0.5,0.1,0.7c0,0.5-0.2,1-0.5,1.4s-0.7,0.8-1,1.2c-0.6,0.7-1.2,1.2-2,1.5
				c-0.4,0.1-0.8,0.2-1.2,0.2c-0.5,0-0.9-0.1-1.4-0.3c-0.7-0.3-1.4-0.7-2.1-1c-0.2,1.8-0.5,3.2-0.8,4.2c-0.3,1.2-0.7,2-1.3,2.6
				c-1,1-2.4,1.6-4.1,1.7C554.5,217.2,553.5,217.3,552.1,217.3L552.1,217.3L552.1,217.3z M554.6,203.6c-0.4-0.4-0.9-0.9-1.4-1.5
				c-0.1-0.1-0.1-0.1-0.2-0.1h-4.2c0.1,0.1,0.3,0.2,0.4,0.4c0.3,0.4,0.5,0.8,0.5,1.3L554.6,203.6L554.6,203.6z M542.1,203.6
				c0.1-0.5,0.4-1,0.8-1.4c0.1-0.1,0.3-0.2,0.4-0.3h-2c0,0-0.1,0-0.2,0.1c-0.6,0.6-1.1,1.1-1.6,1.5L542.1,203.6L542.1,203.6z
				 M556.5,190.8v-0.2h-18.8v0.2H556.5z M556.5,186v-0.2h-18.8v0.2H556.5z M551.7,180.9c-0.1,0-0.1-0.1-0.2-0.2
				c-0.2-0.2-0.4-0.5-0.4-0.8h-8c-0.1,0.3-0.2,0.6-0.4,0.8c-0.1,0.1-0.1,0.1-0.2,0.2H551.7z"/>
			<path class="st3" d="M556.4,172c0.5,0,1,0.2,1.4,0.6c0.4,0.4,0.6,0.8,0.6,1.4c0,0.2,0.1,0.3,0.2,0.3h6.7c0.7,0,1.4,0.3,1.9,0.8
				s0.8,1.1,0.8,1.9s-0.3,1.4-0.8,1.9s-1.2,0.8-1.9,0.8h-6.8c-0.1,0-0.1,0-0.1,0.1c0,0.3-0.1,0.6-0.3,0.8s-0.5,0.3-0.8,0.3h-4.6
				c-0.3,0-0.6-0.1-0.8-0.3s-0.3-0.5-0.3-0.8c0-0.1,0-0.1-0.1-0.1h-8.6c-0.1,0-0.1,0-0.1,0.1c0,0.3-0.1,0.6-0.3,0.8
				s-0.5,0.3-0.8,0.3h-4.5c-0.3,0-0.6-0.1-0.8-0.3s-0.3-0.5-0.3-0.8c0-0.1,0-0.1-0.1-0.1h-7c-0.7,0-1.4-0.3-1.9-0.8
				s-0.8-1.2-0.8-1.9s0.3-1.4,0.8-1.9s1.2-0.8,1.9-0.8h6.7c0.2,0,0.2-0.1,0.2-0.3c0-0.5,0.2-1,0.6-1.4c0.4-0.4,0.8-0.6,1.4-0.6h2.8
				c0.5,0,1,0.2,1.4,0.6c0.4,0.4,0.6,0.8,0.6,1.4c0,0.2,0.1,0.3,0.2,0.3h8.4c0.2,0,0.2-0.1,0.2-0.3c0-0.5,0.2-1,0.6-1.4
				s0.8-0.6,1.4-0.6H556.4 M561.2,181.4c0.8,0,1.4,0.3,1.9,0.8s0.8,1.2,0.8,1.9v8.2c0,0.8-0.3,1.4-0.8,1.9s-1.2,0.8-1.9,0.8h-15.4
				c-0.2,0-0.4,0.1-0.5,0.3l-0.3,0.5c0,0.1,0,0.1,0,0.2c0,0.1,0.1,0.1,0.2,0.1H566c0.7,0,1.4,0.3,1.9,0.8s0.8,0.8,0.8,0.8
				s0,0.4,0,1.1c0,0.7-0.3,1.3-0.8,1.9s-1.1,0.8-1.9,0.8h-3.7c0,0-0.1,0-0.1,0.1s0,0.1,0,0.1c1.7,0.9,3.5,1.7,5.5,2.3
				c0.6,0.2,0.9,0.6,1.1,1.1c0,0.2,0,0.4,0,0.5c0,0.4-0.1,0.8-0.4,1.1c-0.3,0.4-0.7,0.8-1,1.2c-0.5,0.6-1.1,1.1-1.8,1.3
				c-0.3,0.1-0.7,0.2-1,0.2c-0.4,0-0.8-0.1-1.2-0.2c-0.8-0.3-1.6-0.7-2.4-1.2h-0.1h-0.1c-0.1,0-0.1,0.1-0.1,0.2
				c-0.2,1.9-0.5,3.4-0.8,4.5s-0.7,1.9-1.2,2.4c-0.9,0.9-2.2,1.4-3.8,1.6c-0.7,0.1-1.7,0.2-3,0.2c-0.8,0-1.4-0.3-2-0.8
				s-1-1.2-1.2-1.9c0-0.1,0-0.1,0-0.1c-0.1-0.2-0.1-0.4-0.1-0.6c0-0.4,0.1-0.7,0.4-1c0.3-0.5,0.7-0.7,1.3-0.7h0.1c0.6,0,1,0,1.5,0
				c0.6,0,1.1-0.2,1.5-0.5c0.3-0.3,0.5-0.9,0.7-1.9c0.1-0.2,0-0.4-0.3-0.4H548c-0.2,0-0.4,0.1-0.5,0.3c-1,1.8-2.4,3.2-4.3,4.4
				s-4.5,2.2-7.8,3c-0.2,0.1-0.5,0.1-0.7,0.1c-0.5,0-1-0.1-1.5-0.4c-0.7-0.4-1.2-0.9-1.7-1.6c-0.1-0.2-0.2-0.4-0.4-0.6
				c-0.2-0.3-0.3-0.6-0.3-0.9c0-0.2,0-0.4,0.1-0.6c0.2-0.6,0.6-0.9,1.2-1c3.1-0.6,5.5-1.4,7-2.5c0,0,0,0,0-0.1s0-0.1-0.1-0.1h-4.6
				c-0.4,0-0.7-0.1-1-0.4c-0.3-0.3-0.4-0.6-0.4-1c0-0.1,0-0.1-0.1-0.1c0,0,0,0-0.1,0c-0.8,0.4-1.6,0.8-2.6,1.2
				c-0.4,0.2-0.8,0.2-1.2,0.2c-0.3,0-0.7-0.1-1-0.2c-0.7-0.2-1.3-0.7-1.8-1.3c-0.2-0.2-0.3-0.4-0.5-0.6c-0.3-0.3-0.4-0.7-0.4-1.1
				c0-0.2,0-0.3,0.1-0.5c0.1-0.6,0.5-1,1.1-1.2c1.8-0.6,3.3-1.3,4.8-2.2v-0.1c0,0,0-0.1-0.1-0.1h-3.1c-0.7,0-1.4-0.3-1.9-0.8
				s-0.8-1.1-0.8-1.9c0-0.7,0.3-1.3,0.8-1.9c0.5-0.5,1.1-0.8,1.9-0.8h8.9c0.2,0,0.4-0.1,0.5-0.3l0.4-0.5c0-0.1,0-0.2,0-0.2
				c0-0.1-0.1-0.1-0.2-0.1h-4.6c-0.8,0-1.4-0.3-1.9-0.8s-0.8-1.2-0.8-1.9v-8.2c0-0.7,0.3-1.4,0.8-1.9s1.2-0.8,1.9-0.8h28.1
				 M537.5,186.5h19.1c0.2,0,0.4-0.1,0.4-0.4v-0.5c0-0.2-0.1-0.4-0.4-0.4h-19.1c-0.2,0-0.3,0.1-0.3,0.4v0.5
				C537.2,186.4,537.3,186.5,537.5,186.5 M537.5,191.3h19.1c0.2,0,0.4-0.1,0.4-0.3v-0.5c0-0.2-0.1-0.3-0.4-0.3h-19.1
				c-0.2,0-0.3,0.1-0.3,0.3v0.5C537.2,191.1,537.3,191.3,537.5,191.3 M538.6,204.1h3.7c0.2,0,0.2-0.1,0.3-0.2
				c0.1-0.5,0.3-0.9,0.7-1.2s0.8-0.5,1.4-0.5h3c0.5,0,0.8,0.2,1.2,0.5c0.3,0.4,0.4,0.8,0.4,1.2c0,0.2,0,0.2,0.2,0.2h6.2
				c0.1,0,0.1,0,0.1-0.1s0-0.1,0-0.1c-0.5-0.5-1.2-1.2-2-2.1c-0.2-0.2-0.3-0.3-0.6-0.3h-11.6c-0.2,0-0.4,0.1-0.6,0.3
				c-0.8,0.8-1.6,1.5-2.4,2.1v0.1C538.5,204.1,538.5,204.1,538.6,204.1 M556.4,171h-2.9c-0.8,0-1.5,0.3-2.1,0.9
				c-0.4,0.4-0.7,0.8-0.8,1.4h-7.1c-0.1-0.5-0.4-1-0.8-1.3c-0.6-0.6-1.3-0.9-2.1-0.9h-2.8c-0.8,0-1.5,0.3-2.1,0.9
				c-0.4,0.4-0.7,0.8-0.8,1.4h-6c-1,0-1.9,0.4-2.6,1c-0.7,0.7-1.1,1.6-1.1,2.6s0.4,1.9,1.1,2.6c0.7,0.7,1.6,1.1,2.6,1.1h3.7
				c-0.8,0.1-1.4,0.5-2,1.1c-0.7,0.7-1.1,1.6-1.1,2.6v8.2c0,1,0.4,1.9,1.1,2.7c0.1,0.1,0.2,0.2,0.3,0.2h-2.6c-1,0-1.9,0.4-2.6,1.1
				c-0.7,0.7-1.1,1.6-1.1,2.6s0.4,1.9,1.1,2.6c0.5,0.5,1.2,0.9,1.9,1c-0.4,0.2-0.8,0.3-1.3,0.5c-0.9,0.3-1.5,1-1.7,1.9
				c-0.1,0.2-0.1,0.5-0.1,0.8c0,0.6,0.2,1.2,0.6,1.7c0.2,0.2,0.3,0.4,0.5,0.6c0.6,0.8,1.4,1.4,2.3,1.7c0.4,0.2,0.9,0.2,1.3,0.2
				c0.5,0,1.1-0.1,1.5-0.3c0.6-0.3,1.2-0.5,1.7-0.8c0.1,0.2,0.2,0.3,0.4,0.4c0.5,0.5,1.1,0.7,1.7,0.7h0.4c-0.9,0.3-1.9,0.5-3,0.7
				c-0.9,0.2-1.6,0.8-2,1.6c-0.1,0.3-0.2,0.7-0.2,1c0,0.5,0.2,1,0.5,1.5c0.1,0.2,0.2,0.4,0.4,0.6c0.5,0.8,1.2,1.5,2,1.9
				c0.7,0.3,1.3,0.5,2,0.5c0.3,0,0.6,0,0.9-0.1c3.4-0.8,6.1-1.9,8.1-3.1c1.9-1.2,3.5-2.8,4.5-4.6h4.7c-0.1,0.4-0.2,0.5-0.2,0.6
				c-0.2,0.1-0.4,0.2-0.8,0.2s-0.9,0-1.4,0l0,0l0,0h-0.1c-0.9,0-1.6,0.4-2.1,1.1c-0.4,0.5-0.6,1-0.6,1.6c0,0.3,0,0.6,0.1,0.9
				l0.1,0.3l0,0c0.3,0.9,0.8,1.7,1.5,2.3c0.7,0.7,1.6,1,2.7,1c1.4,0,2.4-0.1,3.1-0.2c1.8-0.2,3.3-0.8,4.4-1.8l0,0l0,0
				c0.6-0.6,1-1.6,1.4-2.8c0.3-0.9,0.5-2.1,0.7-3.5c0.5,0.3,1,0.5,1.5,0.7s1.1,0.3,1.6,0.3s0.9-0.1,1.4-0.2c0.9-0.3,1.6-0.9,2.3-1.7
				c0.3-0.4,0.6-0.8,0.9-1.2c0.4-0.5,0.6-1.1,0.6-1.7c0-0.2,0-0.4-0.1-0.7v-0.1v-0.1c-0.3-0.9-0.9-1.5-1.7-1.7
				c-0.5-0.2-1.1-0.3-1.6-0.5c0.8-0.1,1.5-0.4,2.1-1c0.7-0.7,1.1-1.6,1.1-2.6v-1.1v-0.4l-0.3-0.3l-0.8-0.8c-0.7-0.7-1.6-1.1-2.6-1.1
				h-2.4c0.1-0.1,0.2-0.2,0.3-0.2c0.7-0.7,1.1-1.6,1.1-2.7v-8.2c0-1-0.4-1.9-1.1-2.6c-0.6-0.6-1.2-0.9-2-1.1h3.4
				c1,0,1.9-0.4,2.6-1.1c0.7-0.7,1.1-1.6,1.1-2.6s-0.4-1.9-1.1-2.6c-0.7-0.7-1.6-1-2.6-1h-6c-0.1-0.5-0.4-1-0.8-1.3
				C557.9,171.3,557.2,171,556.4,171L556.4,171z M549.9,202.5h3c0.2,0.2,0.4,0.4,0.6,0.6h-3.3C550.1,202.9,550,202.7,549.9,202.5
				L549.9,202.5z M541.5,202.5h0.6c-0.1,0.2-0.3,0.4-0.3,0.6h-0.9C541.1,202.9,541.3,202.7,541.5,202.5L541.5,202.5z"/>
		</g>
		<g>
			<path class="st2" d="M593.7,217.4c-0.9,0-1.6-0.3-2.3-0.9c-0.6-0.6-1-1.4-1-2.3v-3.4c-3.6,2.3-7.7,4.2-12.2,5.7
				c-0.4,0.1-0.8,0.2-1.2,0.2c-0.5,0-0.9-0.1-1.4-0.3c-0.9-0.3-1.6-0.8-2.1-1.6l-1-1.2c-0.4-0.5-0.5-0.9-0.5-1.4
				c0-0.2,0-0.5,0.1-0.7c0.2-0.8,0.8-1.2,1.5-1.4c3.4-0.8,6.6-1.8,9.4-3h-7.5c-0.9,0-1.6-0.3-2.3-0.9s-0.9-1.4-0.9-2.3
				s0.3-1.7,0.9-2.3s1.4-0.9,2.3-0.9h14.8v-0.3H581c-0.9,0-1.7-0.3-2.3-1c-0.6-0.6-0.9-1.4-0.9-2.3v-8.8c-0.3,0.1-0.6,0.2-1,0.2
				h-0.2c-0.7-0.1-1.3-0.4-1.8-0.9c-0.4-0.5-0.9-0.9-1.4-1.4c-0.6-0.6-0.9-1.3-0.9-2c0-0.8,0.3-1.5,1-2.1c3-2.4,5.6-5.2,7.7-8.3
				c0.5-0.7,1.1-1.3,2-1.7c0.6-0.3,1.2-0.4,1.8-0.4c0.3,0,0.6,0,0.9,0.1l1.7,0.4c0.8,0.2,1.4,0.6,1.7,1.3c0.1,0.4,0.2,0.7,0.2,1
				c0,0.4-0.1,0.9-0.4,1.2c-0.1,0.2-0.2,0.3-0.3,0.5h4c0.3-0.7,0.6-1.4,0.9-2c0.3-0.8,0.9-1.5,1.6-2c0.6-0.4,1.3-0.6,2-0.6h0.4
				l2.4,0.3c0.8,0.1,1.4,0.5,1.8,1.2c0.2,0.3,0.3,0.7,0.3,1.1c0,0.4-0.1,0.8-0.4,1.2c-0.2,0.3-0.4,0.6-0.5,0.8h9.8
				c0.8,0,1.6,0.3,2.2,0.9c0.6,0.6,0.9,1.3,0.9,2.2s-0.3,1.6-0.9,2.2c-0.6,0.6-1.4,0.9-2.2,0.9h-11.5v0.2h9.3c0.8,0,1.4,0.3,1.9,0.8
				s0.8,1.2,0.8,1.9s-0.3,1.4-0.8,1.9s-1.2,0.8-1.9,0.8h-9.3v0.3h9.3c0.8,0,1.4,0.3,1.9,0.8s0.8,1.2,0.8,1.9s-0.3,1.4-0.8,1.9
				s-1.2,0.8-1.9,0.8h-9.3v0.3h12.6c0.8,0,1.6,0.3,2.2,0.9c0.6,0.6,0.9,1.3,0.9,2.2c0,0.8-0.3,1.6-0.9,2.2c-0.6,0.6-1.3,0.9-2.2,0.9
				h-13.9v0.3h15c0.9,0,1.6,0.3,2.3,0.9c0.6,0.6,0.9,1.4,0.9,2.3s-0.3,1.7-0.9,2.3s-1.4,0.9-2.3,0.9H606c2.7,1.2,5.6,2.2,8.8,2.9
				c0.8,0.2,1.3,0.7,1.5,1.4c0.1,0.2,0.1,0.5,0.1,0.7c0,0.5-0.2,0.9-0.5,1.3l-0.9,1.2c-0.5,0.7-1.2,1.3-2.1,1.6
				c-0.5,0.2-0.9,0.3-1.4,0.3c-0.4,0-0.8-0.1-1.2-0.2c-4.2-1.4-8.2-3.4-11.9-5.7v3.6c0,0.9-0.3,1.7-1,2.3c-0.6,0.6-1.4,0.9-2.3,0.9
				h-1.4L593.7,217.4L593.7,217.4z M592.1,194.3V194h-6.8v0.3H592.1z M592.1,188.6v-0.3h-6.8v0.3H592.1z M592.1,182.9v-0.2h-6.8v0.2
				H592.1z"/>
			<path class="st3" d="M597.7,172.3l2.4,0.3c0.6,0.1,1.1,0.4,1.4,1c0.2,0.3,0.2,0.6,0.2,0.8c0,0.3-0.1,0.6-0.3,0.9
				c-0.3,0.4-0.6,0.9-0.8,1.3c0,0.1,0,0.1,0,0.2c0,0.1,0.1,0.1,0.1,0.1h10.4c0.7,0,1.3,0.3,1.9,0.8c0.5,0.5,0.8,1.1,0.8,1.9
				s-0.3,1.3-0.8,1.9c-0.5,0.5-1.1,0.8-1.9,0.8h-11.6c-0.2,0-0.4,0.1-0.4,0.3v0.6c0,0.2,0.1,0.3,0.4,0.3h9.4c0.6,0,1.1,0.2,1.5,0.6
				c0.4,0.4,0.6,0.9,0.6,1.5s-0.2,1.1-0.6,1.5s-0.9,0.6-1.5,0.6h-9.4c-0.2,0-0.4,0.1-0.4,0.4v0.6c0,0.2,0.1,0.3,0.4,0.3h9.4
				c0.6,0,1.1,0.2,1.5,0.6c0.4,0.4,0.6,0.9,0.6,1.5s-0.2,1.1-0.6,1.5s-0.9,0.6-1.5,0.6h-9.4c-0.2,0-0.4,0.1-0.4,0.4v0.6
				c0,0.2,0.1,0.3,0.4,0.3h12.8c0.7,0,1.3,0.2,1.8,0.7s0.7,1.1,0.7,1.8s-0.2,1.3-0.7,1.8s-1.1,0.8-1.8,0.8h-14.1
				c-0.2,0-0.3,0.1-0.3,0.3v0.6c0,0.2,0.1,0.3,0.3,0.3h15.2c0.7,0,1.4,0.3,1.9,0.8s0.8,1.2,0.8,1.9s-0.3,1.4-0.8,1.9
				s-1.2,0.8-1.9,0.8H604c0,0-0.1,0-0.1,0.1v0.1c3.2,1.5,6.8,2.8,10.6,3.8c0.6,0.2,1,0.5,1.1,1.1c0.1,0.2,0.1,0.4,0.1,0.6
				c0,0.4-0.1,0.7-0.4,1c-0.3,0.4-0.6,0.8-0.9,1.2c-0.5,0.7-1.1,1.2-1.9,1.4c-0.4,0.2-0.8,0.2-1.2,0.2s-0.7-0.1-1.1-0.2
				c-4.3-1.5-8.4-3.5-12.3-6l-0.1-0.1h-0.1c-0.1,0-0.1,0.1-0.1,0.2v4.2c0,0.8-0.3,1.4-0.8,1.9s-1.2,0.8-1.9,0.8h-1.4
				c-0.7,0-1.4-0.3-1.9-0.8s-0.8-1.2-0.8-1.9v-4c0-0.1,0-0.1-0.1-0.2h-0.1c0,0-0.1,0-0.1,0.1c-3.7,2.4-7.9,4.4-12.5,5.9
				c-0.3,0.1-0.7,0.2-1.1,0.2s-0.8-0.1-1.2-0.2c-0.8-0.3-1.4-0.8-1.9-1.4c-0.3-0.4-0.7-0.9-1-1.3c-0.2-0.3-0.4-0.7-0.4-1
				c0-0.2,0-0.4,0.1-0.6c0.2-0.6,0.6-0.9,1.2-1.1c4.3-1,8.1-2.3,11.4-3.8c0,0,0,0,0-0.1c0,0,0-0.1-0.1-0.1h-9.5
				c-0.7,0-1.4-0.3-1.9-0.8s-0.8-1.2-0.8-1.9s0.3-1.4,0.8-1.9s1.2-0.8,1.9-0.8h15c0.2,0,0.3-0.1,0.3-0.3v-0.6c0-0.2-0.1-0.3-0.3-0.3
				H581c-0.8,0-1.4-0.3-1.9-0.8s-0.8-1.2-0.8-1.9v-9.4c0-0.1,0-0.1-0.1-0.1l0,0h-0.1c-0.4,0.3-0.8,0.5-1.2,0.5c-0.1,0-0.1,0-0.2,0
				c-0.6-0.1-1-0.3-1.4-0.7c-0.4-0.5-0.9-1-1.4-1.4c-0.5-0.5-0.7-1-0.7-1.7s0.3-1.2,0.8-1.7c3.1-2.4,5.6-5.2,7.8-8.4
				c0.4-0.7,1-1.2,1.8-1.5c0.5-0.2,1-0.4,1.6-0.4c0.2,0,0.5,0,0.7,0.1l1.7,0.4c0.6,0.1,1.1,0.5,1.4,1.1c0.1,0.3,0.1,0.5,0.1,0.8
				s-0.1,0.7-0.3,1s-0.4,0.6-0.6,1c-0.1,0.1-0.1,0.1,0,0.2c0,0.1,0.1,0.1,0.2,0.1h4.6c0.2,0,0.4-0.1,0.5-0.3c0.3-0.7,0.6-1.3,0.9-2
				c0.3-0.7,0.8-1.3,1.4-1.8c0.6-0.3,1.1-0.5,1.8-0.5C597.4,172.3,597.5,172.3,597.7,172.3 M585.1,183.4h7.1c0.2,0,0.4-0.1,0.4-0.3
				v-0.6c0-0.2-0.1-0.3-0.4-0.3h-7.1c-0.2,0-0.4,0.1-0.4,0.3v0.6C584.7,183.3,584.9,183.4,585.1,183.4 M585.1,189.1h7.1
				c0.2,0,0.4-0.1,0.4-0.3v-0.6c0-0.2-0.1-0.4-0.4-0.4h-7.1c-0.2,0-0.4,0.1-0.4,0.4v0.6C584.7,189,584.9,189.1,585.1,189.1
				 M585.1,194.8h7.1c0.2,0,0.4-0.1,0.4-0.3v-0.6c0-0.2-0.1-0.4-0.4-0.4h-7.1c-0.2,0-0.4,0.1-0.4,0.4v0.6
				C584.7,194.7,584.9,194.8,585.1,194.8 M597.8,171.3L597.8,171.3h-0.5c-0.8,0-1.6,0.2-2.3,0.7c-0.9,0.6-1.5,1.3-1.8,2.3
				c-0.2,0.5-0.5,1.1-0.7,1.7h-2.8c0.2-0.4,0.3-0.8,0.3-1.2s-0.1-0.7-0.2-1.1v-0.1v-0.1c-0.4-0.9-1.1-1.4-2.1-1.6l-1.7-0.4
				c-0.3-0.1-0.6-0.1-1-0.1c-0.7,0-1.3,0.2-2,0.5c-0.9,0.4-1.6,1.1-2.2,1.9c-2.1,3.1-4.6,5.8-7.6,8.2c-0.8,0.6-1.2,1.5-1.2,2.4
				s0.4,1.7,1.1,2.4c0.5,0.4,0.9,0.9,1.3,1.3c0.6,0.6,1.3,1,2.1,1.1h0.1h0.1h0.2c0.2,0,0.3,0,0.5,0v8.1c0,1,0.4,1.9,1.1,2.6
				c0.1,0.2,0.3,0.3,0.5,0.4h-3.1c-1,0-1.9,0.4-2.6,1.1c-0.7,0.7-1.1,1.6-1.1,2.6s0.4,1.9,1.1,2.6c0.7,0.7,1.6,1.1,2.6,1.1h4.9
				c-2.1,0.8-4.5,1.4-6.9,2c-0.9,0.2-1.6,0.8-1.9,1.7c-0.1,0.3-0.1,0.6-0.1,0.9c0,0.6,0.2,1.1,0.6,1.6l0.1,0.1l1,1.2
				c0.6,0.8,1.4,1.4,2.3,1.8c0.5,0.2,1,0.3,1.5,0.3s1-0.1,1.4-0.2c4.1-1.4,8-3.1,11.5-5.2v2.5c0,1,0.4,1.9,1.1,2.7
				c0.7,0.7,1.6,1.1,2.6,1.1h1.4c1,0,1.9-0.4,2.6-1.1c0.7-0.7,1.1-1.6,1.1-2.7v-2.7c3.5,2.2,7.3,4,11.2,5.3c0.4,0.2,0.9,0.2,1.4,0.2
				s1-0.1,1.6-0.3c0.9-0.3,1.7-0.9,2.3-1.8l0.9-1.2c0.4-0.5,0.6-1,0.6-1.6c0-0.3,0-0.6-0.1-0.9c-0.2-0.8-0.9-1.5-1.8-1.7
				c-2.2-0.6-4.3-1.2-6.3-2h4.8c1,0,1.9-0.4,2.6-1.1c0.7-0.7,1.1-1.6,1.1-2.6s-0.4-1.9-1.1-2.6c-0.5-0.5-1.1-0.8-1.8-1
				c0.2-0.1,0.4-0.3,0.5-0.5c0.7-0.7,1-1.5,1-2.5s-0.3-1.8-1-2.5s-1.5-1-2.5-1h-1.4c0.1-0.1,0.2-0.2,0.3-0.3
				c0.6-0.6,0.9-1.4,0.9-2.2c0-0.9-0.3-1.6-0.9-2.2c-0.2-0.3-0.5-0.5-0.8-0.6c0.3-0.1,0.6-0.3,0.8-0.6c0.6-0.6,0.9-1.4,0.9-2.2
				c0-0.9-0.3-1.6-0.9-2.2c-0.1-0.1-0.1-0.1-0.2-0.2h0.1c1,0,1.8-0.4,2.6-1.1c0.7-0.7,1.1-1.6,1.1-2.6s-0.4-1.9-1.1-2.6
				c-0.7-0.7-1.6-1-2.5-1h-8.9c0,0,0-0.1,0.1-0.1c0.3-0.4,0.4-0.9,0.4-1.4c0-0.4-0.1-0.9-0.4-1.3c-0.4-0.8-1.1-1.3-2.1-1.5
				L597.8,171.3L597.8,171.3L597.8,171.3z"/>
		</g>
	</g>
	<g class="st4">
		<g class="st5">
			<path class="st2" d="M455.6,245.1c0-0.6,0.3-0.8,0.9-0.8h0.6c0.6,0,1-0.2,1.1-0.7c0.2-0.5,0.3-1.5,0.4-2.9l0.2-3.4
				c0.1-1.8,0.1-2.8,0.2-3c0-0.4-0.2-0.6-0.8-0.6h-1.7c-0.1,2.1-0.3,3.9-0.5,5.4s-0.6,2.7-1,3.8c-0.8,2.1-1.6,3.1-2.4,3.1
				c-0.5,0-0.8-0.3-0.8-0.9c0-0.2,0.1-0.5,0.4-0.9c0.8-0.9,1.4-2.1,1.9-3.8c0.4-1.5,0.7-3.8,0.8-6.7h-2c-0.7,0-1-0.3-1-0.8
				s0.3-0.8,1-0.8h2v-0.7c0-0.6,0-1.1,0-1.4c0-0.6,0.3-0.9,0.8-0.9c0.6,0,0.8,0.3,0.8,0.8c0,0.3,0,0.8,0,1.3c0,0.4,0,0.7,0,0.9h2.1
				c0.6,0,1.1,0.1,1.4,0.4c0.3,0.3,0.5,0.7,0.5,1.3l-0.2,3.4c0,0.7-0.1,1.8-0.2,3.4c-0.1,1.1-0.1,2-0.2,2.8s-0.2,1.3-0.4,1.6
				c-0.3,0.8-1.3,1.1-2.9,1.1C455.9,246,455.6,245.7,455.6,245.1z M461.9,245c-0.3-0.3-0.4-0.7-0.4-1.3v-10.6c0-0.6,0.1-1.1,0.4-1.4
				c0.3-0.3,0.7-0.4,1.3-0.4h3.5c0.6,0,1.1,0.1,1.4,0.4c0.3,0.3,0.4,0.7,0.4,1.3v10.5c0,0.6-0.1,1.1-0.4,1.4
				c-0.3,0.3-0.7,0.4-1.3,0.4h-3.5C462.7,245.4,462.2,245.2,461.9,245z M466.9,243v-9.3c0-0.4-0.2-0.7-0.7-0.7h-2.4
				c-0.4,0-0.7,0.2-0.7,0.7v9.3c0,0.4,0.2,0.7,0.7,0.7h2.4C466.7,243.7,466.9,243.5,466.9,243z"/>
		</g>
		<g class="st5">
			<path class="st2" d="M471.5,245.1c0-0.2,0.1-0.4,0.3-0.6l1.2-0.9c3.2-2.4,5.5-5.9,6.8-10.5v-0.9c0-0.3-0.1-0.6-0.2-0.7
				c-0.1-0.2-0.3-0.3-0.6-0.3h-2.5c-0.6,0-1-0.3-1-0.8s0.3-0.8,1-0.8h3.1c0.6,0,1,0.2,1.2,0.5s0.4,0.8,0.4,1.5
				c0,2.7,0.7,5.1,1.9,7.1c1.4,2.3,3,4,5.1,5.3c0.4,0.3,0.6,0.6,0.6,0.9c0,0.6-0.3,0.9-0.8,0.9s-1.4-0.6-2.9-1.9
				c-2.2-2-3.8-4.7-4.8-8c-0.3,0.8-0.7,1.6-1.2,2.5s-0.8,1.5-1,1.9c-0.8,1.3-1.8,2.5-3.1,3.8c-1.3,1.3-2.2,1.9-2.8,1.9
				C471.8,246,471.5,245.7,471.5,245.1z"/>
		</g>
		<g class="st5">
			<path class="st2" d="M491,245.2c0-0.3,0.3-0.6,0.8-0.9c1.1-0.7,2-1.4,2.6-2.3l-1.7-1.3c-0.5-0.4-0.7-0.8-0.7-1.2
				c0-0.2,0.1-0.7,0.2-1.4c0.1-0.4,0.3-1.4,0.5-3l0.1-0.8h-1c-0.5,0-0.8-0.2-0.8-0.8c0-0.5,0.3-0.7,0.9-0.8h1.1l0.3-3
				c0-0.3,0.1-0.5,0.2-0.6s0.3-0.2,0.6-0.2c0.5,0,0.7,0.3,0.7,0.8l-0.4,3h1.7c1,0,1.5,0.5,1.5,1.5c0,0.8-0.1,2.1-0.4,3.9
				c-0.2,1.4-0.6,2.6-1.1,3.6c1.2,1.1,1.8,1.9,1.8,2.3c0,0.6-0.3,0.8-0.8,0.8c-0.3,0-0.7-0.4-1.3-1.1l-0.5-0.6
				c-0.7,0.9-1.4,1.7-2,2.1c-0.7,0.6-1.3,0.8-1.7,0.8C491.3,246,491,245.7,491,245.2z M496.1,236.5l0.2-1.7c0-0.3-0.2-0.5-0.6-0.5
				h-1.4c-0.2,1.1-0.4,2.2-0.6,3.4c-0.2,0.8-0.2,1.3-0.2,1.4c0,0.3,0.3,0.6,0.8,1l0.9,0.6C495.6,239.6,496,238.2,496.1,236.5z
				 M499.5,245.5c0-0.5,0.3-0.8,1-0.8h1.1c0.5,0,0.8-0.3,0.8-0.8v-5.3h-3.6c-0.6,0-0.9-0.2-0.9-0.7s0.3-0.7,0.9-0.7h3.6v-2
				c0-0.4,0.1-0.7,0.3-0.9c0.2-0.2,0.7-0.6,1.6-1.2c0.9-0.6,1.3-1,1.3-1.2c0-0.1,0-0.1-0.1-0.2c-0.1,0-0.1-0.1-0.2-0.1h-6.2
				c-0.6,0-0.9-0.2-0.9-0.7c0-0.3,0.1-0.4,0.2-0.6c0.1-0.1,0.4-0.2,0.7-0.2h7.4c1,0,1.6,0.3,1.6,0.9c0,0.5-1.1,1.5-3.2,3.1
				c-0.5,0.4-0.8,0.8-0.9,1.2v1.8h3.6c0.6,0,0.9,0.2,0.9,0.7s-0.3,0.7-0.9,0.7H504v5.7c0,0.7-0.2,1.2-0.5,1.6
				c-0.4,0.3-0.9,0.5-1.6,0.5h-1.4C499.8,246.3,499.5,246,499.5,245.5z"/>
		</g>
		<g class="st5">
			<path class="st2" d="M512.5,236.7v2.6c0,1.8-0.1,3.1-0.3,4c-0.2,0.8-0.5,1.3-0.9,1.3s-0.7-0.2-0.7-0.7l0.2-0.5
				c0.3-0.9,0.4-2.3,0.4-4v-2.5c0-0.2,0.1-0.4,0.2-0.5s0.3-0.2,0.5-0.2C512.3,236,512.5,236.3,512.5,236.7z M514.7,234.9v10.7
				c0,0.5-0.2,0.8-0.7,0.8s-0.7-0.3-0.7-0.8v-10.7h-1.7c-0.6,0-0.8-0.2-0.8-0.7s0.3-0.7,0.8-0.7h4.7c0.6,0,0.8,0.2,0.8,0.7
				s-0.3,0.7-0.8,0.7H514.7z M511.2,230.6c0-0.5,0.3-0.7,0.8-0.7h4.1c0.5,0,0.8,0.2,0.8,0.7s-0.3,0.7-0.8,0.7H512
				C511.4,231.3,511.2,231,511.2,230.6z M516.7,236.2c0.1,0.1,0.2,0.3,0.2,0.6v6.8c0,0.2-0.1,0.4-0.2,0.6s-0.3,0.2-0.5,0.2
				c-0.4,0-0.7-0.3-0.7-0.8v-6.8c0-0.5,0.2-0.7,0.7-0.7C516.4,236,516.6,236.1,516.7,236.2z M528.1,245.4c0,0.4-0.2,0.6-0.7,0.6
				h-9.7c-0.5,0-0.7-0.2-0.7-0.6c0-0.4,0.2-0.6,0.7-0.6h2.2l-0.4-1.7h-0.3c-0.4,0-0.7-0.1-0.9-0.3s-0.3-0.5-0.3-0.8v-1.4
				c0-0.8,0.4-1.2,1.3-1.2h6.3c0.9,0,1.3,0.4,1.3,1.2v1.3c0,0.8-0.4,1.2-1.3,1.2h-0.2l-0.4,1.7h2.3
				C527.9,244.8,528.1,245,528.1,245.4z M517.4,238c0-0.4,0.2-0.6,0.7-0.6h9.1c0.5,0,0.7,0.2,0.7,0.6s-0.2,0.6-0.7,0.6h-9.1
				C517.6,238.6,517.4,238.4,517.4,238z M518,236.3c-0.2-0.2-0.3-0.6-0.3-1V232c0-0.4,0.1-0.8,0.3-1s0.6-0.3,1-0.3h1.5v-0.8
				c0-0.2,0.1-0.4,0.2-0.5s0.3-0.2,0.5-0.2s0.4,0.1,0.5,0.2c0.1,0.1,0.2,0.3,0.2,0.5v0.8h1.4v-0.8c0-0.2,0.1-0.4,0.2-0.5
				c0.1-0.1,0.3-0.2,0.5-0.2c0.4,0,0.6,0.2,0.6,0.7v0.8h1.5c0.4,0,0.8,0.1,1,0.4s0.4,0.6,0.4,1v3.3c0,0.4-0.1,0.8-0.4,1
				s-0.6,0.4-1,0.4h-7C518.5,236.6,518.2,236.5,518,236.3z M519,233h1.5v-1.2h-1c-0.3,0-0.5,0.1-0.5,0.4V233z M519,234.9
				c0,0.3,0.2,0.5,0.5,0.5h1v-1.3H519V234.9z M519.9,241.9h5.2c0.3,0,0.5-0.2,0.5-0.5V241c0-0.3-0.2-0.5-0.5-0.5h-5.2
				c-0.3,0-0.4,0.2-0.4,0.5v0.4C519.5,241.8,519.6,241.9,519.9,241.9z M520.9,243.1l0.4,1.7h2.4l0.3-1.7H520.9z M521.8,231.8v1.2
				h1.4v-1.2H521.8z M521.8,234.1v1.3h1.4v-1.3H521.8z M524.5,233h1.5v-0.7c0-0.3-0.2-0.5-0.5-0.5h-1V233z M524.5,235.4h1
				c0.3,0,0.5-0.2,0.5-0.5v-0.8h-1.5V235.4z"/>
		</g>
		<g class="st5">
			<path class="st2" d="M535.8,245.5c-0.9-0.3-1.7-0.7-2.3-1.3l0,0c-1.2,1.1-2,1.6-2.4,1.6c-0.3,0-0.4-0.1-0.6-0.2
				c-0.1-0.1-0.2-0.4-0.2-0.7c0-0.4,0.3-0.7,0.9-1c0.6-0.3,1.1-0.5,1.5-0.8v-3.5c0-0.2-0.1-0.3-0.2-0.4c-0.1-0.1-0.2-0.2-0.4-0.2h-1
				c-0.3,0-0.5-0.1-0.6-0.2c-0.1-0.1-0.2-0.3-0.2-0.6c0-0.2,0.1-0.4,0.2-0.5c0.1-0.1,0.3-0.2,0.6-0.2h1.5c0.6,0,1,0.1,1.2,0.4
				c0.2,0.2,0.4,0.6,0.4,1.1v3.9l0.5,0.5c0.9,0.7,2.7,1,5.6,1l6.8-0.1c0.5,0,0.7,0.2,0.7,0.7s-0.4,0.8-1.1,0.8h-5.9
				C538.4,245.9,536.7,245.7,535.8,245.5z M532.8,235.2l-1.6-0.7c-0.4-0.2-0.6-0.4-0.6-0.7c0-0.5,0.2-0.7,0.7-0.7
				c0.2,0,0.7,0.2,1.6,0.5c0.8,0.4,1.2,0.7,1.2,1.1c0,0.5-0.2,0.8-0.7,0.8C533.3,235.4,533.1,235.4,532.8,235.2z M533.8,231.7
				c-0.2-0.1-0.3-0.2-0.4-0.2l-1.3-0.7c-0.4-0.2-0.7-0.5-0.7-0.8c0-0.5,0.2-0.7,0.7-0.7c0.2,0,0.7,0.2,1.5,0.6
				c0.4,0.2,0.7,0.4,0.9,0.6c0.2,0.2,0.3,0.4,0.3,0.6c0,0.5-0.2,0.8-0.7,0.8C534.1,231.9,534,231.8,533.8,231.7z M535.5,242.4
				c0-0.4,0.3-0.7,0.8-0.8c2.2-0.9,3.6-2.2,4-4h-3.7c-0.6,0-0.9-0.2-0.9-0.7s0.3-0.7,0.9-0.7h3.9l0.1-2.6h-3.5
				c-0.6,0-0.9-0.2-0.9-0.7s0.3-0.7,0.9-0.7h5.5l1.2-2.7l0.1-0.2c0.1-0.2,0.3-0.2,0.6-0.2c0.5,0,0.8,0.2,0.8,0.7
				c0,0.3-0.4,1.1-1.3,2.5h1.9c0.6,0,0.9,0.2,0.9,0.7s-0.3,0.7-0.9,0.7h-3.8c0,0.9-0.1,1.7-0.1,2.6h4.4c0.6,0,0.9,0.2,0.9,0.7
				s-0.3,0.7-0.9,0.7h-4.6c-0.2,0.7-0.4,1.3-0.6,1.7l0,0c0.2-0.2,0.5-0.3,0.7-0.3c0.4,0,1.3,0.4,2.7,1.3c1.4,0.9,2.1,1.5,2.1,1.9
				c0,0.5-0.3,0.8-0.9,0.8c-0.2,0-0.4-0.1-0.6-0.3c-1.6-1.2-2.8-2-3.6-2.4c-0.4-0.2-0.6-0.5-0.6-0.7l0,0c-0.5,0.9-1.2,1.7-2.3,2.5
				s-1.9,1.2-2.5,1.2C535.8,243.2,535.5,243,535.5,242.4z M537.9,230.9c-0.4-0.6-0.6-1-0.6-1.1c0-0.4,0.3-0.7,0.8-0.7
				c0.3,0,0.7,0.3,1,0.9c0.4,0.6,0.5,1,0.5,1.1c0,0.5-0.3,0.7-0.8,0.7C538.6,231.8,538.3,231.5,537.9,230.9z"/>
		</g>
	</g>
</g>
<ellipse transform="matrix(0.9553 -0.2957 0.2957 0.9553 -70.3416 122.8814)" class="st6" cx="371.1" cy="294" rx="16.2" ry="15.9"/>
<path d="M360,304.2c-7.1,0-13.6-4.5-15.8-11.5c-1.3-4.2-0.9-8.7,1.2-12.6s5.6-6.7,9.8-8.1c8.8-2.7,18.1,2.1,20.8,10.8l0,0
	c2.7,8.7-2.3,17.9-11.1,20.6C363.3,304,361.7,304.2,360,304.2z M360.3,278.2c-1,0-2,0.1-2.9,0.4c-2.5,0.8-4.6,2.5-5.8,4.7
	c-1.2,2.3-1.5,4.8-0.7,7.3c1.6,5,7,7.8,12.1,6.2c5.1-1.6,8.1-7,6.5-12C368.2,280.8,364.4,278.2,360.3,278.2z"/>
<ellipse transform="matrix(0.9553 -0.2957 0.2957 0.9553 -7.0041 198.4771)" class="st6" cx="652.7" cy="122.4" rx="30.4" ry="29.8"/>
<path d="M642.2,158.6c-13.6,0-26-8.6-30.2-22c-2.5-8-1.7-16.6,2.3-24.1S624.9,99.7,633,97c16.8-5.2,34.6,4,39.8,20.7l0,0
	c5.2,16.6-4.4,34.2-21.2,39.4C648.5,158.2,645.4,158.6,642.2,158.6z M642.8,101.8c-2.7,0-5.3,0.3-7.7,1.1
	c-6.6,2.1-12.2,6.6-15.4,12.5c-3.2,6.1-4,12.7-1.9,19.4c4.2,13.3,18.6,20.7,32.1,16.5s21.5-18.6,17.3-31.9
	C663.8,108.7,653.7,101.8,642.8,101.8z"/>
<path d="M522.7,306.9L522.7,306.9l-69.2-0.4c-1.9,0-3.4-1.6-3.4-3.5s1.6-3.4,3.5-3.4l0,0l69.2,0.4c1.9,0,3.5,1.6,3.4,3.5
	C526.2,305.4,524.6,306.9,522.7,306.9z"/>
<path d="M604.1,102.9c-0.3,0-0.7-0.1-1-0.2c-9.7-3.1-19.9-4.7-30.1-4.7c-1.9,0-3.4-1.6-3.4-3.5s1.6-3.4,3.5-3.4l0,0
	c11,0.1,21.8,1.8,32.2,5.1c1.8,0.6,2.8,2.5,2.2,4.3C607,101.9,605.6,102.9,604.1,102.9z"/>
<path d="M572.4,307.2c-0.2,0-0.4,0-0.6,0l-21.8-0.1c-1.9,0-3.4-1.6-3.4-3.5s1.6-3.4,3.5-3.4l0,0l21.8,0.1c0.2,0,0.4,0,0.6,0
	c55.5,0,100.8-45,101.1-100.6c0.1-13.5-2.5-26.7-7.6-39c-0.7-1.8,0.1-3.8,1.9-4.5c1.8-0.7,3.8,0.1,4.5,1.9
	c5.4,13.2,8.2,27.3,8.1,41.7C680.1,259.1,631.7,307.2,572.4,307.2z"/>
<g>
	<g>
		<path class="st7" d="M52.5,235.2c-0.2-1.6-0.4-3.2-0.6-4.8c-0.2-1.3-0.3-2.5-0.5-3.8c-0.3-2-0.8-4.2-0.9-6.3
			c-0.1-2.2,0.5-4.3,0-6.5c-0.6-3-2-5.9-2-5.9c-1.4-2.7-4.6-4.4-7.6-4.4c-3.2,0-6.3,1.2-8.9,3c-2.8,2-4.8,5-7.4,7.2
			c-1.8,1.5-3.9,1.5-6,2c-2.5,0.6-5,1.4-7.2,2.6c-5.3,2.8,0,4.6,0,4.6l3.4-0.5c1.3-0.4,2.6-0.8,3.9-1.1c0.7-0.2,3.3-1.6,3.9-0.9
			c0.1,0.1,0.1,0.2,0.1,0.3c0.3,1.7-1.8,2.4-2.9,3.2c-2.6,1.7-5.2,3.6-7.2,6c-4,4.6,1.7,4.3,1.7,4.3l2.9-1.7
			c0.9-0.5,7.1-6.4,7.3-3.8c0.1,0.7-1,1.1-1.5,1.6c-0.6,0.6-1.1,1.2-1.7,1.7c-2,2.3-3.9,4.7-5.3,7.4c-2.7,5.4,2.7,3.8,2.7,3.8
			l2.4-2.4c1.9-2.3,3.6-4.6,5.3-7c0.5-0.7,1.2-0.8,2-0.6c0.3,0.1,1.9,0.7,1.9,1.1c0,0.1,0,0.1,0,0.2c-1.5,3.7-3,7.3-3.6,11.3
			c-1.1,6.7,3.7,2.8,3.7,2.8l1.7-3.4c1-2.1,1.7-4.3,3-6.3c1.6-2.5,3.8-5,6.3-6.6c1.1-0.7,2.2-1.5,3.3-2.5c0.2,2.6,0.7,5.6,1.8,8.2
			c2.4,5.7,5.9,0.5,5.9,0.5L52.5,235.2z"/>
		<path class="st8" d="M52.5,235.2l0.5-0.1c-0.2-1.6-0.4-3.2-0.6-4.8c-0.2-1.3-0.3-2.5-0.5-3.8c-0.3-2.1-0.8-4.2-0.9-6.2
			c-0.1-1,0-2.1,0.1-3.2c0.1-1.1,0.1-2.2-0.1-3.4c-0.3-1.6-0.8-3.1-1.3-4.2c-0.2-0.6-0.4-1-0.6-1.3c-0.1-0.2-0.1-0.3-0.2-0.4v-0.1
			l0,0l0,0l0,0l0,0l0,0l-0.4,0.2l0.4-0.2c-0.6-1.3-1.7-2.3-2.9-3.1s-2.6-1.3-3.9-1.5c-0.4-0.1-0.8-0.1-1.2-0.1
			c-3.3,0-6.5,1.2-9.2,3.1c-1.5,1.1-2.7,2.3-3.8,3.6c-1.2,1.3-2.3,2.6-3.6,3.6c-0.8,0.7-1.7,1-2.7,1.3c-1,0.2-2,0.4-3.1,0.7
			c-2.5,0.6-5,1.5-7.3,2.7c-0.8,0.4-1.4,0.9-1.9,1.3c-0.4,0.4-0.7,0.9-0.7,1.3c-0.1,0.5,0.1,1,0.4,1.3c0.4,0.5,1,0.9,1.4,1.1
			c0.5,0.2,0.9,0.4,0.9,0.4h0.1l3.5-0.5l0,0c1.3-0.4,2.6-0.8,3.9-1.1c0.2-0.1,0.4-0.2,0.7-0.3c0.4-0.2,0.9-0.4,1.4-0.6
			c0.2-0.1,0.5-0.1,0.7-0.2c0.2,0,0.4,0,0.5,0h0.1l0,0l0,0l0,0l0,0l0,0l0,0l0,0c0,0,0,0,0,0.1s0,0.3,0,0.4c0,0.2-0.1,0.4-0.3,0.6
			c-0.2,0.3-0.7,0.6-1.1,0.9c-0.4,0.3-0.9,0.5-1.3,0.8c-2.6,1.7-5.2,3.7-7.3,6.1c-0.9,1.1-1.4,1.9-1.5,2.7c-0.1,0.4,0,0.8,0.1,1.1
			c0.2,0.5,0.6,0.8,1,0.9c0.4,0.2,0.8,0.3,1.2,0.3c0.6,0.1,1.1,0.1,1.2,0.1h0.1l3-1.8l0,0c0.1-0.1,0.3-0.2,0.5-0.4
			c0.7-0.6,1.9-1.6,3.2-2.5c0.6-0.5,1.2-0.9,1.7-1.1c0.3-0.1,0.5-0.2,0.7-0.3s0.3-0.1,0.4-0.1s0.1,0,0.1,0s0,0.1,0.1,0.2v0.1
			c0,0,0,0.1-0.1,0.2c-0.1,0.1-0.3,0.3-0.5,0.4c-0.2,0.2-0.5,0.3-0.7,0.5c-0.6,0.6-1.1,1.2-1.7,1.8c-2.1,2.3-3.9,4.8-5.4,7.5l0,0
			c-0.4,0.9-0.7,1.6-0.8,2.2c-0.1,0.4,0,0.7,0,1c0.1,0.5,0.4,0.8,0.7,1s0.7,0.3,1,0.4c0.6,0.1,1.1,0,1.5,0c0.4-0.1,0.7-0.2,0.7-0.2
			h0.1l2.5-2.5l0,0c1.9-2.3,3.6-4.6,5.3-7.1c0.2-0.2,0.3-0.4,0.5-0.4c0.2-0.1,0.4-0.1,0.7-0.1c0.1,0,0.2,0,0.3,0.1
			c0.1,0,0.2,0.1,0.4,0.1c0.3,0.1,0.6,0.3,0.9,0.4c0.1,0.1,0.2,0.1,0.3,0.2l0,0l0,0l0.1-0.1h-0.1l0,0l0.1-0.1h-0.1l0.2-0.1h-0.2v0.1
			l0.2-0.1h-0.2h0.2h-0.2v0.1h0.2h-0.2h0.1h-0.1l0,0h0.1h-0.1l0,0l0,0c-1.5,3.7-3,7.4-3.6,11.4c0,0.1,0,0.1,0,0.2
			c-0.2,1.4-0.2,2.4,0.1,3.1c0.1,0.3,0.3,0.6,0.6,0.8c0.2,0.2,0.5,0.3,0.8,0.4c0.4,0.1,0.8,0,1.1-0.1c0.5-0.2,1-0.4,1.4-0.7
			c0.4-0.2,0.6-0.4,0.6-0.4l0.1-0.1l1.7-3.5c1.1-2.2,1.7-4.4,3-6.3c1.6-2.4,3.7-4.9,6.2-6.4l0,0c1.2-0.7,2.3-1.6,3.3-2.6l-0.3-0.3
			h-0.5c0.2,2.6,0.7,5.7,1.8,8.3c0.4,0.9,0.8,1.6,1.3,2.1s1,0.7,1.5,0.8c0.6,0.1,1.1,0,1.6-0.3c0.7-0.3,1.3-0.8,1.7-1.3
			c0.4-0.4,0.6-0.8,0.7-0.8l0.1-0.1l0.1-3.6l0,0L52.5,235.2H52l-0.1,3.4h0.5l-0.4-0.3l0,0c0,0.1-0.4,0.6-1,1.1
			c-0.3,0.3-0.6,0.5-1,0.6c-0.3,0.2-0.7,0.2-1,0.2s-0.6-0.2-1-0.6c-0.4-0.4-0.7-0.9-1.1-1.8c-1-2.5-1.5-5.5-1.7-8l-0.1-1l-0.7,0.7
			c-1,0.9-2.1,1.8-3.2,2.4l0.2,0.4l-0.2-0.4c-2.7,1.6-4.8,4.2-6.5,6.7c-1.4,2.1-2,4.3-3,6.4l-1.7,3.4l0.4,0.2l-0.3-0.4l0,0
			c-0.1,0.1-0.5,0.4-0.9,0.6c-0.2,0.1-0.5,0.2-0.7,0.3s-0.5,0.1-0.6,0.1s-0.2-0.1-0.3-0.1c-0.1-0.1-0.3-0.4-0.4-0.9
			s-0.1-1.2,0.1-2.2c0-0.1,0-0.1,0-0.2c0.6-3.8,2.1-7.5,3.6-11.2c0-0.1,0.1-0.1,0.1-0.3c0-0.1,0-0.1,0-0.2c0-0.2-0.1-0.3-0.2-0.4
			c-0.1-0.2-0.3-0.3-0.5-0.4c-0.3-0.2-0.6-0.3-0.9-0.4c-0.3-0.1-0.5-0.2-0.7-0.2c-0.1,0-0.3-0.1-0.5-0.1c-0.4-0.1-0.8,0-1.1,0.1
			c-0.4,0.1-0.7,0.4-1,0.8c-1.7,2.4-3.5,4.7-5.3,7l0.4,0.3l-0.3-0.3l-2.4,2.4l0.3,0.3l-0.1-0.4l0,0c0,0-0.3,0.1-0.7,0.1
			c-0.4,0.1-0.8,0.1-1.2,0c-0.4-0.1-0.6-0.2-0.8-0.3c-0.1-0.1-0.1-0.2-0.2-0.4c0-0.2,0-0.4,0-0.7c0.1-0.5,0.3-1.1,0.7-1.9l0,0
			c1.4-2.7,3.2-5.1,5.2-7.3c0.5-0.6,1.1-1.2,1.6-1.7c0.1-0.1,0.2-0.1,0.3-0.2c0.2-0.1,0.5-0.3,0.7-0.5c0.1-0.1,0.2-0.2,0.3-0.4
			c0.1-0.1,0.2-0.3,0.2-0.5c0-0.1,0-0.2,0-0.3c0-0.3-0.1-0.5-0.3-0.7c-0.2-0.2-0.4-0.3-0.6-0.3c-0.3,0-0.6,0-0.9,0.1
			c-0.5,0.2-1.2,0.5-1.8,1c-0.9,0.6-1.9,1.4-2.8,2.1c-0.4,0.3-0.8,0.6-1.1,0.9c-0.1,0.1-0.3,0.2-0.4,0.3s-0.2,0.1-0.2,0.1l0,0
			l-2.9,1.7l0.2,0.4v-0.5l0,0c-0.1,0-0.5,0-1-0.1c-0.4-0.1-0.9-0.2-1.2-0.4c-0.2-0.1-0.3-0.2-0.3-0.4c-0.1-0.1-0.1-0.3-0.1-0.5
			c0.1-0.5,0.4-1.2,1.3-2.2c2-2.3,4.5-4.2,7.1-5.9c0.4-0.3,1.1-0.6,1.8-1.1c0.3-0.2,0.6-0.5,0.9-0.8c0.2-0.3,0.4-0.7,0.5-1.1
			c0-0.2,0-0.4,0-0.7c0-0.1-0.1-0.3-0.2-0.5c-0.1-0.1-0.2-0.2-0.3-0.3c-0.1-0.1-0.2-0.1-0.4-0.1c-0.3,0-0.7,0-1,0.1
			c-0.5,0.1-1.1,0.3-1.6,0.5c-0.2,0.1-0.5,0.2-0.7,0.3s-0.3,0.1-0.4,0.2c-1.3,0.4-2.6,0.8-3.9,1.1l0.1,0.4l-0.1-0.5l-3.4,0.5
			l0.1,0.5l0.1-0.4l0,0c-0.1,0-0.7-0.2-1.2-0.6c-0.3-0.2-0.5-0.4-0.7-0.6c-0.2-0.2-0.2-0.4-0.2-0.6c0-0.2,0.1-0.5,0.5-0.8
			c0.3-0.3,0.9-0.7,1.6-1.1c2.2-1.2,4.7-2,7.1-2.6c1-0.3,2.1-0.4,3.1-0.7s2.1-0.6,3.1-1.5c1.4-1.1,2.5-2.5,3.7-3.7
			c1.2-1.3,2.3-2.5,3.7-3.5c2.5-1.8,5.5-3,8.6-2.9c0.3,0,0.7,0,1.1,0.1c1.2,0.2,2.5,0.6,3.6,1.3s2,1.6,2.5,2.7l0,0l0,0l0.4-0.2
			l-0.4,0.2l0,0l0.4-0.2l-0.4,0.2l0,0c0.1,0.2,1.4,2.9,2,5.8c0.2,1,0.2,2,0.1,3.1s-0.2,2.2-0.1,3.3c0.1,2.2,0.6,4.3,0.9,6.3
			c0.2,1.3,0.3,2.5,0.5,3.8c0.2,1.6,0.4,3.2,0.6,4.8L52.5,235.2H52H52.5z"/>
		<path class="st9" d="M228.5,205.7c-2.7-3.9-6.2-7.7-10.2-11.4c-1.8-1.7-3.8-3.4-5.8-5c-0.3-0.2-0.6-0.5-0.9-0.7
			c-0.2-0.1-0.3-0.3-0.5-0.4c-0.4-0.3-0.8-0.6-1.2-0.9c-0.3-0.2-0.5-0.4-0.8-0.6c-0.3-0.3-0.7-0.5-1-0.8c-0.1,0-0.1-0.1-0.2-0.1
			c-1.5-1.1-1.9-1.4-3.5-2.5c-0.2-0.1-0.3-0.2-0.5-0.3c-0.1,0-0.1-0.1-0.2-0.1c-0.2-0.1-0.3-0.2-0.5-0.3c-1.8-1.2-3.7-2.5-5.5-3.7
			c-0.1-0.1-0.3-0.2-0.4-0.3c-0.7-0.4-1.3-0.8-2-1.2c-0.6-0.4-1.2-0.8-1.8-1.1c-0.5-0.3-1.1-0.7-1.6-1c-0.7-0.4-1.5-0.9-2.2-1.3
			c-0.5-0.3-0.9-0.6-1.4-0.8c-0.8-0.5-1.6-1-2.4-1.4c-0.4-0.2-0.9-0.5-1.3-0.7c-0.8-0.5-1.7-1-2.5-1.4c-0.4-0.2-0.9-0.5-1.3-0.7
			c-0.8-0.4-1.6-0.9-2.4-1.3c-0.5-0.3-1-0.5-1.5-0.8c-0.4-0.2-0.8-0.5-1.3-0.7c-0.8-0.4-1.6-0.8-2.3-1.2l0,0
			c-8.8-4.7-17.3-8.8-24.4-12.2c-16.3,42.1-54.3,76.1-72.2,117.5c26.5,7,39.3,40.5,66.4,45.5c7.2-39.1,47.2-73.7,69.6-94.4
			C217.3,216.5,222.6,211.5,228.5,205.7"/>
		<path class="st7" d="M253,134.4c0,0,7.8,2.3,5.3,8.3c-2.5,5.9-10.5,14.9-17.3,10.8c0,0-0.2-1.1,0.6-1.6c0.8-0.6,9.9-18,9.9-18
			L253,134.4z"/>
		<path class="st10" d="M251.4,138.6v-0.2V138.6L251.4,138.6v-0.2V138.6c0,0,1,0.2,1.9,0.8c0.4,0.3,0.8,0.6,1.1,1
			c0.2,0.4,0.4,0.9,0.3,1.5c-0.1,0.5-0.3,1.2-0.8,2s-1.3,1.7-2.5,2.8c-0.3,0.3-0.3,0.7-0.1,1c0.3,0.3,0.7,0.3,1,0.1
			c1.2-1.1,2.1-2.1,2.7-3s1-1.8,1.1-2.6c0.1-1-0.1-1.8-0.5-2.5c-0.6-1-1.6-1.6-2.4-2s-1.4-0.5-1.5-0.5c-0.4-0.1-0.8,0.2-0.9,0.6
			C250.8,138.1,251,138.5,251.4,138.6L251.4,138.6z"/>
		<polyline class="st11" points="177.2,177.9 198.9,188.7 213.1,162.1 191.4,151.3 177.2,177.9 		"/>
		<path class="st12" d="M179.1,165.4l-3.9,0.4c0.1,0,0.2,0.1,0.3,0.1c0.4,0.2,0.8,0.4,1.3,0.7s1,0.5,1.5,0.8
			c0.4,0.2,0.8,0.4,1.2,0.6C179.2,166.4,179.1,165.4,179.1,165.4"/>
		<path class="st13" d="M175.2,165.8l-4.1,0.4c-5.7,4.9,1.5,26.4,1.5,26.4l4.6-2.7l0.1-1l5.9-2.5l2.2-1.3l0,0
			c-1-1.3-1.8-2.8-2.5-4.4l-5.6-2.8l3-5.5c-0.4-1.7-0.6-3.2-0.8-4.4c-0.4-0.2-0.8-0.4-1.2-0.6c-0.5-0.3-1-0.5-1.5-0.8
			c-0.4-0.2-0.8-0.5-1.3-0.7C175.4,165.8,175.3,165.8,175.2,165.8"/>
		<polyline class="st14" points="183.2,186.4 177.3,188.9 177.2,189.9 183.2,186.4 		"/>
		<path class="st13" d="M186.6,184.4l-1.2,0.7l0,0C185.6,185.1,186.1,184.8,186.6,184.4 M187.8,183.6c-0.2,0-0.7,0.4-1.2,0.7l0,0
			L187.8,183.6C187.9,183.6,187.9,183.6,187.8,183.6"/>
		<path class="st15" d="M180.2,172.4l-3,5.5l5.6,2.8C181.6,177.9,180.7,175,180.2,172.4"/>
		<path class="st16" d="M180.8,163.1c0,0,0.8,12.5,6.3,19.7c0.2,0.3,0.5,0.6,0.8,0.8l-12.4,9.4c0,0-10.3-23.1-4.6-27.9L180.8,163.1z
			"/>
		<path class="st12" d="M209.4,180.5c0,0-2.1,1.3-5.2,2.7c0.1,0,0.1,0.1,0.2,0.1c1.6,1.1,2.1,1.4,3.5,2.5c0.1,0,0.1,0.1,0.2,0.1
			c0.3,0.3,0.7,0.5,1,0.8c0.3,0.2,0.5,0.4,0.8,0.6c0.4,0.3,0.8,0.6,1.2,0.9c0.2,0.1,0.3,0.3,0.5,0.4l0.1,0.1c0.6-0.7,1-1.4,1.2-2.1
			L209.4,180.5"/>
		<path class="st13" d="M204.2,183.2c-0.5,0.2-1,0.4-1.5,0.7c-0.5,0.2-1,0.4-1.6,0.6l-2.3,4.2l-4.4-2.2c-1.4,0.3-2.8,0.5-4.1,0.5
			l0.2,0.1l-0.5,9.7l0,0l0.2,1.3l0.2,0.9l0.4,2.3c0,0,5.2-1.6,10.5-4.1c4-1.8,8-4.2,10.3-6.7c-0.3-0.2-0.6-0.5-0.9-0.7
			c0.4-0.3,0.7-0.7,1-1l-0.1-0.1c-0.2-0.1-0.3-0.3-0.5-0.4c-0.4-0.3-0.8-0.6-1.2-0.9c-0.3-0.2-0.5-0.4-0.8-0.6
			c-0.3-0.3-0.7-0.5-1-0.8c-0.1,0-0.1-0.1-0.2-0.1c-1.5-1.1-1.9-1.4-3.5-2.5C204.3,183.2,204.2,183.2,204.2,183.2"/>
		<path class="st14" d="M190.3,187c-0.3,0-0.6,0-1,0c-0.2,0-0.4,0-0.6,0s-0.3-0.1-0.5-0.1l1.8,10l0,0l0.5-9.7L190.3,187"/>
		<path class="st15" d="M201.1,184.4c-2.1,0.8-4.4,1.5-6.7,2l4.4,2.2L201.1,184.4"/>
		<path class="st16" d="M210.7,189.7c-4.7,3.9-15.1,7-20.5,8.3c-2,0.5-3.3,0.8-3.3,0.8l1-15.3c0.4,0.2,0.7,0.2,1.1,0.2
			c3.5,0,7.2-0.9,10.5-2.1c5.4-1.9,9.6-4.4,9.6-4.4l3.9,9c0,0.1,0,0.3-0.1,0.4C212.6,187.7,211.8,188.8,210.7,189.7z"/>
		<path class="st17" d="M254.7,101.9c0,0,18.4,3.6,12.7,13.7s-18.1,15-18.1,15L254.7,101.9z"/>
		<path class="st7" d="M251.6,137.2c-0.3,0.8-0.6,1.7-0.8,2.5c-0.8,2.2-1.5,4.2-2.3,6.1c-0.1,0.1-0.1,0.3-0.2,0.4
			c-0.4,0.8-0.7,1.6-1.1,2.4c-0.1,0.3-0.2,0.5-0.3,0.7c0,0.1-0.1,0.2-0.1,0.3c-1.2,2.5-2.4,4.8-3.6,6.8c-0.7,1.1-1.3,2.1-2,3.1
			c-10.9,15.6-23.8,14.7-36.6,10.4c-11.9-4-18.9-16.8-19.2-32.2c-0.1-4.6,0.4-9.5,1.6-14.4c0.6-2.4,1.3-4.9,2.2-7.3
			c8.8-24,29.9-38.8,47.2-33c28.2,9.4,20,39.8,15.3,54C251.6,137,251.6,137.1,251.6,137.2z"/>
		<path class="st18" d="M248.4,145.7c0.8-1.9,1.6-3.9,2.3-6.1c-1.1-1-2.4-1.8-3.9-2.3c-5.4-1.8-11.2,0.8-12.9,5.9
			c-1.7,5.1,1.3,10.7,6.7,12.5c0.6,0.2,1.8,0.6,2.5,0.7c1.2-2,2.4-4.3,3.6-6.8c0-0.1,0.1-0.2,0.1-0.3c0.1-0.2,0.2-0.5,0.3-0.7
			c0.4-0.8,0.7-1.6,1.1-2.4L248.4,145.7z"/>
		<path class="st19" d="M247.2,148.6c-0.1,0.3-0.2,0.5-0.3,0.7c0,0.1-0.1,0.2-0.1,0.3c-1.5,0.1-2.7-0.7-3.9-1.6
			C244.2,148,245.7,148,247.2,148.6z"/>
		<path class="st19" d="M248.4,145.7c-0.9-0.8-1.9-1.3-3.6-1.2c1.2,1.2,2.2,1.8,3.4,1.6L248.4,145.7z"/>
		<path class="st17" d="M267.3,87.3c-2.8-0.8-5.6-1.8-8.1-2.9c-30.9-36.2-52.5-7.7-65.5-4.4c-13.6,3.4-9.3,33.9-9.3,33.9
			s4.1,0.6,5.8,1.2s21-28,21-28l15.2,1.5c0,0,10.8,7,21.9,12.8c-2.5,1.3-4.8,1.9-6.5,1.2c-5.8-2.4,11.9,12.3,26.7,6.5
			c2,0.1,6-3.7,7.1-4.8C289.4,89.8,273.8,87.1,267.3,87.3z"/>
		<path class="st20" d="M227.6,155.3c-3.5,5.8-8.8,9.1-13.2,7.9c-5.8-1.6-8.2-10.6-5.2-19.9l11.4,3.2l9.8,2.8
			C229.6,151.4,228.7,153.5,227.6,155.3z"/>
		<path class="st21" d="M227.6,155.3c-0.7-3.3-4.2-6.6-7.1-8.8l9.8,2.8C229.6,151.4,228.7,153.5,227.6,155.3z"/>
		<path class="st22" d="M269.8,100.9l0.5,0.3L269.8,100.9L269.8,100.9l0.5,0.3L269.8,100.9c0,0,0,0.1-0.1,0.2
			c-0.3,0.5-1.3,1.6-2.8,2.4c-1.5,0.9-3.7,1.5-6.6,1.1c-1.1-0.2-2.4-0.5-3.8-1.1c-0.6-0.2-1.2,0-1.4,0.6s0,1.2,0.6,1.4
			c1.6,0.6,3,1,4.3,1.2c2,0.3,3.7,0.1,5.2-0.2c2.2-0.6,3.8-1.7,4.9-2.7s1.6-1.8,1.6-1.9c0.3-0.5,0.2-1.2-0.4-1.5
			S270.1,100.4,269.8,100.9L269.8,100.9z"/>
		<path class="st22" d="M263.2,97.6l0.3,0.3L263.2,97.6L263.2,97.6l0.3,0.3L263.2,97.6L263.2,97.6c-0.1,0.1-0.7,0.6-1.6,1.1
			c-0.9,0.4-2.1,0.8-3.6,0.5c-1.1-0.2-2.3-0.6-3.8-1.5c-0.3-0.2-0.8-0.1-1,0.2s-0.1,0.8,0.2,1c1.6,1,3,1.5,4.3,1.7
			c2,0.3,3.6-0.2,4.7-0.8c1.1-0.6,1.7-1.2,1.7-1.3c0.3-0.3,0.2-0.7,0-1C263.9,97.3,263.5,97.4,263.2,97.6L263.2,97.6z"/>
		
			<ellipse transform="matrix(0.3201 -0.9474 0.9474 0.3201 10.1443 278.5848)" class="st18" cx="199.2" cy="132.2" rx="9.7" ry="9.7"/>
		<path class="st19" d="M199.3,131.9c-1.4-1.1-2.8-2.2-5.1-2.5C195.5,131.7,197.3,132,199.3,131.9z"/>
		<path class="st19" d="M196.3,126.8c0.9,1.3,2.1,1.4,3.9,1.2C198.9,126.7,197.6,126.6,196.3,126.8z"/>
		<path class="st23" d="M228.5,129.1c-4.6,3.5-5.9,11.3-2.3,14.5C224.6,138.2,226.3,133.6,228.5,129.1z"/>
		<path class="st7" d="M188.3,115.2c0,0-7.6-2.9-9.3,3.6s-1,19.1,7,19.8c0,0,0.8-0.8,0.6-1.7c-0.2-1,3.3-21.2,3.3-21.2L188.3,115.2z
			"/>
		<path class="st10" d="M187.6,118.4c0,0-0.9-0.4-2-0.6c-0.5-0.1-1-0.1-1.5,0c-0.8,0.1-1.7,0.4-2.3,1.1c-0.7,0.7-1.2,1.7-1.4,3.1
			c-0.2,1.3-0.1,2.9,0.2,4.9c0.1,0.4,0.5,0.7,0.9,0.6s0.7-0.5,0.6-0.9c-0.3-1.9-0.3-3.4-0.2-4.4c0.1-0.8,0.3-1.3,0.6-1.7
			c0.4-0.6,0.8-0.9,1.3-1.1s1.1-0.2,1.6-0.1c0.4,0.1,0.9,0.2,1.1,0.3c0.1,0,0.3,0.1,0.3,0.1h0.1l0,0l0,0l0.1-0.3l-0.1,0.3l0,0
			l0.1-0.3l-0.1,0.3c0.4,0.2,0.8,0,1-0.4C188.1,119,187.9,118.5,187.6,118.4L187.6,118.4z"/>
		<path class="st9" d="M205.9,210l-2.2,56.8c-0.2,6.2,4.8,11.4,11.2,11.6s11.8-4.6,12-10.7l2.2-56.8c0.2-6.2-4.8-11.4-11.2-11.6
			C211.6,199,206.2,203.8,205.9,210"/>
		<path class="st9" d="M143.3,151.8l-56.8,2.1c-6.2,0.2-11,5.6-10.7,12c0.2,6.4,5.4,11.4,11.6,11.2l56.8-2.1c6.2-0.2,11-5.6,10.7-12
			C154.7,156.6,149.5,151.6,143.3,151.8"/>
		<path class="st24" d="M155.7,153.3c0,0,5.3,2.6,6,3c0.6,0.5-13.8,39.7-13.8,39.7s36.1,24.5,40,23.5s28.6-28.3,28.6-28.3l5.2,4.5
			c0,0-31.7,35.4-33.1,39.7c-1.4,4.3-16.4,28.4-17.6,32.8c-1.2,4.3-21.7,51.7-21.7,51.7s-69.7-7.2-81-29.5
			c-11.3-22.4,63.5-98.2,63.5-98.2l4.2-2L155.7,153.3z"/>
		<path class="st9" d="M74.2,158.9l-38,42.3c-4.1,4.6-3.6,11.8,1.2,16.1s12,4,16.1-0.6l38-42.3c4.1-4.6,3.6-11.8-1.2-16.1
			C85.6,154.1,78.4,154.3,74.2,158.9"/>
		<path class="st7" d="M246,223.2c3.5,4.7,8,8.6,12.1,12.6c1.2,1.1,1.2,1.7,2.3,2.8l0.5-0.5c5.7-6.4,4.3-10.5,0-15.3
			c-4.2-4.8-3.3-10.7-9-4.4l-6.8,4.4C245.3,222.9,245.9,223,246,223.2z"/>
		<path class="st8" d="M246,223.2l-0.4,0.3c3.6,4.8,8,8.7,12.2,12.7c0.6,0.5,0.8,0.9,1.1,1.3c0.3,0.4,0.6,0.9,1.2,1.5l0.4,0.4
			l0.8-0.9c2.3-2.6,3.5-4.8,3.8-7c0.2-1.6-0.1-3.2-0.7-4.6c-0.7-1.5-1.7-2.9-3-4.3c-1.4-1.5-2.2-3.2-2.9-4.6c-0.4-0.7-0.7-1.3-1-1.8
			c-0.2-0.2-0.4-0.5-0.6-0.6c-0.2-0.2-0.5-0.3-0.8-0.3c-0.3,0-0.6,0-0.9,0.1c-0.5,0.2-1,0.5-1.5,0.9c-0.6,0.5-1.2,1.1-1.9,1.9
			l0.4,0.3l-0.3-0.4l-7.2,4.7l0.3,0.4c0.1,0.1,0.2,0.1,0.2,0.2c0.1,0.1,0.2,0.1,0.3,0.1s0.3,0.1,0.4,0.1h0.1l0,0l0,0l0,0l0,0l0,0
			l0.1-0.3l-0.2,0.2c0,0.1,0.1,0.1,0.1,0.1l0.1-0.3l-0.2,0.2L246,223.2l0.4-0.3c-0.1-0.1-0.2-0.1-0.2-0.2c-0.1-0.1-0.2-0.1-0.3-0.1
			s-0.3-0.1-0.4-0.1h-0.1l0,0l0,0l0,0l0,0l0,0l-0.1,0.3l0.2-0.2c0-0.1-0.1-0.1-0.1-0.1l-0.1,0.3l0.2-0.2l-0.4,0.3l0.3,0.4l6.8-4.4
			v-0.1c0.9-1.1,1.7-1.8,2.3-2.2c0.3-0.2,0.5-0.3,0.7-0.4c0.2-0.1,0.4-0.1,0.5-0.1s0.2,0.1,0.4,0.2c0.2,0.2,0.5,0.5,0.8,0.9
			c0.4,0.7,0.8,1.6,1.4,2.6s1.3,2.2,2.2,3.2c1.3,1.4,2.3,2.8,2.9,4.1s0.9,2.6,0.7,4.1c-0.3,1.9-1.3,3.9-3.6,6.4l-0.5,0.5l0.4,0.3
			l0.3-0.4c-0.6-0.5-0.8-0.9-1.1-1.3c-0.3-0.4-0.6-0.9-1.2-1.5c-4.1-4-8.6-7.9-12.1-12.6L246,223.2z"/>
		<path class="st7" d="M260.9,230.7c0.8,0.2,0.2,0.7,3.3,2.3c6.1,3,13.9,0.6,20.5-0.6c0,0,1.1-1.6,1.1-2.3c0.1-0.6-1.5-1.2-1.8-1.3
			l-3.3-17.6l-5.6-0.1c-0.2,0-0.3,0-0.5,0.1c-2.6,0.4-4.8,1.8-7.3,2.8c-2.7,1.1-5.8,1.1-8.7,1.1c-1.1,0-2.2-0.3-3.3-0.5"/>
		<path class="st8" d="M260.8,231.2c0.1,0,0.1,0,0.1,0s0.1,0,0.2,0.1s0.4,0.4,0.8,0.8c0.4,0.3,1.1,0.8,2.1,1.3
			c1.4,0.7,2.8,1.1,4.3,1.3c2.7,0.4,5.5,0.1,8.3-0.3c2.8-0.4,5.6-1.1,8.2-1.5h0.2l0.1-0.2c0,0,0.3-0.4,0.5-0.9
			c0.1-0.2,0.3-0.5,0.4-0.8s0.2-0.5,0.3-0.8v-0.1c0-0.2,0-0.4-0.1-0.5c-0.1-0.2-0.3-0.4-0.5-0.6c-0.3-0.2-0.6-0.4-0.9-0.5
			s-0.5-0.2-0.6-0.3l-0.2,0.5l0.5-0.1l-3.3-18l-6-0.1l0,0c-0.1,0-0.3,0-0.5,0.1c-2.8,0.5-5,1.9-7.4,2.8c-2.6,1-5.7,1.1-8.5,1.1
			c-0.4,0-0.8,0-1.2-0.1c-0.7-0.1-1.3-0.2-2-0.4c-0.3-0.1-0.5,0.1-0.6,0.4c-0.1,0.3,0.1,0.5,0.4,0.6c0.7,0.2,1.4,0.3,2.1,0.4
			c0.4,0.1,0.9,0.1,1.3,0.1c2.9,0.1,6.1,0,8.9-1.1c2.5-1,4.7-2.3,7.2-2.7c0.1,0,0.3,0,0.5-0.1l-0.1-0.5v0.5l5.2,0.1l3.2,17.5
			l0.3,0.1c0.1,0,0.6,0.2,0.9,0.4c0.2,0.1,0.4,0.2,0.5,0.3l0.1,0.1l0,0h0.1h-0.1l0,0h0.1h-0.1l0,0c0,0.1-0.1,0.3-0.2,0.5
			c-0.2,0.3-0.4,0.7-0.6,1c-0.1,0.2-0.2,0.3-0.2,0.4l-0.1,0.1l0,0l0.4,0.3l-0.1-0.5c-2.6,0.4-5.4,1.1-8.2,1.5
			c-2.8,0.4-5.5,0.7-8,0.3c-1.4-0.2-2.8-0.6-4-1.2c-0.8-0.4-1.3-0.7-1.6-0.9c-0.3-0.2-0.5-0.3-0.6-0.5c-0.2-0.2-0.3-0.3-0.5-0.5
			c-0.1-0.1-0.2-0.2-0.3-0.2c-0.1-0.1-0.3-0.1-0.4-0.1c-0.3-0.1-0.5,0.1-0.6,0.4C260.4,230.9,260.6,231.2,260.8,231.2L260.8,231.2z"
			/>
		<path class="st24" d="M268,237l-9.2-4.9c-1.3-0.7-1.8-2.3-1.1-3.6l20.1-37.8c0.7-1.3,2.3-1.8,3.6-1.1l9.2,4.9
			c1.3,0.7,1.8,2.3,1.1,3.6l-20.1,37.8C270.9,237.2,269.3,237.7,268,237z"/>
		<path class="st25" d="M261.8,233.7l-2.9-1.6c-1.3-0.7-1.8-2.3-1.1-3.6l20.1-37.8c0.7-1.3,2.3-1.8,3.6-1.1l2.9,1.6
			c1.3,0.7,1.8,2.3,1.1,3.6l-20.1,37.8C264.7,233.9,263.1,234.4,261.8,233.7z"/>
		<path class="st7" d="M291.8,208.7c0,0,6.5,3.3-0.3,6.2c0,0,6.1,3.2,0.1,6.8c0,0,4.3,4.4-1.7,6.2c0,0,3.3,3.6-0.8,5.7l-14.8-0.4
			c0,0-4.8-5.3,2.1-6.1h2.7l-2.7-0.7c0,0-5.2-2.6-0.6-5.1l5-0.1l-4.1-1.2c0,0-4.6-3.3,0.4-5l4.7-0.2l-4.5-0.7c0,0-4.5-3.9,1.1-5.4
			C284,207.3,291.8,208.7,291.8,208.7z"/>
		<path class="st8" d="M291.8,208.7l-0.2,0.4l0,0c0.1,0,0.8,0.4,1.5,1c0.3,0.3,0.6,0.6,0.8,1c0.2,0.3,0.3,0.7,0.2,1
			c0,0.3-0.2,0.7-0.6,1.1c-0.4,0.4-1.1,0.9-2.1,1.3l-0.9,0.4l0.9,0.5l0,0c0.1,0,0.8,0.4,1.4,1c0.3,0.3,0.6,0.7,0.8,1.1
			c0.2,0.4,0.3,0.8,0.2,1.2s-0.2,0.8-0.6,1.2c-0.4,0.5-1,1-1.8,1.5l-0.5,0.3l0.4,0.4l0,0c0,0,0.4,0.5,0.8,1.1c0.2,0.3,0.3,0.6,0.4,1
			s0.1,0.7,0.1,1.1c-0.1,0.4-0.2,0.8-0.7,1.2c-0.4,0.4-1.1,0.8-2.2,1.1l-0.7,0.2l0.5,0.5l0,0c0,0,0.4,0.4,0.7,1s0.5,1.3,0.4,2
			c-0.1,0.3-0.2,0.7-0.5,1s-0.7,0.7-1.3,1l0.2,0.4v-0.5l-14.8-0.4v0.5l0.3-0.3l0,0c0,0-0.5-0.5-0.9-1.2c-0.2-0.3-0.4-0.7-0.5-1.1
			c-0.1-0.4-0.2-0.7-0.1-1.1c0.1-0.4,0.2-0.8,0.7-1.1s1.3-0.6,2.6-0.8l-0.1-0.5v0.5h6.6l-6.5-1.6l-0.1,0.5l0.2-0.4l0,0
			c-0.1,0-0.7-0.4-1.3-0.9c-0.3-0.3-0.6-0.5-0.7-0.8c-0.2-0.3-0.2-0.6-0.2-0.9c0-0.2,0.1-0.5,0.4-0.8c0.2-0.3,0.6-0.6,1.2-0.9
			l-0.2-0.4v0.5l8-0.1l-7-2.1l-0.1,0.4l0.3-0.4l0,0c0,0-0.6-0.4-1-0.9c-0.2-0.3-0.4-0.6-0.6-0.8c-0.1-0.3-0.2-0.6-0.2-0.8
			s0.1-0.5,0.4-0.7c0.3-0.3,0.8-0.5,1.5-0.8l-0.1-0.4v0.5l4.7-0.2v-0.9l-4.5-0.7l-0.1,0.5l0.3-0.4l0,0c0,0-0.5-0.4-0.9-1
			c-0.2-0.3-0.4-0.6-0.5-0.9c-0.1-0.3-0.2-0.6-0.1-0.9c0-0.3,0.2-0.6,0.6-0.9c0.4-0.3,1-0.6,1.9-0.9c2.3-0.6,4.9-0.8,7.3-0.7
			c2.3,0,4.3,0.3,5.3,0.4c0.2,0,0.4,0.1,0.5,0.1s0.2,0,0.2,0L291.8,208.7l-0.2,0.4L291.8,208.7l0.1-0.5c0,0-0.3,0-0.7-0.1
			c-1-0.1-3.1-0.4-5.5-0.5c-2.4,0-5.1,0.1-7.5,0.8c-1,0.3-1.8,0.7-2.3,1.1c-0.5,0.4-0.8,1-0.9,1.5s0,1,0.2,1.4
			c0.3,0.6,0.7,1.2,1,1.6c0.3,0.4,0.6,0.6,0.6,0.6l0.1,0.1l4.6,0.7l0.1-0.5v-0.5l-4.8,0.2h-0.1c-0.8,0.3-1.4,0.6-1.8,1
			s-0.7,0.8-0.7,1.3c-0.1,0.5,0.1,1,0.2,1.4c0.3,0.6,0.8,1.1,1.1,1.5c0.4,0.4,0.7,0.6,0.7,0.6h0.1l1.2,0.4h-2l-0.1,0.1
			c-0.7,0.4-1.1,0.7-1.5,1.1c-0.3,0.4-0.5,0.8-0.6,1.2c-0.1,0.6,0.1,1.1,0.3,1.5c0.4,0.6,1,1.1,1.5,1.5c0.5,0.3,0.9,0.5,0.9,0.6l0,0
			l2.8,0.7l0.1-0.5v-0.5h-2.7l0,0c-1.4,0.2-2.3,0.5-3,0.9c-0.7,0.5-1,1.1-1.1,1.8c-0.1,0.5,0,1,0.2,1.5c0.2,0.7,0.6,1.4,0.9,1.8
			c0.3,0.5,0.6,0.8,0.6,0.8l0.1,0.1l15.1,0.4l0.1-0.1c0.7-0.4,1.3-0.8,1.6-1.3c0.4-0.5,0.6-1,0.7-1.5c0.1-1-0.2-1.9-0.6-2.6
			c-0.4-0.7-0.8-1.1-0.8-1.1l-0.3,0.3l0.1,0.4c1.2-0.4,2-0.8,2.6-1.3s0.9-1.2,1-1.8c0.1-0.5,0-1-0.1-1.5c-0.2-0.7-0.6-1.3-0.9-1.7
			s-0.6-0.7-0.6-0.7l-0.3,0.3l0.2,0.4c0.9-0.6,1.6-1.1,2-1.7c0.5-0.6,0.7-1.1,0.8-1.7c0.1-0.7-0.1-1.3-0.3-1.8
			c-0.4-0.8-1.1-1.4-1.6-1.8c-0.5-0.4-1-0.6-1-0.7l-0.2,0.4l0.2,0.4c1.1-0.5,1.9-1,2.4-1.5s0.8-1.1,0.9-1.6c0.1-0.6-0.1-1.2-0.4-1.7
			c-0.4-0.7-1.1-1.3-1.6-1.7c-0.6-0.4-1-0.6-1-0.6h-0.1h-0.1L291.8,208.7z"/>
		<path class="st7" d="M253.1,217.2c0,0,12.6-16,14.5-16c1.9,0.1,12.4,3.6,13.1,6c0.3,0.8,0.1,1.8,0,2.6c-0.1,1.3-0.3,2.6-0.6,3.9
			c-0.2,1.3-0.5,2.6-0.8,3.8c-0.2,0.8-0.7,3-1,3.8c-0.5,1.2-1.8,1-2.6,0.7c-0.9-0.4-1.5-0.9-1.8-1.8c-0.5-1.2-0.2-4.5,0.1-5.7
			c0.7-2.6,0-3.1,0-3.1s-6.7,8.9-12.6,8.6"/>
		<path class="st8" d="M253.5,217.5c0,0,0.2-0.2,0.5-0.7c1.2-1.5,4.3-5.4,7.3-8.8c1.5-1.7,2.9-3.3,4.1-4.5c0.6-0.6,1.1-1.1,1.5-1.4
			c0.2-0.2,0.4-0.3,0.5-0.3s0.1-0.1,0.1-0.1l0,0l0,0v-0.1v0.1l0,0v-0.1v0.1c0.1,0,0.2,0,0.3,0c0.6,0.1,1.7,0.4,2.9,0.7
			c1.9,0.6,4.2,1.4,6.1,2.4c0.9,0.5,1.8,0.9,2.4,1.4c0.3,0.2,0.6,0.4,0.7,0.6c0.2,0.2,0.3,0.4,0.3,0.5c0.2,0.7,0.1,1.6,0,2.4
			c0,0.5-0.1,0.9-0.2,1.4c-0.1,0.8-0.3,1.6-0.4,2.4c-0.2,1.3-0.5,2.6-0.8,3.8c-0.1,0.4-0.3,1.2-0.5,1.9c-0.1,0.4-0.2,0.7-0.3,1.1
			c-0.1,0.3-0.2,0.6-0.2,0.8c-0.1,0.3-0.3,0.4-0.5,0.5s-0.5,0.1-0.8,0.1c-0.2,0-0.5-0.1-0.7-0.2c-0.4-0.2-0.7-0.4-1-0.6
			c-0.3-0.2-0.4-0.5-0.6-0.9c-0.1-0.2-0.1-0.5-0.2-0.8c-0.1-1,0-2.6,0.1-3.7c0.1-0.4,0.1-0.7,0.2-1c0.1-0.4,0.2-0.8,0.2-1.2
			c0.1-0.9,0.1-1.5-0.1-1.8c-0.1-0.4-0.3-0.6-0.4-0.6l-0.4-0.3l-0.3,0.4c0,0,0,0-0.1,0.1c-0.4,0.5-2.1,2.6-4.4,4.6
			c-1.2,1-2.4,2-3.8,2.7c-1.3,0.7-2.7,1.1-3.9,1.1c-0.3,0-0.5,0.2-0.5,0.4c0,0.3,0.2,0.5,0.4,0.5c1.6,0.1,3.2-0.5,4.7-1.3
			c2.2-1.2,4.3-3.1,5.8-4.7c1.5-1.6,2.5-2.8,2.5-2.8l-0.4-0.3l-0.3,0.4l0.2-0.2l-0.2,0.2l0,0l0.2-0.2l-0.2,0.2l0,0l0,0l0,0l0,0l0,0
			c0,0,0.1,0.1,0.1,0.3c0.1,0.2,0.1,0.6,0,1.3c0,0.3-0.1,0.7-0.2,1.1c-0.1,0.3-0.1,0.7-0.2,1.1c-0.1,0.8-0.2,1.7-0.2,2.6
			c0,0.4,0,0.9,0.1,1.3c0,0.4,0.1,0.7,0.2,1c0.2,0.5,0.5,0.9,0.8,1.2c0.4,0.3,0.8,0.6,1.2,0.8c0.3,0.1,0.6,0.2,0.9,0.3
			c0.4,0.1,0.9,0,1.3-0.1c0.4-0.2,0.8-0.5,1-1.1c0.1-0.2,0.2-0.5,0.3-0.9c0.3-1,0.6-2.4,0.8-3c0.3-1.3,0.6-2.6,0.8-3.9
			c0.2-0.8,0.3-1.6,0.4-2.4c0.1-0.5,0.1-1,0.2-1.5c0.1-0.8,0.2-1.8-0.1-2.8c-0.1-0.4-0.4-0.8-0.8-1.1c-0.6-0.6-1.6-1.2-2.7-1.7
			c-1.6-0.8-3.6-1.6-5.4-2.2c-1.8-0.6-3.4-1.1-4.3-1.2c-0.1,0-0.3,0-0.4,0s-0.3,0-0.4,0.1c-0.2,0.1-0.4,0.2-0.7,0.4
			c-0.5,0.3-1,0.8-1.6,1.4c-2.1,2.1-5.2,5.7-7.7,8.7c-2.5,3.1-4.5,5.6-4.5,5.6c-0.2,0.2-0.1,0.5,0.1,0.7
			C253.1,217.7,253.3,217.7,253.5,217.5L253.5,217.5z"/>
		
			<ellipse transform="matrix(0.6343 -0.7731 0.7731 0.6343 -25.9821 266.2488)" class="st26" cx="268.4" cy="160.6" rx="19.7" ry="19.7"/>
		<path class="st25" d="M292.1,215.7l17.6-78.6l-33,5.5c-6.2-0.5-12.6,1.9-16.8,7.1c-6.4,7.8-5.8,19,1,26.1L292.1,215.7z"/>
		
			<ellipse transform="matrix(0.6343 -0.7731 0.7731 0.6343 -23.1608 309.8484)" class="st24" cx="315.9" cy="179.4" rx="44.3" ry="44.3"/>
		
			<ellipse transform="matrix(0.6343 -0.7731 0.7731 0.6343 -22.3918 311.2506)" class="st16" cx="317.8" cy="179.3" rx="34.6" ry="34.6"/>
		<g>
			<g>
				<g>
					<g>
						<defs>
							<path id="SVGID_1_" d="M344.5,201.2c-12.1,14.8-33.9,16.9-48.6,4.8c-14.8-12.1-16.9-33.9-4.8-48.6
								c12.1-14.8,33.9-16.9,48.6-4.8C354.5,164.7,356.6,186.5,344.5,201.2"/>
						</defs>
						<clipPath id="SVGID_2_">
							<use xlink:href="#SVGID_1_"  style="overflow:visible;"/>
						</clipPath>
						<path class="st27" d="M289.1,186.9c0.2,0,0.4,0.1,0.6,0.1l26.5,4.9c2.5,0.6,5.2,0.5,7.8-0.5c6.7-2.6,10-10.2,7.4-16.9
							c-1.1-2.7-2.9-4.9-5.2-6.3l0,0l0,0c-0.3-0.2-0.5-0.3-0.8-0.5l-22.5-12.9c-4.7-3.3-11-4.3-16.8-2c-9.2,3.6-13.7,14-10.1,23.1
							C278.3,181.8,283.4,185.8,289.1,186.9L289.1,186.9z"/>
					</g>
				</g>
			</g>
			<g>
				<g>
					<g>
						<defs>
							<path id="SVGID_3_" d="M350.3,166.1c8,17.4,0.4,37.8-16.9,45.8c-17.4,8-37.8,0.4-45.8-16.9c-8-17.4-0.4-37.8,16.9-45.8
								C321.9,141.2,342.4,148.8,350.3,166.1"/>
						</defs>
						<clipPath id="SVGID_4_">
							<use xlink:href="#SVGID_3_"  style="overflow:visible;"/>
						</clipPath>
						
							<ellipse transform="matrix(0.9313 -0.3643 0.3643 0.9313 -43.2612 128.6576)" class="st28" cx="319.4" cy="179" rx="13.1" ry="13.1"/>
					</g>
				</g>
			</g>
		</g>
		<path class="st9" d="M258.5,232.1c-1.7-1.8-3.4-3.5-5.1-5.3c0.4,0.4,0.8,0.8,1.2,1.2c-0.6-0.7-7.6-8-7-8.5c-0.3,0.3-0.7,0.5-1,0.9
			l-40.1,40.1c-4.3,4.4-4,11.7,0.7,16.4c4.8,4.7,12.1,5,16.5,0.6c0,0,39.9-39.9,40-40.1c-0.1-0.4-1.1-1.2-1.4-1.5
			c-1.1-1.1-2.1-2.2-3.2-3.2C258.9,232.5,258.7,232.3,258.5,232.1z"/>
		<path class="st26" d="M359.4,133.4l19-23.7c0.9-1.1,0.7-2.7-0.4-3.6s-2.7-0.7-3.6,0.4l-19,23.7c-0.9,1.1-0.7,2.7,0.4,3.6
			S358.5,134.6,359.4,133.4"/>
		<path class="st26" d="M375.9,152.7l38.6-18.3c1.3-0.6,1.8-2.1,1.2-3.4c-0.6-1.3-2.1-1.8-3.4-1.2L373.7,148
			c-1.3,0.6-1.8,2.1-1.2,3.4C373.1,152.7,374.6,153.3,375.9,152.7"/>
		<path class="st29" d="M377.1,173.5l32.5,4.3c1.4,0.2,2.7-0.8,2.9-2.2c0.2-1.4-0.8-2.7-2.2-2.9l-32.5-4.3c-1.4-0.2-2.7,0.8-2.9,2.2
			S375.7,173.3,377.1,173.5"/>
	</g>
</g>
<g>
	<g>
		<path class="st2" d="M517,156.6h-34.5c-7.8,0-14.2-6.3-14.2-14.2v-34.5c0-7.8,6.3-14.2,14.2-14.2H517c7.8,0,14.2,6.3,14.2,14.2
			v34.5C531.2,150.2,524.8,156.6,517,156.6"/>
		<path class="st0" d="M520.7,122.2c0-9.4-9.4-17-21-17s-21,7.6-21,17c0,8.4,7.5,15.4,17.5,16.8c0.7,0.1,1.6,0.5,1.8,1
			c0.2,0.5,0.1,1.4,0.1,1.9c0,0-0.2,1.5-0.3,1.8c-0.1,0.5-0.4,2.1,1.8,1.1c2.2-0.9,12.1-7.1,16.5-12.2l0,0
			C519.2,129.3,520.7,125.9,520.7,122.2"/>
	</g>
	<path class="st2" d="M513.7,127.6h-5.9l0,0c-0.2,0-0.4-0.2-0.4-0.4l0,0l0,0v-9.1l0,0l0,0c0-0.2,0.2-0.4,0.4-0.4l0,0h5.9
		c0.2,0,0.4,0.2,0.4,0.4v1.5c0,0.2-0.2,0.4-0.4,0.4h-4v1.5h4c0.2,0,0.4,0.2,0.4,0.4v1.5c0,0.2-0.2,0.4-0.4,0.4h-4v1.5h4
		c0.2,0,0.4,0.2,0.4,0.4v1.5C514.1,127.4,513.9,127.6,513.7,127.6"/>
	<path class="st2" d="M491.9,127.6c0.2,0,0.4-0.2,0.4-0.4v-1.5c0-0.2-0.2-0.4-0.4-0.4h-4V118c0-0.2-0.2-0.4-0.4-0.4H486
		c-0.2,0-0.4,0.2-0.4,0.4v9.1l0,0l0,0c0,0.2,0.2,0.4,0.4,0.4l0,0L491.9,127.6L491.9,127.6z"/>
	<path class="st2" d="M495.5,117.7H494c-0.2,0-0.4,0.2-0.4,0.4v9.1c0,0.2,0.2,0.4,0.4,0.4h1.5c0.2,0,0.4-0.2,0.4-0.4v-9.1
		C495.9,117.8,495.7,117.7,495.5,117.7"/>
	<path class="st2" d="M505.6,117.7h-1.5c-0.2,0-0.4,0.2-0.4,0.4v5.4l-4.2-5.7l0,0l0,0l0,0l0,0l0,0l0,0l0,0l0,0l0,0l0,0l0,0l0,0l0,0
		l0,0l0,0l0,0l0,0l0,0l0,0H498c-0.2,0-0.4,0.2-0.4,0.4v9.1c0,0.2,0.2,0.4,0.4,0.4h1.5c0.2,0,0.4-0.2,0.4-0.4v-5.4l4.2,5.7l0.1,0.1
		l0,0l0,0l0,0l0,0l0,0l0,0l0,0l0,0h0.1h1.5c0.2,0,0.4-0.2,0.4-0.4v-9.1C506,117.8,505.8,117.7,505.6,117.7"/>
</g>
<g>
	<path class="st2" d="M442.2,249.4c0-0.6,0.3-0.9,0.9-0.9h0.6c0.6,0,1-0.2,1.2-0.7s0.3-1.5,0.4-3l0.2-3.4c0.1-1.8,0.1-2.9,0.2-3.1
		c0-0.4-0.2-0.6-0.8-0.6H443c-0.1,2.1-0.3,4-0.5,5.5s-0.6,2.8-1,3.8c-0.9,2.1-1.7,3.2-2.4,3.2c-0.6,0-0.8-0.3-0.8-0.9
		c0-0.2,0.1-0.5,0.4-0.9c0.8-0.9,1.4-2.2,1.9-3.9c0.4-1.6,0.7-3.8,0.8-6.8h-2c-0.7,0-1-0.3-1-0.9c0-0.5,0.3-0.8,1-0.8h2v-0.7
		c0-0.6,0-1.1,0-1.4c0-0.6,0.3-1,0.8-1c0.6,0,0.9,0.3,0.9,0.8c0,0.3,0,0.8,0,1.4c0,0.4,0,0.7,0,0.9h2.1c0.7,0,1.1,0.1,1.5,0.4
		s0.5,0.7,0.5,1.3l-0.2,3.4c0,0.7-0.1,1.9-0.2,3.4c-0.1,1.1-0.1,2.1-0.3,2.9s-0.2,1.3-0.4,1.7c-0.3,0.8-1.3,1.2-3,1.2
		C442.5,250.3,442.2,250,442.2,249.4z M448.7,249.2c-0.3-0.3-0.4-0.7-0.4-1.3v-10.8c0-0.6,0.1-1.1,0.4-1.4s0.7-0.4,1.3-0.4h3.5
		c0.6,0,1.1,0.1,1.4,0.4s0.4,0.7,0.4,1.4v10.7c0,0.6-0.1,1.1-0.4,1.4s-0.7,0.4-1.3,0.4h-3.5C449.4,249.6,449,249.5,448.7,249.2z
		 M453.7,247.3v-9.5c0-0.5-0.2-0.7-0.7-0.7h-2.4c-0.4,0-0.7,0.2-0.7,0.7v9.5c0,0.4,0.2,0.7,0.7,0.7h2.4
		C453.5,248,453.7,247.7,453.7,247.3z"/>
	<path class="st2" d="M458.4,249.4c0-0.2,0.1-0.4,0.3-0.6l1.3-0.9c3.3-2.4,5.6-6,6.9-10.7v-0.9c0-0.3-0.1-0.6-0.2-0.8
		s-0.3-0.3-0.6-0.3h-2.6c-0.7,0-1-0.3-1-0.8s0.3-0.8,1-0.8h3.2c0.6,0,1,0.2,1.3,0.5s0.4,0.8,0.4,1.5c0,2.7,0.7,5.2,1.9,7.3
		c1.4,2.3,3.1,4.1,5.2,5.4c0.4,0.3,0.6,0.6,0.6,0.9c0,0.6-0.3,0.9-0.8,0.9s-1.5-0.7-2.9-2c-2.3-2.1-3.9-4.8-4.9-8.2
		c-0.4,0.8-0.8,1.7-1.2,2.5s-0.8,1.5-1,1.9c-0.8,1.3-1.9,2.6-3.2,3.8c-1.3,1.3-2.3,1.9-2.8,1.9C458.7,250.3,458.4,250,458.4,249.4z"
		/>
	<path class="st2" d="M478.8,238.2v-1.5c0-0.7,0.2-1.2,0.5-1.5c0.4-0.3,0.9-0.5,1.4-0.5h5.6v-0.8c0-0.6,0.3-1,0.9-1
		c0.3,0,0.5,0.1,0.7,0.2s0.2,0.4,0.2,0.7v0.8h5.8c0.6,0,1.1,0.2,1.4,0.5c0.4,0.3,0.5,0.8,0.5,1.5v1.5c0,0.6-0.3,0.9-0.8,0.9
		s-0.8-0.3-0.8-0.9v-1.3c0-0.5-0.3-0.8-0.8-0.8h-12.3c-0.2,0-0.4,0.1-0.6,0.2s-0.2,0.3-0.2,0.6v1.3c0,0.6-0.3,0.9-0.8,0.9
		S478.8,238.8,478.8,238.2z M481.8,249.7c-0.3-0.3-0.5-0.7-0.4-1.3v-9.1c0-0.6,0.2-1,0.5-1.3s0.8-0.4,1.5-0.4h7.9
		c0.7,0,1.1,0.1,1.4,0.4s0.4,0.7,0.4,1.3v1.8c0,0.6-0.1,1.1-0.4,1.3s-0.8,0.4-1.4,0.4H483v1.7h9.3c0.7,0,1.1,0.1,1.4,0.4
		s0.4,0.7,0.4,1.3v2.2c0,0.6-0.2,1.1-0.5,1.3s-0.8,0.4-1.5,0.4h-8.8C482.7,250.1,482.2,250,481.8,249.7z M491.5,240.7v-1
		c0-0.4-0.2-0.6-0.7-0.7h-7.1c-0.4,0-0.7,0.2-0.7,0.7v1.6h7.8C491.3,241.4,491.5,241.2,491.5,240.7z M492.5,248v-1.4
		c0-0.4-0.2-0.7-0.7-0.7H483v2.1c0,0.4,0.2,0.6,0.7,0.7h8.2C492.3,248.6,492.5,248.4,492.5,248z"/>
	<path class="st2" d="M507.5,249.5c0-0.3,0.1-0.5,0.3-0.6s0.5-0.2,1-0.2c0.9,0,1.5-0.1,1.8-0.2c0.4-0.2,0.8-0.5,0.9-1.2
		c0.2-0.4,0.4-1.5,0.5-3.4l0.1-1.3c0-0.2-0.1-0.4-0.2-0.5s-0.4-0.2-0.7-0.2h-5.8c-0.5,3.1-1.8,5.5-4,7.2c-0.9,0.7-1.5,1.1-2,1.1
		c-0.2,0-0.4-0.1-0.6-0.3c-0.2-0.1-0.2-0.4-0.2-0.6c0-0.3,0.3-0.7,0.8-1c2-1.3,3.3-3,4-5.1c0.4-1.2,0.6-3.1,0.7-5.8h-4.7
		c-0.3,0-0.6-0.1-0.7-0.2s-0.2-0.3-0.2-0.6c0-0.5,0.3-0.8,1-0.8h6.5v-2.1c0-0.6,0.3-0.8,0.8-0.8s0.8,0.3,0.8,0.8v2.1h7.3
		c0.3,0,0.6,0.1,0.8,0.2c0.2,0.1,0.2,0.3,0.2,0.6c0,0.5-0.3,0.8-1,0.8h-9.1c0,1-0.1,2-0.2,2.9h6.4c1.2,0,1.8,0.5,1.8,1.6
		c0,1.2-0.1,2.5-0.4,4.1s-0.6,2.7-0.9,3.2c-0.2,0.4-0.7,0.7-1.4,0.9s-1.6,0.3-2.7,0.3C507.8,250.4,507.5,250.1,507.5,249.5z"/>
	<path class="st2" d="M519.5,248.5c-0.2-0.2-0.4-0.5-0.4-0.9V236c0-0.2,0.1-0.5,0.3-0.6s0.4-0.3,0.6-0.3s0.5,0.1,0.6,0.3
		s0.3,0.4,0.3,0.6v10.8c0,0.2,0.1,0.2,0.2,0.2h6.1c0.2,0,0.5,0.1,0.6,0.3s0.3,0.4,0.3,0.6s-0.1,0.5-0.3,0.6s-0.4,0.3-0.6,0.3h-6.9
		C520.1,248.8,519.8,248.7,519.5,248.5z"/>
	<path class="st2" d="M530.7,248.7c-0.2-0.2-0.3-0.4-0.3-0.6V236c0-0.2,0.1-0.5,0.3-0.6s0.4-0.3,0.6-0.3c0.2,0,0.5,0.1,0.6,0.3
		s0.3,0.4,0.3,0.6v12c0,0.2-0.1,0.5-0.3,0.6s-0.4,0.3-0.6,0.3C531.1,248.9,530.8,248.8,530.7,248.7z"/>
	<path class="st2" d="M536.2,248.7c-0.2-0.2-0.3-0.4-0.3-0.6v-11.7c0-0.4,0.1-0.7,0.4-0.9c0.3-0.2,0.6-0.4,0.9-0.4h0.3
		c0.4,0,0.8,0.2,1.1,0.6l7.2,10.4c0.1,0.1,0.1,0.1,0.2,0.1c0,0,0.1,0,0.1-0.1s0-0.1,0-0.1v-10c0-0.2,0.1-0.5,0.3-0.6
		s0.4-0.3,0.6-0.3c0.2,0,0.5,0.1,0.6,0.3s0.3,0.4,0.3,0.6v11.7c0,0.4-0.1,0.7-0.4,0.9c-0.3,0.2-0.6,0.4-0.9,0.4h-0.2
		c-0.2,0-0.4,0-0.6-0.1c-0.2-0.1-0.3-0.2-0.5-0.4l-7.2-10.5c-0.1-0.1-0.1-0.1-0.2-0.1c0,0-0.1,0-0.1,0.1s0,0.1,0,0.1v10
		c0,0.2-0.1,0.5-0.3,0.6s-0.4,0.3-0.6,0.3S536.4,248.8,536.2,248.7z"/>
	<path class="st2" d="M551.9,248.6c-0.2-0.2-0.3-0.4-0.3-0.6v-11.9c0-0.2,0.1-0.5,0.3-0.6s0.4-0.3,0.6-0.3h7.8
		c0.2,0,0.4,0.1,0.6,0.3c0.2,0.2,0.3,0.4,0.3,0.6s-0.1,0.4-0.3,0.6c-0.2,0.2-0.4,0.2-0.6,0.2h-6.7c-0.2,0-0.2,0.1-0.2,0.2v4h6.2
		c0.2,0,0.4,0.1,0.6,0.3c0.2,0.2,0.3,0.4,0.3,0.6s-0.1,0.4-0.3,0.6c-0.2,0.2-0.4,0.2-0.6,0.2h-6.2v4.1c0,0.2,0.1,0.2,0.2,0.2h6.7
		c0.2,0,0.4,0.1,0.6,0.3c0.2,0.2,0.3,0.4,0.3,0.6s-0.1,0.4-0.3,0.6c-0.2,0.2-0.4,0.2-0.6,0.2h-7.8
		C552.3,248.8,552.1,248.7,551.9,248.6z"/>
	<path class="st2" d="M464.5,261v12.8c0,0.6-0.3,0.9-0.8,0.9s-0.7-0.3-0.7-0.9v-8.9c-0.3,0.8-0.6,1.3-0.9,1.7s-0.5,0.6-0.6,0.6
		c-0.2,0-0.4-0.1-0.5-0.2s-0.2-0.2-0.2-0.4c0-0.2,0-0.3,0.1-0.5s0.2-0.5,0.5-0.9c0.4-0.7,0.9-1.9,1.4-3.5c0.5-1.5,0.9-2.8,1.1-3.9
		c0.1-0.5,0.4-0.8,0.8-0.8c0.5,0,0.8,0.3,0.8,0.8C465.5,258,465.2,259.1,464.5,261z M470.5,259.7l0.2-0.8h-4c-0.2,0-0.4,0-0.5-0.1
		s-0.2-0.3-0.2-0.5c0-0.4,0.2-0.6,0.7-0.6h10.8c0.5,0,0.7,0.2,0.7,0.6c0,0.2-0.1,0.4-0.2,0.5s-0.3,0.1-0.5,0.1h-5.3l-0.4,0.8h3.2
		c1,0,1.6,0.5,1.6,1.5v3.5h0.4c0.9,0,1.4,0.5,1.4,1.4v0.8c0,0.2-0.1,0.4-0.2,0.5s-0.3,0.2-0.5,0.2c-0.4,0-0.7-0.2-0.7-0.7v-0.6
		c0-0.4-0.2-0.6-0.6-0.6h-9.3c-0.2,0-0.3,0-0.4,0.1s-0.1,0.2-0.1,0.4v0.6c0,0.5-0.2,0.7-0.7,0.7c-0.4,0-0.6-0.2-0.6-0.7V266
		c0-0.9,0.5-1.4,1.4-1.4h0.4v-3.5c0-1,0.5-1.5,1.5-1.5h1.9L470.5,259.7L470.5,259.7z M478.7,273.8c0,0.5-0.3,0.8-0.8,0.8
		c-0.9,0-1.9-0.1-3-0.4c-1.1-0.2-2-0.6-2.9-1c-2.3,1-4.3,1.4-6,1.4c-0.5,0-0.7-0.2-0.7-0.7c0-0.4,0.4-0.6,1.3-0.7
		c1.2-0.1,2.6-0.4,4.2-0.9c-0.7-0.5-1.3-1-1.8-1.7c-1.3,0.9-2.2,1.4-2.8,1.4c-0.4,0-0.6-0.2-0.6-0.6c0-0.2,0.3-0.5,0.9-0.7
		c1.3-0.5,2.4-1.3,3.2-2.2c-0.3,0-0.5-0.1-0.7-0.3s-0.2-0.4-0.2-0.7v-1.2c0-0.4,0.2-0.6,0.7-0.6c0.4,0,0.6,0.2,0.6,0.6v0.8
		c0,0.2,0.1,0.4,0.4,0.4h2c0.5,0,0.8,0,0.9-0.1s0.2-0.2,0.2-0.4c0-0.4,0.2-0.5,0.5-0.5c0.2,0,0.4,0.1,0.5,0.2s0.2,0.3,0.2,0.5
		c0,0.7-0.3,1.2-0.9,1.3c-0.4,0.1-1.2,0.1-2.7,0.1l-0.6,0.7h5.1c0.7,0,1,0.2,1,0.6c0,0.2-0.3,0.6-1,1.1c-0.6,0.5-1.3,0.9-2.1,1.4
		c1.2,0.4,2.5,0.6,4,0.6C478.3,273.2,478.7,273.4,478.7,273.8z M467.4,266.2c0.1-0.1,0.2-0.1,0.3-0.1c0.4,0,0.6,0.2,0.6,0.5
		c0,0.1-0.1,0.3-0.2,0.7c0,0.1-0.1,0.2-0.2,0.5c-0.1,0.4-0.3,0.7-0.4,0.9s-0.3,0.3-0.5,0.3c-0.4,0-0.6-0.2-0.6-0.6
		c0-0.1,0.1-0.4,0.4-0.8l0.3-0.8C467.2,266.5,467.3,266.3,467.4,266.2z M474.6,260.7H469c-0.2,0-0.3,0-0.4,0.1s-0.1,0.2-0.1,0.3v0.2
		h6.5v-0.2C475,260.8,474.9,260.7,474.6,260.7z M475,263v-0.8h-6.5v0.8H475z M475,264.6v-0.8h-6.5v0.8H475z M472.1,271.9
		c0.5-0.2,1-0.5,1.5-0.8s0.8-0.5,0.8-0.6s0-0.1-0.1-0.1h-4.2C470.7,271,471.3,271.5,472.1,271.9z M472.5,266.1
		c0.3,0.2,0.4,0.4,0.4,0.5c0,0.4-0.2,0.5-0.5,0.5c-0.1,0-0.3-0.1-0.7-0.4c-0.2-0.1-0.3-0.2-0.4-0.3s-0.1-0.2-0.1-0.2
		c0-0.3,0.2-0.5,0.6-0.5C471.9,265.8,472.1,265.9,472.5,266.1z M476.4,266.8c0.4,0.6,0.6,1,0.6,1.2s-0.1,0.3-0.2,0.4
		s-0.3,0.2-0.5,0.2s-0.5-0.2-0.7-0.7l-0.7-1.4c0-0.2,0-0.4,0.1-0.5s0.2-0.1,0.4-0.1C475.7,265.9,476,266.2,476.4,266.8z"/>
	<path class="st2" d="M498.6,258.9c0,0.4-0.2,0.6-0.7,0.6h-7.5v1h5c0.6,0,1,0.1,1.3,0.4s0.4,0.7,0.4,1.3v2.5c0,0.6-0.1,1-0.4,1.3
		s-0.7,0.4-1.3,0.4h-5.1v1.2h4c-0.3-0.2-0.4-0.4-0.4-0.5c0-0.4,0.2-0.5,0.7-0.5c0.2,0,0.9,0.4,2,1.1s1.6,1.2,1.6,1.5
		c0,0.2-0.1,0.4-0.2,0.5s-0.3,0.2-0.6,0.2c-0.2,0-0.7-0.3-1.5-1l-0.2-0.1h-0.3l-10,0.3L482,269c-0.6,0-0.9-0.2-0.9-0.7
		s0.4-0.7,1.2-0.7h6.4v-1.2H484c-0.6,0-1.1-0.1-1.3-0.4s-0.4-0.7-0.4-1.3v-2.5c0-0.6,0.1-1.1,0.4-1.3s0.7-0.4,1.3-0.4h4.7v-1h-7.1
		c-0.3,0-0.4-0.1-0.6-0.2s-0.2-0.3-0.2-0.5c0-0.4,0.2-0.6,0.7-0.6h7.1v-0.7c0-0.5,0.3-0.7,0.8-0.7s0.8,0.2,0.8,0.7v0.7h7.5
		C498.3,258.2,498.6,258.5,498.6,258.9z M484,270.5c0,0.4-0.3,1.3-1,2.7c-0.3,0.7-0.6,1-1,1c-0.6,0-0.9-0.2-0.9-0.7
		c0-0.2,0.2-0.8,0.7-1.7c0.2-0.3,0.4-0.8,0.6-1.4c0.1-0.4,0.4-0.6,0.7-0.6C483.7,269.7,484,270,484,270.5z M488.8,261.7h-4.1
		c-0.4,0-0.6,0.2-0.7,0.7v0.5h4.7v-1.2H488.8z M488.8,263.9H484v0.5c0,0.4,0.2,0.7,0.7,0.7h4.1L488.8,263.9L488.8,263.9z
		 M494.4,271.7c0,1.3-0.4,2.1-1.3,2.3c-0.6,0.2-1.7,0.3-3.3,0.3c-1.9,0-3.1-0.1-3.5-0.3c-0.4-0.2-0.6-0.5-0.7-1v-2.6
		c0-0.6,0.3-1,0.8-1s0.8,0.3,0.8,1v1.8c0,0.4,0.6,0.6,1.9,0.6c1.6,0,2.6,0,2.9-0.1c0.4-0.1,0.6-0.5,0.7-1.2c0.1-0.5,0.3-0.7,0.9-0.7
		C494.1,270.8,494.4,271.1,494.4,271.7z M489.8,271l-0.7-0.8c-0.1-0.2-0.2-0.3-0.2-0.5c0-0.4,0.3-0.6,0.8-0.6c0.2,0,0.6,0.2,1.1,0.7
		s0.8,0.8,0.8,1.1c0,0.5-0.3,0.8-0.8,0.8C490.4,271.6,490.1,271.4,489.8,271z M494.8,261.7h-4.5v1.2h5.1v-0.5
		C495.5,261.9,495.2,261.7,494.8,261.7z M495.5,263.9h-5.1v1.2h4.5c0.4,0,0.6-0.2,0.7-0.7v-0.5H495.5z M497.3,271.1
		c0.7,1,1.1,1.6,1.1,1.9c0,0.5-0.3,0.8-0.9,0.8c-0.3,0-0.7-0.4-1.2-1.1l-1.1-1.6c-0.1-0.2-0.2-0.3-0.3-0.4s-0.1-0.2-0.1-0.3
		c0-0.5,0.3-0.7,0.8-0.7C496,269.7,496.5,270.2,497.3,271.1z"/>
	<path class="st2" d="M504.8,267.6v5.2c0,0.6-0.1,1.1-0.4,1.3s-0.7,0.4-1.3,0.4H502c-0.6,0-0.8-0.3-0.8-0.8s0.3-0.8,0.8-0.8h0.8
		c0.4,0,0.6-0.2,0.6-0.6V268l-1,0.3l-0.7,0.2c-0.5,0-0.8-0.3-0.8-0.8c0-0.4,0.4-0.7,1.2-0.9l1.3-0.4v-4.3h-1.5
		c-0.3,0-0.5-0.1-0.7-0.2s-0.2-0.3-0.2-0.6c0-0.5,0.3-0.7,0.9-0.7h1.5v-2.9c0-0.6,0.3-0.9,0.8-0.9s0.8,0.3,0.8,0.9v2.9h1
		c0.5,0,0.8,0.2,0.8,0.7s-0.3,0.8-0.8,0.8h-1v3.9c0.7-0.2,1.1-0.4,1.3-0.4c0.4,0,0.6,0.2,0.6,0.7c0,0.3-0.4,0.7-1.3,1L504.8,267.6z
		 M515.8,268.7H509c-0.4,1.8-1,3.3-1.8,4.5c-0.4,0.6-0.8,0.8-1,0.8s-0.4-0.1-0.6-0.2s-0.2-0.3-0.2-0.6c0-0.2,0.1-0.4,0.4-0.8
		c1.3-1.5,1.9-3.5,2-6.1v-1.7c0-0.4,0.1-0.8,0.4-1s0.6-0.3,1.1-0.3h6.6c1,0,1.5,0.5,1.5,1.4v2.5
		C517.3,268.3,516.8,268.8,515.8,268.7z M518.7,262.3c0,0.6-0.3,0.9-0.8,0.9s-1.4-0.5-2.7-1.5v0.1c0,0.2,0,0.3-0.2,0.5
		s-0.3,0.2-0.5,0.2h-4.2c-0.4,0-0.7-0.2-0.7-0.6c-1.3,1.2-2.1,1.8-2.6,1.8s-0.7-0.3-0.7-0.9c0-0.3,0.3-0.6,0.9-1
		c1.5-1,2.7-2.2,3.7-3.6l0.8-1.1c0.1-0.1,0.2-0.2,0.3-0.2s0.3-0.1,0.4-0.1c0.3,0,0.5,0.1,0.6,0.2s0.2,0.3,0.2,0.5
		c0,0.1,0,0.2-0.1,0.4c1.4,1.6,3,2.8,4.9,3.7C518.5,261.7,518.7,262,518.7,262.3z M517.2,270c0.2,0.2,0.3,0.6,0.3,1.1v1.5
		c0,0.5-0.1,0.9-0.4,1.2c-0.3,0.3-0.6,0.3-1.2,0.3h-5.4c-0.5,0-0.9-0.1-1.2-0.4s-0.3-0.6-0.3-1.1V271c0-0.5,0.1-0.9,0.4-1.2
		s0.6-0.3,1.1-0.3h5.4C516.5,269.6,516.9,269.8,517.2,270z M515.8,267v-0.4h-6.7v0.9h6.1C515.6,267.5,515.8,267.3,515.8,267z
		 M509.2,265.5h6.6v-0.4c0-0.4-0.2-0.6-0.6-0.6h-5.5c-0.2,0-0.3,0-0.4,0.1s-0.1,0.2-0.1,0.4V265.5z M514.6,261.2
		c-0.8-0.7-1.6-1.5-2.3-2.3c-0.9,1-1.6,1.8-2.1,2.3H514.6z M516.1,271.5c0-0.4-0.2-0.6-0.6-0.6h-4.4c-0.4,0-0.6,0.2-0.6,0.6v0.9
		c0,0.4,0.2,0.6,0.6,0.6h4.4c0.4,0,0.6-0.2,0.6-0.6V271.5z"/>
	<path class="st2" d="M521,273.5c0-0.3,0.4-0.6,1.3-0.9s1.7-0.7,2.2-1.2c0.6-0.5,1.1-1.1,1.4-1.8c0.3-0.8,0.5-1.8,0.5-3.2H522
		c-0.6,0-0.9-0.2-0.9-0.7s0.3-0.7,0.9-0.7h7.1v-3.8H525l-0.2,0.4c-0.4,0.7-0.7,1.3-1,1.6s-0.6,0.6-0.8,0.6c-0.5,0-0.8-0.3-0.8-0.8
		c0-0.2,0.1-0.4,0.4-0.8c0.8-1.1,1.5-2.4,2-4c0.1-0.2,0.2-0.4,0.3-0.6s0.3-0.2,0.5-0.2c0.3,0,0.5,0,0.6,0.1s0.2,0.2,0.2,0.4
		c0,0.2-0.2,0.8-0.6,1.8h3.5v-1.9c0-0.6,0.2-1,0.7-1c0.3,0,0.5,0.1,0.6,0.2s0.2,0.4,0.2,0.7v1.9h5c0.6,0,0.9,0.2,0.9,0.7
		s-0.3,0.7-0.9,0.7h-5v3.8h6.8c0.6,0,0.9,0.2,0.9,0.7c0,0.2-0.1,0.4-0.2,0.5c-0.1,0.1-0.4,0.2-0.7,0.2h-5.1v5.2
		c0,0.4,0.1,0.6,0.3,0.8c0.2,0.1,0.8,0.2,1.9,0.2c0.5,0,0.9,0,1.2-0.1s0.5-0.1,0.6-0.1c0.2-0.1,0.3-0.2,0.4-0.5
		c0.1-0.3,0.1-0.6,0.1-1c0-0.6,0.3-0.9,0.8-0.9c0.6,0,0.9,0.4,0.9,1.1c0,1.5-0.4,2.4-1.2,2.8c-0.4,0.2-1.5,0.3-3.2,0.3
		c-1.5,0-2.4-0.1-2.7-0.4s-0.5-0.7-0.5-1.3v-5.9H528c0,1.8-0.3,3.2-0.9,4.3c-0.6,1.1-1.4,2-2.5,2.6c-1.1,0.7-2,1-2.8,1
		C521.3,274.4,521,274.1,521,273.5z"/>
</g>
<g>
	<path class="st0" d="M157.3,226.9C157.3,226.8,157.3,226.8,157.3,226.9c0.1,0,0.1,0,0.2,0l0,0l0.8-1.4c0-0.1,0.1-0.1,0.1-0.1
		c0,0,0.1,0,0.2,0.1l0.5,0.3c0.1,0,0.1,0.1,0.1,0.1c0,0,0,0.1-0.1,0.2l-0.4,0.7c0,0.1-0.1,0.1-0.1,0.1c-0.1,0-0.1-0.1-0.2-0.1
		l-0.5-0.3l-0.3,0.5c0.2,0.1,0.4,0.1,0.5,0.1l0-0.2c0,0,0,0,0,0c0,0,0,0,0,0c0-0.1,0.1-0.1,0.1,0c0,0,0,0.1,0.1,0.2
		c0,0.3,0,0.5,0,0.5c0,0.1-0.1,0.1-0.1,0s-0.1-0.1-0.1-0.2l0-0.1c-0.2,0-0.4-0.1-0.6-0.1c-0.2,0-0.3-0.1-0.3-0.1
		C157.3,227,157.3,226.9,157.3,226.9z M159,225.9C159,225.8,159,225.8,159,225.9l-0.4-0.3c0,0-0.1,0-0.1,0l-0.1,0.2l0.5,0.3
		L159,225.9L159,225.9z M158.6,226.5l0.1-0.2l-0.5-0.3l-0.2,0.3l0.4,0.2C158.6,226.5,158.6,226.5,158.6,226.5z M158.4,227.7l1-1.7
		c0-0.1,0.1-0.1,0.1-0.1c0,0,0.1,0,0.2,0.1l0.4,0.2c0.1,0,0.1,0.1,0.1,0.1c0,0,0,0.1,0,0.2l-0.8,1.3c0,0.1-0.1,0.1-0.2,0.1
		c0,0-0.1,0-0.2-0.1l-0.2-0.1c-0.1,0-0.1-0.1-0.1-0.2c0-0.1,0.1-0.1,0.1,0l0.1,0.1c0.1,0,0.1,0,0.1,0l0.7-1.2c0-0.1,0-0.1,0-0.1
		l-0.3-0.2c-0.1,0-0.1,0-0.1,0l-0.9,1.5c0,0.1-0.1,0.1-0.2,0.1C158.4,227.9,158.3,227.8,158.4,227.7z M162.4,229.6
		c0,0.1-0.1,0.1-0.1,0l-0.8-0.5l-0.1,0.2c0,0.1-0.1,0.1-0.1,0.1c0,0-0.1,0-0.2,0l-0.2-0.1c-0.1,0-0.1-0.1-0.1-0.2s0.1-0.1,0.2,0
		l0.1,0.1c0.1,0,0.1,0,0.1,0l0.1-0.2l-0.8-0.5c-0.1,0-0.1-0.1,0-0.1c0,0,0-0.1,0.1,0s0,0,0.1,0l0.8,0.5c0-0.1,0-0.1,0.1-0.1
		c0.1,0,0.1,0,0.2,0l0.2,0c0.1,0.1,0.2,0.1,0.2,0.1l-1.2-0.7c-0.1,0-0.1-0.1,0-0.1c0-0.1,0.1-0.1,0.1,0l1.3,0.8
		c0.1,0,0.1,0.1,0.1,0.2l0,0c0,0,0,0.1-0.1,0.1c0,0-0.1,0-0.1,0c-0.1-0.1-0.2,0-0.4-0.1c-0.1,0-0.1-0.1-0.2,0c0,0-0.1,0-0.1,0
		L162.4,229.6C162.4,229.5,162.4,229.5,162.4,229.6z M161.2,227.1c0-0.1,0.1-0.1,0.1,0l0.8,0.5l0-0.1c0-0.1,0.1-0.1,0.2,0
		c0.1,0,0.1,0.1,0.1,0.2l0,0.1l0.8,0.5c0.1,0,0.1,0.1,0,0.1s-0.1,0.1-0.1,0l-1.8-1.1C161.1,227.2,161.1,227.2,161.2,227.1z
		 M162.6,228.2c0.1,0,0.1,0.1,0.1,0.1c0,0,0,0.1-0.1,0.1l-0.1,0.2c-0.1,0.1-0.1,0.1-0.3,0l-1.2-0.7c-0.1,0-0.1-0.1-0.1-0.1
		c0-0.1,0-0.1,0.1-0.2l0.1-0.2c0.1-0.1,0.2-0.1,0.3,0L162.6,228.2L162.6,228.2z M162.5,228.4C162.5,228.4,162.5,228.3,162.5,228.4
		l-1-0.7c0,0-0.1,0-0.1,0l0,0.1c0,0,0,0.1,0,0.1L162.5,228.4C162.4,228.5,162.4,228.5,162.5,228.4L162.5,228.4L162.5,228.4z
		 M164.2,230.1L164,230l-0.4,0.6l0.2,0.1c0,0,0,0,0,0.1c0,0,0,0,0,0.1c0,0-0.1,0-0.1,0c0,0-0.2-0.1-0.4-0.2l-0.3-0.2
		c-0.1,0-0.1-0.1,0-0.1c0-0.1,0.1,0,0.2,0l0.2,0.1l0.4-0.7l-0.2-0.1c-0.1,0-0.1-0.1,0-0.1c0-0.1,0.1-0.1,0.1,0l0.2,0.1l0.1-0.2
		l-0.2-0.1c-0.1,0-0.1-0.1,0-0.1l0,0c0,0-0.1,0-0.1,0c-0.1,0-0.1-0.1,0-0.1c0,0,0-0.1,0.1-0.1c0.2-0.1,0.4-0.2,0.6-0.3
		c0,0,0.1,0,0.1,0c0.1,0,0.1,0.1,0,0.1c0,0,0,0-0.1,0c0.1,0.2,0.1,0.3,0.1,0.3c0,0.1,0,0.1,0,0.2c0,0.1-0.1,0.1-0.1,0
		c0,0,0-0.1,0-0.1c0,0-0.1-0.2-0.1-0.3c-0.1,0.1-0.3,0.1-0.4,0.2l0,0l0.5,0.3c0.1,0,0.1,0.1,0,0.1c0,0.1-0.1,0.1-0.1,0l-0.2-0.1
		l-0.1,0.2l0.2,0.1c0.1,0,0.1,0.1,0,0.1C164.3,230.1,164.3,230.1,164.2,230.1z M163.4,230.3C163.3,230.3,163.3,230.3,163.4,230.3
		c0-0.1,0-0.1,0-0.1l0.1-0.2c0-0.1,0.1-0.1,0.1,0c0.1,0,0.1,0.1,0,0.1l-0.2,0.3C163.4,230.3,163.4,230.3,163.4,230.3z M164.1,230.2
		c0.1,0,0.1,0.1,0,0.1l-0.1,0.2c0,0.1-0.1,0.1-0.1,0s-0.1-0.1,0-0.1l0.1-0.2C164,230.2,164.1,230.2,164.1,230.2z M165.5,230.8
		l-0.5,0.8c0,0.1-0.1,0.1-0.2,0.1c0,0-0.1,0-0.2,0l-0.1-0.1c-0.1,0-0.1-0.1,0-0.1c0-0.1,0.1-0.1,0.1,0l0.1,0c0.1,0,0.1,0,0.1,0
		l0.4-0.7c0-0.1,0-0.1,0-0.1l-0.7-0.4c-0.1,0-0.1,0-0.1,0l-0.5,0.8c0,0.1-0.1,0.1-0.1,0s-0.1-0.1,0-0.1l0.5-0.9c0-0.1,0-0.1,0.1-0.1
		c0.1,0,0.1,0,0.2,0l0.4-0.6c0.1-0.2,0.2-0.2,0.3-0.1l0.5,0.3c0.1,0,0.1,0.1,0.1,0.1c0,0,0,0.1,0,0.2l-0.4,0.6
		C165.6,230.6,165.6,230.7,165.5,230.8z M165.7,229.9C165.7,229.9,165.7,229.8,165.7,229.9l-0.4-0.3c0,0-0.1,0-0.1,0l-0.3,0.6
		l0.2,0.1l0.2-0.3c0-0.1,0.1-0.1,0.1-0.1c0,0,0.1,0,0.2,0l0.2,0.1L165.7,229.9L165.7,229.9z M164.6,231.3l-0.3-0.2
		c-0.1,0-0.1,0-0.1-0.1c0-0.1,0-0.1,0.1-0.1l0.2-0.3c0.1-0.1,0.1-0.1,0.2-0.1l0.3,0.2c0.1,0,0.1,0.1,0.1,0.2l-0.2,0.3
		C164.8,231.3,164.7,231.3,164.6,231.3z M164.9,230.9C164.9,230.9,164.9,230.8,164.9,230.9l-0.2-0.2c0,0-0.1,0-0.1,0l-0.1,0.2
		c0,0,0,0.1,0,0.1l0.2,0.1c0,0,0.1,0,0.1,0L164.9,230.9z M165.5,230.1l-0.2-0.1c0,0-0.1,0-0.1,0l-0.1,0.2l0.2,0.1L165.5,230.1z"/>
	<path class="st0" d="M161.2,219c-0.1,0.2-0.3,0.2-0.6,0.1l-1.1-0.7l-1.5,2.4c-0.3,0.6-0.2,1.2,0.4,1.6c0.2,0.1,0.2,0.3,0.1,0.5
		c-0.1,0.2-0.3,0.3-0.5,0.2c-0.9-0.6-1.2-1.8-0.7-2.7l1.5-2.4l-0.2-0.1l-0.9-0.6l-2.3,3.9c-0.1,0.2-0.3,0.2-0.5,0.1
		s-0.2-0.3-0.1-0.5l2.3-3.9l-0.8-0.5c-0.3-0.2-0.3-0.4-0.2-0.6c0.1-0.2,0.3-0.2,0.6-0.1l4.3,2.6C161.3,218.6,161.4,218.8,161.2,219z
		 M155.7,215.5c0-0.1,0.2-0.1,0.4-0.3c1.1-0.7,1.8-1.2,1.9-1.4c0.2-0.3,0-0.6-0.5-0.9l-1.1-0.7c-0.3-0.2-0.5-0.2-0.7-0.2
		c-0.2,0.1-0.4,0.2-0.5,0.5l-3.8,6.3c-0.2,0.3-0.1,0.5,0.1,0.6c0.2,0.1,0.4,0.1,0.6-0.2l3.7-6.2c0.1-0.2,0.3-0.2,0.5-0.1l0.6,0.3
		c0.2,0.1,0.2,0.2,0.1,0.3c0,0.1-0.1,0.2-0.3,0.3c-0.5,0.4-0.9,0.6-1.1,0.8c-0.2,0.2-0.4,0.3-0.4,0.4c0,0.1-0.1,0.2,0,0.4
		c0,0.7-0.1,1.2-0.3,1.6c-0.2,0.4-0.5,0.4-0.8,0.3c-0.3-0.2-0.6-0.1-0.7,0.1c-0.2,0.3-0.1,0.5,0.2,0.6c0.8,0.5,1.4,0.3,2-0.6
		c0.3-0.5,0.4-1.1,0.3-1.7C155.6,215.7,155.6,215.5,155.7,215.5z M158.3,214.5l3.2,1.9c0.3,0.2,0.5,0.1,0.6-0.1
		c0.1-0.2,0-0.4-0.2-0.6l-3.2-1.9c-0.3-0.2-0.5-0.1-0.6,0.1C158,214.1,158,214.3,158.3,214.5z M166,218.9l3.6,2.2
		c0.2,0.1,0.4,0.1,0.5-0.1s0.1-0.4-0.2-0.5l-3.6-2.2c-0.2-0.1-0.4-0.1-0.5,0.1S165.8,218.8,166,218.9z M163.1,222.9
		c0.3-0.4,0.6-0.5,1.1-0.2l3,1.8c0.5,0.3,0.6,0.6,0.4,1.1l-0.3,0.6c-0.1,0.2-0.3,0.3-0.5,0.4c-0.2,0.1-0.4,0-0.6-0.2l-3-1.8
		c-0.5-0.3-0.6-0.6-0.4-1.1C162.8,223.4,163.1,222.9,163.1,222.9z M163.5,223.7c-0.1,0.2-0.1,0.3,0.1,0.4l2.7,1.6
		c0.2,0.1,0.3,0.1,0.4-0.1l0.2-0.3c0.1-0.2,0-0.2-0.1-0.4l-2.6-1.6c-0.2-0.1-0.3-0.1-0.4,0.1L163.5,223.7L163.5,223.7z M164.8,221
		l3.7,2.2c0.2,0.1,0.4,0.1,0.5-0.1c0.1-0.2,0.1-0.4-0.1-0.5l-3.7-2.2c-0.2-0.1-0.4-0.1-0.5,0.1C164.5,220.7,164.6,220.9,164.8,221z
		 M164.2,222l3.7,2.2c0.2,0.1,0.4,0.1,0.5-0.1c0.1-0.2,0.1-0.4-0.1-0.5l-3.7-2.2c-0.2-0.1-0.4-0.1-0.5,0.1
		C163.9,221.7,164,221.9,164.2,222z M164.7,219.5l4.9,2.9c0.2,0.1,0.4,0.1,0.5-0.1c0.1-0.2,0.1-0.4-0.2-0.5l-4.9-2.9
		c-0.2-0.1-0.4-0.1-0.5,0.1S164.5,219.4,164.7,219.5z M174.2,231.8l-1-0.6c-0.2-0.1-0.3-0.3-0.3-0.4c0-0.1,0-0.3,0.1-0.5l0.7-1.1
		c0.2-0.4,0.5-0.5,0.9-0.2l1,0.6c0.4,0.2,0.5,0.6,0.2,0.9l-0.7,1.1C174.9,231.9,174.6,232,174.2,231.8z M175.1,230.3
		c0.1-0.2,0.1-0.3-0.1-0.4l-0.6-0.3c-0.2-0.1-0.3-0.1-0.4,0.1l-0.4,0.7c-0.1,0.2-0.1,0.3,0.1,0.4l0.6,0.3c0.2,0.1,0.3,0.1,0.4-0.1
		L175.1,230.3z M174,224.8c0,0.2,0.1,0.3,0.2,0.4c0.2,0.1,0.4,0.1,0.5-0.1c0-0.1,0.1-0.3-0.1-0.6c-0.1-0.3-0.3-0.7-0.6-1.3
		c0.1-0.1,0.1-0.1,0.2-0.2c0.1-0.2,0.1-0.3-0.1-0.5c-0.2-0.1-0.3-0.1-0.5,0c-0.7,0.4-1.4,0.8-2.2,1c-0.1,0-0.3,0.1-0.3,0.2
		c-0.1,0.2-0.1,0.4,0.1,0.5c0.1,0,0.2,0.1,0.3,0l0,0.1c-0.1,0.2-0.1,0.4,0.2,0.5l0.5,0.3l-0.5,0.8l-0.8-0.5
		c-0.2-0.1-0.4-0.1-0.5,0.1c-0.1,0.2-0.1,0.4,0.2,0.5l0.8,0.5l-1.6,2.7l-1-0.6c-0.2-0.1-0.4,0-0.5,0.1c-0.1,0.2,0,0.4,0.1,0.5
		l2.3,1.4c0.2,0.1,0.4,0,0.5-0.1s0-0.4-0.1-0.5l-0.8-0.5l1.6-2.7l0.7,0.4c0.2,0.1,0.4,0.2,0.5,0c0.1-0.2,0.1-0.4-0.2-0.5l-0.7-0.4
		l0.5-0.8l0.7,0.4c0.2,0.1,0.4,0.1,0.6-0.1c0.1-0.2,0.1-0.4-0.2-0.5l-1.8-1.1l-0.1,0c0.6-0.2,1.2-0.4,1.7-0.7
		C173.8,224.1,174,224.6,174,224.8z M169.5,228.1c0.2,0.1,0.3,0.1,0.5-0.1l0.6-1c0.1-0.2,0.1-0.4-0.1-0.5c-0.2-0.1-0.4-0.1-0.5,0.1
		l-0.6,1c0,0.1-0.1,0.2-0.1,0.3C169.3,228,169.4,228,169.5,228.1z M171.8,227.7l-0.5,0.9c-0.1,0.2-0.1,0.4,0.1,0.5
		c0.2,0.1,0.4,0.1,0.5-0.1l0.5-0.9c0.1-0.2,0.1-0.3-0.1-0.5C172.1,227.5,171.9,227.6,171.8,227.7z M177.6,230l-1.7,2.9
		c-0.2,0.3-0.4,0.5-0.6,0.5c-0.2,0.1-0.4,0-0.7-0.2l-0.4-0.3c-0.2-0.1-0.3-0.3-0.1-0.5c0.1-0.2,0.3-0.3,0.5-0.1l0.3,0.2
		c0.2,0.1,0.4,0.1,0.5-0.1l1.5-2.5c0.1-0.2,0.1-0.3-0.1-0.4l-2.6-1.6c-0.2-0.1-0.3-0.1-0.4,0.1l-1.9,3.2c-0.2,0.3-0.4,0.3-0.6,0.2
		c-0.2-0.1-0.3-0.3-0.1-0.6l2-3.4c0.1-0.2,0.3-0.4,0.4-0.4c0.2-0.1,0.3-0.1,0.5,0l1.3-2.2c0.3-0.5,0.7-0.6,1.2-0.3l1.9,1.2
		c0.2,0.1,0.4,0.3,0.4,0.5c0.1,0.2,0,0.4-0.2,0.7l-1.4,2.2C177.8,229.3,177.8,229.7,177.6,230z M177.5,227.6l-0.6-0.4
		c-0.2-0.1-0.3-0.1-0.4,0.1l-0.5,0.9l0.9,0.5L177.5,227.6C177.5,227.6,177.5,227.6,177.5,227.6z M178.1,226.6
		c0.1-0.2,0.1-0.3-0.1-0.4l-1.6-0.9c-0.2-0.1-0.3-0.1-0.4,0.1l-1.3,2.1l0.7,0.4l0.6-1c0.1-0.2,0.3-0.3,0.5-0.4
		c0.2-0.1,0.4,0,0.6,0.1l0.8,0.5L178.1,226.6C178,226.6,178.1,226.6,178.1,226.6z M167.1,227.6l-5.5-3.3c-0.6-0.3-0.7-1-0.4-1.6
		l1.2-2c0.1-0.2,0-0.4-0.1-0.5s-0.4,0-0.5,0.1l-1.2,2c-0.5,0.9-0.3,2.1,0.7,2.7l5.5,3.3c0.2,0.1,0.4,0,0.5-0.2
		C167.4,228,167.3,227.7,167.1,227.6z M163.6,219.4c0.2-0.3,0.1-0.7-0.2-0.9c-0.3-0.2-0.7-0.1-0.9,0.2c-0.2,0.3-0.1,0.7,0.2,0.9
		C163,219.8,163.4,219.7,163.6,219.4z"/>
	<path class="st0" d="M142.1,217.5c-0.3-0.1-0.7-0.3-1-0.5c-0.1-0.1-0.2-0.1-0.3-0.2c0.9-2.7,0-5.6-2.3-7.3c0.1-0.3,0.3-0.6,0.5-0.9
		c0.1-0.1,0.1-0.2,0.2-0.3C142.1,210.3,143.3,214.1,142.1,217.5z M138.2,210.5c-0.4,2,0.3,4.1,1.7,5.6
		C140.4,214.1,139.8,211.9,138.2,210.5z M147.4,206.4c-2.3-1.4-5.3-1.1-7.3,0.6c2.3,1.7,3.6,4.3,3.8,6.9c1.7,0,3.4,0.5,5,1.4
		c0.1,0,0.1,0,0.1,0.1c0.1-0.2,0.3-0.4,0.4-0.6C151.2,212,150.3,208.2,147.4,206.4z M143.8,216.8c1,0,1.9,0.1,2.8,0.5
		c0.5-0.2,0.9-0.5,1.4-0.8c-1.2-0.7-2.6-1-4-1C144,215.9,143.9,216.4,143.8,216.8z"/>
	<path class="st30" d="M145.5,211.1c0.2-1.3,1.6-1.7,1.7-1.6c-0.1,0-0.4,0.9-0.7,2.2c-0.2,1.3-1.6,1.7-1.7,1.6
		C144.9,213.4,145.3,212.4,145.5,211.1z M148.2,208.4c0.3-1.8,2.2-2.3,2.3-2.3c-0.1,0-0.6,1.3-0.9,3.1c-0.3,1.8-2.2,2.3-2.3,2.3
		C147.4,211.6,147.9,210.2,148.2,208.4z"/>
</g>
</svg>
