<svg width="623" height="636" viewBox="0 0 623 636" fill="none" xmlns="http://www.w3.org/2000/svg">
<g clip-path="url(#clip0_228_2744)">
<path d="M676.098 272.024C674.623 272.73 613.244 211.767 573.984 202.823C534.724 193.878 493.436 242.366 440.536 188.935C387.636 135.504 371.047 47.4725 315.751 47.0017C260.455 46.531 228.383 143.507 180.276 113.849C129.956 83.0147 84.4291 100.904 84.4291 100.904C84.4291 100.904 52.173 132.444 51.8044 189.877C51.4358 247.309 52.726 286.618 37.0588 303.565C21.3915 320.512 14.9403 327.574 14.0187 335.341C13.0971 343.109 46.4591 344.05 58.2556 398.187C70.0521 452.324 77.4249 494.928 139.541 525.998C201.657 557.068 193.547 598.966 195.206 631.448C196.865 663.93 197.233 757.376 249.58 811.513C301.927 865.65 689 843.524 689 843.524L676.098 272.024Z" fill="#FEFBF0"/>
<path d="M16.5913 272.835C16.7756 272.835 17.8817 273.204 18.9878 273.388C22.1217 274.125 28.7582 277.259 32.4452 279.84C38.8974 284.265 42.953 287.951 47.5617 294.219C53.6452 302.146 57.3322 310.442 64.8904 332.011C70.9739 348.971 75.0295 359.294 79.4539 368.143C91.2522 391.924 105.447 405.934 127.2 415.336C132.362 417.548 137.155 419.576 153.562 425.291C168.678 430.821 178.08 436.167 185.27 443.541C194.118 452.574 198.911 464.557 199.833 480.411C200.017 482.807 200.202 492.393 199.833 501.242C199.649 518.755 199.833 527.419 200.755 535.715C201.861 546.407 203.704 554.703 206.838 564.473C211.263 578.115 216.609 588.807 227.301 603.739L230.803 608.717L229.513 611.298C228.223 613.878 228.223 613.878 227.485 613.325C226.01 611.851 215.687 597.471 212.922 593.231C209.603 587.517 208.682 585.858 206.101 580.143C202.414 571.478 199.096 560.418 197.068 550.463C194.487 536.452 193.934 525.945 194.118 502.348C194.303 493.868 194.118 484.098 193.934 481.148C192.828 462.529 186.744 450.731 173.656 441.698C169.416 438.748 157.986 433.402 150.243 430.637C128.675 422.894 123.882 421.051 114.664 416.073C101.76 409.068 94.0174 401.878 84.9843 389.896C75.3982 376.623 69.1304 363.718 58.8069 335.145C50.1426 310.626 47.0087 303.99 40.9252 295.878C37.6069 291.27 34.6574 288.32 30.0487 285.002C26.1774 282.052 19.5409 278.181 17.513 277.628L16.2226 277.259" fill="#BE1A21"/>
<path d="M91.8052 85.353C91.6208 85.9061 94.3861 85.5374 103.788 83.8782C109.134 82.9565 114.849 82.0348 116.508 82.0348C125.356 81.2974 136.049 82.4035 149.322 85.5374C155.958 87.0122 161.489 88.8556 179.739 94.9391C189.325 98.073 197.805 100.101 204.442 100.101C217.346 100.285 231.541 93.833 250.897 79.0852C279.287 57.7009 284.264 54.5669 295.325 50.88C308.967 46.0869 321.134 46.0869 334.591 50.3269C341.228 52.5391 354.132 59.5443 360.584 64.8904C374.779 76.5043 384.181 87.3809 407.409 118.904C424.369 141.763 430.821 149.322 440.96 158.355C457.183 172.734 472.299 177.711 494.052 175.868C500.136 175.315 504.929 174.762 521.889 171.812C547.329 167.572 560.049 167.019 574.428 169.047C584.567 170.522 587.885 171.628 597.84 176.974C604.477 180.477 607.61 182.32 610.744 184.716L614.616 187.666L613.694 189.325L612.772 190.984L609.638 188.403C607.61 186.744 603.739 184.532 598.209 181.583C591.203 177.896 589.176 177.158 584.751 175.868C577.193 173.84 572.031 173.103 562.998 172.918C551.2 172.55 543.089 173.656 517.833 178.08C491.287 182.873 481.516 183.242 468.059 179.923C463.266 178.817 461.976 178.264 454.233 174.209C446.49 170.153 445.2 169.416 440.407 165.36C428.793 155.958 420.497 146.557 403.722 124.25C380.125 92.7269 370.355 81.4817 356.713 70.2365C352.289 66.3652 350.814 65.8122 341.781 61.0191C332.563 56.2261 331.642 55.8574 327.033 54.9356C317.631 52.9078 309.336 53.2765 300.487 55.8574C290.901 58.6226 283.158 62.8626 270.438 72.2643C245.183 91.2522 239.837 94.9391 230.25 99.5478C217.715 105.631 206.47 107.475 193.934 105.263C186.929 104.157 181.398 102.497 167.756 97.8887C153.746 93.0956 148.584 91.6208 140.289 89.9617C126.463 87.1965 119.273 87.1965 106.184 89.7774C103.603 90.1461 98.2574 91.0678 94.2017 91.6209C90.1461 92.1739 85.7217 92.9113 84.4313 93.28" fill="#BE1A21"/>
<path d="M55.4887 179.371C55.12 179.739 57.1478 179.924 63.9687 180.292C67.84 180.661 71.8956 181.03 73.0017 181.214C79.2695 182.32 86.2747 184.717 94.9391 189.325C99.3634 191.538 102.682 193.565 114.296 201.124C120.379 204.995 125.91 207.76 130.334 208.866C139.183 211.078 150.059 209.235 165.913 202.414C189.325 192.459 193.196 191.169 201.492 190.616C211.631 189.694 219.927 191.722 228.776 197.068C233.016 199.649 240.574 206.838 244.261 211.447C252.003 221.771 256.612 230.988 267.304 256.797C275.047 275.416 278.181 281.868 283.527 289.795C292.191 302.515 301.777 308.414 317.078 310.995C321.318 311.732 324.821 312.101 336.803 313.023C355.054 314.498 363.903 316.157 373.489 320.212C380.125 322.978 382.153 324.268 388.237 329.614C392.292 333.117 394.136 335.145 395.795 336.988L398.007 339.753L397.085 340.859L396.163 341.965L394.504 339.753C393.398 338.278 391.002 336.066 387.868 333.117C383.628 329.43 382.337 328.508 379.572 326.849C374.595 324.084 371.276 322.793 365.009 321.134C356.713 318.922 351.183 318.185 332.932 317.078C313.76 315.788 307.123 314.313 298.275 309.889C294.956 308.23 294.219 307.677 289.795 303.621C285.186 299.565 284.449 298.828 281.683 295.325C275.416 286.845 271.176 278.918 263.433 260.668C252.556 234.859 247.763 225.458 240.39 215.503C237.993 212 237.071 211.263 231.725 206.654C226.195 201.861 225.642 201.492 222.692 199.833C216.793 196.884 210.71 195.593 204.257 195.778C197.252 196.146 191.169 197.621 180.661 202.045C160.014 210.71 155.774 212.185 148.216 213.844C138.445 216.056 130.518 215.134 122.407 211.631C117.798 209.604 114.111 207.576 105.631 202.045C96.7826 196.331 93.4643 194.303 88.1182 191.906C79.0852 187.666 73.9234 186.376 64.706 185.823C63.0469 185.823 58.9913 185.27 56.226 185.085C53.4608 184.717 50.1426 184.532 49.2208 184.532" fill="#BE1A21"/>
<path d="M41.294 265.829C44.7966 264.17 49.2209 263.802 54.3827 264.908C57.8853 265.645 65.9966 269.516 69.4992 272.466C80.56 280.762 90.1461 293.666 98.4418 311.732C99.3635 313.76 102.313 320.396 104.894 326.295C110.424 339.015 112.637 343.624 115.955 349.708C124.066 364.087 131.809 372.751 144.529 380.494C148.953 383.259 151.165 384.365 159.461 388.052C174.393 394.689 182.32 398.929 188.588 403.906C190.063 405.012 189.325 405.565 186.744 405.012C181.398 404.09 175.868 402.247 165.544 398.191C152.456 393.029 140.657 387.13 134.574 382.89C123.697 374.963 115.955 365.746 108.581 351.735C105.263 345.652 103.235 341.043 94.7548 320.949C93.28 317.631 91.0679 312.654 89.5931 309.889C80.007 290.163 67.6557 276.337 54.9357 271.175C50.1427 269.332 45.9027 268.779 40.5566 269.885C38.3444 270.069 38.5287 267.12 41.294 265.829Z" fill="#BE1A21"/>
<path d="M124.988 113.558C126.278 113.374 127.569 113.19 127.937 113.005C128.675 113.005 128.675 112.821 128.859 110.609C129.228 108.028 130.15 107.106 131.256 107.659C131.809 107.844 131.993 108.765 132.177 112.452C132.177 113.19 132.362 113.19 134.758 113.558C138.63 114.296 140.473 115.402 139.736 117.061C139.367 117.798 137.892 117.983 134.943 117.798C132.915 117.614 132.177 117.614 131.993 118.167C131.809 118.351 131.44 120.195 131.256 122.038C130.703 125.725 129.965 128.306 129.412 127.937C128.859 127.753 128.122 122.591 128.122 119.457C128.122 117.43 127.937 117.061 127.2 116.877C126.831 116.877 125.541 116.324 124.066 115.771C122.038 115.033 121.854 114.664 122.038 114.296C122.591 114.296 123.882 113.743 124.988 113.558Z" fill="#BE1A21"/>
<path d="M78.5322 322.056C79.0853 322.056 82.7722 326.48 85.5374 330.536C88.487 335.145 93.6487 344.178 96.2296 350.077C102.129 363.35 104.894 367.958 110.056 374.779C118.351 385.84 127.2 394.136 135.496 398.929C139.551 401.325 140.473 402.247 139.367 402.985C138.261 403.722 135.68 402.985 130.703 400.588C123.144 396.901 116.508 391.555 108.581 382.706C100.47 373.489 96.5983 367.221 90.5148 352.842C88.1183 347.127 85.5374 341.597 82.7722 335.882C81.1131 332.564 77.7948 322.978 77.9792 322.609C78.3479 322.24 78.3479 321.872 78.5322 322.056Z" fill="#BE1A21"/>
<path d="M259.562 122.591C271.176 110.424 284.449 101.207 295.141 97.8886C309.889 93.2799 323.715 94.9391 340.49 103.788C359.663 113.743 372.383 125.91 392.108 154.483C395.61 159.461 398.376 163.701 398.191 164.07C398.007 164.254 397.823 164.807 397.27 165.176C396.163 165.913 394.136 163.701 384.918 152.087C375.516 140.104 371.461 135.311 365.562 129.412C350.998 114.849 330.536 104.156 315.05 103.05C307.676 102.682 298.275 104.525 291.085 108.028C287.214 109.871 277.443 116.139 270.623 120.932C265.276 124.803 254.031 131.44 253.294 131.071C252.741 130.334 254.769 127.569 259.562 122.591Z" fill="#BE1A21"/>
<path d="M283.343 81.2975C289.057 75.0296 297.169 70.0523 305.464 67.6557C316.341 64.5218 333.854 68.9462 345.099 77.4262C353.211 83.694 359.663 92.9114 356.344 94.0175C355.976 94.2018 355.054 93.4644 353.764 92.3583C345.837 84.9844 336.251 79.6383 327.771 77.6105C325.005 76.8731 320.028 76.3201 316.894 76.3201C310.442 76.3201 307.124 76.8731 295.878 81.4818C289.057 84.247 282.605 85.9062 281.499 84.9844C280.946 84.4314 281.315 83.5096 283.343 81.2975Z" fill="#BE1A21"/>
<path d="M216.977 315.05C217.715 315.419 220.849 319.659 222.139 321.318L223.061 322.977L227.117 321.502C230.619 320.212 231.357 320.212 232.094 320.765C234.49 322.056 232.278 323.899 225.826 327.033C225.457 327.217 225.826 328.139 226.564 330.167C228.407 334.223 228.407 334.776 228.038 335.697C227.117 337.541 225.089 336.25 222.508 331.826L220.849 328.876L217.715 329.614C213.106 330.904 208.682 331.273 209.235 330.351C209.419 329.798 214.212 326.849 216.24 325.742L218.637 324.452L217.53 321.134C216.24 316.709 215.871 314.497 216.977 315.05Z" fill="#BE1A21"/>
<path d="M190.984 358.925C191.906 358.372 192.644 358.372 193.75 359.11C196.146 360.4 196.146 363.165 194.303 364.456C192.275 365.931 190.063 365.009 189.325 362.797C188.404 360.953 188.957 359.663 190.984 358.925Z" fill="#BE1A21"/>
<path d="M189.694 169.969C190.616 169.416 191.353 169.416 192.459 170.153C194.856 171.444 194.856 174.209 193.012 175.499C190.984 176.974 188.772 176.052 188.035 173.84C187.297 171.812 187.85 170.706 189.694 169.969Z" fill="#BE1A21"/>
<path d="M327.217 193.565C328.877 192.459 330.904 192.275 332.932 193.197C337.172 195.409 337.356 199.833 333.485 201.492C331.642 202.23 329.983 202.23 328.139 201.308C326.296 200.571 325.558 199.28 325.374 197.068C325.374 195.593 325.743 194.671 327.217 193.565Z" fill="#BE1A21"/>
<path d="M341.781 365.931C342.518 366.299 345.652 370.539 346.758 372.383L347.68 374.042L349.523 373.305C354.501 371.092 355.976 371.277 355.054 373.305C354.685 374.411 353.026 375.885 350.814 376.992C350.261 377.36 349.708 377.545 349.708 377.729C349.708 377.729 350.076 379.019 350.814 380.31C353.395 385.472 353.948 388.237 351.92 387.868C350.814 387.684 350.076 386.393 347.864 382.153C347.311 381.047 346.574 379.941 346.39 379.757C346.205 379.572 344.915 379.941 343.44 380.494C340.49 381.6 334.223 383.259 333.67 383.075C333.485 382.891 333.301 382.522 333.485 382.522C333.67 381.969 339.753 378.098 342.15 376.807C342.887 376.438 343.993 375.885 344.177 375.701C344.362 375.517 343.993 374.411 343.44 373.305C342.334 371.277 341.228 366.668 341.412 366.299C341.043 365.931 341.412 365.931 341.781 365.931Z" fill="#BE1A21"/>
<path d="M398.56 229.513C399.666 229.329 402.431 229.513 404.275 229.697C406.303 229.882 407.777 229.882 407.962 229.697C407.962 229.513 408.146 228.222 408.33 227.116C408.699 224.536 409.437 223.245 410.727 223.429C411.833 223.614 412.017 224.536 412.017 227.669C412.017 229.329 412.202 230.619 412.386 230.619C412.57 230.803 413.677 230.988 414.783 231.172C417.548 231.725 418.47 232.278 418.47 233.2C418.47 234.306 417.179 234.675 414.598 234.675C413.308 234.49 412.202 234.49 412.017 234.49C411.833 234.49 411.464 235.781 411.096 237.44C410.543 240.942 409.805 242.97 409.068 242.97C408.515 242.97 407.777 238.177 407.777 235.596C407.777 234.675 407.777 233.937 407.593 233.753C407.593 233.753 406.303 233.569 405.197 233.384C403.169 233.016 397.823 231.541 396.532 230.988C395.61 230.435 396.532 229.882 398.56 229.513Z" fill="#BE1A21"/>
<path d="M181.03 220.664C181.767 221.033 184.901 225.273 186.007 227.116L186.929 228.775L188.772 228.038C193.75 225.826 195.224 226.01 194.303 228.038C193.934 229.144 192.275 230.619 190.063 231.725C189.51 232.094 188.957 232.278 188.957 232.462C188.957 232.462 189.325 233.753 190.063 235.043C192.644 240.205 193.197 242.97 191.169 242.602C190.063 242.417 189.325 241.127 187.113 236.887C186.56 235.781 185.823 234.675 185.638 234.49C185.454 234.306 184.164 234.675 182.689 235.228C179.739 236.334 173.471 237.993 172.918 237.808C172.734 237.624 172.55 237.255 172.734 237.255C172.918 236.702 179.002 232.831 181.398 231.541C182.136 231.172 183.242 230.619 183.426 230.435C183.61 230.25 183.242 229.144 182.689 228.038C181.583 226.01 180.477 221.402 180.661 221.033C180.661 220.664 180.845 220.48 181.03 220.664Z" fill="#BE1A21"/>
<path d="M240.574 522.995C246.842 524.101 251.082 519.677 249.791 513.593C249.607 512.856 249.423 511.934 249.607 511.75C249.976 511.012 249.423 508.616 248.132 506.772C247.026 505.113 246.473 504.745 244.261 503.638C242.233 502.532 241.311 502.164 240.021 502.348C237.624 502.348 235.781 503.085 234.122 504.376C229.882 507.694 229.144 514.146 232.463 518.386C233.384 520.23 237.809 522.811 240.574 522.995ZM234.49 513.409C233.937 511.565 235.412 508.247 237.256 507.325C239.099 506.404 240.943 506.404 243.155 507.51L244.998 508.431L245.551 511.381C246.473 515.621 246.473 517.096 245.551 518.202C244.261 519.677 241.496 519.861 238.546 518.202C236.703 516.911 235.043 515.068 234.49 513.409Z" fill="#BE1A21"/>
<path d="M360.216 293.113C361.506 292.56 362.428 292.191 363.534 292.56C365.93 293.113 367.221 296.063 365.93 298.275C365.009 300.118 362.059 300.856 360.216 299.934C357.635 298.828 357.635 294.588 360.216 293.113Z" fill="#BE1A21"/>
<path d="M333.301 498.661C333.854 498.661 336.803 502.532 337.91 504.56C338.278 505.298 338.647 505.666 338.647 505.666C338.831 505.666 340.122 504.745 341.596 504.007C344.73 502.164 345.836 501.979 346.389 502.532C346.943 503.27 346.39 503.823 343.256 506.035C341.596 507.141 340.122 508.247 340.122 508.247C339.937 508.432 340.49 509.538 341.043 510.828C341.596 511.934 342.15 513.593 342.15 513.962C342.334 515.252 341.412 516.727 340.675 516.359C339.937 516.174 339.2 515.621 337.725 512.303C337.172 511.012 336.435 510.091 336.25 510.091C336.066 510.091 334.223 511.197 332.195 511.934C328.692 513.593 327.77 513.962 328.139 513.225C328.323 513.04 329.983 511.75 332.01 510.275L335.513 507.51L334.591 505.113C333.116 501.795 332.748 498.661 333.301 498.661Z" fill="#BE1A21"/>
<path d="M387.315 454.418C388.605 454.049 389.343 454.049 390.08 454.602C392.661 455.892 393.214 459.395 390.817 461.238C387.684 464.004 383.075 460.132 384.918 456.261C385.471 455.339 386.024 454.786 387.315 454.418Z" fill="#BE1A21"/>
</g>
<defs>
<clipPath id="clip0_228_2744">
<rect width="636" height="636" fill="white"/>
</clipPath>
</defs>
</svg>
