<?xml version="1.0" encoding="utf-8"?>
<!-- Generator: Adobe Illustrator 21.1.0, SVG Export Plug-In . SVG Version: 6.00 Build 0)  -->
<svg version="1.1" id="圖層_1" xmlns="http://www.w3.org/2000/svg" xmlns:xlink="http://www.w3.org/1999/xlink" x="0px" y="0px"
	 viewBox="0 0 50 50" style="enable-background:new 0 0 50 50;" xml:space="preserve">
<style type="text/css">
	.st0{fill:#FFFFFF;}
</style>
<path class="st0" d="M34.9-89H15.1c-2.3,0-4.1,1.8-4.1,4.1v19.7c0,2.3,1.8,4.1,4.1,4.1h19.7c2.3,0,4.1-1.8,4.1-4.1v-19.7
	C39-87.1,37.1-89,34.9-89z M29.6-81c0,0-1.7,0-2.1,0c-0.6,0-1.1,0.6-1.1,1.1c0,0.4,0,2.4,0,2.4h3.2l-0.4,3.2h-2.9v8.2H23v-8.2h-2.8
	v-3.3H23c0,0,0-1.2,0-3.1c0-1.7,1.9-3.3,3.3-3.3c0.2,0,3.2,0,3.2,0L29.6-81L29.6-81z"/>
<g>
	<circle class="st0" cx="25" cy="-25" r="2.7"/>
	<path class="st0" d="M28.3-31.9h-6.7c-1.9,0-3.5,1.6-3.5,3.5v6.7c0,1.9,1.6,3.5,3.5,3.5h6.7c1.9,0,3.5-1.6,3.5-3.5v-6.7
		C31.8-30.3,30.3-31.9,28.3-31.9z M25-20.5c-2.5,0-4.5-2-4.5-4.5s2-4.5,4.5-4.5s4.5,2,4.5,4.5S27.5-20.5,25-20.5z M29.7-29
		c-0.4,0-0.8-0.3-0.8-0.8c0-0.4,0.3-0.8,0.8-0.8c0.4,0,0.8,0.3,0.8,0.8C30.5-29.4,30.1-29,29.7-29z"/>
	<path class="st0" d="M34.9-39H15.1c-2.3,0-4.1,1.8-4.1,4.1v19.7c0,2.3,1.8,4.1,4.1,4.1h19.7c2.3,0,4.1-1.8,4.1-4.1v-19.7
		C39-37.1,37.1-39,34.9-39z M33.8-21.7c0,3-2.4,5.4-5.4,5.4h-6.7c-3,0-5.4-2.4-5.4-5.4v-6.7c0-3,2.4-5.4,5.4-5.4h6.7
		c3,0,5.4,2.4,5.4,5.4C33.8-28.4,33.8-21.7,33.8-21.7z"/>
</g>
<g>
	<path class="st0" d="M25,15.4c-5.6,0-10.1,3.6-10.1,8.1c0,3.9,3.5,7.3,8.4,8l0,0c0.8,0.1,1.2,0.4,1.3,0.9c0.1,0.3,0.1,0.7,0.1,1.2
		l0,0c0,0-0.1,0.8-0.1,0.9l0,0h0.1c1.1-0.4,6-3.6,8.2-6c1.4-1.6,2.2-3.2,2.2-4.9C35.1,19.1,30.6,15.4,25,15.4z M21.3,26.1
		c0,0.1-0.1,0.2-0.2,0.2h-3l0,0c-0.1,0-0.2-0.1-0.2-0.2l0,0l0,0v-4.6c0-0.1,0.1-0.2,0.2-0.2h0.8c0.1,0,0.2,0.1,0.2,0.2v3.7h2.1
		c0.1,0,0.2,0.1,0.2,0.2v0.7H21.3z M23,26.1c0,0.1-0.1,0.2-0.2,0.2h-0.8c-0.1,0-0.2-0.1-0.2-0.2v-4.7c0-0.1,0.1-0.2,0.2-0.2h0.8
		c0.1,0,0.2,0.1,0.2,0.2V26.1z M28.2,26.1c0,0.1-0.1,0.2-0.2,0.2h-0.8l0,0l0,0l0,0l0,0l0,0l0,0l0,0l0,0l0,0l0,0l-2.1-2.8v2.6
		c0,0.1-0.1,0.2-0.2,0.2h-0.8c-0.1,0-0.2-0.1-0.2-0.2v-4.7c0-0.1,0.1-0.2,0.2-0.2h0.8l0,0l0,0l0,0l0,0l0,0l0,0l0,0l0,0l0,0l0,0l0,0
		l0,0l0,0l0,0l0,0l0,0l0,0l0,0l0,0L27,24v-2.7c0-0.1,0.1-0.2,0.2-0.2H28c0.1,0,0.2,0.1,0.2,0.2C28.2,21.3,28.2,26.1,28.2,26.1z
		 M32.3,22.2c0,0.1-0.1,0.2-0.2,0.2H30v0.8h2.1c0.1,0,0.2,0.1,0.2,0.2v0.8c0,0.1-0.1,0.2-0.2,0.2H30v0.8h2.1c0.1,0,0.2,0.1,0.2,0.2
		v0.8c0,0.1-0.1,0.2-0.2,0.2h-3l0,0c-0.1,0-0.2-0.1-0.2-0.2l0,0l0,0v-4.6l0,0l0,0c0-0.1,0.1-0.2,0.2-0.2l0,0h3
		c0.1,0,0.2,0.1,0.2,0.2V22.2z"/>
	<path class="st0" d="M34.9,11H15.1c-2.3,0-4.1,1.8-4.1,4.1v19.7c0,2.3,1.8,4.1,4.1,4.1h19.7c2.3,0,4.1-1.8,4.1-4.1V15.1
		C39,12.9,37.1,11,34.9,11z M33.8,29.2c-2.3,2.6-7.3,5.8-8.5,6.4c-0.1,0.1-0.4,0.2-0.8,0.2c-0.2,0-0.4,0-0.7-0.2
		c-0.4-0.3-0.3-1-0.3-1.2l0,0c0-0.1,0.1-0.8,0.1-0.9c0-0.4,0-0.5,0-0.7c0,0-0.2-0.1-0.5-0.2c-5.5-0.8-9.4-4.6-9.4-9.1
		c0-5,5-9.2,11.3-9.2s11.3,4.2,11.3,9.2C36.3,25.5,35.4,27.4,33.8,29.2z"/>
</g>
</svg>
