<?xml version="1.0" encoding="utf-8"?>
<!-- Generator: Adobe Illustrator 21.1.0, SVG Export Plug-In . SVG Version: 6.00 Build 0)  -->
<svg version="1.1" id="圖層_1" xmlns="http://www.w3.org/2000/svg" xmlns:xlink="http://www.w3.org/1999/xlink" x="0px" y="0px"
	 viewBox="0 0 50 50" style="enable-background:new 0 0 50 50;" xml:space="preserve">
<style type="text/css">
	.st0{fill:#FFFFFF;}
</style>
<path class="st0" d="M34.9-39H15.1c-2.3,0-4.1,1.8-4.1,4.1v19.7c0,2.3,1.8,4.1,4.1,4.1h19.7c2.3,0,4.1-1.8,4.1-4.1v-19.7
	C39-37.1,37.1-39,34.9-39z M29.6-31c0,0-1.7,0-2.1,0c-0.6,0-1.1,0.6-1.1,1.1c0,0.4,0,2.4,0,2.4h3.2l-0.4,3.2h-2.9v8.2h-3.3v-8.2
	h-2.8v-3.3h2.8c0,0,0-1.2,0-3.1c0-1.7,1.9-3.3,3.3-3.3c0.2,0,3.2,0,3.2,0V-31z"/>
<g>
	<circle class="st0" cx="25" cy="25" r="2.7"/>
	<path class="st0" d="M28.3,18.1h-6.7c-1.9,0-3.5,1.6-3.5,3.5v6.7c0,1.9,1.6,3.5,3.5,3.5h6.7c1.9,0,3.5-1.6,3.5-3.5v-6.7
		C31.8,19.7,30.3,18.1,28.3,18.1z M25,29.5c-2.5,0-4.5-2-4.5-4.5c0-2.5,2-4.5,4.5-4.5c2.5,0,4.5,2,4.5,4.5
		C29.5,27.5,27.5,29.5,25,29.5z M29.7,21c-0.4,0-0.8-0.3-0.8-0.8c0-0.4,0.3-0.8,0.8-0.8c0.4,0,0.8,0.3,0.8,0.8
		C30.5,20.6,30.1,21,29.7,21z"/>
	<path class="st0" d="M34.9,11H15.1c-2.3,0-4.1,1.8-4.1,4.1v19.7c0,2.3,1.8,4.1,4.1,4.1h19.7c2.3,0,4.1-1.8,4.1-4.1V15.1
		C39,12.9,37.1,11,34.9,11z M33.8,28.3c0,3-2.4,5.4-5.4,5.4h-6.7c-3,0-5.4-2.4-5.4-5.4v-6.7c0-3,2.4-5.4,5.4-5.4h6.7
		c3,0,5.4,2.4,5.4,5.4V28.3z"/>
</g>
<g>
	<path class="st0" d="M25,66.2c-5.1,0-9.2,3.3-9.2,7.4c0,3.6,3.2,6.7,7.7,7.3l0,0c0.7,0.1,1.1,0.4,1.2,0.8c0.1,0.3,0.1,0.6,0.1,1.1
		l0,0c0,0-0.1,0.7-0.1,0.8l0,0c0,0,0.1,0,0.1,0c1-0.4,5.5-3.3,7.5-5.5c1.3-1.5,2-2.9,2-4.5C34.2,69.6,30.1,66.2,25,66.2z M21.6,76
		c0,0.1-0.1,0.2-0.2,0.2h-2.7h0c-0.1,0-0.2-0.1-0.2-0.2v0v0v-4.2c0-0.1,0.1-0.2,0.2-0.2h0.7c0.1,0,0.2,0.1,0.2,0.2v3.4h1.9
		c0.1,0,0.2,0.1,0.2,0.2V76z M23.2,76c0,0.1-0.1,0.2-0.2,0.2h-0.7c-0.1,0-0.2-0.1-0.2-0.2v-4.3c0-0.1,0.1-0.2,0.2-0.2H23
		c0.1,0,0.2,0.1,0.2,0.2V76z M27.9,76c0,0.1-0.1,0.2-0.2,0.2H27c0,0,0,0,0,0c0,0,0,0,0,0c0,0,0,0,0,0c0,0,0,0,0,0c0,0,0,0,0,0
		c0,0,0,0,0,0c0,0,0,0,0,0c0,0,0,0,0,0c0,0,0,0,0,0c0,0,0,0,0,0l-1.9-2.6V76c0,0.1-0.1,0.2-0.2,0.2h-0.7c-0.1,0-0.2-0.1-0.2-0.2
		v-4.3c0-0.1,0.1-0.2,0.2-0.2h0.7c0,0,0,0,0,0c0,0,0,0,0,0c0,0,0,0,0,0c0,0,0,0,0,0c0,0,0,0,0,0c0,0,0,0,0,0c0,0,0,0,0,0
		c0,0,0,0,0,0c0,0,0,0,0,0c0,0,0,0,0,0c0,0,0,0,0,0c0,0,0,0,0,0c0,0,0,0,0,0l0,0c0,0,0,0,0,0l0,0c0,0,0,0,0,0c0,0,0,0,0,0
		c0,0,0,0,0,0l1.9,2.6v-2.5c0-0.1,0.1-0.2,0.2-0.2h0.7c0.1,0,0.2,0.1,0.2,0.2V76z M31.7,72.4c0,0.1-0.1,0.2-0.2,0.2h-1.9v0.7h1.9
		c0.1,0,0.2,0.1,0.2,0.2v0.7c0,0.1-0.1,0.2-0.2,0.2h-1.9v0.7h1.9c0.1,0,0.2,0.1,0.2,0.2V76c0,0.1-0.1,0.2-0.2,0.2h-2.7h0
		c-0.1,0-0.2-0.1-0.2-0.2v0v0v-4.2v0v0c0-0.1,0.1-0.2,0.2-0.2h0h2.7c0.1,0,0.2,0.1,0.2,0.2V72.4z"/>
	<path class="st0" d="M34.9,61H15.1c-2.3,0-4.1,1.8-4.1,4.1v19.7c0,2.3,1.8,4.1,4.1,4.1h19.7c2.3,0,4.1-1.8,4.1-4.1V65.1
		C39,62.9,37.1,61,34.9,61z M33,78.8c-2.1,2.4-6.7,5.3-7.8,5.8c-0.1,0.1-0.4,0.2-0.7,0.2c-0.2,0-0.4,0-0.6-0.2
		c-0.4-0.3-0.3-0.9-0.3-1.1l0,0c0-0.1,0.1-0.7,0.1-0.8c0-0.4,0-0.5,0-0.6c0,0-0.2-0.1-0.5-0.2c-5-0.7-8.6-4.2-8.6-8.3
		c0-4.6,4.6-8.4,10.3-8.4s10.3,3.8,10.3,8.4C35.3,75.5,34.5,77.2,33,78.8z"/>
</g>
</svg>
