<?xml version="1.0" encoding="utf-8"?>
<!-- Generator: Adobe Illustrator 21.1.0, SVG Export Plug-In . SVG Version: 6.00 Build 0)  -->
<svg version="1.1" id="圖層_1" xmlns="http://www.w3.org/2000/svg" xmlns:xlink="http://www.w3.org/1999/xlink" x="0px" y="0px"
	 viewBox="0 0 50 50" style="enable-background:new 0 0 50 50;" xml:space="preserve">
<style type="text/css">
	.st0{fill:#FFFFFF;}
</style>
<path class="st0" d="M34.9-129.3H15.1c-2.3,0-4.1,1.8-4.1,4.1v19.7c0,2.3,1.8,4.1,4.1,4.1h19.7c2.3,0,4.1-1.8,4.1-4.1v-19.7
	C39-127.4,37.1-129.3,34.9-129.3z M29.6-121.3c0,0-1.7,0-2.1,0c-0.6,0-1.1,0.6-1.1,1.1c0,0.4,0,2.4,0,2.4h3.2l-0.4,3.2h-2.9v8.2H23
	v-8.2h-2.8v-3.3H23c0,0,0-1.2,0-3.1c0-1.7,1.9-3.3,3.3-3.3c0.2,0,3.2,0,3.2,0L29.6-121.3L29.6-121.3z"/>
<g>
	<circle class="st0" cx="25" cy="-65.3" r="2.7"/>
	<path class="st0" d="M28.3-72.2h-6.7c-1.9,0-3.5,1.6-3.5,3.5v6.7c0,1.9,1.6,3.5,3.5,3.5h6.7c1.9,0,3.5-1.6,3.5-3.5v-6.7
		C31.8-70.6,30.3-72.2,28.3-72.2z M25-60.8c-2.5,0-4.5-2-4.5-4.5c0-2.5,2-4.5,4.5-4.5s4.5,2,4.5,4.5C29.5-62.8,27.5-60.8,25-60.8z
		 M29.7-69.3c-0.4,0-0.8-0.3-0.8-0.8c0-0.4,0.3-0.8,0.8-0.8c0.4,0,0.8,0.3,0.8,0.8C30.5-69.7,30.1-69.3,29.7-69.3z"/>
	<path class="st0" d="M34.9-79.3H15.1c-2.3,0-4.1,1.8-4.1,4.1v19.7c0,2.3,1.8,4.1,4.1,4.1h19.7c2.3,0,4.1-1.8,4.1-4.1v-19.7
		C39-77.4,37.1-79.3,34.9-79.3z M33.8-62c0,3-2.4,5.4-5.4,5.4h-6.7c-3,0-5.4-2.4-5.4-5.4v-6.7c0-3,2.4-5.4,5.4-5.4h6.7
		c3,0,5.4,2.4,5.4,5.4C33.8-68.7,33.8-62,33.8-62z"/>
</g>
<g>
	<path class="st0" d="M25-24.9c-5.6,0-10.1,3.6-10.1,8.1c0,3.9,3.5,7.3,8.4,8l0,0c0.8,0.1,1.2,0.4,1.3,0.9c0.1,0.3,0.1,0.7,0.1,1.2
		l0,0c0,0-0.1,0.8-0.1,0.9l0,0h0.1c1.1-0.4,6-3.6,8.2-6c1.4-1.6,2.2-3.2,2.2-4.9C35.1-21.2,30.6-24.9,25-24.9z M21.3-14.2
		c0,0.1-0.1,0.2-0.2,0.2h-3l0,0c-0.1,0-0.2-0.1-0.2-0.2l0,0l0,0v-4.6c0-0.1,0.1-0.2,0.2-0.2h0.8c0.1,0,0.2,0.1,0.2,0.2v3.7h2.1
		c0.1,0,0.2,0.1,0.2,0.2v0.7H21.3z M23-14.2c0,0.1-0.1,0.2-0.2,0.2H22c-0.1,0-0.2-0.1-0.2-0.2v-4.7c0-0.1,0.1-0.2,0.2-0.2h0.8
		c0.1,0,0.2,0.1,0.2,0.2V-14.2z M28.2-14.2c0,0.1-0.1,0.2-0.2,0.2h-0.8l0,0l0,0l0,0l0,0l0,0l0,0l0,0l0,0l0,0l0,0l-2.1-2.8v2.6
		c0,0.1-0.1,0.2-0.2,0.2h-0.8c-0.1,0-0.2-0.1-0.2-0.2v-4.7c0-0.1,0.1-0.2,0.2-0.2h0.8l0,0l0,0l0,0l0,0l0,0l0,0l0,0l0,0l0,0l0,0l0,0
		l0,0l0,0l0,0l0,0l0,0l0,0l0,0l0,0l2.1,2.8V-19c0-0.1,0.1-0.2,0.2-0.2H28c0.1,0,0.2,0.1,0.2,0.2V-14.2z M32.3-18.1
		c0,0.1-0.1,0.2-0.2,0.2H30v0.8h2.1c0.1,0,0.2,0.1,0.2,0.2v0.8c0,0.1-0.1,0.2-0.2,0.2H30v0.8h2.1c0.1,0,0.2,0.1,0.2,0.2v0.8
		c0,0.1-0.1,0.2-0.2,0.2h-3l0,0c-0.1,0-0.2-0.1-0.2-0.2l0,0l0,0v-4.6l0,0l0,0c0-0.1,0.1-0.2,0.2-0.2l0,0h3c0.1,0,0.2,0.1,0.2,0.2
		V-18.1z"/>
	<path class="st0" d="M34.9-29.3H15.1c-2.3,0-4.1,1.8-4.1,4.1v19.7c0,2.3,1.8,4.1,4.1,4.1h19.7c2.3,0,4.1-1.8,4.1-4.1v-19.7
		C39-27.4,37.1-29.3,34.9-29.3z M33.8-11.1c-2.3,2.6-7.3,5.8-8.5,6.4c-0.1,0.1-0.4,0.2-0.8,0.2c-0.2,0-0.4,0-0.7-0.2
		c-0.4-0.3-0.3-1-0.3-1.2l0,0c0-0.1,0.1-0.8,0.1-0.9c0-0.4,0-0.5,0-0.7c0,0-0.2-0.1-0.5-0.2c-5.5-0.8-9.4-4.6-9.4-9.1
		c0-5,5-9.2,11.3-9.2s11.3,4.2,11.3,9.2C36.3-14.8,35.4-12.9,33.8-11.1z"/>
</g>
<g>
	<path class="st0" d="M14.5,11.8c-1.5,0-2.8,1.5-2.8,3.3c0,1,0.4,2,1.1,2.7l11,8.2c0.7,0.6,1.5,0.6,2.2,0l11.1-8.3
		c0.7-0.7,1.1-1.6,1.1-2.7c0-1.8-1.2-3.3-2.8-3.3C35.5,11.8,14.5,11.8,14.5,11.8z M11.8,19.5v14.4c0,2.5,1.6,4.5,3.7,4.5h19.1
		c2,0,3.7-2,3.7-4.5V19.5l-11.1,8.3c-1.3,1.1-3.1,1.1-4.5,0L11.8,19.5z"/>
</g>
</svg>
