<?xml version="1.0" encoding="utf-8"?>
<!-- Generator: Adobe Illustrator 21.1.0, SVG Export Plug-In . SVG Version: 6.00 Build 0)  -->
<svg version="1.1" id="圖層_1" xmlns="http://www.w3.org/2000/svg" xmlns:xlink="http://www.w3.org/1999/xlink" x="0px" y="0px"
	 viewBox="0 0 508 500" style="enable-background:new 0 0 508 500;" xml:space="preserve">
<style type="text/css">
	.st0{fill:#F4E1EF;}
	.st1{fill:#CA141A;}
	.st2{fill:#FEFBF0;stroke:#BE1A21;stroke-width:3;stroke-miterlimit:10;}
	.st3{fill:#6C6C6C;}
	.st4{fill:#FFFFFF;}
	.st5{fill:#BE1A21;stroke:#FEFBF0;stroke-width:0.8898;stroke-miterlimit:10;}
	.st6{fill:#FEFBF0;}
	.st7{fill:#BE1A21;}
	.st8{opacity:0.11;}
	.st9{fill:#EFD8E8;}
	.st10{fill:#D2D2D3;}
	.st11{display:none;}
	.st12{display:inline;}
	.st13{fill:#FF8754;}
	.st14{fill:none;stroke:#FFFFFF;stroke-width:2.2618;stroke-linecap:round;stroke-linejoin:round;stroke-miterlimit:10;}
	.st15{fill:none;stroke:#FFFFFF;stroke-width:1.1309;stroke-miterlimit:10;}
	.st16{fill:none;stroke:#FF8754;stroke-width:3.3927;stroke-linecap:round;stroke-linejoin:round;stroke-miterlimit:10;}
	.st17{fill:none;stroke:#BE1A21;stroke-width:3.3927;stroke-linecap:round;stroke-linejoin:round;stroke-miterlimit:10;}
	.st18{fill:none;}
	.st19{font-family:'Bebas';}
	.st20{font-size:27.8011px;}
	.st21{letter-spacing:2;}
</style>
<g id="栝鍣_1">
</g>
<g id="栝鍣_2">
</g>
<g id="栝鍣_3">
	<g>
		<path class="st0" d="M324.9,227l-0.8-0.6c0.3-0.4,29-38.9,29.5-59.3h1C354.1,187.8,326.1,225.4,324.9,227z"/>
	</g>
	<g>
		<path class="st1" d="M330.4,332l-0.7-0.7c0.3-0.3,33.9-31,37.4-46.2l1,0.2C364.6,300.8,331.8,330.7,330.4,332z"/>
	</g>
	<g>
		<path class="st1" d="M317,283.3l-0.6-0.8c0.4-0.3,39.1-28.8,49.4-54.7l0.9,0.4C356.4,254.3,317.4,283,317,283.3z"/>
	</g>
	<g>
		<path class="st2" d="M310.5,156.4l-27.3-41.2l0.2-0.3c8.2-14.1,27.1-34.1,41.1-35c4.5-0.3,8.1,1.4,10.8,4.9
			c13.7,17.7-22.8,68.8-24.3,71L310.5,156.4z"/>
	</g>
	<g>
		<path class="st2" d="M64.4,498.6c2.6-21.4,1.3-38.7-6-44.9c-10-8.5-36.5-82-28.7-162.1c7.8-80,5.7-69.8,5.2-97.9s1-55.3,27.3-20.5
			s17.4,114.9,17.4,114.9s14.1,23,22.7,50.8c0,0,142.1-23.8,168.8-54c51.1-57.7,111.6,16.5,2.6,149.7
			c-26.5,32.4-21.2,56.9-21.8,65.7"/>
	</g>
	<g>
		<path class="st1" d="M202,496.1h-1c0-0.2,0.2-17-19.2-35.7l0.7-0.7C202.2,478.6,202,495.9,202,496.1z"/>
	</g>
	<g>
		<path class="st3" d="M308.3,47.2l36.3,401.4c0.6,6.3-4.1,11.9-10.4,12.5L112,481.2c-3.2,0.3-6.2-0.8-8.4-2.7
			c-2.2-1.9-3.8-4.6-4-7.7L63.3,69.3c-0.6-6.3,4.1-11.9,10.4-12.5l222.2-20.1C302.1,36.3,307.7,40.9,308.3,47.2z"/>
	</g>
	<g>
		<path class="st4" d="M319.3,423.6l-199.5,18c-5.5,0.5-10.4-3.6-10.9-9.1l-31-343.7c-0.5-5.5,3.6-10.4,9.1-10.9l199.5-18
			c5.5-0.5,10.4,3.6,10.9,9.1l31,343.7C329,418.2,324.9,423.1,319.3,423.6z"/>
	</g>
	<g>
		<path class="st4" d="M156.2,63c-1.7,0-3.2-1.3-3.3-3.1c-0.1-0.9,0.2-1.8,0.8-2.5s1.4-1.1,2.3-1.2l59-5.3c0.9-0.1,1.8,0.2,2.5,0.8
			s1.1,1.4,1.2,2.3c0.2,1.8-1.2,3.5-3,3.7l-59,5.3C156.4,63,156.3,63,156.2,63z M215.2,51.9c-0.1,0-0.1,0-0.2,0l-59,5.3
			c-0.6,0.1-1.2,0.4-1.6,0.8c-0.4,0.5-0.6,1.1-0.5,1.7c0.1,1.3,1.3,2.3,2.6,2.1l59-5.3c1.3-0.1,2.3-1.3,2.1-2.6
			c-0.1-0.6-0.4-1.2-0.8-1.6C216.3,52.1,215.7,51.9,215.2,51.9z"/>
	</g>
	<g>
		<path class="st1" d="M40.3,210.3c-4.2,0-4.9-0.7-5.1-0.8l0.3-0.9c0.1,0,5.4,2.4,9.9-0.4c1.5-0.9,2.3-2.4,2.6-4.4
			c0.5-5.1,2.9-30.9-4.7-37.4c-1.7-1.5-3.8-1.8-6.3-1.2l-0.3-1c2.8-0.8,5.3-0.3,7.2,1.4c7.8,6.7,5.9,31,5.1,38.3
			c-0.3,2.4-1.3,4.1-3,5.2C44.3,210,42.3,210.3,40.3,210.3z"/>
	</g>
	<g>
		<path class="st5" d="M301.9,339.3c-2.2-2.9-6.4-4.3-9.7-2.7c-0.4-1.5-0.7-3.1-1.5-4.4c-1.3-2.3-3.8-3.8-6.3-4.3
			c-2.6-0.5-5.3-0.1-7.8,0.8c-1,0.4-2.1,0.9-2.7,1.8c-1.5-2.1-3.9-3.6-6.5-4.1c-1.9-0.3-3.9-0.1-5.7,0.6l2.9,26.8l38.9-4.1
			C304.3,346.1,304.1,342.1,301.9,339.3z"/>
		<path class="st5" d="M131.1,357.4c1.6-3.3,5.4-5.5,8.9-4.6c0-1.6,0.1-3.1,0.5-4.6c0.8-2.5,2.9-4.5,5.3-5.6
			c2.4-1.1,5.2-1.3,7.8-0.9c1.1,0.2,2.2,0.4,3,1.2c1-2.4,3.1-4.4,5.5-5.4c1.8-0.7,3.8-0.9,5.7-0.6l2.9,26.8l-38.9,4.1
			C130.1,364.6,129.5,360.7,131.1,357.4z"/>
		<g>
			<path class="st6" d="M291.7,314.3c1.5-2.5,3-5,4.4-7.5"/>
			<g>
				<path class="st7" d="M293.6,315.4c1.5-2.5,3-5,4.4-7.5c1.5-2.5-2.4-4.7-3.8-2.2c-1.5,2.5-3,5-4.4,7.5
					C288.3,315.6,292.2,317.9,293.6,315.4L293.6,315.4z"/>
			</g>
		</g>
		<g>
			<path class="st6" d="M306.7,323.9c1.5-1.4,2.9-2.7,4.4-4.1"/>
			<g>
				<path class="st7" d="M308.3,325.5c1.5-1.4,2.9-2.7,4.4-4.1c2.1-1.9-1-5.1-3.1-3.1c-1.5,1.4-2.9,2.7-4.4,4.1
					C303,324.3,306.2,327.4,308.3,325.5L308.3,325.5z"/>
			</g>
		</g>
		<g>
			<path class="st6" d="M132.9,331.2c-2-2.1-3.9-4.2-5.9-6.4"/>
			<g>
				<path class="st7" d="M134.5,329.6c-2-2.1-3.9-4.2-5.9-6.4c-2-2.1-5.1,1-3.1,3.1s3.9,4.2,5.9,6.4
					C133.3,334.9,136.4,331.7,134.5,329.6L134.5,329.6z"/>
			</g>
		</g>
		<g>
			<path class="st6" d="M120.3,343.8c-1.7-1-3.4-2-5.1-3"/>
			<g>
				<path class="st7" d="M121.4,341.8c-1.7-1-3.4-2-5.1-3c-2.5-1.5-4.7,2.4-2.2,3.8c1.7,1,3.4,2,5.1,3
					C121.6,347.1,123.9,343.3,121.4,341.8L121.4,341.8z"/>
			</g>
		</g>
	</g>
	<g>
		<path class="st2" d="M344.7,260.8c15.6-11.5,39.1,25.8,12,43.6c-27.1,17.8-42.6,16.4-51.1-3.6
			C301.1,290.4,344.7,260.8,344.7,260.8z"/>
	</g>
	<g>
		<path class="st1" d="M319.5,314.6c-2.1,0-4.2-0.9-5.5-2.6l-5.5-6.8c-2.1-2.6-2.2-6.4-0.1-9c5.7-7.2,16.6-19.3,26-20.4
			c2.9-0.3,5.4,0.4,7.6,2.2c3.7,3.1,5.2,7.3,4.3,12.2c-1.9,9.7-12.6,20.2-24.4,23.9C321,314.5,320.3,314.6,319.5,314.6z
			 M335.6,276.8c-0.4,0-0.8,0-1.1,0.1c-9.1,1-19.8,12.9-25.3,20c-1.8,2.2-1.7,5.5,0.1,7.7l5.5,6.8c1.6,2,4.2,2.7,6.7,2
			c11.3-3.6,22-14,23.8-23.2c0.9-4.6-0.5-8.5-3.9-11.3C339.7,277.5,337.8,276.8,335.6,276.8z"/>
	</g>
	<g class="st8">
		<path class="st9" d="M309.8,64l16.3,181l-113,227L112,481.2c-3.2,0.3-6.2-0.8-8.4-2.7L309.8,64z"/>
	</g>
	<g>
		<path class="st10" d="M297.4,69l0.6,7.1L78.5,95.9l-0.6-7.1c-0.5-5.5,3.6-10.4,9.1-10.9l199.5-18C292,59.4,296.9,63.5,297.4,69z"
			/>
	</g>
	<path class="st2" d="M323.1,142.9c11.3-16.9,47.8,11.6,27.4,38.9s-36.3,31.4-51.9,14.6C290.5,187.7,323.1,142.9,323.1,142.9z"/>
	<g>
		<path class="st1" d="M314.5,204.5c-2.1,0-4.2-0.5-6-1.7l-2.4-1.4c-4.8-2.9-6.9-8.8-5-14.1c4.3-11.7,13.4-30.7,25.5-26.4
			c4.5,1.6,7.4,5,8.4,9.7c1.9,9-3.5,22.3-12.6,30.8C320.2,203.5,317.3,204.5,314.5,204.5z M308.9,202c4.1,2.4,9.3,1.9,12.7-1.3
			c8.8-8.3,14.1-21.1,12.3-29.8c-0.9-4.4-3.6-7.5-7.8-9c-11.3-4-20,14.4-24.2,25.8c-1.8,4.8,0.1,10.3,4.5,12.9L308.9,202z"/>
	</g>
	<g>
		<path class="st2" d="M340.1,196.2c13.5-15.3,45.9,17.8,22,42.2s-40.2,26.3-53.4,7.7C301.9,236.3,340.1,196.2,340.1,196.2z"/>
	</g>
	<g>
		<path class="st1" d="M324.8,256.8c-2.1,0-4.1-0.7-5.8-2l-5.1-4.1c-3.4-2.7-4.5-7.5-2.5-11.5c4.1-8.2,12.4-22.4,21.6-25.3
			c2.8-0.9,5.6-0.7,8.2,0.6c4.4,2.3,6.9,6.2,7.1,11.3c0.4,9.9-7.8,22.9-18.6,29.7C328.1,256.4,326.4,256.8,324.8,256.8z
			 M336.4,214.4c-1,0-2.1,0.2-3.1,0.5c-8.8,2.9-16.9,16.8-21,24.8c-1.8,3.5-0.8,7.8,2.2,10.2l5.1,4.1c2.7,2.2,6.5,2.4,9.4,0.6
			c10.6-6.6,18.6-19.2,18.2-28.8c-0.2-4.7-2.5-8.3-6.5-10.4C339.3,214.7,337.8,214.4,336.4,214.4z"/>
	</g>
	<g>
		<path class="st4" d="M281.5,74.3L262.1,76c-0.9,0.1-1.6-0.6-1.7-1.4l-0.4-4.5c-0.1-0.9,0.6-1.6,1.4-1.7l19.4-1.8
			c0.9-0.1,1.6,0.6,1.7,1.4l0.4,4.5C283,73.4,282.4,74.2,281.5,74.3z"/>
	</g>
	<g>
		<path class="st4" d="M258.6,75.5l-1.7,0.2c-0.3,0-0.5-0.2-0.5-0.4l-0.5-5c0-0.3,0.2-0.5,0.4-0.5l1.7-0.2c0.3,0,0.5,0.2,0.5,0.4
			l0.5,5C259,75.2,258.8,75.5,258.6,75.5z"/>
	</g>
	<g>
		<path class="st4" d="M243,76.9l-1.2,0.1c-0.1,0-0.3-0.1-0.3-0.2l-0.2-2.4c0-0.1,0.1-0.3,0.2-0.3l1.2-0.1c0.1,0,0.3,0.1,0.3,0.2
			l0.2,2.4C243.2,76.8,243.1,76.9,243,76.9z"/>
	</g>
	<g>
		<path class="st4" d="M245.5,76.7l-1.1,0.1c-0.2,0-0.3-0.1-0.3-0.3l-0.3-3.5c0-0.2,0.1-0.3,0.3-0.3l1.1-0.1c0.2,0,0.3,0.1,0.3,0.3
			l0.3,3.5C245.8,76.5,245.7,76.7,245.5,76.7z"/>
	</g>
	<g>
		<path class="st4" d="M248.1,76.4l-1,0.1c-0.2,0-0.4-0.1-0.4-0.3l-0.5-5c0-0.2,0.1-0.4,0.3-0.4l1-0.1c0.2,0,0.4,0.1,0.4,0.3l0.5,5
			C248.5,76.2,248.3,76.4,248.1,76.4z"/>
	</g>
	<g>
		<path class="st4" d="M250.8,76.2l-0.9,0.1c-0.2,0-0.4-0.1-0.4-0.4l-0.5-6c0-0.2,0.1-0.4,0.4-0.4l0.9-0.1c0.2,0,0.4,0.1,0.4,0.4
			l0.5,6C251.2,76,251,76.2,250.8,76.2z"/>
	</g>
	<g>
		
			<ellipse transform="matrix(0.9959 -8.994042e-02 8.994042e-02 0.9959 -7.4643 8.9516)" class="st4" cx="95.6" cy="87.3" rx="2.9" ry="2.9"/>
	</g>
	<g>
		
			<ellipse transform="matrix(0.9959 -8.995714e-02 8.995714e-02 0.9959 -7.3708 9.6522)" class="st4" cx="103.4" cy="86.6" rx="2.9" ry="2.9"/>
	</g>
	<g>
		
			<ellipse transform="matrix(0.9959 -8.995714e-02 8.995714e-02 0.9959 -7.2759 10.351)" class="st4" cx="111.2" cy="85.9" rx="2.9" ry="2.9"/>
	</g>
	<g>
		
			<ellipse transform="matrix(0.9959 -8.994035e-02 8.994035e-02 0.9959 -7.181 11.0387)" class="st4" cx="118.9" cy="85.2" rx="2.9" ry="2.9"/>
	</g>
	<g>
		<g>
			<path class="st4" d="M176.5,83.7l-3.8,0.3c-0.4,0-0.8-0.3-0.8-0.7l-0.6-6.1c0-0.4,0.3-0.8,0.7-0.8l3.8-0.3c0.4,0,0.8,0.3,0.8,0.7
				l0.6,6.1C177.2,83.3,176.9,83.7,176.5,83.7z"/>
		</g>
		<g>
			<path class="st4" d="M183.2,83.1l-3.8,0.3c-0.4,0-0.8-0.3-0.8-0.7l-0.6-6.1c0-0.4,0.3-0.8,0.7-0.8l3.8-0.3c0.4,0,0.8,0.3,0.8,0.7
				l0.6,6.1C184,82.7,183.7,83.1,183.2,83.1z"/>
		</g>
		<g>
			<path class="st4" d="M196.6,81.9l-3.8,0.3c-0.4,0-0.8-0.3-0.8-0.7l-0.6-6.1c0-0.4,0.3-0.8,0.7-0.8l3.8-0.3c0.4,0,0.8,0.3,0.8,0.7
				l0.6,6.1C197.3,81.5,197,81.9,196.6,81.9z"/>
		</g>
		<g>
			<path class="st4" d="M203.3,81.3l-3.8,0.3c-0.4,0-0.8-0.3-0.8-0.7l-0.6-6.1c0-0.4,0.3-0.8,0.7-0.8l3.8-0.3c0.4,0,0.8,0.3,0.8,0.7
				l0.6,6.1C204,80.9,203.7,81.3,203.3,81.3z"/>
		</g>
		<g>
			
				<ellipse transform="matrix(0.9959 -8.993167e-02 8.993167e-02 0.9959 -6.1917 17.1748)" class="st4" cx="187.5" cy="77.3" rx="1.2" ry="1.2"/>
		</g>
		<g>
			
				<ellipse transform="matrix(0.9959 -8.997265e-02 8.997265e-02 0.9959 -6.4718 17.222)" class="st4" cx="187.8" cy="80.4" rx="1.2" ry="1.2"/>
		</g>
	</g>
	<g>
		<g class="st11">
			<g class="st12">
				<g>
					<g>
						<path class="st13" d="M133.8,341.8c0,0,0-0.1-0.1-0.1c0,0-1.1-2-2.7-3.8c-1.6-1.8-2.6-3.7-7-2c-4.3,1.6-4.1,4.2-4.1,5.9
							c0,1.7,0.5,4.7,0.5,4.7c2.1,7.2,6.8,11.7,9.5,12c0.4,0,0.8,0.3,0.9,0.7c2,6.8,10.6,37.8,11.2,39.4c1.3,3.6,4.6,5.6,7.3,4.6
							s3.8-4.7,2.5-8.3c-0.6-1.7-14.3-30.5-17.3-37.1c-0.2-0.4-0.1-0.9,0.2-1.2C139.1,351.9,134.2,342.4,133.8,341.8z"/>
					</g>
				</g>
				<g>
					<path class="st13" d="M291.2,327.4v-0.1l5.1-25.5c0.1-0.4,0.4-0.6,0.8-0.5h0.1l0.6,0.1c0.6,0.1,1,0.6,0.9,1.2l-3,22.7
						c-0.1,0.6,0.1,1.1,0.7,1.2s0.8-0.4,0.9-1l3.5-22.6c0.1-0.6,0.6-1,1.2-0.9l0,0c0.6,0.1,1,0.6,0.9,1.2l-3,22.7
						c-0.1,0.6,0.1,1.1,0.7,1.2s0.8-0.4,0.9-1l3.5-22.6c0.1-0.6,0.6-1,1.2-0.9l0.7,0.1c0,0,0.7,0.4,0.6,0.8l-2.3,25.7
						c-0.5,7.5-3.8,10.1-6.4,11c-0.4,0.1-0.7,0.5-0.7,0.9c-0.5,7.1-2.2,39.1-2.5,40.9c-0.5,3.8-3.3,6.5-6.2,6.1
						c-2.9-0.4-4.8-3.8-4.2-7.6c0.2-1.8,7.4-32.9,9-39.9c0.1-0.4-0.1-0.9-0.5-1.1C288.5,335.7,291,328.1,291.2,327.4z"/>
				</g>
			</g>
		</g>
		<g>
			<g>
				<path class="st13" d="M278.7,295.7c-0.6-3.3-1.3-6.7-1.9-10c-1.6-8.5-3.2-17-4.8-25.5c-1-5.2-2.2-10.4-2.6-15.7
					c-0.5-7.3,0.1-14.7-0.5-22c-0.5-5.4-1.6-10.8-3.3-16c-1.5-4.5-3.5-9-7-12.2c-1-1-2.2-1.8-3.4-2.5c-4.9-2.8-11.1-3.5-16.8-2.6
					c-0.7,0.1-1.6,0.3-1.9,1c-0.2,0.3-0.2,0.7-0.2,1.1c-0.1,6.7-0.2,13.4-0.3,20.1c5.2-0.1,9.7,4.2,11.5,9.1c1.7,4.9,0.7,5.9-0.3,11
					s-2.4,10.2-4.8,14.9c-1.8,3.6-3.1,8-7.8,8.5c0,0-4.6,0.5-11,1.2c-14.5,1.6-38.1,4.1-38.1,4.1c-6.4,0.7-11,1.2-11,1.2
					c-4.7,0.5-6.9-3.5-9.4-6.6c-3.3-4-5.8-8.7-7.8-13.5c-2.1-4.8-3.3-5.5-2.6-10.7c0.6-5.2,4.1-10.3,9.2-11.4c0,0-2.1-9.8-2.3-10.7
					c-0.7-3.8-1.1-7.7-0.9-11.6c0-1.1,0.1-2.2-0.2-3.3c-1.4,1.4-2.8,2.9-4.3,4.3c-1.6,1.6-3.1,3.2-4.7,4.8c-0.7,0.7-1.7,1.4-2.3,2.3
					c-0.4,0.5-0.6,1.1-1,1.6c-2.1,2.8-4.8,5.8-8.1,7.1c-1.3,0.5-2.7,0.8-3.8,1.7c-2.7,2.1-2.4,6.4-2.6,9.5c-0.2,4.2,0,8.4,0.5,12.5
					c1,7.3,3.1,14.3,4.2,21.6c0.8,5.3,0.7,10.6,0.9,15.9c0.2,8.6,0.5,17.3,0.7,25.9c0.1,3.4,0.2,6.8,0.3,10.2c0,0.2,0,0.5,0.1,0.7
					l6.6,46.2c0.5,3.9,4,6.6,7.8,6.2l41.5-4.5l38.1-4.1l41.5-4.5c3.9-0.4,6.7-3.9,6.3-7.7l-3.4-46.5
					C278.7,296.1,278.7,295.9,278.7,295.7z"/>
				<g>
					<path class="st14" d="M169,341.7c3.4,4.5,7.5,8.7,12.2,11.8c4.8,3.1,10.3,5.1,16,5.2"/>
					<line class="st14" x1="150.5" y1="285.8" x2="155" y2="328.2"/>
				</g>
				<path class="st15" d="M163.1,352.8c-5.3-3.1-9.1-8.7-9.9-14.9"/>
				<g>
					<path class="st4" d="M209.6,111.2c-1.1,6.9-0.1,17.4,0.6,24.3c0.4,4.1,1.1,8.2,2.3,12.1c2.3,7.3,6.5,14,11.8,19.5
						c2.9,3.1,6.1,5.9,8.1,9.6c1.9,3.7,2.4,7.9,2.8,12c0.7,7.7,3.4,28.5-7.7,30.6c-3.1,0.6-5.6-1.7-8.5-2.5c-1.4-0.4-3-0.4-4.2,0.5
						c-1.6,1.3-2.5,2.6-4.7,3s-4.2-0.2-6.1-1.3c-1.8-1.1-4.8-1.3-6.1,0.5c-1.5,2.1-2.7,3.8-5.4,4.3c-2.8,0.6-5.2-0.5-7.3-2.3
						c-4.8-4-8.5,3.3-12.8,3.8c-4.4,0.5-8.5-3-9.6-8h-0.1l-2.7-24.6c-1.1,1.2-2.1,2.4-3.2,3.5c0,0-13.3,14.6-13.3,14.7
						c-0.3,0.3-0.6,0.6-0.9,0.8c-0.1,0.1-0.1,0.1-0.2,0.2c-0.7,0.5-1.4,1-2.2,1.3c-0.1,0-0.1,0-0.2,0.1c-0.4,0.2-0.8,0.3-1.2,0.5
						c-3,1-6.1,1.3-8.7-0.9c-0.3-0.3-0.7-0.6-0.8-1c-0.3-1.1,0.6-2.1,1.4-2.9c4.1-4,7.7-8.5,10.5-13.5c2.8-4.8,4.4-10.1,7-15
						c3.4-6.5,6.4-13.1,11.4-18.6c2.2-2.5,4.8-4.9,6-8c1.3-3.3,0.9-7,0.6-10.5c-0.7-6.9-2-19.4-2.8-26.2"/>
					<path class="st16" d="M209.6,111.2c-1.1,6.9-0.1,17.4,0.6,24.3c0.4,4.1,1.1,8.2,2.3,12.1c2.3,7.3,6.5,14,11.8,19.5
						c2.9,3.1,6.1,5.9,8.1,9.6c1.9,3.7,2.4,7.9,2.8,12c0.7,7.7,3.4,28.5-7.7,30.6c-3.1,0.6-5.6-1.7-8.5-2.5c-1.4-0.4-3-0.4-4.2,0.5
						c-1.6,1.3-2.5,2.6-4.7,3s-4.2-0.2-6.1-1.3c-1.8-1.1-4.8-1.3-6.1,0.5c-1.5,2.1-2.7,3.8-5.4,4.3c-2.8,0.6-5.2-0.5-7.3-2.3
						c-4.8-4-8.5,3.3-12.8,3.8c-4.4,0.5-8.5-3-9.6-8h-0.1l-2.7-24.6c-1.1,1.2-2.1,2.4-3.2,3.5c0,0-13.3,14.6-13.3,14.7
						c-0.3,0.3-0.6,0.6-0.9,0.8c-0.1,0.1-0.1,0.1-0.2,0.2c-0.7,0.5-1.4,1-2.2,1.3c-0.1,0-0.1,0-0.2,0.1c-0.4,0.2-0.8,0.3-1.2,0.5
						c-3,1-6.1,1.3-8.7-0.9c-0.3-0.3-0.7-0.6-0.8-1c-0.3-1.1,0.6-2.1,1.4-2.9c4.1-4,7.7-8.5,10.5-13.5c2.8-4.8,4.4-10.1,7-15
						c3.4-6.5,6.4-13.1,11.4-18.6c2.2-2.5,4.8-4.9,6-8c1.3-3.3,0.9-7,0.6-10.5c-0.7-6.9-2-19.4-2.8-26.2"/>
					<path class="st16" d="M220.5,178.9c6.2,6.7,9.1,16.4,7.4,25.3"/>
				</g>
				<g>
					<path class="st14" d="M257.2,332.1c-2.4,5.2-5.4,10.1-9.4,14.1c-4,4.1-9,7.2-14.5,8.5"/>
					<line class="st14" x1="263.3" y1="273.6" x2="267.9" y2="315.9"/>
				</g>
				<path class="st17" d="M278.7,295.7c-0.6-3.3-1.3-6.7-1.9-10c-1.6-8.5-3.2-17-4.8-25.5c-1-5.2-2.2-10.4-2.6-15.7
					c-0.5-7.3,0.1-14.7-0.5-22c-0.5-5.4-1.6-10.8-3.3-16c-1.5-4.5-3.5-9-7-12.2c-1-1-2.2-1.8-3.4-2.5c-4.9-2.8-11.1-3.5-16.8-2.6
					c-0.7,0.1-1.6,0.3-1.9,1c-0.2,0.3-0.2,0.7-0.2,1.1c-0.1,6.7-0.2,13.4-0.3,20.1c5.2-0.1,9.7,4.2,11.5,9.1c1.7,4.9,0.7,5.9-0.3,11
					s-2.4,10.2-4.8,14.9c-1.8,3.6-3.1,8-7.8,8.5c0,0-4.6,0.5-11,1.2c-14.5,1.6-38.1,4.1-38.1,4.1c-6.4,0.7-11,1.2-11,1.2
					c-4.7,0.5-6.9-3.5-9.4-6.6c-3.3-4-5.8-8.7-7.8-13.5c-2.1-4.8-3.3-5.5-2.6-10.7c0.6-5.2,4.1-10.3,9.2-11.4c0,0-2.1-9.8-2.3-10.7
					c-0.7-3.8-1.1-7.7-0.9-11.6c0-1.1,0.1-2.2-0.2-3.3c-1.4,1.4-2.8,2.9-4.3,4.3c-1.6,1.6-3.1,3.2-4.7,4.8c-0.7,0.7-1.7,1.4-2.3,2.3
					c-0.4,0.5-0.6,1.1-1,1.6c-2.1,2.8-4.8,5.8-8.1,7.1c-1.3,0.5-2.7,0.8-3.8,1.7c-2.7,2.1-2.4,6.4-2.6,9.5c-0.2,4.2,0,8.4,0.5,12.5
					c1,7.3,3.1,14.3,4.2,21.6c0.8,5.3,0.7,10.6,0.9,15.9c0.2,8.6,0.5,17.3,0.7,25.9c0.1,3.4,0.2,6.8,0.3,10.2c0,0.2,0,0.5,0.1,0.7
					l6.6,46.2c0.5,3.9,4,6.6,7.8,6.2l41.5-4.5l38.1-4.1l41.5-4.5c3.9-0.4,6.7-3.9,6.3-7.7l-3.4-46.5
					C278.7,296.1,278.7,295.9,278.7,295.7z"/>
				<path class="st14" d="M163.1,352.8c-5.3-3.1-9.1-8.7-9.9-14.9"/>
				<path class="st14" d="M265.2,341.7c4.6-4.2,7-10.5,6.5-16.6"/>
			</g>
			<g>
				
					<rect x="179.6" y="278.3" transform="matrix(0.9942 -0.1077 0.1077 0.9942 -31.9938 24.6863)" class="st18" width="65.9" height="60.5"/>
				<text transform="matrix(0.9942 -0.1077 0.1077 0.9942 181.1187 306.4406)" class="st4 st19 st20">TAK</text>
				<text transform="matrix(0.9942 -0.1077 0.1077 0.9942 225.1618 301.6695)" class="st4 st19 st20 st21">E</text>
				<text transform="matrix(0.9942 -0.1077 0.1077 0.9942 194.4856 336.9792)" class="st4 st19 st20">OUT</text>
			</g>
		</g>
	</g>
	<g>
		<path class="st2" d="M494.6,500.3c-7-16.3-21.8-48.2-35.7-61.6c-19.2-18.4-34.6-7-34.6-7c-22.2-17.7-33.9-1.4-33.9-1.4
			c-20.6-14.1-23.1-9.5-40.6,1.4c-35.7-47.1-81.5-97.5-93.6-90.1c-5.3,3.2-7.9,6.3-8.9,9.7c-3,10.8,5.8,22.9,10.6,29.1
			c37.4,48.1,61.2,79.1,71.2,97.9c1,2,11.3,21.7,11.4,21.7"/>
		<g>
			<path class="st7" d="M282.3,371.6c-3.8,0-8.3-1.4-12.5-4.1c-5.3-3.4-15.8-16.3-16.2-16.9l0.8-0.6c0.1,0.1,10.9,13.3,16,16.7
				c7.3,4.7,13.8,4.7,17.1,2.7c1.9-1.2,2.8-3.2,2.5-5.6l1-0.1c0.3,2.8-0.7,5.2-3,6.6C286.4,371.1,284.4,371.6,282.3,371.6z"/>
		</g>
		<g>
			<path class="st2" d="M290.5,500.3l0.7-4.7c2.8-10.6,12.1-22,36.9,4.7"/>
		</g>
		<g>
			<path class="st7" d="M314.9,500.4c-1-4.1-5.2-10.4-5.9-11.5c-8.8-1.7-17.4,7-17.4,7.1l-0.7-0.7c0.4-0.4,9.1-9.2,18.6-7.3h0.2
				l0.1,0.2c0.2,0.3,5.1,7.4,6.2,12L314.9,500.4z"/>
		</g>
	</g>
</g>
</svg>
