<?xml version="1.0" encoding="utf-8"?>
<!-- Generator: Adobe Illustrator 21.1.0, SVG Export Plug-In . SVG Version: 6.00 Build 0)  -->
<svg version="1.1" id="圖層_1" xmlns="http://www.w3.org/2000/svg" xmlns:xlink="http://www.w3.org/1999/xlink" x="0px" y="0px"
	 viewBox="0 0 2238 972" style="enable-background:new 0 0 2238 972;" xml:space="preserve">
<style type="text/css">
	.st0{fill:#D3442D;}
	.st1{fill:#FF8754;}
</style>
<g>
	<path class="st0" d="M857.7,163.6c-7.7,0-15-1.3-21.7-4.1c-11.1-5.5-21.1-11.3-30.8-16.9c-24.3-14-47.2-27.2-78-30.6
		c-38.8-6.7-66.4,8.7-95.5,24.9c-10.9,6.1-22.2,12.5-34.4,17.7c-23.2,10.1-52,10.1-75.2,0c-5.1-2.7-10.1-5.3-15.1-8
		c-51.1-27.3-108.9-58.2-161-16.3c-1.9,1.6-4.8,1.3-6.3-0.7c-1.6-1.9-1.3-4.8,0.7-6.3c56.7-45.7,120-11.8,170.9,15.4
		c5,2.7,9.9,5.3,14.7,7.8c20.7,9,46.7,9,67.7-0.1c11.7-5.1,22.8-11.3,33.5-17.3c29.2-16.3,59.4-33.3,101.1-26
		c32.4,3.5,56.1,17.2,81.2,31.7c9.6,5.5,19.5,11.2,30.1,16.5c25.4,11,65.1-7.2,103.4-24.7c32.7-15,66.6-30.6,93.1-28.3
		c25.6,3.2,46.3,16.2,66.2,28.8c11.6,7.3,22.5,14.2,34.3,19.3c48.4,18.7,97.7-6.6,130.5-31c2-1.5,4.8-1.1,6.3,0.9s1.1,4.8-0.9,6.3
		c-49.7,37-97.8,48.1-139.3,32.1c-12.6-5.5-24.3-12.9-35.6-20c-19.1-12.1-38.9-24.6-62.4-27.5c-24-2.1-56.7,13-88.4,27.5
		C915.9,149,884.1,163.6,857.7,163.6z"/>
</g>
<g>
	<path class="st1" d="M1477.4,235.7c-7.7,0-15-1.3-21.7-4.1c-11.1-5.5-21.1-11.3-30.8-16.9c-24.3-14-47.2-27.2-78-30.6
		c-38.8-6.7-66.4,8.6-95.5,24.9c-10.9,6.1-22.2,12.5-34.4,17.7c-23.2,10.1-52,10.1-75.2,0c-5.1-2.7-10.1-5.3-15.1-8
		c-51.1-27.3-108.9-58.2-161-16.3c-1.9,1.6-4.8,1.3-6.3-0.7c-1.6-1.9-1.3-4.8,0.7-6.3c56.7-45.7,120-11.8,170.9,15.4
		c5,2.7,9.9,5.3,14.7,7.8c20.7,9,46.7,9,67.7-0.1c11.7-5.1,22.8-11.3,33.5-17.3c29.2-16.3,59.4-33.3,101.1-26
		c32.4,3.5,56.1,17.2,81.2,31.7c9.6,5.5,19.5,11.2,30.1,16.5c25.4,11,65.1-7.2,103.4-24.7c32.7-15,66.7-30.6,93.1-28.3
		c25.6,3.2,46.3,16.2,66.2,28.8c11.6,7.3,22.5,14.2,34.3,19.3c48.4,18.7,97.7-6.6,130.5-31c2-1.5,4.8-1.1,6.3,0.9s1.1,4.8-0.9,6.3
		c-49.7,37-97.8,48.1-139.3,32.1c-12.6-5.5-24.3-12.9-35.6-20c-19.1-12.1-38.9-24.6-62.4-27.5c-24-2.1-56.8,13-88.4,27.5
		C1535.7,221.1,1503.8,235.7,1477.4,235.7z"/>
</g>
<g>
	<path class="st1" d="M541.7,307.8c-7.7,0-15-1.3-21.7-4.1c-11.1-5.5-21.1-11.3-30.8-16.9c-24.3-14-47.2-27.2-78-30.6
		c-38.9-6.7-66.4,8.7-95.5,24.9c-10.9,6.1-22.2,12.5-34.4,17.7c-23.2,10.1-52,10.1-75.2,0c-5.1-2.7-10.1-5.3-15.1-8
		c-51.1-27.3-108.9-58.2-161-16.3c-1.9,1.6-4.8,1.3-6.3-0.7c-1.6-1.9-1.3-4.8,0.7-6.3c56.7-45.7,120-11.8,170.9,15.4
		c5,2.7,9.9,5.3,14.7,7.8c20.7,9,46.7,9,67.7-0.1c11.7-5.1,22.8-11.3,33.5-17.3c29.2-16.3,59.4-33.2,101.1-26
		c32.4,3.5,56.1,17.2,81.2,31.7c9.6,5.5,19.5,11.2,30.1,16.5c25.4,11,65.1-7.2,103.4-24.7c32.7-15,66.7-30.6,93.1-28.3
		c25.6,3.2,46.3,16.2,66.2,28.8c11.6,7.3,22.5,14.2,34.3,19.3c48.4,18.7,97.7-6.6,130.5-31c2-1.5,4.8-1.1,6.3,0.9s1.1,4.8-0.9,6.3
		c-49.7,37-97.8,48.1-139.3,32.1c-12.6-5.5-24.3-12.9-35.6-20c-19.1-12.1-38.9-24.6-62.4-27.5c-24-2.1-56.8,13-88.4,27.5
		C600,293.2,568.1,307.8,541.7,307.8z"/>
</g>
<g>
	<path class="st0" d="M1793.4,379.9c-7.7,0-15-1.3-21.7-4.1c-11.1-5.5-21.1-11.3-30.8-16.9c-24.3-14-47.2-27.2-78-30.6
		c-38.9-6.7-66.4,8.7-95.5,24.9c-10.9,6.1-22.2,12.5-34.4,17.7c-23.2,10.1-52,10.1-75.2,0c-5.1-2.7-10.1-5.3-15.1-8
		c-51.1-27.3-108.9-58.2-161-16.3c-1.9,1.6-4.8,1.3-6.3-0.7c-1.6-1.9-1.3-4.8,0.7-6.3c56.7-45.7,120-11.8,170.9,15.4
		c5,2.7,9.9,5.3,14.7,7.8c20.7,9,46.7,9,67.7-0.1c11.7-5.1,22.8-11.3,33.5-17.3c29.2-16.3,59.4-33.2,101.1-26
		c32.4,3.5,56.1,17.2,81.2,31.7c9.6,5.5,19.5,11.2,30.1,16.5c25.4,11,65.1-7.2,103.4-24.7c32.7-15,66.6-30.6,93.1-28.3
		c25.6,3.2,46.3,16.2,66.2,28.8c11.6,7.3,22.5,14.2,34.3,19.3c48.4,18.7,97.7-6.6,130.5-31c2-1.5,4.8-1.1,6.3,0.9s1.1,4.8-0.9,6.3
		c-49.7,37-97.8,48.1-139.3,32.1c-12.6-5.5-24.3-12.9-35.6-20c-19.1-12.1-38.9-24.6-62.4-27.5c-24-2-56.7,13-88.4,27.5
		C1851.7,365.3,1819.8,379.9,1793.4,379.9z"/>
</g>
<g>
	<path class="st1" d="M857.7,452.1c-7.7,0-15-1.3-21.7-4.1c-11.1-5.5-21.1-11.3-30.8-16.9c-24.3-14-47.2-27.2-78-30.6
		c-38.8-6.7-66.4,8.6-95.5,24.9c-10.9,6.1-22.2,12.5-34.4,17.7c-23.2,10.1-52,10.1-75.2,0c-5.1-2.7-10.1-5.3-15.1-8
		c-51-27.3-108.9-58.2-161-16.3c-1.9,1.6-4.8,1.3-6.3-0.7c-1.6-1.9-1.3-4.8,0.7-6.3c56.7-45.7,120-11.8,170.9,15.4
		c5,2.7,9.9,5.3,14.7,7.8c20.7,9,46.7,9,67.7-0.1c11.7-5.1,22.8-11.3,33.5-17.3c29.2-16.3,59.4-33.3,101.1-26
		c32.4,3.5,56.1,17.2,81.2,31.7c9.6,5.5,19.5,11.2,30.1,16.5c25.4,11,65.1-7.2,103.4-24.7c32.7-15,66.6-30.6,93.1-28.3
		c25.6,3.2,46.3,16.2,66.2,28.8c11.6,7.3,22.5,14.2,34.3,19.3c48.4,18.7,97.7-6.6,130.5-31c2-1.5,4.8-1.1,6.3,0.9s1.1,4.8-0.9,6.3
		c-49.6,37-97.8,48.2-139.3,32.1c-12.6-5.5-24.3-12.9-35.6-20c-19.1-12.1-38.9-24.6-62.4-27.5c-24-2.1-56.7,13-88.4,27.5
		C915.9,437.4,884.1,452.1,857.7,452.1z"/>
</g>
<g>
	<path class="st0" d="M857.7,649.1c-7.7,0-15-1.3-21.7-4.1c-11.1-5.5-21.1-11.3-30.8-16.9c-24.3-14-47.2-27.2-78-30.6
		c-38.8-6.7-66.4,8.7-95.5,24.9c-10.9,6.1-22.2,12.5-34.4,17.7c-23.2,10.1-52,10.1-75.2,0c-5.1-2.7-10.1-5.3-15.1-8
		c-51.1-27.3-108.9-58.2-161-16.3c-1.9,1.6-4.8,1.3-6.3-0.7c-1.6-1.9-1.3-4.8,0.7-6.3c56.7-45.7,120-11.8,170.9,15.4
		c5,2.7,9.9,5.3,14.7,7.8c20.7,9,46.7,9,67.7-0.1c11.7-5.1,22.8-11.3,33.5-17.3c29.2-16.3,59.4-33.3,101.1-26
		c32.4,3.5,56.1,17.2,81.2,31.7c9.6,5.5,19.5,11.2,30.1,16.5c25.4,11,65.1-7.2,103.4-24.7c32.7-15,66.6-30.6,93.1-28.3
		c25.6,3.2,46.3,16.2,66.2,28.8c11.6,7.3,22.5,14.2,34.3,19.3c48.4,18.7,97.7-6.6,130.5-31c2-1.5,4.8-1.1,6.3,0.9s1.1,4.8-0.9,6.3
		c-49.7,37-97.8,48.1-139.3,32.1c-12.6-5.5-24.3-12.9-35.6-20c-19.1-12.1-38.9-24.6-62.4-27.5c-24-2.1-56.7,13-88.4,27.5
		C915.9,634.5,884.1,649.1,857.7,649.1z"/>
</g>
<g>
	<path class="st1" d="M1477.4,721.2c-7.7,0-15-1.3-21.7-4.1c-11.1-5.5-21.1-11.3-30.8-16.9c-24.3-14-47.2-27.2-78-30.6
		c-38.8-6.7-66.4,8.6-95.5,24.9c-10.9,6.1-22.2,12.5-34.4,17.7c-23.2,10.1-52,10.1-75.2,0c-5.1-2.7-10.1-5.3-15.1-8
		c-51.1-27.3-108.9-58.2-161-16.3c-1.9,1.6-4.8,1.3-6.3-0.7c-1.6-1.9-1.3-4.8,0.7-6.3c56.7-45.7,120-11.8,170.9,15.4
		c5,2.7,9.9,5.3,14.7,7.8c20.7,9,46.7,9,67.7-0.1c11.7-5.1,22.8-11.3,33.5-17.3c29.2-16.3,59.4-33.3,101.1-26
		c32.4,3.5,56.1,17.2,81.2,31.7c9.6,5.5,19.5,11.2,30.1,16.5c25.4,11,65.1-7.2,103.4-24.7c32.7-15,66.7-30.6,93.1-28.3
		c25.6,3.2,46.3,16.2,66.2,28.8c11.6,7.3,22.5,14.2,34.3,19.3c48.4,18.7,97.7-6.6,130.5-31c2-1.5,4.8-1.1,6.3,0.9s1.1,4.8-0.9,6.3
		c-49.7,37-97.8,48.1-139.3,32.1c-12.6-5.5-24.3-12.9-35.6-20c-19.1-12.1-38.9-24.6-62.4-27.5c-24-2.1-56.8,13-88.4,27.5
		C1535.7,706.6,1503.8,721.2,1477.4,721.2z"/>
</g>
<g>
	<path class="st1" d="M541.7,793.3c-7.7,0-15-1.3-21.7-4.1c-11.1-5.5-21.1-11.3-30.8-16.9c-24.3-14-47.2-27.2-78-30.6
		c-38.9-6.7-66.4,8.7-95.5,24.9c-10.9,6.1-22.2,12.5-34.4,17.7c-23.2,10.1-52,10.1-75.2,0c-5.1-2.7-10.1-5.3-15.1-8
		C139.9,749,82.1,718.1,30,760c-1.9,1.6-4.8,1.3-6.3-0.7c-1.6-1.9-1.3-4.8,0.7-6.3c56.7-45.7,120-11.8,170.9,15.4
		c5,2.7,9.9,5.3,14.7,7.8c20.7,9,46.7,9,67.7-0.1c11.7-5.1,22.8-11.3,33.5-17.3c29.2-16.3,59.4-33.2,101.1-26
		c32.4,3.5,56.1,17.2,81.2,31.7c9.6,5.5,19.5,11.2,30.1,16.5c25.4,11,65.1-7.2,103.4-24.7c32.7-15,66.7-30.6,93.1-28.3
		c25.6,3.2,46.3,16.2,66.2,28.8c11.6,7.3,22.5,14.2,34.3,19.3c48.4,18.7,97.7-6.6,130.5-31c2-1.5,4.8-1.1,6.3,0.9s1.1,4.8-0.9,6.3
		c-49.7,37-97.8,48.1-139.3,32.1c-12.6-5.5-24.3-12.9-35.6-20c-19.1-12.1-38.9-24.6-62.4-27.5c-24-2.1-56.8,13-88.4,27.5
		C600,778.7,568.1,793.3,541.7,793.3z"/>
</g>
<g>
	<path class="st0" d="M1793.4,865.4c-7.7,0-15-1.3-21.7-4.1c-11.1-5.5-21.1-11.3-30.8-16.9c-24.3-14-47.2-27.2-78-30.6
		c-38.9-6.7-66.4,8.7-95.5,24.9c-10.9,6.1-22.2,12.5-34.4,17.7c-23.2,10.1-52,10.1-75.2,0c-5.1-2.7-10.1-5.3-15.1-8
		c-51.1-27.3-108.9-58.2-161-16.3c-1.9,1.6-4.8,1.3-6.3-0.7c-1.6-1.9-1.3-4.8,0.7-6.3c56.7-45.7,120-11.8,170.9,15.4
		c5,2.7,9.9,5.3,14.7,7.8c20.7,9,46.7,9,67.7-0.1c11.7-5.1,22.8-11.3,33.5-17.3c29.2-16.3,59.4-33.2,101.1-26
		c32.4,3.5,56.1,17.2,81.2,31.7c9.6,5.5,19.5,11.2,30.1,16.5c25.4,11,65.1-7.2,103.4-24.7c32.7-15,66.6-30.6,93.1-28.3
		c25.6,3.2,46.3,16.2,66.2,28.8c11.6,7.3,22.5,14.2,34.3,19.3c48.4,18.7,97.7-6.6,130.5-31c2-1.5,4.8-1.1,6.3,0.9s1.1,4.8-0.9,6.3
		c-49.7,37-97.8,48.1-139.3,32.1c-12.6-5.5-24.3-12.9-35.6-20c-19.1-12.1-38.9-24.6-62.4-27.5c-24-2-56.7,13-88.4,27.5
		C1851.7,850.8,1819.8,865.4,1793.4,865.4z"/>
</g>
<g>
	<path class="st1" d="M857.7,937.6c-7.7,0-15-1.3-21.7-4.1c-11.1-5.5-21.1-11.3-30.8-16.9c-24.3-14-47.2-27.2-78-30.6
		c-38.8-6.7-66.4,8.6-95.5,24.9c-10.9,6.1-22.2,12.5-34.4,17.7c-23.2,10.1-52,10.1-75.2,0c-5.1-2.7-10.1-5.3-15.1-8
		c-51-27.3-108.9-58.2-161-16.3c-1.9,1.6-4.8,1.3-6.3-0.7c-1.6-1.9-1.3-4.8,0.7-6.3c56.7-45.7,120-11.8,170.9,15.4
		c5,2.7,9.9,5.3,14.7,7.8c20.7,9,46.7,9,67.7-0.1c11.7-5.1,22.8-11.3,33.5-17.3c29.2-16.3,59.4-33.3,101.1-26
		c32.4,3.5,56.1,17.2,81.2,31.7c9.6,5.5,19.5,11.2,30.1,16.5c25.4,11,65.1-7.2,103.4-24.7c32.7-15,66.6-30.6,93.1-28.3
		c25.6,3.2,46.3,16.2,66.2,28.8c11.6,7.3,22.5,14.2,34.3,19.3c48.4,18.7,97.7-6.6,130.5-31c2-1.5,4.8-1.1,6.3,0.9s1.1,4.8-0.9,6.3
		c-49.6,37-97.8,48.2-139.3,32.1c-12.6-5.5-24.3-12.9-35.6-20c-19.1-12.1-38.9-24.6-62.4-27.5c-24-2.1-56.7,13-88.4,27.5
		C915.9,922.9,884.1,937.6,857.7,937.6z"/>
</g>
</svg>
